<?xml version="1.0" encoding="utf-8" standalone="no"?>
<!DOCTYPE svg PUBLIC "-//W3C//DTD SVG 1.1//EN"
  "http://www.w3.org/Graphics/SVG/1.1/DTD/svg11.dtd">
<!-- Created with matplotlib (https://matplotlib.org/) -->
<svg height="432pt" version="1.1" viewBox="0 0 1296 432" width="1296pt" xmlns="http://www.w3.org/2000/svg" xmlns:xlink="http://www.w3.org/1999/xlink">
 <metadata>
  <rdf:RDF xmlns:cc="http://creativecommons.org/ns#" xmlns:dc="http://purl.org/dc/elements/1.1/" xmlns:rdf="http://www.w3.org/1999/02/22-rdf-syntax-ns#">
   <cc:Work>
    <dc:type rdf:resource="http://purl.org/dc/dcmitype/StillImage"/>
    <dc:date>2023-11-22T17:46:04.900981</dc:date>
    <dc:format>image/svg+xml</dc:format>
    <dc:creator>
     <cc:Agent>
      <dc:title>Matplotlib v3.3.1, https://matplotlib.org/</dc:title>
     </cc:Agent>
    </dc:creator>
   </cc:Work>
  </rdf:RDF>
 </metadata>
 <defs>
  <style type="text/css">*{stroke-linecap:butt;stroke-linejoin:round;}</style>
 </defs>
 <g id="figure_1">
  <g id="patch_1">
   <path d="M 0 432 
L 1296 432 
L 1296 0 
L 0 0 
z
" style="fill:#ffffff;"/>
  </g>
  <g id="axes_1">
   <g id="patch_2">
    <path d="M 162 384.48 
L 1166.4 384.48 
L 1166.4 51.84 
L 162 51.84 
z
" style="fill:#ffffff;"/>
   </g>
   <g id="matplotlib.axis_1">
    <g id="xtick_1">
     <g id="line2d_1">
      <defs>
       <path d="M 0 0 
L 0 6 
" id="m957d38bee8" style="stroke:#262626;stroke-width:1.25;"/>
      </defs>
      <g>
       <use style="fill:#262626;stroke:#262626;stroke-width:1.25;" x="206.969042" xlink:href="#m957d38bee8" y="384.48"/>
      </g>
     </g>
     <g id="text_1">
      <!-- 0 -->
      <g style="fill:#262626;" transform="translate(203.910526 401.853594)scale(0.11 -0.11)">
       <defs>
        <path d="M 4.15625 35.296875 
Q 4.15625 48 6.765625 55.734375 
Q 9.375 63.484375 14.515625 67.671875 
Q 19.671875 71.875 27.484375 71.875 
Q 33.25 71.875 37.59375 69.546875 
Q 41.9375 67.234375 44.765625 62.859375 
Q 47.609375 58.5 49.21875 52.21875 
Q 50.828125 45.953125 50.828125 35.296875 
Q 50.828125 22.703125 48.234375 14.96875 
Q 45.65625 7.234375 40.5 3 
Q 35.359375 -1.21875 27.484375 -1.21875 
Q 17.140625 -1.21875 11.234375 6.203125 
Q 4.15625 15.140625 4.15625 35.296875 
z
M 13.1875 35.296875 
Q 13.1875 17.671875 17.3125 11.828125 
Q 21.4375 6 27.484375 6 
Q 33.546875 6 37.671875 11.859375 
Q 41.796875 17.71875 41.796875 35.296875 
Q 41.796875 52.984375 37.671875 58.78125 
Q 33.546875 64.59375 27.390625 64.59375 
Q 21.34375 64.59375 17.71875 59.46875 
Q 13.1875 52.9375 13.1875 35.296875 
z
" id="ArialMT-48"/>
       </defs>
       <use xlink:href="#ArialMT-48"/>
      </g>
     </g>
    </g>
    <g id="xtick_2">
     <g id="line2d_2">
      <g>
       <use style="fill:#262626;stroke:#262626;stroke-width:1.25;" x="344.069779" xlink:href="#m957d38bee8" y="384.48"/>
      </g>
     </g>
     <g id="text_2">
      <!-- 200 -->
      <g style="fill:#262626;" transform="translate(334.894232 401.853594)scale(0.11 -0.11)">
       <defs>
        <path d="M 50.34375 8.453125 
L 50.34375 0 
L 3.03125 0 
Q 2.9375 3.171875 4.046875 6.109375 
Q 5.859375 10.9375 9.828125 15.625 
Q 13.8125 20.3125 21.34375 26.46875 
Q 33.015625 36.03125 37.109375 41.625 
Q 41.21875 47.21875 41.21875 52.203125 
Q 41.21875 57.421875 37.46875 61 
Q 33.734375 64.59375 27.734375 64.59375 
Q 21.390625 64.59375 17.578125 60.78125 
Q 13.765625 56.984375 13.71875 50.25 
L 4.6875 51.171875 
Q 5.609375 61.28125 11.65625 66.578125 
Q 17.71875 71.875 27.9375 71.875 
Q 38.234375 71.875 44.234375 66.15625 
Q 50.25 60.453125 50.25 52 
Q 50.25 47.703125 48.484375 43.546875 
Q 46.734375 39.40625 42.65625 34.8125 
Q 38.578125 30.21875 29.109375 22.21875 
Q 21.1875 15.578125 18.9375 13.203125 
Q 16.703125 10.84375 15.234375 8.453125 
z
" id="ArialMT-50"/>
       </defs>
       <use xlink:href="#ArialMT-50"/>
       <use x="55.615234" xlink:href="#ArialMT-48"/>
       <use x="111.230469" xlink:href="#ArialMT-48"/>
      </g>
     </g>
    </g>
    <g id="xtick_3">
     <g id="line2d_3">
      <g>
       <use style="fill:#262626;stroke:#262626;stroke-width:1.25;" x="481.170516" xlink:href="#m957d38bee8" y="384.48"/>
      </g>
     </g>
     <g id="text_3">
      <!-- 400 -->
      <g style="fill:#262626;" transform="translate(471.994969 401.853594)scale(0.11 -0.11)">
       <defs>
        <path d="M 32.328125 0 
L 32.328125 17.140625 
L 1.265625 17.140625 
L 1.265625 25.203125 
L 33.9375 71.578125 
L 41.109375 71.578125 
L 41.109375 25.203125 
L 50.78125 25.203125 
L 50.78125 17.140625 
L 41.109375 17.140625 
L 41.109375 0 
z
M 32.328125 25.203125 
L 32.328125 57.46875 
L 9.90625 25.203125 
z
" id="ArialMT-52"/>
       </defs>
       <use xlink:href="#ArialMT-52"/>
       <use x="55.615234" xlink:href="#ArialMT-48"/>
       <use x="111.230469" xlink:href="#ArialMT-48"/>
      </g>
     </g>
    </g>
    <g id="xtick_4">
     <g id="line2d_4">
      <g>
       <use style="fill:#262626;stroke:#262626;stroke-width:1.25;" x="618.271253" xlink:href="#m957d38bee8" y="384.48"/>
      </g>
     </g>
     <g id="text_4">
      <!-- 600 -->
      <g style="fill:#262626;" transform="translate(609.095706 401.853594)scale(0.11 -0.11)">
       <defs>
        <path d="M 49.75 54.046875 
L 41.015625 53.375 
Q 39.84375 58.546875 37.703125 60.890625 
Q 34.125 64.65625 28.90625 64.65625 
Q 24.703125 64.65625 21.53125 62.3125 
Q 17.390625 59.28125 14.984375 53.46875 
Q 12.59375 47.65625 12.5 36.921875 
Q 15.671875 41.75 20.265625 44.09375 
Q 24.859375 46.4375 29.890625 46.4375 
Q 38.671875 46.4375 44.84375 39.96875 
Q 51.03125 33.5 51.03125 23.25 
Q 51.03125 16.5 48.125 10.71875 
Q 45.21875 4.9375 40.140625 1.859375 
Q 35.0625 -1.21875 28.609375 -1.21875 
Q 17.625 -1.21875 10.6875 6.859375 
Q 3.765625 14.9375 3.765625 33.5 
Q 3.765625 54.25 11.421875 63.671875 
Q 18.109375 71.875 29.4375 71.875 
Q 37.890625 71.875 43.28125 67.140625 
Q 48.6875 62.40625 49.75 54.046875 
z
M 13.875 23.1875 
Q 13.875 18.65625 15.796875 14.5 
Q 17.71875 10.359375 21.1875 8.171875 
Q 24.65625 6 28.46875 6 
Q 34.03125 6 38.03125 10.484375 
Q 42.046875 14.984375 42.046875 22.703125 
Q 42.046875 30.125 38.078125 34.390625 
Q 34.125 38.671875 28.125 38.671875 
Q 22.171875 38.671875 18.015625 34.390625 
Q 13.875 30.125 13.875 23.1875 
z
" id="ArialMT-54"/>
       </defs>
       <use xlink:href="#ArialMT-54"/>
       <use x="55.615234" xlink:href="#ArialMT-48"/>
       <use x="111.230469" xlink:href="#ArialMT-48"/>
      </g>
     </g>
    </g>
    <g id="xtick_5">
     <g id="line2d_5">
      <g>
       <use style="fill:#262626;stroke:#262626;stroke-width:1.25;" x="755.37199" xlink:href="#m957d38bee8" y="384.48"/>
      </g>
     </g>
     <g id="text_5">
      <!-- 800 -->
      <g style="fill:#262626;" transform="translate(746.196443 401.853594)scale(0.11 -0.11)">
       <defs>
        <path d="M 17.671875 38.8125 
Q 12.203125 40.828125 9.5625 44.53125 
Q 6.9375 48.25 6.9375 53.421875 
Q 6.9375 61.234375 12.546875 66.546875 
Q 18.171875 71.875 27.484375 71.875 
Q 36.859375 71.875 42.578125 66.421875 
Q 48.296875 60.984375 48.296875 53.171875 
Q 48.296875 48.1875 45.671875 44.5 
Q 43.0625 40.828125 37.75 38.8125 
Q 44.34375 36.671875 47.78125 31.875 
Q 51.21875 27.09375 51.21875 20.453125 
Q 51.21875 11.28125 44.71875 5.03125 
Q 38.234375 -1.21875 27.640625 -1.21875 
Q 17.046875 -1.21875 10.546875 5.046875 
Q 4.046875 11.328125 4.046875 20.703125 
Q 4.046875 27.6875 7.59375 32.390625 
Q 11.140625 37.109375 17.671875 38.8125 
z
M 15.921875 53.71875 
Q 15.921875 48.640625 19.1875 45.40625 
Q 22.46875 42.1875 27.6875 42.1875 
Q 32.765625 42.1875 36.015625 45.375 
Q 39.265625 48.578125 39.265625 53.21875 
Q 39.265625 58.0625 35.90625 61.359375 
Q 32.5625 64.65625 27.59375 64.65625 
Q 22.5625 64.65625 19.234375 61.421875 
Q 15.921875 58.203125 15.921875 53.71875 
z
M 13.09375 20.65625 
Q 13.09375 16.890625 14.875 13.375 
Q 16.65625 9.859375 20.171875 7.921875 
Q 23.6875 6 27.734375 6 
Q 34.03125 6 38.125 10.046875 
Q 42.234375 14.109375 42.234375 20.359375 
Q 42.234375 26.703125 38.015625 30.859375 
Q 33.796875 35.015625 27.4375 35.015625 
Q 21.234375 35.015625 17.15625 30.90625 
Q 13.09375 26.8125 13.09375 20.65625 
z
" id="ArialMT-56"/>
       </defs>
       <use xlink:href="#ArialMT-56"/>
       <use x="55.615234" xlink:href="#ArialMT-48"/>
       <use x="111.230469" xlink:href="#ArialMT-48"/>
      </g>
     </g>
    </g>
    <g id="xtick_6">
     <g id="line2d_6">
      <g>
       <use style="fill:#262626;stroke:#262626;stroke-width:1.25;" x="892.472727" xlink:href="#m957d38bee8" y="384.48"/>
      </g>
     </g>
     <g id="text_6">
      <!-- 1000 -->
      <g style="fill:#262626;" transform="translate(880.238665 401.853594)scale(0.11 -0.11)">
       <defs>
        <path d="M 37.25 0 
L 28.46875 0 
L 28.46875 56 
Q 25.296875 52.984375 20.140625 49.953125 
Q 14.984375 46.921875 10.890625 45.40625 
L 10.890625 53.90625 
Q 18.265625 57.375 23.78125 62.296875 
Q 29.296875 67.234375 31.59375 71.875 
L 37.25 71.875 
z
" id="ArialMT-49"/>
       </defs>
       <use xlink:href="#ArialMT-49"/>
       <use x="55.615234" xlink:href="#ArialMT-48"/>
       <use x="111.230469" xlink:href="#ArialMT-48"/>
       <use x="166.845703" xlink:href="#ArialMT-48"/>
      </g>
     </g>
    </g>
    <g id="xtick_7">
     <g id="line2d_7">
      <g>
       <use style="fill:#262626;stroke:#262626;stroke-width:1.25;" x="1029.573464" xlink:href="#m957d38bee8" y="384.48"/>
      </g>
     </g>
     <g id="text_7">
      <!-- 1200 -->
      <g style="fill:#262626;" transform="translate(1017.339402 401.853594)scale(0.11 -0.11)">
       <use xlink:href="#ArialMT-49"/>
       <use x="55.615234" xlink:href="#ArialMT-50"/>
       <use x="111.230469" xlink:href="#ArialMT-48"/>
       <use x="166.845703" xlink:href="#ArialMT-48"/>
      </g>
     </g>
    </g>
    <g id="text_8">
     <!-- Position -->
     <g style="fill:#262626;" transform="translate(635.74 419.492344)scale(0.16 -0.16)">
      <defs>
       <path d="M 7.71875 0 
L 7.71875 71.578125 
L 34.71875 71.578125 
Q 41.84375 71.578125 45.609375 70.90625 
Q 50.875 70.015625 54.4375 67.546875 
Q 58.015625 65.09375 60.1875 60.640625 
Q 62.359375 56.203125 62.359375 50.875 
Q 62.359375 41.75 56.546875 35.421875 
Q 50.734375 29.109375 35.546875 29.109375 
L 17.1875 29.109375 
L 17.1875 0 
z
M 17.1875 37.546875 
L 35.6875 37.546875 
Q 44.875 37.546875 48.734375 40.96875 
Q 52.59375 44.390625 52.59375 50.59375 
Q 52.59375 55.078125 50.3125 58.265625 
Q 48.046875 61.46875 44.34375 62.5 
Q 41.9375 63.140625 35.5 63.140625 
L 17.1875 63.140625 
z
" id="ArialMT-80"/>
       <path d="M 3.328125 25.921875 
Q 3.328125 40.328125 11.328125 47.265625 
Q 18.015625 53.03125 27.640625 53.03125 
Q 38.328125 53.03125 45.109375 46.015625 
Q 51.90625 39.015625 51.90625 26.65625 
Q 51.90625 16.65625 48.90625 10.90625 
Q 45.90625 5.171875 40.15625 2 
Q 34.421875 -1.171875 27.640625 -1.171875 
Q 16.75 -1.171875 10.03125 5.8125 
Q 3.328125 12.796875 3.328125 25.921875 
z
M 12.359375 25.921875 
Q 12.359375 15.96875 16.703125 11.015625 
Q 21.046875 6.0625 27.640625 6.0625 
Q 34.1875 6.0625 38.53125 11.03125 
Q 42.875 16.015625 42.875 26.21875 
Q 42.875 35.84375 38.5 40.796875 
Q 34.125 45.75 27.640625 45.75 
Q 21.046875 45.75 16.703125 40.8125 
Q 12.359375 35.890625 12.359375 25.921875 
z
" id="ArialMT-111"/>
       <path d="M 3.078125 15.484375 
L 11.765625 16.84375 
Q 12.5 11.625 15.84375 8.84375 
Q 19.1875 6.0625 25.203125 6.0625 
Q 31.25 6.0625 34.171875 8.515625 
Q 37.109375 10.984375 37.109375 14.3125 
Q 37.109375 17.28125 34.515625 19 
Q 32.71875 20.171875 25.53125 21.96875 
Q 15.875 24.421875 12.140625 26.203125 
Q 8.40625 27.984375 6.46875 31.125 
Q 4.546875 34.28125 4.546875 38.09375 
Q 4.546875 41.546875 6.125 44.5 
Q 7.71875 47.46875 10.453125 49.421875 
Q 12.5 50.921875 16.03125 51.96875 
Q 19.578125 53.03125 23.640625 53.03125 
Q 29.734375 53.03125 34.34375 51.265625 
Q 38.96875 49.515625 41.15625 46.5 
Q 43.359375 43.5 44.1875 38.484375 
L 35.59375 37.3125 
Q 35.015625 41.3125 32.203125 43.546875 
Q 29.390625 45.796875 24.265625 45.796875 
Q 18.21875 45.796875 15.625 43.796875 
Q 13.03125 41.796875 13.03125 39.109375 
Q 13.03125 37.40625 14.109375 36.03125 
Q 15.1875 34.625 17.484375 33.6875 
Q 18.796875 33.203125 25.25 31.453125 
Q 34.578125 28.953125 38.25 27.359375 
Q 41.9375 25.78125 44.03125 22.75 
Q 46.140625 19.734375 46.140625 15.234375 
Q 46.140625 10.84375 43.578125 6.953125 
Q 41.015625 3.078125 36.171875 0.953125 
Q 31.34375 -1.171875 25.25 -1.171875 
Q 15.140625 -1.171875 9.84375 3.03125 
Q 4.546875 7.234375 3.078125 15.484375 
z
" id="ArialMT-115"/>
       <path d="M 6.640625 61.46875 
L 6.640625 71.578125 
L 15.4375 71.578125 
L 15.4375 61.46875 
z
M 6.640625 0 
L 6.640625 51.859375 
L 15.4375 51.859375 
L 15.4375 0 
z
" id="ArialMT-105"/>
       <path d="M 25.78125 7.859375 
L 27.046875 0.09375 
Q 23.34375 -0.6875 20.40625 -0.6875 
Q 15.625 -0.6875 12.984375 0.828125 
Q 10.359375 2.34375 9.28125 4.8125 
Q 8.203125 7.28125 8.203125 15.1875 
L 8.203125 45.015625 
L 1.765625 45.015625 
L 1.765625 51.859375 
L 8.203125 51.859375 
L 8.203125 64.703125 
L 16.9375 69.96875 
L 16.9375 51.859375 
L 25.78125 51.859375 
L 25.78125 45.015625 
L 16.9375 45.015625 
L 16.9375 14.703125 
Q 16.9375 10.9375 17.40625 9.859375 
Q 17.875 8.796875 18.921875 8.15625 
Q 19.96875 7.515625 21.921875 7.515625 
Q 23.390625 7.515625 25.78125 7.859375 
z
" id="ArialMT-116"/>
       <path d="M 6.59375 0 
L 6.59375 51.859375 
L 14.5 51.859375 
L 14.5 44.484375 
Q 20.21875 53.03125 31 53.03125 
Q 35.6875 53.03125 39.625 51.34375 
Q 43.5625 49.65625 45.515625 46.921875 
Q 47.46875 44.1875 48.25 40.4375 
Q 48.734375 37.984375 48.734375 31.890625 
L 48.734375 0 
L 39.9375 0 
L 39.9375 31.546875 
Q 39.9375 36.921875 38.90625 39.578125 
Q 37.890625 42.234375 35.28125 43.8125 
Q 32.671875 45.40625 29.15625 45.40625 
Q 23.53125 45.40625 19.453125 41.84375 
Q 15.375 38.28125 15.375 28.328125 
L 15.375 0 
z
" id="ArialMT-110"/>
      </defs>
      <use xlink:href="#ArialMT-80"/>
      <use x="66.699219" xlink:href="#ArialMT-111"/>
      <use x="122.314453" xlink:href="#ArialMT-115"/>
      <use x="172.314453" xlink:href="#ArialMT-105"/>
      <use x="194.53125" xlink:href="#ArialMT-116"/>
      <use x="222.314453" xlink:href="#ArialMT-105"/>
      <use x="244.53125" xlink:href="#ArialMT-111"/>
      <use x="300.146484" xlink:href="#ArialMT-110"/>
     </g>
    </g>
   </g>
   <g id="matplotlib.axis_2">
    <g id="ytick_1">
     <g id="line2d_8">
      <defs>
       <path d="M 0 0 
L -6 0 
" id="me70ab466bb" style="stroke:#262626;stroke-width:1.25;"/>
      </defs>
      <g>
       <use style="fill:#262626;stroke:#262626;stroke-width:1.25;" x="162" xlink:href="#me70ab466bb" y="369.36"/>
      </g>
     </g>
     <g id="text_9">
      <!-- 0 -->
      <g style="fill:#262626;" transform="translate(146.382969 373.296797)scale(0.11 -0.11)">
       <use xlink:href="#ArialMT-48"/>
      </g>
     </g>
    </g>
    <g id="ytick_2">
     <g id="line2d_9">
      <g>
       <use style="fill:#262626;stroke:#262626;stroke-width:1.25;" x="162" xlink:href="#me70ab466bb" y="218.16"/>
      </g>
     </g>
     <g id="text_10">
      <!-- 0.5 -->
      <g style="fill:#262626;" transform="translate(137.21 222.096797)scale(0.11 -0.11)">
       <defs>
        <path d="M 9.078125 0 
L 9.078125 10.015625 
L 19.09375 10.015625 
L 19.09375 0 
z
" id="ArialMT-46"/>
        <path d="M 4.15625 18.75 
L 13.375 19.53125 
Q 14.40625 12.796875 18.140625 9.390625 
Q 21.875 6 27.15625 6 
Q 33.5 6 37.890625 10.78125 
Q 42.28125 15.578125 42.28125 23.484375 
Q 42.28125 31 38.0625 35.34375 
Q 33.84375 39.703125 27 39.703125 
Q 22.75 39.703125 19.328125 37.765625 
Q 15.921875 35.84375 13.96875 32.765625 
L 5.71875 33.84375 
L 12.640625 70.609375 
L 48.25 70.609375 
L 48.25 62.203125 
L 19.671875 62.203125 
L 15.828125 42.96875 
Q 22.265625 47.46875 29.34375 47.46875 
Q 38.71875 47.46875 45.15625 40.96875 
Q 51.609375 34.46875 51.609375 24.265625 
Q 51.609375 14.546875 45.953125 7.46875 
Q 39.0625 -1.21875 27.15625 -1.21875 
Q 17.390625 -1.21875 11.203125 4.25 
Q 5.03125 9.71875 4.15625 18.75 
z
" id="ArialMT-53"/>
       </defs>
       <use xlink:href="#ArialMT-48"/>
       <use x="55.615234" xlink:href="#ArialMT-46"/>
       <use x="83.398438" xlink:href="#ArialMT-53"/>
      </g>
     </g>
    </g>
    <g id="ytick_3">
     <g id="line2d_10">
      <g>
       <use style="fill:#262626;stroke:#262626;stroke-width:1.25;" x="162" xlink:href="#me70ab466bb" y="66.96"/>
      </g>
     </g>
     <g id="text_11">
      <!-- 1.0 -->
      <g style="fill:#262626;" transform="translate(137.21 70.896797)scale(0.11 -0.11)">
       <use xlink:href="#ArialMT-49"/>
       <use x="55.615234" xlink:href="#ArialMT-46"/>
       <use x="83.398438" xlink:href="#ArialMT-48"/>
      </g>
     </g>
    </g>
    <g id="text_12">
     <!-- Occupancy -->
     <g style="fill:#262626;" transform="translate(129.8425 258.1775)rotate(-90)scale(0.16 -0.16)">
      <defs>
       <path d="M 4.828125 34.859375 
Q 4.828125 52.6875 14.390625 62.765625 
Q 23.96875 72.859375 39.109375 72.859375 
Q 49.03125 72.859375 56.984375 68.109375 
Q 64.9375 63.375 69.109375 54.90625 
Q 73.296875 46.4375 73.296875 35.6875 
Q 73.296875 24.8125 68.890625 16.21875 
Q 64.5 7.625 56.4375 3.203125 
Q 48.390625 -1.21875 39.0625 -1.21875 
Q 28.953125 -1.21875 20.984375 3.65625 
Q 13.03125 8.546875 8.921875 16.984375 
Q 4.828125 25.4375 4.828125 34.859375 
z
M 14.59375 34.71875 
Q 14.59375 21.78125 21.546875 14.328125 
Q 28.515625 6.890625 39.015625 6.890625 
Q 49.703125 6.890625 56.609375 14.40625 
Q 63.53125 21.921875 63.53125 35.75 
Q 63.53125 44.484375 60.578125 51 
Q 57.625 57.515625 51.921875 61.109375 
Q 46.234375 64.703125 39.15625 64.703125 
Q 29.109375 64.703125 21.84375 57.78125 
Q 14.59375 50.875 14.59375 34.71875 
z
" id="ArialMT-79"/>
       <path d="M 40.4375 19 
L 49.078125 17.875 
Q 47.65625 8.9375 41.8125 3.875 
Q 35.984375 -1.171875 27.484375 -1.171875 
Q 16.84375 -1.171875 10.375 5.78125 
Q 3.90625 12.75 3.90625 25.734375 
Q 3.90625 34.125 6.6875 40.421875 
Q 9.46875 46.734375 15.15625 49.875 
Q 20.84375 53.03125 27.546875 53.03125 
Q 35.984375 53.03125 41.359375 48.75 
Q 46.734375 44.484375 48.25 36.625 
L 39.703125 35.296875 
Q 38.484375 40.53125 35.375 43.15625 
Q 32.28125 45.796875 27.875 45.796875 
Q 21.234375 45.796875 17.078125 41.03125 
Q 12.9375 36.28125 12.9375 25.984375 
Q 12.9375 15.53125 16.9375 10.796875 
Q 20.953125 6.0625 27.390625 6.0625 
Q 32.5625 6.0625 36.03125 9.234375 
Q 39.5 12.40625 40.4375 19 
z
" id="ArialMT-99"/>
       <path d="M 40.578125 0 
L 40.578125 7.625 
Q 34.515625 -1.171875 24.125 -1.171875 
Q 19.53125 -1.171875 15.546875 0.578125 
Q 11.578125 2.34375 9.640625 5 
Q 7.71875 7.671875 6.9375 11.53125 
Q 6.390625 14.109375 6.390625 19.734375 
L 6.390625 51.859375 
L 15.1875 51.859375 
L 15.1875 23.09375 
Q 15.1875 16.21875 15.71875 13.8125 
Q 16.546875 10.359375 19.234375 8.375 
Q 21.921875 6.390625 25.875 6.390625 
Q 29.828125 6.390625 33.296875 8.421875 
Q 36.765625 10.453125 38.203125 13.9375 
Q 39.65625 17.4375 39.65625 24.078125 
L 39.65625 51.859375 
L 48.4375 51.859375 
L 48.4375 0 
z
" id="ArialMT-117"/>
       <path d="M 6.59375 -19.875 
L 6.59375 51.859375 
L 14.59375 51.859375 
L 14.59375 45.125 
Q 17.4375 49.078125 21 51.046875 
Q 24.5625 53.03125 29.640625 53.03125 
Q 36.28125 53.03125 41.359375 49.609375 
Q 46.4375 46.1875 49.015625 39.953125 
Q 51.609375 33.734375 51.609375 26.3125 
Q 51.609375 18.359375 48.75 11.984375 
Q 45.90625 5.609375 40.453125 2.21875 
Q 35.015625 -1.171875 29 -1.171875 
Q 24.609375 -1.171875 21.109375 0.6875 
Q 17.625 2.546875 15.375 5.375 
L 15.375 -19.875 
z
M 14.546875 25.640625 
Q 14.546875 15.625 18.59375 10.84375 
Q 22.65625 6.0625 28.421875 6.0625 
Q 34.28125 6.0625 38.453125 11.015625 
Q 42.625 15.96875 42.625 26.375 
Q 42.625 36.28125 38.546875 41.203125 
Q 34.46875 46.140625 28.8125 46.140625 
Q 23.1875 46.140625 18.859375 40.890625 
Q 14.546875 35.640625 14.546875 25.640625 
z
" id="ArialMT-112"/>
       <path d="M 40.4375 6.390625 
Q 35.546875 2.25 31.03125 0.53125 
Q 26.515625 -1.171875 21.34375 -1.171875 
Q 12.796875 -1.171875 8.203125 3 
Q 3.609375 7.171875 3.609375 13.671875 
Q 3.609375 17.484375 5.34375 20.625 
Q 7.078125 23.78125 9.890625 25.6875 
Q 12.703125 27.59375 16.21875 28.5625 
Q 18.796875 29.25 24.03125 29.890625 
Q 34.671875 31.15625 39.703125 32.90625 
Q 39.75 34.71875 39.75 35.203125 
Q 39.75 40.578125 37.25 42.78125 
Q 33.890625 45.75 27.25 45.75 
Q 21.046875 45.75 18.09375 43.578125 
Q 15.140625 41.40625 13.71875 35.890625 
L 5.125 37.0625 
Q 6.296875 42.578125 8.984375 45.96875 
Q 11.671875 49.359375 16.75 51.1875 
Q 21.828125 53.03125 28.515625 53.03125 
Q 35.15625 53.03125 39.296875 51.46875 
Q 43.453125 49.90625 45.40625 47.53125 
Q 47.359375 45.171875 48.140625 41.546875 
Q 48.578125 39.3125 48.578125 33.453125 
L 48.578125 21.734375 
Q 48.578125 9.46875 49.140625 6.21875 
Q 49.703125 2.984375 51.375 0 
L 42.1875 0 
Q 40.828125 2.734375 40.4375 6.390625 
z
M 39.703125 26.03125 
Q 34.90625 24.078125 25.34375 22.703125 
Q 19.921875 21.921875 17.671875 20.9375 
Q 15.4375 19.96875 14.203125 18.09375 
Q 12.984375 16.21875 12.984375 13.921875 
Q 12.984375 10.40625 15.640625 8.0625 
Q 18.3125 5.71875 23.4375 5.71875 
Q 28.515625 5.71875 32.46875 7.9375 
Q 36.421875 10.15625 38.28125 14.015625 
Q 39.703125 17 39.703125 22.796875 
z
" id="ArialMT-97"/>
       <path d="M 6.203125 -19.96875 
L 5.21875 -11.71875 
Q 8.109375 -12.5 10.25 -12.5 
Q 13.1875 -12.5 14.9375 -11.515625 
Q 16.703125 -10.546875 17.828125 -8.796875 
Q 18.65625 -7.46875 20.515625 -2.25 
Q 20.75 -1.515625 21.296875 -0.09375 
L 1.609375 51.859375 
L 11.078125 51.859375 
L 21.875 21.828125 
Q 23.96875 16.109375 25.640625 9.8125 
Q 27.15625 15.875 29.25 21.625 
L 40.328125 51.859375 
L 49.125 51.859375 
L 29.390625 -0.875 
Q 26.21875 -9.421875 24.46875 -12.640625 
Q 22.125 -17 19.09375 -19.015625 
Q 16.0625 -21.046875 11.859375 -21.046875 
Q 9.328125 -21.046875 6.203125 -19.96875 
z
" id="ArialMT-121"/>
      </defs>
      <use xlink:href="#ArialMT-79"/>
      <use x="77.783203" xlink:href="#ArialMT-99"/>
      <use x="127.783203" xlink:href="#ArialMT-99"/>
      <use x="177.783203" xlink:href="#ArialMT-117"/>
      <use x="233.398438" xlink:href="#ArialMT-112"/>
      <use x="289.013672" xlink:href="#ArialMT-97"/>
      <use x="344.628906" xlink:href="#ArialMT-110"/>
      <use x="400.244141" xlink:href="#ArialMT-99"/>
      <use x="450.244141" xlink:href="#ArialMT-121"/>
     </g>
    </g>
   </g>
   <g id="line2d_11">
    <path clip-path="url(#p37df672cba)" d="M 207.654545 369.36 
L 208.340049 369.0576 
L 209.025553 366.9408 
L 209.711057 365.4288 
L 210.39656 364.2192 
L 211.082064 363.6144 
L 211.767568 356.0544 
L 212.453071 337.0032 
L 213.138575 245.6784 
L 213.824079 209.3904 
L 214.509582 208.1808 
L 215.195086 208.1808 
L 215.88059 207.8784 
L 216.566093 205.7616 
L 217.251597 205.1568 
L 217.937101 203.3424 
L 218.622604 203.3424 
L 219.308108 203.3424 
L 219.993612 203.3424 
L 220.679115 203.04 
L 221.364619 202.7376 
L 222.050123 201.2256 
L 222.735627 197.5968 
L 223.42113 196.6896 
L 224.106634 196.6896 
L 224.792138 194.8752 
L 225.477641 182.4768 
L 226.163145 165.5424 
L 226.848649 165.24 
L 227.534152 152.8416 
L 228.219656 152.8416 
L 228.90516 151.3296 
L 229.590663 150.7248 
L 230.276167 150.12 
L 230.961671 149.5152 
L 231.647174 149.2128 
L 232.332678 108.9936 
L 233.018182 78.7536 
L 233.703686 68.472 
L 234.389189 68.1696 
L 235.074693 68.1696 
L 235.760197 67.8672 
L 236.4457 67.8672 
L 237.131204 67.8672 
L 237.816708 67.8672 
L 238.502211 67.8672 
L 239.187715 67.8672 
L 239.873219 67.8672 
L 240.558722 67.8672 
L 241.244226 67.8672 
L 241.92973 67.8672 
L 242.615233 67.8672 
L 243.300737 67.8672 
L 243.986241 67.8672 
L 244.671744 67.8672 
L 245.357248 67.8672 
L 246.042752 67.8672 
L 246.728256 67.8672 
L 247.413759 67.8672 
L 248.099263 66.96 
L 248.784767 66.96 
L 249.47027 66.96 
L 250.155774 66.96 
L 250.841278 66.96 
L 251.526781 66.96 
" style="fill:none;stroke:#0000ff;stroke-linecap:round;stroke-width:4;"/>
   </g>
   <g id="line2d_12">
    <path clip-path="url(#p37df672cba)" d="M 252.212285 66.96 
L 308.423587 66.96 
L 309.109091 67.2624 
L 309.794595 69.3792 
L 310.480098 70.8912 
L 311.165602 72.1008 
L 311.851106 72.7056 
L 312.536609 80.2656 
L 313.222113 99.3168 
L 313.907617 190.6416 
L 314.59312 226.9296 
L 315.278624 228.1392 
L 315.964128 228.1392 
L 316.649631 228.4416 
L 317.335135 230.5584 
L 318.020639 231.1632 
L 318.706143 232.9776 
L 320.762654 232.9776 
L 322.133661 233.5824 
L 322.819165 235.0944 
L 323.504668 238.7232 
L 324.190172 239.6304 
L 324.875676 239.6304 
L 325.561179 241.4448 
L 326.246683 253.8432 
L 326.932187 270.7776 
L 327.61769 271.08 
L 328.303194 283.4784 
L 328.988698 283.4784 
L 329.674201 284.9904 
L 331.730713 286.8048 
L 332.416216 287.1072 
L 333.10172 327.3264 
L 333.787224 357.5664 
L 334.472727 367.848 
L 335.158231 368.1504 
L 335.843735 368.1504 
L 336.529238 368.4528 
L 348.182801 368.4528 
L 348.868305 369.36 
L 372.17543 369.36 
L 372.860934 369.0576 
L 387.256511 369.0576 
L 387.942015 368.7552 
L 389.313022 368.7552 
L 389.998526 368.4528 
L 392.740541 368.4528 
L 393.426044 326.7216 
L 394.111548 315.8352 
L 394.797052 312.8112 
L 395.482555 312.2064 
L 404.394103 312.2064 
L 405.079607 311.904 
L 405.765111 310.9968 
L 409.192629 310.9968 
L 409.878133 310.392 
L 410.563636 308.5776 
L 411.24914 132.2784 
L 411.934644 114.4368 
L 412.620147 111.1104 
L 413.305651 102.3408 
L 413.991155 98.4096 
L 414.676658 97.8048 
L 416.047666 97.2 
L 416.73317 94.7808 
L 418.104177 94.176 
L 418.789681 85.4064 
L 419.475184 84.1968 
L 420.160688 84.1968 
L 420.846192 81.7776 
L 421.531695 81.1728 
L 422.217199 80.2656 
L 423.588206 79.6608 
L 423.588206 79.6608 
" style="fill:none;stroke:#800080;stroke-linecap:round;stroke-width:4;"/>
   </g>
   <g id="line2d_13">
    <path clip-path="url(#p37df672cba)" d="M 424.27371 79.056 
L 424.959214 78.1488 
L 427.701229 78.1488 
L 428.386732 77.8464 
L 429.072236 77.8464 
L 430.443243 76.032 
L 431.128747 67.2624 
L 437.29828 67.2624 
L 437.983784 66.96 
L 472.944472 66.96 
L 473.629975 67.2624 
L 488.025553 67.2624 
L 488.711057 67.5648 
L 490.082064 67.5648 
L 490.767568 67.8672 
L 493.509582 67.8672 
L 494.195086 109.5984 
L 494.88059 100.8288 
L 495.566093 93.5712 
L 496.937101 92.9664 
L 497.622604 70.8912 
L 498.308108 69.3792 
L 505.848649 69.3792 
L 506.534152 70.2864 
L 507.219656 70.5888 
L 509.961671 70.5888 
L 510.647174 70.8912 
L 511.332678 72.7056 
L 512.018182 249.0048 
L 512.703686 267.1488 
L 513.389189 270.4752 
L 514.074693 278.9424 
L 514.760197 274.7088 
L 516.131204 275.3136 
L 516.816708 274.104 
L 517.502211 276.5232 
L 518.187715 276.8256 
L 518.873219 276.8256 
L 519.558722 285.8976 
L 520.244226 286.8048 
L 520.92973 287.1072 
L 521.615233 289.5264 
L 522.300737 288.9216 
L 522.986241 289.8288 
L 523.671744 206.3664 
L 524.357248 197.8992 
L 525.728256 127.44 
L 526.413759 73.9152 
L 527.099263 71.496 
L 529.155774 71.496 
L 529.841278 71.1936 
L 530.526781 71.1936 
L 531.212285 69.0768 
L 531.897789 76.3344 
L 532.583292 69.984 
L 533.9543 69.984 
L 535.325307 69.3792 
L 536.010811 68.472 
L 538.067322 68.472 
L 538.752826 68.7744 
L 542.865848 68.7744 
L 543.551351 67.2624 
L 544.236855 67.2624 
L 544.922359 66.96 
L 547.664373 66.96 
L 548.349877 67.2624 
L 554.51941 67.2624 
L 555.204914 66.96 
L 594.964128 66.96 
L 595.649631 86.616 
L 596.335135 96.8976 
L 597.706143 98.1072 
L 598.391646 120.1824 
L 599.07715 121.392 
L 601.819165 121.392 
L 602.504668 121.0896 
L 603.190172 99.9216 
L 603.875676 70.2864 
L 604.561179 70.2864 
L 605.246683 67.8672 
L 614.843735 67.8672 
L 615.529238 76.032 
L 616.214742 76.3344 
L 616.900246 76.3344 
L 617.585749 77.8464 
L 618.271253 77.8464 
L 618.956757 78.1488 
L 619.64226 77.8464 
L 621.698771 77.8464 
L 622.384275 78.1488 
L 623.069779 79.056 
L 623.755283 79.056 
L 624.440786 162.5184 
L 625.12629 171.5904 
L 626.497297 243.5616 
L 627.182801 297.0864 
L 627.868305 299.5056 
L 628.553808 299.2032 
L 629.239312 299.5056 
L 629.924816 299.5056 
L 630.610319 297.3888 
L 631.295823 293.1552 
L 631.981327 291.3408 
L 632.66683 283.4784 
L 633.352334 269.8704 
L 634.037838 67.5648 
L 634.723342 67.2624 
L 636.779853 68.1696 
L 638.15086 68.1696 
L 639.521867 67.5648 
L 641.578378 67.5648 
L 642.263882 66.96 
L 643.634889 66.96 
L 644.320393 68.472 
L 645.6914 67.2624 
L 647.747912 67.2624 
L 648.433415 66.96 
L 655.973956 66.96 
L 656.659459 67.2624 
L 660.086978 67.2624 
L 660.772482 66.96 
L 699.160688 66.96 
L 699.846192 67.2624 
L 700.531695 67.2624 
L 701.217199 66.96 
L 702.588206 66.96 
L 703.27371 67.2624 
L 703.959214 88.4304 
L 704.644717 117.7632 
L 705.330221 117.4608 
L 706.015725 117.7632 
L 706.701229 116.856 
L 707.386732 116.2512 
L 708.072236 113.832 
L 708.75774 112.9248 
L 710.128747 112.32 
L 712.185258 112.32 
L 712.870762 111.7152 
L 719.040295 111.7152 
L 720.411302 106.5744 
L 721.096806 106.272 
L 721.78231 106.272 
L 722.467813 105.6672 
L 723.153317 105.6672 
L 723.838821 105.3648 
L 724.524324 104.1552 
L 725.209828 94.4784 
L 725.895332 90.8496 
L 730.693857 90.8496 
L 731.379361 93.5712 
L 732.750369 103.5504 
L 733.435872 112.6224 
L 734.121376 132.8832 
L 734.80688 335.1888 
L 735.492383 335.4912 
L 736.177887 335.1888 
L 736.863391 318.2544 
L 737.548894 182.7792 
L 738.234398 166.752 
L 738.919902 167.0544 
L 739.605405 167.0544 
L 740.290909 167.3568 
L 740.976413 162.216 
L 741.661916 161.6112 
L 742.34742 161.6112 
L 743.032924 158.5872 
L 743.718428 71.1936 
L 744.403931 68.1696 
L 745.089435 68.1696 
L 745.774939 69.0768 
L 746.460442 69.6816 
L 749.202457 69.6816 
L 749.887961 69.984 
L 750.573464 69.6816 
L 756.057494 69.6816 
L 758.114005 68.7744 
L 764.283538 68.7744 
L 764.969042 67.8672 
L 765.654545 67.2624 
L 766.340049 66.96 
L 800.615233 66.96 
L 801.300737 67.2624 
L 804.728256 67.2624 
L 806.099263 67.8672 
L 806.784767 69.984 
L 807.47027 70.8912 
L 808.155774 71.1936 
L 808.841278 73.9152 
L 809.526781 74.8224 
L 810.212285 75.1248 
L 810.897789 71.7984 
L 811.583292 69.3792 
L 812.9543 69.3792 
L 813.639803 69.6816 
L 819.809337 69.6816 
L 821.180344 75.1248 
L 822.551351 75.1248 
L 823.236855 75.7296 
L 823.922359 76.032 
L 824.607862 76.032 
L 825.293366 77.2416 
L 825.97887 86.9184 
L 826.664373 90.8496 
L 828.720885 90.8496 
L 829.406388 88.4304 
L 830.091892 86.616 
L 830.777396 85.7088 
L 831.462899 85.104 
L 832.148403 85.104 
L 832.833907 84.8016 
L 836.261425 84.8016 
L 836.946929 85.104 
L 837.632432 101.736 
L 838.317936 232.6752 
L 839.00344 248.0976 
L 839.688943 245.6784 
L 840.374447 245.376 
L 841.059951 245.376 
L 841.745455 250.5168 
L 842.430958 251.1216 
L 843.116462 251.1216 
L 843.801966 254.448 
L 844.487469 290.4336 
L 845.172973 154.656 
L 846.54398 101.736 
L 847.229484 99.0144 
L 847.914988 98.712 
L 848.600491 98.712 
L 849.285995 98.4096 
L 849.971499 97.5024 
L 850.657002 97.2 
L 851.342506 95.0832 
L 852.02801 94.176 
L 852.713514 92.3616 
L 855.455528 92.3616 
L 856.141032 90.8496 
L 856.826536 82.08 
L 857.512039 79.3584 
L 858.197543 79.3584 
L 858.883047 79.6608 
L 859.56855 79.6608 
L 860.254054 79.9632 
L 861.625061 79.9632 
L 862.996069 79.3584 
L 863.681572 79.3584 
L 864.367076 79.6608 
L 865.05258 79.6608 
L 865.738084 80.568 
L 866.423587 81.1728 
L 867.109091 79.6608 
L 868.480098 79.056 
L 872.59312 79.056 
L 873.278624 78.7536 
L 873.964128 76.032 
L 874.649631 71.1936 
L 875.335135 67.2624 
L 876.020639 66.96 
L 904.811794 66.96 
L 905.497297 67.2624 
L 910.981327 67.2624 
L 911.66683 70.8912 
L 912.352334 73.3104 
L 913.037838 73.6128 
L 915.094349 73.6128 
L 915.094349 73.6128 
" style="fill:none;stroke:#008000;stroke-linecap:round;stroke-width:4;"/>
   </g>
   <g id="line2d_14">
    <path clip-path="url(#p37df672cba)" d="M 915.779853 73.6128 
L 929.489926 73.6128 
L 930.860934 77.544 
L 932.231941 79.3584 
L 934.973956 79.3584 
L 935.659459 79.6608 
L 937.715971 79.6608 
L 938.401474 79.9632 
L 939.086978 84.8016 
L 939.772482 85.4064 
L 940.457985 87.8256 
L 941.143489 88.128 
L 943.885504 88.128 
L 944.571007 88.4304 
L 945.256511 139.8384 
L 945.942015 278.64 
L 947.313022 331.56 
L 947.998526 334.2816 
L 948.684029 334.584 
L 949.369533 334.584 
L 950.055037 334.8864 
L 950.740541 335.7936 
L 951.426044 336.096 
L 952.111548 338.2128 
L 952.797052 339.12 
L 953.482555 340.9344 
L 955.539066 340.9344 
L 956.22457 341.2368 
L 956.910074 342.7488 
L 957.595577 351.5184 
L 958.281081 354.5424 
L 962.394103 354.5424 
L 963.765111 355.1472 
L 967.192629 355.1472 
L 967.878133 356.6592 
L 968.563636 356.9616 
L 970.620147 356.9616 
L 971.305651 357.264 
L 973.362162 357.264 
L 974.047666 357.5664 
L 974.73317 360.288 
L 975.418673 365.1264 
L 976.104177 369.0576 
L 976.789681 369.36 
L 1006.951843 369.36 
L 1007.637346 368.7552 
L 1008.32285 368.4528 
L 1009.008354 343.9584 
L 1009.693857 293.1552 
L 1010.379361 291.3408 
L 1011.750369 290.736 
L 1014.492383 290.736 
L 1015.177887 288.9216 
L 1015.863391 224.5104 
L 1016.548894 220.2768 
L 1017.919902 220.2768 
L 1018.605405 219.9744 
L 1019.290909 217.2528 
L 1019.976413 95.3856 
L 1076.187715 95.3856 
L 1076.187715 95.3856 
" style="fill:none;stroke:#000000;stroke-linecap:round;stroke-width:4;"/>
   </g>
   <g id="line2d_15">
    <path clip-path="url(#p37df672cba)" d="M 1076.873219 95.3856 
L 1077.558722 95.3856 
L 1078.244226 95.3856 
L 1078.92973 95.3856 
L 1079.615233 95.3856 
L 1080.300737 95.3856 
L 1080.986241 95.3856 
L 1081.671744 95.3856 
L 1082.357248 95.3856 
L 1083.042752 95.3856 
L 1083.728256 95.3856 
L 1084.413759 95.3856 
L 1085.099263 95.3856 
L 1085.784767 95.3856 
L 1086.47027 95.3856 
L 1087.155774 95.3856 
L 1087.841278 95.3856 
L 1088.526781 95.3856 
L 1089.212285 95.3856 
L 1089.897789 95.3856 
L 1090.583292 95.3856 
L 1091.268796 95.3856 
L 1091.9543 95.3856 
L 1092.639803 95.3856 
L 1093.325307 95.3856 
L 1094.010811 95.3856 
L 1094.696314 95.3856 
L 1095.381818 95.3856 
L 1096.067322 95.3856 
L 1096.752826 95.3856 
L 1097.438329 95.3856 
L 1098.123833 95.3856 
L 1098.809337 95.3856 
L 1099.49484 95.3856 
L 1100.180344 95.3856 
L 1100.865848 95.3856 
L 1101.551351 95.3856 
L 1102.236855 95.3856 
L 1102.922359 95.3856 
L 1103.607862 95.3856 
L 1104.293366 95.3856 
L 1104.97887 95.3856 
L 1105.664373 95.3856 
L 1106.349877 95.3856 
L 1107.035381 95.3856 
L 1107.720885 95.3856 
L 1108.406388 95.9904 
L 1109.091892 96.2928 
L 1109.777396 120.7872 
L 1110.462899 171.288 
L 1111.148403 173.4048 
L 1111.833907 173.7072 
L 1112.51941 174.0096 
L 1113.204914 174.0096 
L 1113.890418 174.0096 
L 1114.575921 174.0096 
L 1115.261425 174.0096 
L 1115.946929 175.824 
L 1116.632432 240.2352 
L 1117.317936 244.4688 
L 1118.00344 244.4688 
L 1118.688943 244.4688 
L 1119.374447 244.7712 
L 1120.059951 247.4928 
L 1120.745455 369.36 
" style="fill:none;stroke:#0000ff;stroke-linecap:round;stroke-width:4;"/>
   </g>
   <g id="line2d_16"/>
   <g id="line2d_17"/>
   <g id="line2d_18"/>
   <g id="line2d_19"/>
   <g id="line2d_20"/>
   <g id="patch_3">
    <path d="M 162 384.48 
L 162 51.84 
" style="fill:none;stroke:#262626;stroke-linecap:square;stroke-linejoin:miter;stroke-width:1.25;"/>
   </g>
   <g id="patch_4">
    <path d="M 1166.4 384.48 
L 1166.4 51.84 
" style="fill:none;stroke:#262626;stroke-linecap:square;stroke-linejoin:miter;stroke-width:1.25;"/>
   </g>
   <g id="patch_5">
    <path d="M 162 384.48 
L 1166.4 384.48 
" style="fill:none;stroke:#262626;stroke-linecap:square;stroke-linejoin:miter;stroke-width:1.25;"/>
   </g>
   <g id="patch_6">
    <path d="M 162 51.84 
L 1166.4 51.84 
" style="fill:none;stroke:#262626;stroke-linecap:square;stroke-linejoin:miter;stroke-width:1.25;"/>
   </g>
   <g id="legend_1">
    <g id="patch_7">
     <path d="M 1073.987969 378.98 
L 1158.7 378.98 
Q 1160.9 378.98 1160.9 376.78 
L 1160.9 283.606406 
Q 1160.9 281.406406 1158.7 281.406406 
L 1073.987969 281.406406 
Q 1071.787969 281.406406 1071.787969 283.606406 
L 1071.787969 376.78 
Q 1071.787969 378.98 1073.987969 378.98 
z
" style="fill:#ffffff;opacity:0.8;stroke:#cccccc;stroke-linejoin:miter;"/>
    </g>
    <g id="text_13">
     <!-- annotation -->
     <g style="fill:#262626;" transform="translate(1088.321172 294.395781)scale(0.12 -0.12)">
      <use xlink:href="#ArialMT-97"/>
      <use x="55.615234" xlink:href="#ArialMT-110"/>
      <use x="111.230469" xlink:href="#ArialMT-110"/>
      <use x="166.845703" xlink:href="#ArialMT-111"/>
      <use x="222.460938" xlink:href="#ArialMT-116"/>
      <use x="250.244141" xlink:href="#ArialMT-97"/>
      <use x="305.859375" xlink:href="#ArialMT-116"/>
      <use x="333.642578" xlink:href="#ArialMT-105"/>
      <use x="355.859375" xlink:href="#ArialMT-111"/>
      <use x="411.474609" xlink:href="#ArialMT-110"/>
     </g>
    </g>
    <g id="line2d_21">
     <path d="M 1076.187969 306.304375 
L 1098.187969 306.304375 
" style="fill:none;stroke:#0000ff;stroke-linecap:round;stroke-width:1.5;"/>
    </g>
    <g id="line2d_22"/>
    <g id="text_14">
     <!-- ZFBS1 -->
     <g style="fill:#262626;" transform="translate(1106.987969 310.154375)scale(0.11 -0.11)">
      <defs>
       <path d="M 2 0 
L 2 8.796875 
L 38.671875 54.640625 
Q 42.578125 59.515625 46.09375 63.140625 
L 6.15625 63.140625 
L 6.15625 71.578125 
L 57.421875 71.578125 
L 57.421875 63.140625 
L 17.234375 13.484375 
L 12.890625 8.453125 
L 58.59375 8.453125 
L 58.59375 0 
z
" id="ArialMT-90"/>
       <path d="M 8.203125 0 
L 8.203125 71.578125 
L 56.5 71.578125 
L 56.5 63.140625 
L 17.671875 63.140625 
L 17.671875 40.96875 
L 51.265625 40.96875 
L 51.265625 32.515625 
L 17.671875 32.515625 
L 17.671875 0 
z
" id="ArialMT-70"/>
       <path d="M 7.328125 0 
L 7.328125 71.578125 
L 34.1875 71.578125 
Q 42.390625 71.578125 47.34375 69.40625 
Q 52.296875 67.234375 55.09375 62.71875 
Q 57.90625 58.203125 57.90625 53.265625 
Q 57.90625 48.6875 55.421875 44.625 
Q 52.9375 40.578125 47.90625 38.09375 
Q 54.390625 36.1875 57.875 31.59375 
Q 61.375 27 61.375 20.75 
Q 61.375 15.71875 59.25 11.390625 
Q 57.125 7.078125 54 4.734375 
Q 50.875 2.390625 46.15625 1.1875 
Q 41.453125 0 34.625 0 
z
M 16.796875 41.5 
L 32.28125 41.5 
Q 38.578125 41.5 41.3125 42.328125 
Q 44.921875 43.40625 46.75 45.890625 
Q 48.578125 48.390625 48.578125 52.15625 
Q 48.578125 55.71875 46.875 58.421875 
Q 45.171875 61.140625 41.984375 62.140625 
Q 38.8125 63.140625 31.109375 63.140625 
L 16.796875 63.140625 
z
M 16.796875 8.453125 
L 34.625 8.453125 
Q 39.203125 8.453125 41.0625 8.796875 
Q 44.34375 9.375 46.53125 10.734375 
Q 48.734375 12.109375 50.140625 14.71875 
Q 51.5625 17.328125 51.5625 20.75 
Q 51.5625 24.75 49.515625 27.703125 
Q 47.46875 30.671875 43.828125 31.859375 
Q 40.1875 33.0625 33.34375 33.0625 
L 16.796875 33.0625 
z
" id="ArialMT-66"/>
       <path d="M 4.5 23 
L 13.421875 23.78125 
Q 14.0625 18.40625 16.375 14.96875 
Q 18.703125 11.53125 23.578125 9.40625 
Q 28.46875 7.28125 34.578125 7.28125 
Q 39.984375 7.28125 44.140625 8.890625 
Q 48.296875 10.5 50.3125 13.296875 
Q 52.34375 16.109375 52.34375 19.4375 
Q 52.34375 22.796875 50.390625 25.3125 
Q 48.4375 27.828125 43.953125 29.546875 
Q 41.0625 30.671875 31.203125 33.03125 
Q 21.34375 35.40625 17.390625 37.5 
Q 12.25 40.1875 9.734375 44.15625 
Q 7.234375 48.140625 7.234375 53.078125 
Q 7.234375 58.5 10.296875 63.203125 
Q 13.375 67.921875 19.28125 70.359375 
Q 25.203125 72.796875 32.421875 72.796875 
Q 40.375 72.796875 46.453125 70.234375 
Q 52.546875 67.671875 55.8125 62.6875 
Q 59.078125 57.71875 59.328125 51.421875 
L 50.25 50.734375 
Q 49.515625 57.515625 45.28125 60.984375 
Q 41.0625 64.453125 32.8125 64.453125 
Q 24.21875 64.453125 20.28125 61.296875 
Q 16.359375 58.15625 16.359375 53.71875 
Q 16.359375 49.859375 19.140625 47.359375 
Q 21.875 44.875 33.421875 42.265625 
Q 44.96875 39.65625 49.265625 37.703125 
Q 55.515625 34.8125 58.484375 30.390625 
Q 61.46875 25.984375 61.46875 20.21875 
Q 61.46875 14.5 58.203125 9.4375 
Q 54.9375 4.390625 48.796875 1.578125 
Q 42.671875 -1.21875 35.015625 -1.21875 
Q 25.296875 -1.21875 18.71875 1.609375 
Q 12.15625 4.4375 8.421875 10.125 
Q 4.6875 15.828125 4.5 23 
z
" id="ArialMT-83"/>
      </defs>
      <use xlink:href="#ArialMT-90"/>
      <use x="61.083984" xlink:href="#ArialMT-70"/>
      <use x="122.167969" xlink:href="#ArialMT-66"/>
      <use x="188.867188" xlink:href="#ArialMT-83"/>
      <use x="255.566406" xlink:href="#ArialMT-49"/>
     </g>
    </g>
    <g id="line2d_23">
     <path d="M 1076.187969 321.864219 
L 1098.187969 321.864219 
" style="fill:none;stroke:#800080;stroke-linecap:round;stroke-width:1.5;"/>
    </g>
    <g id="line2d_24"/>
    <g id="text_15">
     <!-- promoter -->
     <g style="fill:#262626;" transform="translate(1106.987969 325.714219)scale(0.11 -0.11)">
      <defs>
       <path d="M 6.5 0 
L 6.5 51.859375 
L 14.40625 51.859375 
L 14.40625 44 
Q 17.4375 49.515625 20 51.265625 
Q 22.5625 53.03125 25.640625 53.03125 
Q 30.078125 53.03125 34.671875 50.203125 
L 31.640625 42.046875 
Q 28.421875 43.953125 25.203125 43.953125 
Q 22.3125 43.953125 20.015625 42.21875 
Q 17.71875 40.484375 16.75 37.40625 
Q 15.28125 32.71875 15.28125 27.15625 
L 15.28125 0 
z
" id="ArialMT-114"/>
       <path d="M 6.59375 0 
L 6.59375 51.859375 
L 14.453125 51.859375 
L 14.453125 44.578125 
Q 16.890625 48.390625 20.9375 50.703125 
Q 25 53.03125 30.171875 53.03125 
Q 35.9375 53.03125 39.625 50.640625 
Q 43.3125 48.25 44.828125 43.953125 
Q 50.984375 53.03125 60.84375 53.03125 
Q 68.5625 53.03125 72.703125 48.75 
Q 76.859375 44.484375 76.859375 35.59375 
L 76.859375 0 
L 68.109375 0 
L 68.109375 32.671875 
Q 68.109375 37.9375 67.25 40.25 
Q 66.40625 42.578125 64.15625 43.984375 
Q 61.921875 45.40625 58.890625 45.40625 
Q 53.421875 45.40625 49.796875 41.765625 
Q 46.1875 38.140625 46.1875 30.125 
L 46.1875 0 
L 37.40625 0 
L 37.40625 33.6875 
Q 37.40625 39.546875 35.25 42.46875 
Q 33.109375 45.40625 28.21875 45.40625 
Q 24.515625 45.40625 21.359375 43.453125 
Q 18.21875 41.5 16.796875 37.734375 
Q 15.375 33.984375 15.375 26.90625 
L 15.375 0 
z
" id="ArialMT-109"/>
       <path d="M 42.09375 16.703125 
L 51.171875 15.578125 
Q 49.03125 7.625 43.21875 3.21875 
Q 37.40625 -1.171875 28.375 -1.171875 
Q 17 -1.171875 10.328125 5.828125 
Q 3.65625 12.84375 3.65625 25.484375 
Q 3.65625 38.578125 10.390625 45.796875 
Q 17.140625 53.03125 27.875 53.03125 
Q 38.28125 53.03125 44.875 45.953125 
Q 51.46875 38.875 51.46875 26.03125 
Q 51.46875 25.25 51.421875 23.6875 
L 12.75 23.6875 
Q 13.234375 15.140625 17.578125 10.59375 
Q 21.921875 6.0625 28.421875 6.0625 
Q 33.25 6.0625 36.671875 8.59375 
Q 40.09375 11.140625 42.09375 16.703125 
z
M 13.234375 30.90625 
L 42.1875 30.90625 
Q 41.609375 37.453125 38.875 40.71875 
Q 34.671875 45.796875 27.984375 45.796875 
Q 21.921875 45.796875 17.796875 41.75 
Q 13.671875 37.703125 13.234375 30.90625 
z
" id="ArialMT-101"/>
      </defs>
      <use xlink:href="#ArialMT-112"/>
      <use x="55.615234" xlink:href="#ArialMT-114"/>
      <use x="88.916016" xlink:href="#ArialMT-111"/>
      <use x="144.53125" xlink:href="#ArialMT-109"/>
      <use x="227.832031" xlink:href="#ArialMT-111"/>
      <use x="283.447266" xlink:href="#ArialMT-116"/>
      <use x="311.230469" xlink:href="#ArialMT-101"/>
      <use x="366.845703" xlink:href="#ArialMT-114"/>
     </g>
    </g>
    <g id="line2d_25">
     <path d="M 1076.187969 337.424062 
L 1098.187969 337.424062 
" style="fill:none;stroke:#008000;stroke-linecap:round;stroke-width:1.5;"/>
    </g>
    <g id="line2d_26"/>
    <g id="text_16">
     <!-- reporter -->
     <g style="fill:#262626;" transform="translate(1106.987969 341.274063)scale(0.11 -0.11)">
      <use xlink:href="#ArialMT-114"/>
      <use x="33.300781" xlink:href="#ArialMT-101"/>
      <use x="88.916016" xlink:href="#ArialMT-112"/>
      <use x="144.53125" xlink:href="#ArialMT-111"/>
      <use x="200.146484" xlink:href="#ArialMT-114"/>
      <use x="233.447266" xlink:href="#ArialMT-116"/>
      <use x="261.230469" xlink:href="#ArialMT-101"/>
      <use x="316.845703" xlink:href="#ArialMT-114"/>
     </g>
    </g>
    <g id="line2d_27">
     <path d="M 1076.187969 352.983906 
L 1098.187969 352.983906 
" style="fill:none;stroke:#000000;stroke-linecap:round;stroke-width:1.5;"/>
    </g>
    <g id="line2d_28"/>
    <g id="text_17">
     <!-- terminator -->
     <g style="fill:#262626;" transform="translate(1106.987969 356.833906)scale(0.11 -0.11)">
      <use xlink:href="#ArialMT-116"/>
      <use x="27.783203" xlink:href="#ArialMT-101"/>
      <use x="83.398438" xlink:href="#ArialMT-114"/>
      <use x="116.699219" xlink:href="#ArialMT-109"/>
      <use x="200" xlink:href="#ArialMT-105"/>
      <use x="222.216797" xlink:href="#ArialMT-110"/>
      <use x="277.832031" xlink:href="#ArialMT-97"/>
      <use x="333.447266" xlink:href="#ArialMT-116"/>
      <use x="361.230469" xlink:href="#ArialMT-111"/>
      <use x="416.845703" xlink:href="#ArialMT-114"/>
     </g>
    </g>
    <g id="line2d_29">
     <path d="M 1076.187969 368.54375 
L 1098.187969 368.54375 
" style="fill:none;stroke:#0000ff;stroke-linecap:round;stroke-width:1.5;"/>
    </g>
    <g id="line2d_30"/>
    <g id="text_18">
     <!-- ZFBS2 -->
     <g style="fill:#262626;" transform="translate(1106.987969 372.39375)scale(0.11 -0.11)">
      <use xlink:href="#ArialMT-90"/>
      <use x="61.083984" xlink:href="#ArialMT-70"/>
      <use x="122.167969" xlink:href="#ArialMT-66"/>
      <use x="188.867188" xlink:href="#ArialMT-83"/>
      <use x="255.566406" xlink:href="#ArialMT-50"/>
     </g>
    </g>
   </g>
  </g>
 </g>
 <defs>
  <clipPath id="p37df672cba">
   <rect height="332.64" width="1004.4" x="162" y="51.84"/>
  </clipPath>
 </defs>
</svg>
