<?xml version="1.0" encoding="utf-8" standalone="no"?>
<!DOCTYPE svg PUBLIC "-//W3C//DTD SVG 1.1//EN"
  "http://www.w3.org/Graphics/SVG/1.1/DTD/svg11.dtd">
<svg xmlns:xlink="http://www.w3.org/1999/xlink" width="460.8pt" height="345.6pt" viewBox="0 0 460.8 345.6" xmlns="http://www.w3.org/2000/svg" version="1.1">
 <metadata>
  <rdf:RDF xmlns:dc="http://purl.org/dc/elements/1.1/" xmlns:cc="http://creativecommons.org/ns#" xmlns:rdf="http://www.w3.org/1999/02/22-rdf-syntax-ns#">
   <cc:Work>
    <dc:type rdf:resource="http://purl.org/dc/dcmitype/StillImage"/>
    <dc:date>2023-01-19T16:39:47.297008</dc:date>
    <dc:format>image/svg+xml</dc:format>
    <dc:creator>
     <cc:Agent>
      <dc:title>Matplotlib v3.6.2, https://matplotlib.org/</dc:title>
     </cc:Agent>
    </dc:creator>
   </cc:Work>
  </rdf:RDF>
 </metadata>
 <defs>
  <style type="text/css">*{stroke-linejoin: round; stroke-linecap: butt}</style>
 </defs>
 <g id="figure_1">
  <g id="patch_1">
   <path d="M 0 345.6 
L 460.8 345.6 
L 460.8 0 
L 0 0 
z
" style="fill: #ffffff"/>
  </g>
  <g id="axes_1">
   <g id="patch_2">
    <path d="M 57.6 307.584 
L 414.72 307.584 
L 414.72 41.472 
L 57.6 41.472 
z
" style="fill: #ffffff"/>
   </g>
   <g id="PolyCollection_1">
    <defs>
     <path id="m2d0e83c118" d="M 57.6 -38.016 
L 57.6 -38.016 
L 58.315671 -35.706719 
L 59.031343 -34.691071 
L 59.747014 -34.691071 
L 60.462685 -34.284502 
L 61.178357 -34.366182 
L 61.894028 -34.350943 
L 62.609699 -35.282348 
L 63.325371 -35.091019 
L 64.041042 -34.953499 
L 64.756713 -34.583086 
L 65.472385 -34.544346 
L 66.188056 -35.140485 
L 66.903727 -35.541194 
L 67.619399 -35.720142 
L 68.33507 -36.298424 
L 69.050741 -36.639177 
L 69.766413 -37.250765 
L 70.482084 -37.289255 
L 71.197756 -37.240855 
L 71.913427 -37.693831 
L 72.629098 -37.529496 
L 73.34477 -37.72496 
L 74.060441 -38.071016 
L 74.776112 -38.224391 
L 75.491784 -38.478145 
L 76.207455 -38.847004 
L 76.923126 -38.90326 
L 77.638798 -39.089105 
L 78.354469 -38.962091 
L 79.07014 -38.619152 
L 79.785812 -38.981541 
L 80.501483 -39.264771 
L 81.217154 -39.56512 
L 81.932826 -39.70951 
L 82.648497 -39.808864 
L 83.364168 -39.996372 
L 84.07984 -40.358676 
L 84.795511 -40.716789 
L 85.511182 -40.816528 
L 86.226854 -41.83974 
L 86.942525 -42.708667 
L 87.658196 -43.105322 
L 88.373868 -43.590625 
L 89.089539 -43.812927 
L 89.80521 -44.177646 
L 90.520882 -43.799479 
L 91.236553 -44.420993 
L 91.952224 -44.953574 
L 92.667896 -45.099245 
L 93.383567 -45.591305 
L 94.099238 -46.364845 
L 94.81491 -46.365118 
L 95.530581 -47.089893 
L 96.246253 -47.479332 
L 96.961924 -47.866504 
L 97.677595 -48.682958 
L 98.393267 -48.676674 
L 99.108938 -48.985937 
L 99.824609 -49.322235 
L 100.540281 -50.053697 
L 101.255952 -50.780663 
L 101.971623 -51.325964 
L 102.687295 -51.961981 
L 103.402966 -52.709426 
L 104.118637 -53.16065 
L 104.834309 -53.378636 
L 105.54998 -53.538915 
L 106.265651 -53.576078 
L 106.981323 -53.790253 
L 107.696994 -53.645684 
L 108.412665 -53.863529 
L 109.128337 -54.124588 
L 109.844008 -54.631251 
L 110.559679 -55.075119 
L 111.275351 -55.637113 
L 111.991022 -56.400275 
L 112.706693 -56.432998 
L 113.422365 -56.893108 
L 114.138036 -56.857691 
L 114.853707 -56.905441 
L 115.569379 -57.908265 
L 116.28505 -58.915574 
L 117.000721 -59.276936 
L 117.716393 -59.675275 
L 118.432064 -60.042957 
L 119.147735 -60.508564 
L 119.863407 -61.396294 
L 120.579078 -61.805577 
L 121.294749 -61.737378 
L 122.010421 -61.650893 
L 122.726092 -61.931709 
L 123.441764 -62.211778 
L 124.157435 -62.85221 
L 124.873106 -63.415809 
L 125.588778 -63.404727 
L 126.304449 -64.155182 
L 127.02012 -64.744542 
L 127.735792 -65.029214 
L 128.451463 -65.400915 
L 129.167134 -66.45214 
L 129.882806 -67.686904 
L 130.598477 -67.930613 
L 131.314148 -68.06644 
L 132.02982 -69.504173 
L 132.745491 -69.10729 
L 133.461162 -69.220751 
L 134.176834 -69.174592 
L 134.892505 -70.189715 
L 135.608176 -70.490755 
L 136.323848 -70.889017 
L 137.039519 -71.632021 
L 137.75519 -71.996583 
L 138.470862 -72.055484 
L 139.186533 -72.467353 
L 139.902204 -72.775775 
L 140.617876 -73.53394 
L 141.333547 -73.777309 
L 142.049218 -73.994862 
L 142.76489 -74.590608 
L 143.480561 -75.080145 
L 144.196232 -75.591014 
L 144.911904 -76.509197 
L 145.627575 -76.654762 
L 146.343246 -77.254947 
L 147.058918 -77.788249 
L 147.774589 -78.360239 
L 148.490261 -78.964654 
L 149.205932 -79.18265 
L 149.921603 -79.880179 
L 150.637275 -80.122264 
L 151.352946 -80.173386 
L 152.068617 -81.011439 
L 152.784289 -81.403418 
L 153.49996 -81.458215 
L 154.215631 -81.773575 
L 154.931303 -81.804274 
L 155.646974 -82.418915 
L 156.362645 -82.899524 
L 157.078317 -83.313564 
L 157.793988 -83.886003 
L 158.509659 -84.009111 
L 159.225331 -84.282932 
L 159.941002 -84.717316 
L 160.656673 -85.343416 
L 161.372345 -85.438692 
L 162.088016 -85.870027 
L 162.803687 -86.4304 
L 163.519359 -86.722634 
L 164.23503 -86.847477 
L 164.950701 -87.003441 
L 165.666373 -87.531028 
L 166.382044 -87.83612 
L 167.097715 -88.356007 
L 167.813387 -88.984466 
L 168.529058 -89.828798 
L 169.244729 -90.657421 
L 169.960401 -91.419745 
L 170.676072 -91.77173 
L 171.391743 -91.884282 
L 172.107415 -92.273589 
L 172.823086 -91.979605 
L 173.538758 -91.837839 
L 174.254429 -92.374259 
L 174.9701 -93.039501 
L 175.685772 -93.26653 
L 176.401443 -93.44773 
L 177.117114 -93.832576 
L 177.832786 -94.433351 
L 178.548457 -94.870313 
L 179.264128 -95.23287 
L 179.9798 -95.801452 
L 180.695471 -96.738786 
L 181.411142 -97.515873 
L 182.126814 -97.920192 
L 182.842485 -98.089901 
L 183.558156 -98.268157 
L 184.273828 -98.610726 
L 184.989499 -98.929817 
L 185.70517 -99.844607 
L 186.420842 -100.140875 
L 187.136513 -100.644837 
L 187.852184 -101.198315 
L 188.567856 -101.776607 
L 189.283527 -102.140977 
L 189.999198 -102.609309 
L 190.71487 -102.945279 
L 191.430541 -103.975961 
L 192.146212 -104.667955 
L 192.861884 -105.362411 
L 193.577555 -105.42259 
L 194.293226 -106.198296 
L 195.008898 -106.520538 
L 195.724569 -106.945094 
L 196.44024 -107.020005 
L 197.155912 -107.286897 
L 197.871583 -108.1188 
L 198.587255 -108.550982 
L 199.302926 -108.630728 
L 200.018597 -109.045847 
L 200.734269 -109.630167 
L 201.44994 -110.222367 
L 202.165611 -111.865873 
L 202.881283 -112.312448 
L 203.596954 -113.113607 
L 204.312625 -114.000213 
L 205.028297 -115.032276 
L 205.743968 -115.224509 
L 206.459639 -115.44853 
L 207.175311 -116.404106 
L 207.890982 -116.756763 
L 208.606653 -117.507193 
L 209.322325 -117.779604 
L 210.037996 -117.717578 
L 210.753667 -118.072579 
L 211.469339 -118.32166 
L 212.18501 -118.831396 
L 212.900681 -120.197266 
L 213.616353 -121.114295 
L 214.332024 -121.17086 
L 215.047695 -121.67126 
L 215.763367 -122.528311 
L 216.479038 -122.963993 
L 217.194709 -123.291892 
L 217.910381 -123.740319 
L 218.626052 -124.269641 
L 219.341723 -124.017637 
L 220.057395 -124.827565 
L 220.773066 -125.43868 
L 221.488737 -125.627301 
L 222.204409 -125.422727 
L 222.92008 -125.539191 
L 223.635752 -125.741782 
L 224.351423 -126.67032 
L 225.067094 -127.145769 
L 225.782766 -128.30021 
L 226.498437 -129.152914 
L 227.214108 -129.214632 
L 227.92978 -130.014017 
L 228.645451 -129.878036 
L 229.361122 -131.485666 
L 230.076794 -131.380946 
L 230.792465 -131.635271 
L 231.508136 -132.037072 
L 232.223808 -132.335036 
L 232.939479 -132.998859 
L 233.65515 -133.749211 
L 234.370822 -134.063075 
L 235.086493 -134.794524 
L 235.802164 -134.943197 
L 236.517836 -134.99555 
L 237.233507 -135.353754 
L 237.949178 -136.028982 
L 238.66485 -136.718681 
L 239.380521 -137.144869 
L 240.096192 -137.499484 
L 240.811864 -137.891064 
L 241.527535 -138.410614 
L 242.243206 -138.767035 
L 242.958878 -138.901525 
L 243.674549 -139.669231 
L 244.39022 -140.299542 
L 245.105892 -140.536171 
L 245.821563 -141.102633 
L 246.537234 -141.66239 
L 247.252906 -141.718419 
L 247.968577 -142.527325 
L 248.684248 -142.735332 
L 249.39992 -143.387355 
L 250.115591 -143.818635 
L 250.831263 -144.380875 
L 251.546934 -144.9283 
L 252.262605 -145.658971 
L 252.978277 -146.600894 
L 253.693948 -146.863672 
L 254.409619 -147.024096 
L 255.125291 -147.974718 
L 255.840962 -148.361134 
L 256.556633 -148.644755 
L 257.272305 -149.470899 
L 257.987976 -149.803777 
L 258.703647 -150.158946 
L 259.419319 -150.478396 
L 260.13499 -150.791402 
L 260.850661 -151.586601 
L 261.566333 -152.113885 
L 262.282004 -152.453594 
L 262.997675 -152.767603 
L 263.713347 -153.291108 
L 264.429018 -154.15034 
L 265.144689 -154.496882 
L 265.860361 -155.467706 
L 266.576032 -155.687404 
L 267.291703 -155.762674 
L 268.007375 -155.89518 
L 268.723046 -156.585405 
L 269.438717 -157.035966 
L 270.154389 -157.434771 
L 270.87006 -157.579614 
L 271.585731 -158.201151 
L 272.301403 -159.029696 
L 273.017074 -158.972502 
L 273.732745 -159.809468 
L 274.448417 -159.966713 
L 275.164088 -160.666662 
L 275.87976 -161.156942 
L 276.595431 -161.117741 
L 277.311102 -161.300462 
L 278.026774 -162.802854 
L 278.742445 -163.341553 
L 279.458116 -163.911373 
L 280.173788 -163.990867 
L 280.889459 -164.609127 
L 281.60513 -165.454263 
L 282.320802 -166.18795 
L 283.036473 -167.00305 
L 283.752144 -167.307611 
L 284.467816 -168.263671 
L 285.183487 -169.087105 
L 285.899158 -169.00635 
L 286.61483 -170.002245 
L 287.330501 -170.394324 
L 288.046172 -171.934649 
L 288.761844 -172.611406 
L 289.477515 -172.722552 
L 290.193186 -174.108504 
L 290.908858 -174.544437 
L 291.624529 -174.417194 
L 292.3402 -174.947415 
L 293.055872 -175.819094 
L 293.771543 -175.853508 
L 294.487214 -175.954409 
L 295.202886 -176.985403 
L 295.918557 -177.560634 
L 296.634228 -177.979391 
L 297.3499 -178.458361 
L 298.065571 -179.075498 
L 298.781242 -179.451051 
L 299.496914 -179.472252 
L 300.212585 -180.535654 
L 300.928257 -181.114744 
L 301.643928 -181.659055 
L 302.359599 -181.868974 
L 303.075271 -181.802679 
L 303.790942 -182.251325 
L 304.506613 -182.530927 
L 305.222285 -182.772223 
L 305.937956 -183.820662 
L 306.653627 -184.568335 
L 307.369299 -184.878145 
L 308.08497 -185.435935 
L 308.800641 -186.090101 
L 309.516313 -186.249319 
L 310.231984 -186.829013 
L 310.947655 -187.014208 
L 311.663327 -187.836272 
L 312.378998 -187.713882 
L 313.094669 -188.038555 
L 313.810341 -188.889646 
L 314.526012 -189.523121 
L 315.241683 -190.17046 
L 315.957355 -190.639146 
L 316.673026 -191.605242 
L 317.388697 -192.404996 
L 318.104369 -192.97551 
L 318.82004 -193.422439 
L 319.535711 -193.935925 
L 320.251383 -194.262881 
L 320.967054 -194.812104 
L 321.682725 -195.482084 
L 322.398397 -196.087005 
L 323.114068 -196.715732 
L 323.829739 -197.157029 
L 324.545411 -197.764063 
L 325.261082 -198.650893 
L 325.976754 -199.045204 
L 326.692425 -199.634622 
L 327.408096 -199.623373 
L 328.123768 -200.982368 
L 328.839439 -201.823777 
L 329.55511 -202.050797 
L 330.270782 -202.962506 
L 330.986453 -202.722702 
L 331.702124 -203.680748 
L 332.417796 -204.217661 
L 333.133467 -205.107771 
L 333.849138 -205.311839 
L 334.56481 -205.797492 
L 335.280481 -206.174814 
L 335.996152 -206.702509 
L 336.711824 -206.949588 
L 337.427495 -207.970053 
L 338.143166 -208.447566 
L 338.858838 -208.600594 
L 339.574509 -209.202826 
L 340.29018 -209.749232 
L 341.005852 -210.393321 
L 341.721523 -211.412002 
L 342.437194 -211.791189 
L 343.152866 -213.19461 
L 343.868537 -213.752957 
L 344.584208 -214.048602 
L 345.29988 -215.511524 
L 346.015551 -216.058554 
L 346.731222 -216.740059 
L 347.446894 -217.264545 
L 348.162565 -217.786844 
L 348.878236 -218.637627 
L 349.593908 -219.261231 
L 350.309579 -220.158703 
L 351.025251 -220.71279 
L 351.740922 -221.540729 
L 352.456593 -222.412057 
L 353.172265 -223.06055 
L 353.887936 -223.347427 
L 354.603607 -224.32204 
L 355.319279 -224.772496 
L 356.03495 -225.146398 
L 356.750621 -225.801734 
L 357.466293 -226.48829 
L 358.181964 -226.887104 
L 358.897635 -227.724739 
L 359.613307 -228.189997 
L 360.328978 -228.690875 
L 361.044649 -229.039172 
L 361.760321 -229.898206 
L 362.475992 -230.025304 
L 363.191663 -230.052343 
L 363.907335 -230.708932 
L 364.623006 -231.001143 
L 365.338677 -231.595333 
L 366.054349 -232.154479 
L 366.77002 -232.828444 
L 367.485691 -234.198245 
L 368.201363 -234.955885 
L 368.917034 -235.28344 
L 369.632705 -235.684769 
L 370.348377 -236.270723 
L 371.064048 -237.282153 
L 371.779719 -238.211856 
L 372.495391 -238.71134 
L 373.211062 -240.015873 
L 373.926733 -240.5834 
L 374.642405 -241.717509 
L 375.358076 -242.122858 
L 376.073747 -242.725927 
L 376.789419 -243.507703 
L 377.50509 -244.118876 
L 378.220762 -245.498331 
L 378.936433 -246.103208 
L 379.652104 -246.224565 
L 380.367776 -247.003502 
L 381.083447 -247.263998 
L 381.799118 -247.960326 
L 382.51479 -249.389258 
L 383.230461 -249.9051 
L 383.946132 -250.757192 
L 384.661804 -251.298379 
L 385.377475 -252.174596 
L 386.093146 -252.514373 
L 386.808818 -253.242934 
L 387.524489 -254.500031 
L 388.24016 -254.822979 
L 388.955832 -255.54595 
L 389.671503 -256.195703 
L 390.387174 -256.500041 
L 391.102846 -258.038523 
L 391.818517 -258.492506 
L 392.534188 -259.420021 
L 393.24986 -260.317047 
L 393.965531 -260.485623 
L 394.681202 -260.854952 
L 395.396874 -261.230631 
L 396.112545 -261.672821 
L 396.828216 -261.852009 
L 397.543888 -262.056874 
L 398.259559 -262.456192 
L 398.97523 -262.711087 
L 399.690902 -264.239378 
L 400.406573 -265.354748 
L 401.122244 -266.279437 
L 401.837916 -267.211681 
L 402.553587 -268.724612 
L 403.269259 -269.000746 
L 403.98493 -269.971691 
L 404.700601 -271.569913 
L 405.416273 -272.144303 
L 406.131944 -272.698414 
L 406.847615 -274.339745 
L 407.563287 -274.635802 
L 408.278958 -276.59053 
L 408.994629 -278.014377 
L 409.710301 -278.423398 
L 410.425972 -279.847437 
L 411.141643 -280.295401 
L 411.857315 -282.649956 
L 412.572986 -284.320003 
L 413.288657 -284.320003 
L 414.004329 -287.714216 
L 414.72 -291.456 
L 414.72 -291.456 
L 414.72 -291.456 
L 414.004329 -294.070603 
L 413.288657 -295.13977 
L 412.572986 -295.13977 
L 411.857315 -295.020869 
L 411.141643 -295.612727 
L 410.425972 -295.474927 
L 409.710301 -295.330735 
L 408.994629 -295.147941 
L 408.278958 -294.755469 
L 407.563287 -294.778859 
L 406.847615 -294.682236 
L 406.131944 -294.426659 
L 405.416273 -294.067466 
L 404.700601 -293.548704 
L 403.98493 -293.447026 
L 403.269259 -293.221315 
L 402.553587 -292.719477 
L 401.837916 -293.09568 
L 401.122244 -293.010997 
L 400.406573 -291.69211 
L 399.690902 -291.703042 
L 398.97523 -291.487973 
L 398.259559 -290.532987 
L 397.543888 -290.011432 
L 396.828216 -289.181008 
L 396.112545 -287.924249 
L 395.396874 -287.572117 
L 394.681202 -287.201769 
L 393.965531 -286.607701 
L 393.24986 -285.502724 
L 392.534188 -285.111076 
L 391.818517 -284.660157 
L 391.102846 -284.452617 
L 390.387174 -284.517422 
L 389.671503 -283.997881 
L 388.955832 -283.771951 
L 388.24016 -283.446114 
L 387.524489 -283.035139 
L 386.808818 -282.926106 
L 386.093146 -282.662752 
L 385.377475 -282.262528 
L 384.661804 -281.686027 
L 383.946132 -281.342688 
L 383.230461 -281.407865 
L 382.51479 -280.574026 
L 381.799118 -280.548802 
L 381.083447 -280.082483 
L 380.367776 -279.071707 
L 379.652104 -279.070442 
L 378.936433 -278.33728 
L 378.220762 -278.076798 
L 377.50509 -277.687082 
L 376.789419 -277.580707 
L 376.073747 -277.347193 
L 375.358076 -276.622327 
L 374.642405 -275.671921 
L 373.926733 -275.789182 
L 373.211062 -275.506514 
L 372.495391 -275.70033 
L 371.779719 -275.283035 
L 371.064048 -275.356821 
L 370.348377 -275.29358 
L 369.632705 -274.697451 
L 368.917034 -274.324766 
L 368.201363 -273.712834 
L 367.485691 -273.096694 
L 366.77002 -273.083412 
L 366.054349 -272.484675 
L 365.338677 -272.301109 
L 364.623006 -272.136156 
L 363.907335 -271.894914 
L 363.191663 -271.752741 
L 362.475992 -270.971167 
L 361.760321 -269.999001 
L 361.044649 -269.984097 
L 360.328978 -269.224452 
L 359.613307 -269.050314 
L 358.897635 -268.315542 
L 358.181964 -267.978127 
L 357.466293 -267.359003 
L 356.750621 -266.911054 
L 356.03495 -266.614606 
L 355.319279 -266.342768 
L 354.603607 -265.956529 
L 353.887936 -265.719631 
L 353.172265 -265.195816 
L 352.456593 -264.81817 
L 351.740922 -264.326636 
L 351.025251 -264.370578 
L 350.309579 -264.11937 
L 349.593908 -264.116426 
L 348.878236 -264.164103 
L 348.162565 -264.10497 
L 347.446894 -263.753985 
L 346.731222 -263.359154 
L 346.015551 -263.212081 
L 345.29988 -262.754177 
L 344.584208 -262.373969 
L 343.868537 -261.756958 
L 343.152866 -261.501633 
L 342.437194 -261.676532 
L 341.721523 -261.321979 
L 341.005852 -261.146336 
L 340.29018 -260.616706 
L 339.574509 -260.051408 
L 338.858838 -259.976177 
L 338.143166 -259.570414 
L 337.427495 -259.443282 
L 336.711824 -259.244018 
L 335.996152 -258.436446 
L 335.280481 -257.844104 
L 334.56481 -257.339901 
L 333.849138 -256.66762 
L 333.133467 -256.348118 
L 332.417796 -255.759551 
L 331.702124 -255.275274 
L 330.986453 -254.965596 
L 330.270782 -253.680614 
L 329.55511 -253.674105 
L 328.839439 -253.097826 
L 328.123768 -252.919576 
L 327.408096 -252.988937 
L 326.692425 -252.357106 
L 325.976754 -251.885578 
L 325.261082 -251.640297 
L 324.545411 -251.242718 
L 323.829739 -250.947931 
L 323.114068 -250.533103 
L 322.398397 -249.970471 
L 321.682725 -249.752525 
L 320.967054 -249.373315 
L 320.251383 -248.859966 
L 319.535711 -247.750917 
L 318.82004 -247.316273 
L 318.104369 -247.215282 
L 317.388697 -247.105631 
L 316.673026 -246.310033 
L 315.957355 -246.034892 
L 315.241683 -245.405491 
L 314.526012 -245.100057 
L 313.810341 -244.978713 
L 313.094669 -244.85555 
L 312.378998 -244.584975 
L 311.663327 -243.397061 
L 310.947655 -242.830943 
L 310.231984 -242.535444 
L 309.516313 -242.311676 
L 308.800641 -241.695306 
L 308.08497 -240.746294 
L 307.369299 -240.468064 
L 306.653627 -240.168318 
L 305.937956 -239.790742 
L 305.222285 -239.580752 
L 304.506613 -239.108582 
L 303.790942 -238.29311 
L 303.075271 -237.906991 
L 302.359599 -236.387374 
L 301.643928 -235.757235 
L 300.928257 -234.991827 
L 300.212585 -234.286399 
L 299.496914 -234.191336 
L 298.781242 -233.601354 
L 298.065571 -233.21221 
L 297.3499 -233.026059 
L 296.634228 -232.508436 
L 295.918557 -232.257059 
L 295.202886 -231.490162 
L 294.487214 -231.124848 
L 293.771543 -230.495733 
L 293.055872 -229.753574 
L 292.3402 -229.631937 
L 291.624529 -229.354284 
L 290.908858 -228.123348 
L 290.193186 -227.769639 
L 289.477515 -227.839741 
L 288.761844 -227.255507 
L 288.046172 -226.809316 
L 287.330501 -227.262924 
L 286.61483 -226.874634 
L 285.899158 -226.286541 
L 285.183487 -225.427802 
L 284.467816 -224.827817 
L 283.752144 -224.830358 
L 283.036473 -224.601472 
L 282.320802 -224.276529 
L 281.60513 -224.213459 
L 280.889459 -224.223982 
L 280.173788 -223.852483 
L 279.458116 -223.175614 
L 278.742445 -222.512878 
L 278.026774 -221.6964 
L 277.311102 -221.929471 
L 276.595431 -221.703767 
L 275.87976 -220.733036 
L 275.164088 -220.048095 
L 274.448417 -219.860653 
L 273.732745 -218.662594 
L 273.017074 -218.561066 
L 272.301403 -217.964997 
L 271.585731 -218.00303 
L 270.87006 -217.544476 
L 270.154389 -216.168533 
L 269.438717 -215.504035 
L 268.723046 -214.753275 
L 268.007375 -214.28929 
L 267.291703 -213.8741 
L 266.576032 -213.067147 
L 265.860361 -212.412538 
L 265.144689 -212.51231 
L 264.429018 -212.207719 
L 263.713347 -212.184782 
L 262.997675 -211.490388 
L 262.282004 -211.039412 
L 261.566333 -210.224307 
L 260.850661 -209.850778 
L 260.13499 -209.268109 
L 259.419319 -208.36122 
L 258.703647 -207.732854 
L 257.987976 -207.543704 
L 257.272305 -206.741401 
L 256.556633 -206.159446 
L 255.840962 -205.132369 
L 255.125291 -204.600736 
L 254.409619 -204.42348 
L 253.693948 -204.095708 
L 252.978277 -203.469581 
L 252.262605 -202.969802 
L 251.546934 -202.844807 
L 250.831263 -202.683903 
L 250.115591 -201.910847 
L 249.39992 -201.813358 
L 248.684248 -201.548542 
L 247.968577 -200.792559 
L 247.252906 -200.736156 
L 246.537234 -200.134981 
L 245.821563 -199.509968 
L 245.105892 -199.256628 
L 244.39022 -198.606175 
L 243.674549 -198.303266 
L 242.958878 -197.417792 
L 242.243206 -197.115576 
L 241.527535 -196.094486 
L 240.811864 -195.830389 
L 240.096192 -195.229718 
L 239.380521 -194.620022 
L 238.66485 -194.578236 
L 237.949178 -193.535398 
L 237.233507 -192.863643 
L 236.517836 -192.636393 
L 235.802164 -191.924984 
L 235.086493 -191.301311 
L 234.370822 -190.59684 
L 233.65515 -190.267903 
L 232.939479 -190.471537 
L 232.223808 -190.094788 
L 231.508136 -189.451363 
L 230.792465 -188.896918 
L 230.076794 -187.991043 
L 229.361122 -187.496838 
L 228.645451 -187.261447 
L 227.92978 -186.14702 
L 227.214108 -185.704345 
L 226.498437 -184.723376 
L 225.782766 -184.501815 
L 225.067094 -184.195001 
L 224.351423 -184.202347 
L 223.635752 -183.835068 
L 222.92008 -182.976895 
L 222.204409 -182.816649 
L 221.488737 -182.010482 
L 220.773066 -181.64422 
L 220.057395 -181.030425 
L 219.341723 -180.624551 
L 218.626052 -179.554841 
L 217.910381 -179.26055 
L 217.194709 -179.186163 
L 216.479038 -178.705511 
L 215.763367 -177.318164 
L 215.047695 -176.328909 
L 214.332024 -175.582979 
L 213.616353 -174.363851 
L 212.900681 -173.539559 
L 212.18501 -173.204356 
L 211.469339 -172.817305 
L 210.753667 -171.800616 
L 210.037996 -171.095035 
L 209.322325 -170.355607 
L 208.606653 -170.105468 
L 207.890982 -169.62494 
L 207.175311 -168.989886 
L 206.459639 -168.698356 
L 205.743968 -168.032186 
L 205.028297 -167.420549 
L 204.312625 -167.544058 
L 203.596954 -167.410551 
L 202.881283 -167.118181 
L 202.165611 -166.189984 
L 201.44994 -166.434209 
L 200.734269 -166.304386 
L 200.018597 -165.497669 
L 199.302926 -165.115272 
L 198.587255 -164.367066 
L 197.871583 -163.579904 
L 197.155912 -163.28107 
L 196.44024 -162.826482 
L 195.724569 -162.348305 
L 195.008898 -161.632504 
L 194.293226 -161.122957 
L 193.577555 -160.958414 
L 192.861884 -159.517157 
L 192.146212 -159.059209 
L 191.430541 -158.966605 
L 190.71487 -158.489963 
L 189.999198 -157.945855 
L 189.283527 -157.50154 
L 188.567856 -157.277199 
L 187.852184 -156.635329 
L 187.136513 -156.125401 
L 186.420842 -155.37057 
L 185.70517 -154.425864 
L 184.989499 -154.268422 
L 184.273828 -153.547466 
L 183.558156 -152.756459 
L 182.842485 -152.139008 
L 182.126814 -151.432082 
L 181.411142 -151.135592 
L 180.695471 -150.936122 
L 179.9798 -150.305169 
L 179.264128 -150.016928 
L 178.548457 -149.39783 
L 177.832786 -149.357146 
L 177.117114 -149.187669 
L 176.401443 -148.848526 
L 175.685772 -148.443445 
L 174.9701 -147.674835 
L 174.254429 -147.045104 
L 173.538758 -146.892749 
L 172.823086 -145.662877 
L 172.107415 -144.552466 
L 171.391743 -144.080125 
L 170.676072 -143.247014 
L 169.960401 -142.826546 
L 169.244729 -142.661306 
L 168.529058 -142.165251 
L 167.813387 -141.774427 
L 167.097715 -141.295898 
L 166.382044 -140.582317 
L 165.666373 -140.408948 
L 164.950701 -139.364168 
L 164.23503 -138.764083 
L 163.519359 -138.210016 
L 162.803687 -137.554564 
L 162.088016 -136.359633 
L 161.372345 -135.684962 
L 160.656673 -135.019181 
L 159.941002 -134.046577 
L 159.225331 -133.376408 
L 158.509659 -132.042772 
L 157.793988 -131.360545 
L 157.078317 -131.494266 
L 156.362645 -130.640407 
L 155.646974 -130.358409 
L 154.931303 -129.835314 
L 154.215631 -128.911582 
L 153.49996 -128.078874 
L 152.784289 -127.326744 
L 152.068617 -126.46502 
L 151.352946 -125.991907 
L 150.637275 -124.591365 
L 149.921603 -123.737442 
L 149.205932 -123.081176 
L 148.490261 -122.263303 
L 147.774589 -121.998684 
L 147.058918 -121.816017 
L 146.343246 -121.10296 
L 145.627575 -120.465414 
L 144.911904 -120.349175 
L 144.196232 -120.013925 
L 143.480561 -119.429091 
L 142.76489 -118.909867 
L 142.049218 -118.92688 
L 141.333547 -118.412077 
L 140.617876 -117.855488 
L 139.902204 -117.317805 
L 139.186533 -116.571387 
L 138.470862 -116.173645 
L 137.75519 -115.619234 
L 137.039519 -114.769307 
L 136.323848 -114.221391 
L 135.608176 -113.977093 
L 134.892505 -113.260371 
L 134.176834 -112.601444 
L 133.461162 -111.58752 
L 132.745491 -111.209623 
L 132.02982 -109.901636 
L 131.314148 -109.99036 
L 130.598477 -109.449374 
L 129.882806 -108.80737 
L 129.167134 -108.384425 
L 128.451463 -108.618524 
L 127.735792 -108.16121 
L 127.02012 -107.525767 
L 126.304449 -107.312308 
L 125.588778 -106.372447 
L 124.873106 -105.472024 
L 124.157435 -104.732363 
L 123.441764 -104.167776 
L 122.726092 -103.553212 
L 122.010421 -103.158769 
L 121.294749 -101.845187 
L 120.579078 -100.486554 
L 119.863407 -100.195584 
L 119.147735 -99.652522 
L 118.432064 -99.095966 
L 117.716393 -98.552561 
L 117.000721 -97.998915 
L 116.28505 -97.458975 
L 115.569379 -97.374219 
L 114.853707 -97.106258 
L 114.138036 -96.191616 
L 113.422365 -94.222067 
L 112.706693 -93.632117 
L 111.991022 -92.685132 
L 111.275351 -92.525828 
L 110.559679 -91.982814 
L 109.844008 -90.715317 
L 109.128337 -90.234225 
L 108.412665 -89.243261 
L 107.696994 -88.290388 
L 106.981323 -87.541423 
L 106.265651 -86.233094 
L 105.54998 -85.430148 
L 104.834309 -84.683301 
L 104.118637 -84.086576 
L 103.402966 -83.851791 
L 102.687295 -83.4737 
L 101.971623 -83.159111 
L 101.255952 -82.651794 
L 100.540281 -82.129867 
L 99.824609 -81.89111 
L 99.108938 -81.153606 
L 98.393267 -80.429805 
L 97.677595 -79.462907 
L 96.961924 -78.967316 
L 96.246253 -78.366788 
L 95.530581 -77.675334 
L 94.81491 -77.392713 
L 94.099238 -76.40525 
L 93.383567 -75.895166 
L 92.667896 -75.377091 
L 91.952224 -74.84688 
L 91.236553 -74.535743 
L 90.520882 -74.090855 
L 89.80521 -72.487478 
L 89.089539 -71.636732 
L 88.373868 -70.998124 
L 87.658196 -70.782835 
L 86.942525 -70.396391 
L 86.226854 -70.288127 
L 85.511182 -69.8227 
L 84.795511 -68.987152 
L 84.07984 -68.680723 
L 83.364168 -68.216845 
L 82.648497 -67.706923 
L 81.932826 -67.033945 
L 81.217154 -66.228557 
L 80.501483 -65.872224 
L 79.785812 -65.563084 
L 79.07014 -64.961768 
L 78.354469 -63.574365 
L 77.638798 -62.36841 
L 76.923126 -61.597561 
L 76.207455 -61.177925 
L 75.491784 -60.015045 
L 74.776112 -59.937359 
L 74.060441 -59.402298 
L 73.34477 -58.854024 
L 72.629098 -58.297217 
L 71.913427 -57.306877 
L 71.197756 -56.741226 
L 70.482084 -55.761073 
L 69.766413 -55.303059 
L 69.050741 -55.022414 
L 68.33507 -54.857709 
L 67.619399 -54.546897 
L 66.903727 -54.049082 
L 66.188056 -53.454619 
L 65.472385 -52.911744 
L 64.756713 -52.651747 
L 64.041042 -50.58073 
L 63.325371 -49.366131 
L 62.609699 -48.498808 
L 61.894028 -48.036404 
L 61.178357 -47.732822 
L 60.462685 -46.510112 
L 59.747014 -44.963358 
L 59.031343 -44.963358 
L 58.315671 -41.957531 
L 57.6 -38.016 
z
" style="stroke: #0000ff; stroke-opacity: 0.1"/>
    </defs>
    <g clip-path="url(#pf230486e67)">
     <use xlink:href="#m2d0e83c118" x="0" y="345.6" style="fill: #0000ff; fill-opacity: 0.1; stroke: #0000ff; stroke-opacity: 0.1"/>
    </g>
   </g>
   <g id="matplotlib.axis_1">
    <g id="xtick_1">
     <g id="line2d_1">
      <defs>
       <path id="m9b2c7cfe34" d="M 0 0 
L 0 3.5 
" style="stroke: #000000; stroke-width: 0.8"/>
      </defs>
      <g>
       <use xlink:href="#m9b2c7cfe34" x="57.6" y="307.584" style="stroke: #000000; stroke-width: 0.8"/>
      </g>
     </g>
     <g id="text_1">
      <!-- 0.0 -->
      <g transform="translate(49.648438 322.182437) scale(0.1 -0.1)">
       <defs>
        <path id="DejaVuSans-30" d="M 2034 4250 
Q 1547 4250 1301 3770 
Q 1056 3291 1056 2328 
Q 1056 1369 1301 889 
Q 1547 409 2034 409 
Q 2525 409 2770 889 
Q 3016 1369 3016 2328 
Q 3016 3291 2770 3770 
Q 2525 4250 2034 4250 
z
M 2034 4750 
Q 2819 4750 3233 4129 
Q 3647 3509 3647 2328 
Q 3647 1150 3233 529 
Q 2819 -91 2034 -91 
Q 1250 -91 836 529 
Q 422 1150 422 2328 
Q 422 3509 836 4129 
Q 1250 4750 2034 4750 
z
" transform="scale(0.015625)"/>
        <path id="DejaVuSans-2e" d="M 684 794 
L 1344 794 
L 1344 0 
L 684 0 
L 684 794 
z
" transform="scale(0.015625)"/>
       </defs>
       <use xlink:href="#DejaVuSans-30"/>
       <use xlink:href="#DejaVuSans-2e" x="63.623047"/>
       <use xlink:href="#DejaVuSans-30" x="95.410156"/>
      </g>
     </g>
    </g>
    <g id="xtick_2">
     <g id="line2d_2">
      <g>
       <use xlink:href="#m9b2c7cfe34" x="129.024" y="307.584" style="stroke: #000000; stroke-width: 0.8"/>
      </g>
     </g>
     <g id="text_2">
      <!-- 0.2 -->
      <g transform="translate(121.072438 322.182437) scale(0.1 -0.1)">
       <defs>
        <path id="DejaVuSans-32" d="M 1228 531 
L 3431 531 
L 3431 0 
L 469 0 
L 469 531 
Q 828 903 1448 1529 
Q 2069 2156 2228 2338 
Q 2531 2678 2651 2914 
Q 2772 3150 2772 3378 
Q 2772 3750 2511 3984 
Q 2250 4219 1831 4219 
Q 1534 4219 1204 4116 
Q 875 4013 500 3803 
L 500 4441 
Q 881 4594 1212 4672 
Q 1544 4750 1819 4750 
Q 2544 4750 2975 4387 
Q 3406 4025 3406 3419 
Q 3406 3131 3298 2873 
Q 3191 2616 2906 2266 
Q 2828 2175 2409 1742 
Q 1991 1309 1228 531 
z
" transform="scale(0.015625)"/>
       </defs>
       <use xlink:href="#DejaVuSans-30"/>
       <use xlink:href="#DejaVuSans-2e" x="63.623047"/>
       <use xlink:href="#DejaVuSans-32" x="95.410156"/>
      </g>
     </g>
    </g>
    <g id="xtick_3">
     <g id="line2d_3">
      <g>
       <use xlink:href="#m9b2c7cfe34" x="200.448" y="307.584" style="stroke: #000000; stroke-width: 0.8"/>
      </g>
     </g>
     <g id="text_3">
      <!-- 0.4 -->
      <g transform="translate(192.496438 322.182437) scale(0.1 -0.1)">
       <defs>
        <path id="DejaVuSans-34" d="M 2419 4116 
L 825 1625 
L 2419 1625 
L 2419 4116 
z
M 2253 4666 
L 3047 4666 
L 3047 1625 
L 3713 1625 
L 3713 1100 
L 3047 1100 
L 3047 0 
L 2419 0 
L 2419 1100 
L 313 1100 
L 313 1709 
L 2253 4666 
z
" transform="scale(0.015625)"/>
       </defs>
       <use xlink:href="#DejaVuSans-30"/>
       <use xlink:href="#DejaVuSans-2e" x="63.623047"/>
       <use xlink:href="#DejaVuSans-34" x="95.410156"/>
      </g>
     </g>
    </g>
    <g id="xtick_4">
     <g id="line2d_4">
      <g>
       <use xlink:href="#m9b2c7cfe34" x="271.872" y="307.584" style="stroke: #000000; stroke-width: 0.8"/>
      </g>
     </g>
     <g id="text_4">
      <!-- 0.6 -->
      <g transform="translate(263.920438 322.182437) scale(0.1 -0.1)">
       <defs>
        <path id="DejaVuSans-36" d="M 2113 2584 
Q 1688 2584 1439 2293 
Q 1191 2003 1191 1497 
Q 1191 994 1439 701 
Q 1688 409 2113 409 
Q 2538 409 2786 701 
Q 3034 994 3034 1497 
Q 3034 2003 2786 2293 
Q 2538 2584 2113 2584 
z
M 3366 4563 
L 3366 3988 
Q 3128 4100 2886 4159 
Q 2644 4219 2406 4219 
Q 1781 4219 1451 3797 
Q 1122 3375 1075 2522 
Q 1259 2794 1537 2939 
Q 1816 3084 2150 3084 
Q 2853 3084 3261 2657 
Q 3669 2231 3669 1497 
Q 3669 778 3244 343 
Q 2819 -91 2113 -91 
Q 1303 -91 875 529 
Q 447 1150 447 2328 
Q 447 3434 972 4092 
Q 1497 4750 2381 4750 
Q 2619 4750 2861 4703 
Q 3103 4656 3366 4563 
z
" transform="scale(0.015625)"/>
       </defs>
       <use xlink:href="#DejaVuSans-30"/>
       <use xlink:href="#DejaVuSans-2e" x="63.623047"/>
       <use xlink:href="#DejaVuSans-36" x="95.410156"/>
      </g>
     </g>
    </g>
    <g id="xtick_5">
     <g id="line2d_5">
      <g>
       <use xlink:href="#m9b2c7cfe34" x="343.296" y="307.584" style="stroke: #000000; stroke-width: 0.8"/>
      </g>
     </g>
     <g id="text_5">
      <!-- 0.8 -->
      <g transform="translate(335.344438 322.182437) scale(0.1 -0.1)">
       <defs>
        <path id="DejaVuSans-38" d="M 2034 2216 
Q 1584 2216 1326 1975 
Q 1069 1734 1069 1313 
Q 1069 891 1326 650 
Q 1584 409 2034 409 
Q 2484 409 2743 651 
Q 3003 894 3003 1313 
Q 3003 1734 2745 1975 
Q 2488 2216 2034 2216 
z
M 1403 2484 
Q 997 2584 770 2862 
Q 544 3141 544 3541 
Q 544 4100 942 4425 
Q 1341 4750 2034 4750 
Q 2731 4750 3128 4425 
Q 3525 4100 3525 3541 
Q 3525 3141 3298 2862 
Q 3072 2584 2669 2484 
Q 3125 2378 3379 2068 
Q 3634 1759 3634 1313 
Q 3634 634 3220 271 
Q 2806 -91 2034 -91 
Q 1263 -91 848 271 
Q 434 634 434 1313 
Q 434 1759 690 2068 
Q 947 2378 1403 2484 
z
M 1172 3481 
Q 1172 3119 1398 2916 
Q 1625 2713 2034 2713 
Q 2441 2713 2670 2916 
Q 2900 3119 2900 3481 
Q 2900 3844 2670 4047 
Q 2441 4250 2034 4250 
Q 1625 4250 1398 4047 
Q 1172 3844 1172 3481 
z
" transform="scale(0.015625)"/>
       </defs>
       <use xlink:href="#DejaVuSans-30"/>
       <use xlink:href="#DejaVuSans-2e" x="63.623047"/>
       <use xlink:href="#DejaVuSans-38" x="95.410156"/>
      </g>
     </g>
    </g>
    <g id="xtick_6">
     <g id="line2d_6">
      <g>
       <use xlink:href="#m9b2c7cfe34" x="414.72" y="307.584" style="stroke: #000000; stroke-width: 0.8"/>
      </g>
     </g>
     <g id="text_6">
      <!-- 1.0 -->
      <g transform="translate(406.768438 322.182437) scale(0.1 -0.1)">
       <defs>
        <path id="DejaVuSans-31" d="M 794 531 
L 1825 531 
L 1825 4091 
L 703 3866 
L 703 4441 
L 1819 4666 
L 2450 4666 
L 2450 531 
L 3481 531 
L 3481 0 
L 794 0 
L 794 531 
z
" transform="scale(0.015625)"/>
       </defs>
       <use xlink:href="#DejaVuSans-31"/>
       <use xlink:href="#DejaVuSans-2e" x="63.623047"/>
       <use xlink:href="#DejaVuSans-30" x="95.410156"/>
      </g>
     </g>
    </g>
    <g id="text_7">
     <!-- False Positive Rate -->
     <g transform="translate(189.693594 335.860562) scale(0.1 -0.1)">
      <defs>
       <path id="DejaVuSans-46" d="M 628 4666 
L 3309 4666 
L 3309 4134 
L 1259 4134 
L 1259 2759 
L 3109 2759 
L 3109 2228 
L 1259 2228 
L 1259 0 
L 628 0 
L 628 4666 
z
" transform="scale(0.015625)"/>
       <path id="DejaVuSans-61" d="M 2194 1759 
Q 1497 1759 1228 1600 
Q 959 1441 959 1056 
Q 959 750 1161 570 
Q 1363 391 1709 391 
Q 2188 391 2477 730 
Q 2766 1069 2766 1631 
L 2766 1759 
L 2194 1759 
z
M 3341 1997 
L 3341 0 
L 2766 0 
L 2766 531 
Q 2569 213 2275 61 
Q 1981 -91 1556 -91 
Q 1019 -91 701 211 
Q 384 513 384 1019 
Q 384 1609 779 1909 
Q 1175 2209 1959 2209 
L 2766 2209 
L 2766 2266 
Q 2766 2663 2505 2880 
Q 2244 3097 1772 3097 
Q 1472 3097 1187 3025 
Q 903 2953 641 2809 
L 641 3341 
Q 956 3463 1253 3523 
Q 1550 3584 1831 3584 
Q 2591 3584 2966 3190 
Q 3341 2797 3341 1997 
z
" transform="scale(0.015625)"/>
       <path id="DejaVuSans-6c" d="M 603 4863 
L 1178 4863 
L 1178 0 
L 603 0 
L 603 4863 
z
" transform="scale(0.015625)"/>
       <path id="DejaVuSans-73" d="M 2834 3397 
L 2834 2853 
Q 2591 2978 2328 3040 
Q 2066 3103 1784 3103 
Q 1356 3103 1142 2972 
Q 928 2841 928 2578 
Q 928 2378 1081 2264 
Q 1234 2150 1697 2047 
L 1894 2003 
Q 2506 1872 2764 1633 
Q 3022 1394 3022 966 
Q 3022 478 2636 193 
Q 2250 -91 1575 -91 
Q 1294 -91 989 -36 
Q 684 19 347 128 
L 347 722 
Q 666 556 975 473 
Q 1284 391 1588 391 
Q 1994 391 2212 530 
Q 2431 669 2431 922 
Q 2431 1156 2273 1281 
Q 2116 1406 1581 1522 
L 1381 1569 
Q 847 1681 609 1914 
Q 372 2147 372 2553 
Q 372 3047 722 3315 
Q 1072 3584 1716 3584 
Q 2034 3584 2315 3537 
Q 2597 3491 2834 3397 
z
" transform="scale(0.015625)"/>
       <path id="DejaVuSans-65" d="M 3597 1894 
L 3597 1613 
L 953 1613 
Q 991 1019 1311 708 
Q 1631 397 2203 397 
Q 2534 397 2845 478 
Q 3156 559 3463 722 
L 3463 178 
Q 3153 47 2828 -22 
Q 2503 -91 2169 -91 
Q 1331 -91 842 396 
Q 353 884 353 1716 
Q 353 2575 817 3079 
Q 1281 3584 2069 3584 
Q 2775 3584 3186 3129 
Q 3597 2675 3597 1894 
z
M 3022 2063 
Q 3016 2534 2758 2815 
Q 2500 3097 2075 3097 
Q 1594 3097 1305 2825 
Q 1016 2553 972 2059 
L 3022 2063 
z
" transform="scale(0.015625)"/>
       <path id="DejaVuSans-20" transform="scale(0.015625)"/>
       <path id="DejaVuSans-50" d="M 1259 4147 
L 1259 2394 
L 2053 2394 
Q 2494 2394 2734 2622 
Q 2975 2850 2975 3272 
Q 2975 3691 2734 3919 
Q 2494 4147 2053 4147 
L 1259 4147 
z
M 628 4666 
L 2053 4666 
Q 2838 4666 3239 4311 
Q 3641 3956 3641 3272 
Q 3641 2581 3239 2228 
Q 2838 1875 2053 1875 
L 1259 1875 
L 1259 0 
L 628 0 
L 628 4666 
z
" transform="scale(0.015625)"/>
       <path id="DejaVuSans-6f" d="M 1959 3097 
Q 1497 3097 1228 2736 
Q 959 2375 959 1747 
Q 959 1119 1226 758 
Q 1494 397 1959 397 
Q 2419 397 2687 759 
Q 2956 1122 2956 1747 
Q 2956 2369 2687 2733 
Q 2419 3097 1959 3097 
z
M 1959 3584 
Q 2709 3584 3137 3096 
Q 3566 2609 3566 1747 
Q 3566 888 3137 398 
Q 2709 -91 1959 -91 
Q 1206 -91 779 398 
Q 353 888 353 1747 
Q 353 2609 779 3096 
Q 1206 3584 1959 3584 
z
" transform="scale(0.015625)"/>
       <path id="DejaVuSans-69" d="M 603 3500 
L 1178 3500 
L 1178 0 
L 603 0 
L 603 3500 
z
M 603 4863 
L 1178 4863 
L 1178 4134 
L 603 4134 
L 603 4863 
z
" transform="scale(0.015625)"/>
       <path id="DejaVuSans-74" d="M 1172 4494 
L 1172 3500 
L 2356 3500 
L 2356 3053 
L 1172 3053 
L 1172 1153 
Q 1172 725 1289 603 
Q 1406 481 1766 481 
L 2356 481 
L 2356 0 
L 1766 0 
Q 1100 0 847 248 
Q 594 497 594 1153 
L 594 3053 
L 172 3053 
L 172 3500 
L 594 3500 
L 594 4494 
L 1172 4494 
z
" transform="scale(0.015625)"/>
       <path id="DejaVuSans-76" d="M 191 3500 
L 800 3500 
L 1894 563 
L 2988 3500 
L 3597 3500 
L 2284 0 
L 1503 0 
L 191 3500 
z
" transform="scale(0.015625)"/>
       <path id="DejaVuSans-52" d="M 2841 2188 
Q 3044 2119 3236 1894 
Q 3428 1669 3622 1275 
L 4263 0 
L 3584 0 
L 2988 1197 
Q 2756 1666 2539 1819 
Q 2322 1972 1947 1972 
L 1259 1972 
L 1259 0 
L 628 0 
L 628 4666 
L 2053 4666 
Q 2853 4666 3247 4331 
Q 3641 3997 3641 3322 
Q 3641 2881 3436 2590 
Q 3231 2300 2841 2188 
z
M 1259 4147 
L 1259 2491 
L 2053 2491 
Q 2509 2491 2742 2702 
Q 2975 2913 2975 3322 
Q 2975 3731 2742 3939 
Q 2509 4147 2053 4147 
L 1259 4147 
z
" transform="scale(0.015625)"/>
      </defs>
      <use xlink:href="#DejaVuSans-46"/>
      <use xlink:href="#DejaVuSans-61" x="48.394531"/>
      <use xlink:href="#DejaVuSans-6c" x="109.673828"/>
      <use xlink:href="#DejaVuSans-73" x="137.457031"/>
      <use xlink:href="#DejaVuSans-65" x="189.556641"/>
      <use xlink:href="#DejaVuSans-20" x="251.080078"/>
      <use xlink:href="#DejaVuSans-50" x="282.867188"/>
      <use xlink:href="#DejaVuSans-6f" x="339.544922"/>
      <use xlink:href="#DejaVuSans-73" x="400.726562"/>
      <use xlink:href="#DejaVuSans-69" x="452.826172"/>
      <use xlink:href="#DejaVuSans-74" x="480.609375"/>
      <use xlink:href="#DejaVuSans-69" x="519.818359"/>
      <use xlink:href="#DejaVuSans-76" x="547.601562"/>
      <use xlink:href="#DejaVuSans-65" x="606.78125"/>
      <use xlink:href="#DejaVuSans-20" x="668.304688"/>
      <use xlink:href="#DejaVuSans-52" x="700.091797"/>
      <use xlink:href="#DejaVuSans-61" x="767.324219"/>
      <use xlink:href="#DejaVuSans-74" x="828.603516"/>
      <use xlink:href="#DejaVuSans-65" x="867.8125"/>
     </g>
    </g>
   </g>
   <g id="matplotlib.axis_2">
    <g id="ytick_1">
     <g id="line2d_7">
      <defs>
       <path id="mabdd116999" d="M 0 0 
L -3.5 0 
" style="stroke: #000000; stroke-width: 0.8"/>
      </defs>
      <g>
       <use xlink:href="#mabdd116999" x="57.6" y="307.584" style="stroke: #000000; stroke-width: 0.8"/>
      </g>
     </g>
     <g id="text_8">
      <!-- 0.0 -->
      <g transform="translate(34.696875 311.383219) scale(0.1 -0.1)">
       <use xlink:href="#DejaVuSans-30"/>
       <use xlink:href="#DejaVuSans-2e" x="63.623047"/>
       <use xlink:href="#DejaVuSans-30" x="95.410156"/>
      </g>
     </g>
    </g>
    <g id="ytick_2">
     <g id="line2d_8">
      <g>
       <use xlink:href="#mabdd116999" x="57.6" y="256.896" style="stroke: #000000; stroke-width: 0.8"/>
      </g>
     </g>
     <g id="text_9">
      <!-- 0.2 -->
      <g transform="translate(34.696875 260.695219) scale(0.1 -0.1)">
       <use xlink:href="#DejaVuSans-30"/>
       <use xlink:href="#DejaVuSans-2e" x="63.623047"/>
       <use xlink:href="#DejaVuSans-32" x="95.410156"/>
      </g>
     </g>
    </g>
    <g id="ytick_3">
     <g id="line2d_9">
      <g>
       <use xlink:href="#mabdd116999" x="57.6" y="206.208" style="stroke: #000000; stroke-width: 0.8"/>
      </g>
     </g>
     <g id="text_10">
      <!-- 0.4 -->
      <g transform="translate(34.696875 210.007219) scale(0.1 -0.1)">
       <use xlink:href="#DejaVuSans-30"/>
       <use xlink:href="#DejaVuSans-2e" x="63.623047"/>
       <use xlink:href="#DejaVuSans-34" x="95.410156"/>
      </g>
     </g>
    </g>
    <g id="ytick_4">
     <g id="line2d_10">
      <g>
       <use xlink:href="#mabdd116999" x="57.6" y="155.52" style="stroke: #000000; stroke-width: 0.8"/>
      </g>
     </g>
     <g id="text_11">
      <!-- 0.6 -->
      <g transform="translate(34.696875 159.319219) scale(0.1 -0.1)">
       <use xlink:href="#DejaVuSans-30"/>
       <use xlink:href="#DejaVuSans-2e" x="63.623047"/>
       <use xlink:href="#DejaVuSans-36" x="95.410156"/>
      </g>
     </g>
    </g>
    <g id="ytick_5">
     <g id="line2d_11">
      <g>
       <use xlink:href="#mabdd116999" x="57.6" y="104.832" style="stroke: #000000; stroke-width: 0.8"/>
      </g>
     </g>
     <g id="text_12">
      <!-- 0.8 -->
      <g transform="translate(34.696875 108.631219) scale(0.1 -0.1)">
       <use xlink:href="#DejaVuSans-30"/>
       <use xlink:href="#DejaVuSans-2e" x="63.623047"/>
       <use xlink:href="#DejaVuSans-38" x="95.410156"/>
      </g>
     </g>
    </g>
    <g id="ytick_6">
     <g id="line2d_12">
      <g>
       <use xlink:href="#mabdd116999" x="57.6" y="54.144" style="stroke: #000000; stroke-width: 0.8"/>
      </g>
     </g>
     <g id="text_13">
      <!-- 1.0 -->
      <g transform="translate(34.696875 57.943219) scale(0.1 -0.1)">
       <use xlink:href="#DejaVuSans-31"/>
       <use xlink:href="#DejaVuSans-2e" x="63.623047"/>
       <use xlink:href="#DejaVuSans-30" x="95.410156"/>
      </g>
     </g>
    </g>
    <g id="text_14">
     <!-- True Positive Rate -->
     <g transform="translate(28.617187 219.057687) rotate(-90) scale(0.1 -0.1)">
      <defs>
       <path id="DejaVuSans-54" d="M -19 4666 
L 3928 4666 
L 3928 4134 
L 2272 4134 
L 2272 0 
L 1638 0 
L 1638 4134 
L -19 4134 
L -19 4666 
z
" transform="scale(0.015625)"/>
       <path id="DejaVuSans-72" d="M 2631 2963 
Q 2534 3019 2420 3045 
Q 2306 3072 2169 3072 
Q 1681 3072 1420 2755 
Q 1159 2438 1159 1844 
L 1159 0 
L 581 0 
L 581 3500 
L 1159 3500 
L 1159 2956 
Q 1341 3275 1631 3429 
Q 1922 3584 2338 3584 
Q 2397 3584 2469 3576 
Q 2541 3569 2628 3553 
L 2631 2963 
z
" transform="scale(0.015625)"/>
       <path id="DejaVuSans-75" d="M 544 1381 
L 544 3500 
L 1119 3500 
L 1119 1403 
Q 1119 906 1312 657 
Q 1506 409 1894 409 
Q 2359 409 2629 706 
Q 2900 1003 2900 1516 
L 2900 3500 
L 3475 3500 
L 3475 0 
L 2900 0 
L 2900 538 
Q 2691 219 2414 64 
Q 2138 -91 1772 -91 
Q 1169 -91 856 284 
Q 544 659 544 1381 
z
M 1991 3584 
L 1991 3584 
z
" transform="scale(0.015625)"/>
      </defs>
      <use xlink:href="#DejaVuSans-54"/>
      <use xlink:href="#DejaVuSans-72" x="46.333984"/>
      <use xlink:href="#DejaVuSans-75" x="87.447266"/>
      <use xlink:href="#DejaVuSans-65" x="150.826172"/>
      <use xlink:href="#DejaVuSans-20" x="212.349609"/>
      <use xlink:href="#DejaVuSans-50" x="244.136719"/>
      <use xlink:href="#DejaVuSans-6f" x="300.814453"/>
      <use xlink:href="#DejaVuSans-73" x="361.996094"/>
      <use xlink:href="#DejaVuSans-69" x="414.095703"/>
      <use xlink:href="#DejaVuSans-74" x="441.878906"/>
      <use xlink:href="#DejaVuSans-69" x="481.087891"/>
      <use xlink:href="#DejaVuSans-76" x="508.871094"/>
      <use xlink:href="#DejaVuSans-65" x="568.050781"/>
      <use xlink:href="#DejaVuSans-20" x="629.574219"/>
      <use xlink:href="#DejaVuSans-52" x="661.361328"/>
      <use xlink:href="#DejaVuSans-61" x="728.59375"/>
      <use xlink:href="#DejaVuSans-74" x="789.873047"/>
      <use xlink:href="#DejaVuSans-65" x="829.082031"/>
     </g>
    </g>
   </g>
   <g id="line2d_13">
    <path d="M 57.6 307.584 
L 58.315671 306.767875 
L 59.031343 305.772786 
L 59.747014 305.772786 
L 61.178357 304.550498 
L 61.894028 304.406326 
L 62.609699 303.709422 
L 63.325371 303.371425 
L 64.041042 302.832886 
L 64.756713 301.982584 
L 65.472385 301.871955 
L 66.903727 300.804862 
L 69.050741 299.769205 
L 69.766413 299.323088 
L 70.482084 299.074836 
L 74.060441 296.863343 
L 74.776112 296.519125 
L 75.491784 296.353405 
L 76.207455 295.587536 
L 76.923126 295.349589 
L 80.501483 293.031502 
L 81.217154 292.703161 
L 82.648497 291.842106 
L 84.795511 290.74803 
L 85.511182 290.280386 
L 86.226854 289.536066 
L 87.658196 288.655921 
L 89.089539 287.87517 
L 91.236553 286.121632 
L 93.383567 284.856765 
L 94.81491 283.721085 
L 96.961924 282.18309 
L 97.677595 281.527068 
L 100.540281 279.508218 
L 101.971623 278.357462 
L 104.834309 276.569032 
L 106.265651 275.695414 
L 106.981323 274.934162 
L 107.696994 274.631964 
L 109.844008 272.926716 
L 110.559679 272.071034 
L 111.991022 271.057297 
L 113.422365 270.042413 
L 114.138036 269.075347 
L 114.853707 268.594151 
L 116.28505 267.412726 
L 119.147735 265.519457 
L 119.863407 264.804061 
L 120.579078 264.453935 
L 122.010421 263.195169 
L 123.441764 262.410223 
L 127.02012 259.464846 
L 129.167134 258.181717 
L 129.882806 257.352863 
L 132.02982 255.897095 
L 132.745491 255.441543 
L 133.461162 255.195865 
L 134.176834 254.711982 
L 134.892505 253.874957 
L 135.608176 253.366076 
L 136.323848 253.044796 
L 137.75519 251.792092 
L 139.186533 251.08063 
L 141.333547 249.505307 
L 143.480561 248.345382 
L 144.911904 247.170814 
L 145.627575 247.039912 
L 147.058918 245.797867 
L 148.490261 244.986021 
L 149.205932 244.468087 
L 152.784289 241.234919 
L 153.49996 240.831456 
L 155.646974 239.211338 
L 156.362645 238.830034 
L 157.078317 238.196085 
L 157.793988 237.976726 
L 158.509659 237.574058 
L 159.225331 236.77033 
L 159.941002 236.218054 
L 160.656673 235.418701 
L 161.372345 235.038173 
L 162.088016 234.48517 
L 162.803687 233.607518 
L 163.519359 233.133675 
L 164.950701 232.416195 
L 165.666373 231.630012 
L 166.382044 231.390781 
L 169.244729 228.940636 
L 172.107415 227.186973 
L 172.823086 226.778759 
L 173.538758 226.234706 
L 174.254429 225.890319 
L 175.685772 224.745012 
L 177.117114 224.089877 
L 177.832786 223.704752 
L 178.548457 223.465929 
L 179.9798 222.546689 
L 180.695471 221.762546 
L 181.411142 221.274267 
L 182.842485 220.485545 
L 183.558156 220.087692 
L 188.567856 216.073097 
L 189.283527 215.778742 
L 190.71487 214.882379 
L 191.430541 214.128717 
L 192.146212 213.736418 
L 192.861884 213.160216 
L 193.577555 212.409498 
L 195.724569 210.9533 
L 197.155912 210.316017 
L 199.302926 208.727 
L 200.018597 208.328242 
L 200.734269 207.632724 
L 201.44994 207.271712 
L 202.881283 205.884686 
L 205.028297 204.373587 
L 206.459639 203.526557 
L 208.606653 201.79367 
L 210.037996 201.193693 
L 212.18501 199.582124 
L 213.616353 197.860927 
L 215.047695 196.599916 
L 216.479038 194.765248 
L 217.194709 194.360972 
L 217.910381 194.099565 
L 219.341723 193.278906 
L 220.773066 192.05855 
L 222.92008 191.341957 
L 224.351423 190.163666 
L 225.067094 189.929615 
L 225.782766 189.198988 
L 228.645451 187.030259 
L 229.361122 186.108748 
L 230.076794 185.914006 
L 231.508136 184.855783 
L 232.939479 183.864802 
L 234.370822 183.270042 
L 235.086493 182.552083 
L 237.233507 181.491302 
L 237.949178 180.81781 
L 238.66485 179.951542 
L 239.380521 179.717555 
L 242.958878 177.440341 
L 243.674549 176.613752 
L 249.39992 172.999643 
L 250.115591 172.735259 
L 250.831263 172.067611 
L 252.262605 171.285613 
L 252.978277 170.564763 
L 253.693948 170.12031 
L 254.409619 169.876212 
L 257.987976 166.926259 
L 258.703647 166.6541 
L 259.419319 166.180192 
L 262.282004 163.853497 
L 262.997675 163.471005 
L 263.713347 162.862055 
L 267.291703 160.781613 
L 268.007375 160.507765 
L 270.154389 158.798348 
L 270.87006 158.037955 
L 271.585731 157.49791 
L 273.732745 156.363969 
L 274.448417 155.686317 
L 275.164088 155.242621 
L 276.595431 154.189246 
L 277.311102 153.985034 
L 279.458116 152.056507 
L 280.889459 151.183445 
L 282.320802 150.367761 
L 283.036473 149.797739 
L 283.752144 149.531016 
L 284.467816 149.054256 
L 285.183487 148.342546 
L 285.899158 147.953554 
L 286.61483 147.16156 
L 287.330501 146.771376 
L 288.761844 145.666543 
L 289.477515 145.318853 
L 290.193186 144.660928 
L 290.908858 144.266108 
L 291.624529 143.714261 
L 294.487214 142.060371 
L 295.918557 140.691154 
L 296.634228 140.356086 
L 298.065571 139.456146 
L 300.212585 138.188973 
L 301.643928 136.891855 
L 302.359599 136.471826 
L 303.075271 135.745165 
L 303.790942 135.327783 
L 304.506613 134.780246 
L 305.222285 134.423512 
L 306.653627 133.231674 
L 308.08497 132.508886 
L 308.800641 131.707297 
L 310.231984 130.917772 
L 310.947655 130.677424 
L 311.663327 129.983333 
L 312.378998 129.450571 
L 313.094669 129.152948 
L 316.673026 126.642362 
L 317.388697 125.844686 
L 319.535711 124.756579 
L 320.251383 124.038577 
L 323.114068 121.975583 
L 324.545411 121.09661 
L 325.261082 120.454405 
L 325.976754 120.134609 
L 326.692425 119.604136 
L 327.408096 119.293845 
L 328.839439 118.139199 
L 330.270782 117.27844 
L 332.417796 115.611394 
L 333.133467 114.872055 
L 333.849138 114.61027 
L 335.280481 113.590541 
L 337.427495 111.893332 
L 339.574509 110.972883 
L 343.152866 108.251879 
L 344.584208 107.388714 
L 345.29988 106.46715 
L 347.446894 105.090735 
L 348.878236 104.199135 
L 349.593908 103.911172 
L 352.456593 101.984887 
L 355.319279 100.042368 
L 356.03495 99.719498 
L 358.181964 98.167385 
L 359.613307 96.979845 
L 360.328978 96.642337 
L 362.475992 95.101765 
L 363.907335 94.298077 
L 365.338677 93.651779 
L 366.054349 93.280423 
L 368.917034 90.795897 
L 369.632705 90.40889 
L 371.064048 89.280513 
L 372.495391 88.394165 
L 373.926733 87.413709 
L 374.642405 86.905285 
L 376.073747 85.56344 
L 376.789419 85.055795 
L 377.50509 84.697021 
L 378.220762 83.812436 
L 380.367776 82.562395 
L 383.230461 79.943517 
L 384.661804 79.107797 
L 385.377475 78.381438 
L 386.093146 78.011437 
L 386.808818 77.51548 
L 387.524489 76.832415 
L 388.24016 76.465453 
L 389.671503 75.503208 
L 390.387174 75.091269 
L 391.102846 74.35443 
L 391.818517 74.023669 
L 393.965531 72.053338 
L 395.396874 71.198626 
L 396.112545 70.801465 
L 396.828216 70.083492 
L 398.97523 68.50047 
L 399.690902 67.62879 
L 400.406573 67.076571 
L 401.122244 65.954783 
L 403.98493 63.890642 
L 404.700601 63.040692 
L 406.131944 62.037463 
L 406.847615 61.08901 
L 407.563287 60.892669 
L 408.994629 59.018841 
L 409.710301 58.722933 
L 410.425972 57.938818 
L 411.141643 57.645936 
L 412.572986 55.870114 
L 413.288657 55.870114 
L 414.004329 54.70759 
L 414.72 54.144 
L 414.72 54.144 
" clip-path="url(#pf230486e67)" style="fill: none; stroke: #1f77b4; stroke-width: 1.5; stroke-linecap: square"/>
   </g>
   <g id="line2d_14">
    <path d="M 57.6 307.584 
L 414.72 54.144 
" clip-path="url(#pf230486e67)" style="fill: none; stroke-dasharray: 2,3.3; stroke-dashoffset: 0; stroke: #000000; stroke-width: 2"/>
   </g>
   <g id="patch_3">
    <path d="M 57.6 307.584 
L 57.6 41.472 
" style="fill: none; stroke: #000000; stroke-width: 0.8; stroke-linejoin: miter; stroke-linecap: square"/>
   </g>
   <g id="patch_4">
    <path d="M 414.72 307.584 
L 414.72 41.472 
" style="fill: none; stroke: #000000; stroke-width: 0.8; stroke-linejoin: miter; stroke-linecap: square"/>
   </g>
   <g id="patch_5">
    <path d="M 57.6 307.584 
L 414.72 307.584 
" style="fill: none; stroke: #000000; stroke-width: 0.8; stroke-linejoin: miter; stroke-linecap: square"/>
   </g>
   <g id="patch_6">
    <path d="M 57.6 41.472 
L 414.72 41.472 
" style="fill: none; stroke: #000000; stroke-width: 0.8; stroke-linejoin: miter; stroke-linecap: square"/>
   </g>
   <g id="text_15">
    <!-- ROC -->
    <g transform="translate(223.078125 35.472) scale(0.12 -0.12)">
     <defs>
      <path id="DejaVuSans-4f" d="M 2522 4238 
Q 1834 4238 1429 3725 
Q 1025 3213 1025 2328 
Q 1025 1447 1429 934 
Q 1834 422 2522 422 
Q 3209 422 3611 934 
Q 4013 1447 4013 2328 
Q 4013 3213 3611 3725 
Q 3209 4238 2522 4238 
z
M 2522 4750 
Q 3503 4750 4090 4092 
Q 4678 3434 4678 2328 
Q 4678 1225 4090 567 
Q 3503 -91 2522 -91 
Q 1538 -91 948 565 
Q 359 1222 359 2328 
Q 359 3434 948 4092 
Q 1538 4750 2522 4750 
z
" transform="scale(0.015625)"/>
      <path id="DejaVuSans-43" d="M 4122 4306 
L 4122 3641 
Q 3803 3938 3442 4084 
Q 3081 4231 2675 4231 
Q 1875 4231 1450 3742 
Q 1025 3253 1025 2328 
Q 1025 1406 1450 917 
Q 1875 428 2675 428 
Q 3081 428 3442 575 
Q 3803 722 4122 1019 
L 4122 359 
Q 3791 134 3420 21 
Q 3050 -91 2638 -91 
Q 1578 -91 968 557 
Q 359 1206 359 2328 
Q 359 3453 968 4101 
Q 1578 4750 2638 4750 
Q 3056 4750 3426 4639 
Q 3797 4528 4122 4306 
z
" transform="scale(0.015625)"/>
     </defs>
     <use xlink:href="#DejaVuSans-52"/>
     <use xlink:href="#DejaVuSans-4f" x="69.482422"/>
     <use xlink:href="#DejaVuSans-43" x="148.193359"/>
    </g>
   </g>
   <g id="legend_1">
    <g id="patch_7">
     <path d="M 247.746563 302.584 
L 407.72 302.584 
Q 409.72 302.584 409.72 300.584 
L 409.72 286.905875 
Q 409.72 284.905875 407.72 284.905875 
L 247.746563 284.905875 
Q 245.746563 284.905875 245.746563 286.905875 
L 245.746563 300.584 
Q 245.746563 302.584 247.746563 302.584 
z
" style="fill: #ffffff; opacity: 0.8; stroke: #cccccc; stroke-linejoin: miter"/>
    </g>
    <g id="line2d_15">
     <path d="M 249.746563 293.004312 
L 259.746562 293.004312 
L 269.746562 293.004312 
" style="fill: none; stroke: #1f77b4; stroke-width: 1.5; stroke-linecap: square"/>
    </g>
    <g id="text_16">
     <!-- auROC = 0.492 +/- 0.061 -->
     <g transform="translate(277.746562 296.504312) scale(0.1 -0.1)">
      <defs>
       <path id="DejaVuSans-3d" d="M 678 2906 
L 4684 2906 
L 4684 2381 
L 678 2381 
L 678 2906 
z
M 678 1631 
L 4684 1631 
L 4684 1100 
L 678 1100 
L 678 1631 
z
" transform="scale(0.015625)"/>
       <path id="DejaVuSans-39" d="M 703 97 
L 703 672 
Q 941 559 1184 500 
Q 1428 441 1663 441 
Q 2288 441 2617 861 
Q 2947 1281 2994 2138 
Q 2813 1869 2534 1725 
Q 2256 1581 1919 1581 
Q 1219 1581 811 2004 
Q 403 2428 403 3163 
Q 403 3881 828 4315 
Q 1253 4750 1959 4750 
Q 2769 4750 3195 4129 
Q 3622 3509 3622 2328 
Q 3622 1225 3098 567 
Q 2575 -91 1691 -91 
Q 1453 -91 1209 -44 
Q 966 3 703 97 
z
M 1959 2075 
Q 2384 2075 2632 2365 
Q 2881 2656 2881 3163 
Q 2881 3666 2632 3958 
Q 2384 4250 1959 4250 
Q 1534 4250 1286 3958 
Q 1038 3666 1038 3163 
Q 1038 2656 1286 2365 
Q 1534 2075 1959 2075 
z
" transform="scale(0.015625)"/>
       <path id="DejaVuSans-2b" d="M 2944 4013 
L 2944 2272 
L 4684 2272 
L 4684 1741 
L 2944 1741 
L 2944 0 
L 2419 0 
L 2419 1741 
L 678 1741 
L 678 2272 
L 2419 2272 
L 2419 4013 
L 2944 4013 
z
" transform="scale(0.015625)"/>
       <path id="DejaVuSans-2f" d="M 1625 4666 
L 2156 4666 
L 531 -594 
L 0 -594 
L 1625 4666 
z
" transform="scale(0.015625)"/>
       <path id="DejaVuSans-2d" d="M 313 2009 
L 1997 2009 
L 1997 1497 
L 313 1497 
L 313 2009 
z
" transform="scale(0.015625)"/>
      </defs>
      <use xlink:href="#DejaVuSans-61"/>
      <use xlink:href="#DejaVuSans-75" x="61.279297"/>
      <use xlink:href="#DejaVuSans-52" x="124.658203"/>
      <use xlink:href="#DejaVuSans-4f" x="194.140625"/>
      <use xlink:href="#DejaVuSans-43" x="272.851562"/>
      <use xlink:href="#DejaVuSans-20" x="342.675781"/>
      <use xlink:href="#DejaVuSans-3d" x="374.462891"/>
      <use xlink:href="#DejaVuSans-20" x="458.251953"/>
      <use xlink:href="#DejaVuSans-30" x="490.039062"/>
      <use xlink:href="#DejaVuSans-2e" x="553.662109"/>
      <use xlink:href="#DejaVuSans-34" x="585.449219"/>
      <use xlink:href="#DejaVuSans-39" x="649.072266"/>
      <use xlink:href="#DejaVuSans-32" x="712.695312"/>
      <use xlink:href="#DejaVuSans-20" x="776.318359"/>
      <use xlink:href="#DejaVuSans-2b" x="808.105469"/>
      <use xlink:href="#DejaVuSans-2f" x="891.894531"/>
      <use xlink:href="#DejaVuSans-2d" x="925.585938"/>
      <use xlink:href="#DejaVuSans-20" x="961.669922"/>
      <use xlink:href="#DejaVuSans-30" x="993.457031"/>
      <use xlink:href="#DejaVuSans-2e" x="1057.080078"/>
      <use xlink:href="#DejaVuSans-30" x="1088.867188"/>
      <use xlink:href="#DejaVuSans-36" x="1152.490234"/>
      <use xlink:href="#DejaVuSans-31" x="1216.113281"/>
     </g>
    </g>
   </g>
  </g>
 </g>
 <defs>
  <clipPath id="pf230486e67">
   <rect x="57.6" y="41.472" width="357.12" height="266.112"/>
  </clipPath>
 </defs>
</svg>
