<?xml version="1.0" encoding="utf-8" standalone="no"?>
<!DOCTYPE svg PUBLIC "-//W3C//DTD SVG 1.1//EN"
  "http://www.w3.org/Graphics/SVG/1.1/DTD/svg11.dtd">
<svg xmlns:xlink="http://www.w3.org/1999/xlink" width="460.8pt" height="345.6pt" viewBox="0 0 460.8 345.6" xmlns="http://www.w3.org/2000/svg" version="1.1">
 <metadata>
  <rdf:RDF xmlns:dc="http://purl.org/dc/elements/1.1/" xmlns:cc="http://creativecommons.org/ns#" xmlns:rdf="http://www.w3.org/1999/02/22-rdf-syntax-ns#">
   <cc:Work>
    <dc:type rdf:resource="http://purl.org/dc/dcmitype/StillImage"/>
    <dc:date>2023-01-19T17:26:28.636264</dc:date>
    <dc:format>image/svg+xml</dc:format>
    <dc:creator>
     <cc:Agent>
      <dc:title>Matplotlib v3.6.2, https://matplotlib.org/</dc:title>
     </cc:Agent>
    </dc:creator>
   </cc:Work>
  </rdf:RDF>
 </metadata>
 <defs>
  <style type="text/css">*{stroke-linejoin: round; stroke-linecap: butt}</style>
 </defs>
 <g id="figure_1">
  <g id="patch_1">
   <path d="M 0 345.6 
L 460.8 345.6 
L 460.8 0 
L 0 0 
z
" style="fill: #ffffff"/>
  </g>
  <g id="axes_1">
   <g id="patch_2">
    <path d="M 57.6 307.584 
L 414.72 307.584 
L 414.72 41.472 
L 57.6 41.472 
z
" style="fill: #ffffff"/>
   </g>
   <g id="PolyCollection_1">
    <defs>
     <path id="m970e107f2c" d="M 57.6 -38.016 
L 57.6 -38.016 
L 58.315671 -37.062213 
L 59.031343 -36.875609 
L 59.747014 -36.896201 
L 60.462685 -36.915374 
L 61.178357 -36.883517 
L 61.894028 -36.753192 
L 62.609699 -36.689495 
L 63.325371 -36.689728 
L 64.041042 -36.594325 
L 64.756713 -36.630867 
L 65.472385 -36.717551 
L 66.188056 -36.772842 
L 66.903727 -36.948045 
L 67.619399 -36.971601 
L 68.33507 -37.170895 
L 69.050741 -37.261811 
L 69.766413 -37.578431 
L 70.482084 -37.875049 
L 71.197756 -38.211213 
L 71.913427 -38.563951 
L 72.629098 -38.81535 
L 73.34477 -39.171388 
L 74.060441 -39.50701 
L 74.776112 -39.661649 
L 75.491784 -40.030513 
L 76.207455 -40.166122 
L 76.923126 -40.392979 
L 77.638798 -40.643353 
L 78.354469 -40.972017 
L 79.07014 -41.254058 
L 79.785812 -41.581727 
L 80.501483 -41.902771 
L 81.217154 -42.153062 
L 81.932826 -42.523559 
L 82.648497 -42.54742 
L 83.364168 -42.921845 
L 84.07984 -43.378944 
L 84.795511 -43.855679 
L 85.511182 -44.25714 
L 86.226854 -44.498462 
L 86.942525 -44.917204 
L 87.658196 -45.22744 
L 88.373868 -45.410305 
L 89.089539 -45.504265 
L 89.80521 -45.701536 
L 90.520882 -46.284479 
L 91.236553 -46.692387 
L 91.952224 -47.174708 
L 92.667896 -47.515326 
L 93.383567 -47.867961 
L 94.099238 -48.237491 
L 94.81491 -48.684015 
L 95.530581 -49.076778 
L 96.246253 -49.45337 
L 96.961924 -49.817193 
L 97.677595 -50.494754 
L 98.393267 -50.746579 
L 99.108938 -50.962162 
L 99.824609 -51.176993 
L 100.540281 -51.419046 
L 101.255952 -51.590147 
L 101.971623 -51.860483 
L 102.687295 -52.116802 
L 103.402966 -52.442691 
L 104.118637 -52.803042 
L 104.834309 -53.042831 
L 105.54998 -53.191987 
L 106.265651 -53.57108 
L 106.981323 -53.879254 
L 107.696994 -54.333058 
L 108.412665 -54.678912 
L 109.128337 -55.172329 
L 109.844008 -55.37288 
L 110.559679 -56.07741 
L 111.275351 -56.3527 
L 111.991022 -56.758602 
L 112.706693 -56.87363 
L 113.422365 -57.096102 
L 114.138036 -57.852538 
L 114.853707 -57.964931 
L 115.569379 -58.267401 
L 116.28505 -58.635573 
L 117.000721 -58.891226 
L 117.716393 -59.08649 
L 118.432064 -59.640849 
L 119.147735 -59.843467 
L 119.863407 -60.177437 
L 120.579078 -60.487497 
L 121.294749 -60.94167 
L 122.010421 -61.324956 
L 122.726092 -61.864888 
L 123.441764 -62.295148 
L 124.157435 -62.874542 
L 124.873106 -63.054203 
L 125.588778 -63.270035 
L 126.304449 -63.61364 
L 127.02012 -64.234119 
L 127.735792 -64.782522 
L 128.451463 -65.195966 
L 129.167134 -65.745887 
L 129.882806 -66.032804 
L 130.598477 -66.603994 
L 131.314148 -66.876631 
L 132.02982 -67.099561 
L 132.745491 -67.274419 
L 133.461162 -67.495982 
L 134.176834 -67.789205 
L 134.892505 -67.953358 
L 135.608176 -68.310476 
L 136.323848 -68.514252 
L 137.039519 -68.741188 
L 137.75519 -69.212165 
L 138.470862 -69.650092 
L 139.186533 -69.91475 
L 139.902204 -70.171312 
L 140.617876 -70.62629 
L 141.333547 -70.847871 
L 142.049218 -71.337772 
L 142.76489 -71.749215 
L 143.480561 -72.546092 
L 144.196232 -73.0826 
L 144.911904 -73.660247 
L 145.627575 -74.057085 
L 146.343246 -74.233285 
L 147.058918 -74.688768 
L 147.774589 -75.130881 
L 148.490261 -75.469737 
L 149.205932 -75.94648 
L 149.921603 -76.262958 
L 150.637275 -76.714157 
L 151.352946 -77.40048 
L 152.068617 -77.744387 
L 152.784289 -78.209735 
L 153.49996 -78.564758 
L 154.215631 -78.981182 
L 154.931303 -79.330679 
L 155.646974 -79.910396 
L 156.362645 -80.349722 
L 157.078317 -80.7149 
L 157.793988 -81.083947 
L 158.509659 -81.456089 
L 159.225331 -81.759324 
L 159.941002 -82.138075 
L 160.656673 -82.388467 
L 161.372345 -82.700879 
L 162.088016 -83.373992 
L 162.803687 -84.012194 
L 163.519359 -84.545107 
L 164.23503 -84.947283 
L 164.950701 -85.382447 
L 165.666373 -86.066625 
L 166.382044 -86.508002 
L 167.097715 -87.022278 
L 167.813387 -87.394784 
L 168.529058 -88.095974 
L 169.244729 -88.57226 
L 169.960401 -89.001961 
L 170.676072 -89.386185 
L 171.391743 -90.050704 
L 172.107415 -90.332279 
L 172.823086 -90.78466 
L 173.538758 -91.231294 
L 174.254429 -91.754855 
L 174.9701 -92.508129 
L 175.685772 -92.971039 
L 176.401443 -93.365142 
L 177.117114 -93.832002 
L 177.832786 -94.166485 
L 178.548457 -94.461685 
L 179.264128 -94.825788 
L 179.9798 -95.083753 
L 180.695471 -95.463999 
L 181.411142 -96.154092 
L 182.126814 -96.604801 
L 182.842485 -97.142456 
L 183.558156 -97.467165 
L 184.273828 -97.877644 
L 184.989499 -98.370347 
L 185.70517 -98.828608 
L 186.420842 -99.351672 
L 187.136513 -99.803894 
L 187.852184 -100.49439 
L 188.567856 -100.882924 
L 189.283527 -101.458801 
L 189.999198 -101.829029 
L 190.71487 -102.750008 
L 191.430541 -103.081803 
L 192.146212 -103.692281 
L 192.861884 -104.155214 
L 193.577555 -105.37238 
L 194.293226 -106.451775 
L 195.008898 -106.893871 
L 195.724569 -107.449999 
L 196.44024 -108.008692 
L 197.155912 -108.672994 
L 197.871583 -109.228392 
L 198.587255 -109.952994 
L 199.302926 -110.406305 
L 200.018597 -110.798793 
L 200.734269 -111.317024 
L 201.44994 -111.934235 
L 202.165611 -112.38114 
L 202.881283 -113.042667 
L 203.596954 -113.403315 
L 204.312625 -113.862196 
L 205.028297 -114.366464 
L 205.743968 -115.153373 
L 206.459639 -115.645366 
L 207.175311 -116.106868 
L 207.890982 -116.512801 
L 208.606653 -117.05344 
L 209.322325 -117.503178 
L 210.037996 -117.816772 
L 210.753667 -118.733932 
L 211.469339 -119.314958 
L 212.18501 -119.756348 
L 212.900681 -120.195182 
L 213.616353 -121.072214 
L 214.332024 -121.60958 
L 215.047695 -122.218627 
L 215.763367 -122.89857 
L 216.479038 -123.389465 
L 217.194709 -123.98053 
L 217.910381 -124.325642 
L 218.626052 -124.862219 
L 219.341723 -125.364258 
L 220.057395 -125.966651 
L 220.773066 -126.401966 
L 221.488737 -126.921022 
L 222.204409 -127.535752 
L 222.92008 -128.012461 
L 223.635752 -128.475846 
L 224.351423 -129.144022 
L 225.067094 -129.585919 
L 225.782766 -130.104714 
L 226.498437 -130.813122 
L 227.214108 -131.261737 
L 227.92978 -131.981147 
L 228.645451 -132.46264 
L 229.361122 -133.08964 
L 230.076794 -133.544574 
L 230.792465 -134.057 
L 231.508136 -134.726162 
L 232.223808 -135.337828 
L 232.939479 -135.820587 
L 233.65515 -136.285972 
L 234.370822 -136.696422 
L 235.086493 -136.969055 
L 235.802164 -137.728646 
L 236.517836 -138.341714 
L 237.233507 -138.71812 
L 237.949178 -139.148304 
L 238.66485 -139.494641 
L 239.380521 -139.881375 
L 240.096192 -140.662011 
L 240.811864 -141.061264 
L 241.527535 -141.410295 
L 242.243206 -141.912332 
L 242.958878 -142.372272 
L 243.674549 -142.854483 
L 244.39022 -143.409519 
L 245.105892 -143.919726 
L 245.821563 -144.335055 
L 246.537234 -144.82147 
L 247.252906 -145.22154 
L 247.968577 -145.592515 
L 248.684248 -146.063009 
L 249.39992 -146.358178 
L 250.115591 -146.886067 
L 250.831263 -147.346468 
L 251.546934 -147.712528 
L 252.262605 -148.079336 
L 252.978277 -148.368407 
L 253.693948 -148.619752 
L 254.409619 -148.890715 
L 255.125291 -149.177345 
L 255.840962 -149.556178 
L 256.556633 -149.91781 
L 257.272305 -150.172982 
L 257.987976 -150.593022 
L 258.703647 -151.046835 
L 259.419319 -151.44808 
L 260.13499 -151.847389 
L 260.850661 -152.326527 
L 261.566333 -152.599139 
L 262.282004 -152.934162 
L 262.997675 -153.538579 
L 263.713347 -154.003016 
L 264.429018 -154.495971 
L 265.144689 -154.881497 
L 265.860361 -155.429534 
L 266.576032 -155.892211 
L 267.291703 -156.432073 
L 268.007375 -156.904112 
L 268.723046 -157.46678 
L 269.438717 -158.122223 
L 270.154389 -158.861804 
L 270.87006 -159.711242 
L 271.585731 -160.435968 
L 272.301403 -160.978783 
L 273.017074 -161.529396 
L 273.732745 -161.988159 
L 274.448417 -162.380952 
L 275.164088 -162.771319 
L 275.87976 -163.401303 
L 276.595431 -163.830303 
L 277.311102 -164.41857 
L 278.026774 -164.785409 
L 278.742445 -165.062067 
L 279.458116 -165.564953 
L 280.173788 -165.77733 
L 280.889459 -166.36569 
L 281.60513 -166.884242 
L 282.320802 -167.775138 
L 283.036473 -168.250667 
L 283.752144 -168.817196 
L 284.467816 -169.418548 
L 285.183487 -169.800302 
L 285.899158 -170.302899 
L 286.61483 -170.93138 
L 287.330501 -171.511367 
L 288.046172 -171.860681 
L 288.761844 -172.425512 
L 289.477515 -173.027444 
L 290.193186 -173.469851 
L 290.908858 -174.011748 
L 291.624529 -174.464964 
L 292.3402 -174.980334 
L 293.055872 -175.490893 
L 293.771543 -176.128745 
L 294.487214 -176.780725 
L 295.202886 -177.499409 
L 295.918557 -178.195079 
L 296.634228 -178.803408 
L 297.3499 -179.430277 
L 298.065571 -180.163615 
L 298.781242 -180.805976 
L 299.496914 -181.395613 
L 300.212585 -181.949903 
L 300.928257 -182.369649 
L 301.643928 -183.177954 
L 302.359599 -183.680932 
L 303.075271 -184.072437 
L 303.790942 -184.417979 
L 304.506613 -184.855276 
L 305.222285 -185.285009 
L 305.937956 -186.093972 
L 306.653627 -186.54645 
L 307.369299 -187.092437 
L 308.08497 -187.49158 
L 308.800641 -187.991985 
L 309.516313 -188.998756 
L 310.231984 -189.524143 
L 310.947655 -190.132157 
L 311.663327 -190.474644 
L 312.378998 -191.330225 
L 313.094669 -191.697595 
L 313.810341 -192.127451 
L 314.526012 -192.596535 
L 315.241683 -193.064312 
L 315.957355 -193.592222 
L 316.673026 -194.070766 
L 317.388697 -194.637855 
L 318.104369 -195.034636 
L 318.82004 -195.535593 
L 319.535711 -196.086091 
L 320.251383 -196.540589 
L 320.967054 -197.153925 
L 321.682725 -197.677468 
L 322.398397 -198.468068 
L 323.114068 -199.155487 
L 323.829739 -199.793385 
L 324.545411 -200.49814 
L 325.261082 -200.929705 
L 325.976754 -201.589694 
L 326.692425 -201.98494 
L 327.408096 -202.256412 
L 328.123768 -202.999854 
L 328.839439 -203.624483 
L 329.55511 -203.78095 
L 330.270782 -204.210437 
L 330.986453 -204.479337 
L 331.702124 -204.861831 
L 332.417796 -205.271039 
L 333.133467 -205.689877 
L 333.849138 -206.252406 
L 334.56481 -206.704151 
L 335.280481 -207.42144 
L 335.996152 -208.057343 
L 336.711824 -208.584605 
L 337.427495 -209.440897 
L 338.143166 -209.915366 
L 338.858838 -210.476451 
L 339.574509 -210.949147 
L 340.29018 -211.411792 
L 341.005852 -211.841648 
L 341.721523 -212.30698 
L 342.437194 -212.855565 
L 343.152866 -213.208924 
L 343.868537 -213.74831 
L 344.584208 -214.171304 
L 345.29988 -214.926955 
L 346.015551 -215.414612 
L 346.731222 -215.937145 
L 347.446894 -216.533006 
L 348.162565 -217.088969 
L 348.878236 -217.838523 
L 349.593908 -218.513502 
L 350.309579 -219.541917 
L 351.025251 -220.104286 
L 351.740922 -220.558712 
L 352.456593 -221.036312 
L 353.172265 -221.680227 
L 353.887936 -222.475797 
L 354.603607 -223.189505 
L 355.319279 -223.691829 
L 356.03495 -223.989043 
L 356.750621 -225.233303 
L 357.466293 -225.938397 
L 358.181964 -226.48394 
L 358.897635 -226.985903 
L 359.613307 -227.517479 
L 360.328978 -228.065006 
L 361.044649 -228.683549 
L 361.760321 -229.407175 
L 362.475992 -230.361718 
L 363.191663 -231.049427 
L 363.907335 -231.623768 
L 364.623006 -232.503408 
L 365.338677 -233.199567 
L 366.054349 -234.032271 
L 366.77002 -234.629318 
L 367.485691 -235.288628 
L 368.201363 -236.020359 
L 368.917034 -236.749123 
L 369.632705 -237.253671 
L 370.348377 -237.726592 
L 371.064048 -238.351434 
L 371.779719 -238.971821 
L 372.495391 -239.421569 
L 373.211062 -239.893699 
L 373.926733 -240.544163 
L 374.642405 -241.040175 
L 375.358076 -241.506263 
L 376.073747 -242.045547 
L 376.789419 -242.921447 
L 377.50509 -243.53953 
L 378.220762 -244.897242 
L 378.936433 -245.526661 
L 379.652104 -246.39797 
L 380.367776 -247.066783 
L 381.083447 -247.584006 
L 381.799118 -248.063745 
L 382.51479 -248.66253 
L 383.230461 -249.094552 
L 383.946132 -249.691373 
L 384.661804 -250.606597 
L 385.377475 -251.408949 
L 386.093146 -252.293877 
L 386.808818 -253.052672 
L 387.524489 -253.530035 
L 388.24016 -254.007076 
L 388.955832 -254.453067 
L 389.671503 -255.171721 
L 390.387174 -255.583144 
L 391.102846 -256.078662 
L 391.818517 -256.710587 
L 392.534188 -257.388156 
L 393.24986 -258.288235 
L 393.965531 -258.981498 
L 394.681202 -260.018616 
L 395.396874 -260.631905 
L 396.112545 -261.482455 
L 396.828216 -262.170356 
L 397.543888 -263.477807 
L 398.259559 -264.430858 
L 398.97523 -265.104145 
L 399.690902 -266.035005 
L 400.406573 -266.696449 
L 401.122244 -267.746101 
L 401.837916 -268.843736 
L 402.553587 -269.983426 
L 403.269259 -271.205345 
L 403.98493 -272.478526 
L 404.700601 -273.335102 
L 405.416273 -274.321285 
L 406.131944 -275.377198 
L 406.847615 -276.332922 
L 407.563287 -277.57738 
L 408.278958 -278.374462 
L 408.994629 -279.33423 
L 409.710301 -280.598441 
L 410.425972 -281.465908 
L 411.141643 -282.895676 
L 411.857315 -283.765855 
L 412.572986 -285.349873 
L 413.288657 -286.340964 
L 414.004329 -289.093607 
L 414.72 -291.456 
L 414.72 -291.456 
L 414.72 -291.456 
L 414.004329 -292.468436 
L 413.288657 -293.740018 
L 412.572986 -293.64455 
L 411.857315 -293.6307 
L 411.141643 -293.470658 
L 410.425972 -293.350224 
L 409.710301 -293.22397 
L 408.994629 -293.252977 
L 408.278958 -293.038215 
L 407.563287 -292.762577 
L 406.847615 -292.678836 
L 406.131944 -292.332722 
L 405.416273 -292.282806 
L 404.700601 -292.182216 
L 403.98493 -291.720347 
L 403.269259 -291.601128 
L 402.553587 -291.302521 
L 401.837916 -291.180459 
L 401.122244 -290.853073 
L 400.406573 -290.551804 
L 399.690902 -290.114216 
L 398.97523 -289.86066 
L 398.259559 -289.633349 
L 397.543888 -289.366115 
L 396.828216 -289.379718 
L 396.112545 -288.983649 
L 395.396874 -288.828634 
L 394.681202 -288.380057 
L 393.965531 -288.083127 
L 393.24986 -287.64264 
L 392.534188 -287.297142 
L 391.818517 -286.883927 
L 391.102846 -286.429726 
L 390.387174 -285.717125 
L 389.671503 -285.045533 
L 388.955832 -284.636524 
L 388.24016 -284.073678 
L 387.524489 -283.540603 
L 386.808818 -283.114294 
L 386.093146 -282.908248 
L 385.377475 -282.721613 
L 384.661804 -282.434196 
L 383.946132 -282.211054 
L 383.230461 -281.916295 
L 382.51479 -281.477451 
L 381.799118 -281.036121 
L 381.083447 -280.644996 
L 380.367776 -280.144232 
L 379.652104 -279.90081 
L 378.936433 -279.509806 
L 378.220762 -279.122419 
L 377.50509 -279.306763 
L 376.789419 -279.012834 
L 376.073747 -278.885536 
L 375.358076 -278.608693 
L 374.642405 -278.155362 
L 373.926733 -277.901185 
L 373.211062 -277.736095 
L 372.495391 -277.401641 
L 371.779719 -277.117877 
L 371.064048 -276.830014 
L 370.348377 -276.552625 
L 369.632705 -276.133473 
L 368.917034 -275.807039 
L 368.201363 -275.576755 
L 367.485691 -275.17758 
L 366.77002 -274.847438 
L 366.054349 -274.301793 
L 365.338677 -273.99055 
L 364.623006 -273.497715 
L 363.907335 -273.121801 
L 363.191663 -272.681959 
L 362.475992 -272.218077 
L 361.760321 -271.884247 
L 361.044649 -271.656741 
L 360.328978 -271.290721 
L 359.613307 -270.831242 
L 358.897635 -270.299256 
L 358.181964 -269.905909 
L 357.466293 -269.406222 
L 356.750621 -269.03942 
L 356.03495 -268.912403 
L 355.319279 -268.221132 
L 354.603607 -267.866207 
L 353.887936 -267.364622 
L 353.172265 -267.036071 
L 352.456593 -266.660948 
L 351.740922 -266.243371 
L 351.025251 -265.749992 
L 350.309579 -265.342674 
L 349.593908 -265.317674 
L 348.878236 -264.877187 
L 348.162565 -264.610501 
L 347.446894 -264.12347 
L 346.731222 -263.508224 
L 346.015551 -262.763513 
L 345.29988 -262.400436 
L 344.584208 -262.042088 
L 343.868537 -261.66741 
L 343.152866 -261.039223 
L 342.437194 -260.408397 
L 341.721523 -260.070144 
L 341.005852 -259.735337 
L 340.29018 -259.463721 
L 339.574509 -258.969951 
L 338.858838 -258.591266 
L 338.143166 -258.250673 
L 337.427495 -257.894567 
L 336.711824 -257.666166 
L 335.996152 -257.200021 
L 335.280481 -257.012345 
L 334.56481 -256.646236 
L 333.849138 -256.206422 
L 333.133467 -255.713608 
L 332.417796 -255.301797 
L 331.702124 -254.884735 
L 330.986453 -254.425059 
L 330.270782 -253.816418 
L 329.55511 -253.398487 
L 328.839439 -252.614824 
L 328.123768 -252.384344 
L 327.408096 -252.082497 
L 326.692425 -251.458123 
L 325.976754 -250.95458 
L 325.261082 -250.60317 
L 324.545411 -250.045226 
L 323.829739 -249.628649 
L 323.114068 -249.062986 
L 322.398397 -248.655793 
L 321.682725 -248.331674 
L 320.967054 -247.754713 
L 320.251383 -247.192224 
L 319.535711 -246.574952 
L 318.82004 -246.04894 
L 318.104369 -245.348592 
L 317.388697 -244.869442 
L 316.673026 -244.44212 
L 315.957355 -243.96464 
L 315.241683 -243.367255 
L 314.526012 -242.730115 
L 313.810341 -241.946913 
L 313.094669 -240.922582 
L 312.378998 -240.332323 
L 311.663327 -239.909542 
L 310.947655 -239.307743 
L 310.231984 -238.773646 
L 309.516313 -238.106704 
L 308.800641 -237.713724 
L 308.08497 -237.046049 
L 307.369299 -236.293927 
L 306.653627 -235.731687 
L 305.937956 -235.149719 
L 305.222285 -234.566065 
L 304.506613 -233.93943 
L 303.790942 -233.139081 
L 303.075271 -232.414761 
L 302.359599 -231.750837 
L 301.643928 -230.83624 
L 300.928257 -230.436995 
L 300.212585 -229.742285 
L 299.496914 -229.162076 
L 298.781242 -228.632781 
L 298.065571 -228.158711 
L 297.3499 -227.744206 
L 296.634228 -227.354692 
L 295.918557 -226.861346 
L 295.202886 -226.360505 
L 294.487214 -226.055371 
L 293.771543 -225.50822 
L 293.055872 -225.125085 
L 292.3402 -224.636862 
L 291.624529 -224.189921 
L 290.908858 -223.562696 
L 290.193186 -222.975811 
L 289.477515 -222.392904 
L 288.761844 -221.934114 
L 288.046172 -221.587822 
L 287.330501 -220.956757 
L 286.61483 -220.478029 
L 285.899158 -219.838363 
L 285.183487 -219.326171 
L 284.467816 -218.698635 
L 283.752144 -218.34604 
L 283.036473 -217.746009 
L 282.320802 -217.272488 
L 281.60513 -216.876264 
L 280.889459 -216.309441 
L 280.173788 -215.637514 
L 279.458116 -215.026525 
L 278.742445 -214.609521 
L 278.026774 -214.113739 
L 277.311102 -213.536595 
L 276.595431 -213.054743 
L 275.87976 -212.479737 
L 275.164088 -212.139918 
L 274.448417 -211.759609 
L 273.732745 -211.247049 
L 273.017074 -210.851963 
L 272.301403 -210.484148 
L 271.585731 -210.152234 
L 270.87006 -209.87439 
L 270.154389 -209.633561 
L 269.438717 -209.478134 
L 268.723046 -209.148316 
L 268.007375 -208.845152 
L 267.291703 -208.485998 
L 266.576032 -208.199964 
L 265.860361 -207.889057 
L 265.144689 -207.504071 
L 264.429018 -207.098799 
L 263.713347 -206.797021 
L 262.997675 -206.492494 
L 262.282004 -206.207993 
L 261.566333 -205.63079 
L 260.850661 -205.169374 
L 260.13499 -204.791617 
L 259.419319 -204.217482 
L 258.703647 -203.786735 
L 257.987976 -203.284543 
L 257.272305 -202.950713 
L 256.556633 -202.215322 
L 255.840962 -201.787232 
L 255.125291 -201.215133 
L 254.409619 -200.654431 
L 253.693948 -200.080009 
L 252.978277 -199.509182 
L 252.262605 -198.937934 
L 251.546934 -198.438041 
L 250.831263 -198.031701 
L 250.115591 -197.412566 
L 249.39992 -197.056051 
L 248.684248 -196.387271 
L 247.968577 -195.934262 
L 247.252906 -195.389416 
L 246.537234 -195.022793 
L 245.821563 -194.676461 
L 245.105892 -194.184062 
L 244.39022 -193.740614 
L 243.674549 -193.132201 
L 242.958878 -192.753897 
L 242.243206 -192.431817 
L 241.527535 -192.079846 
L 240.811864 -191.305391 
L 240.096192 -190.820898 
L 239.380521 -190.485498 
L 238.66485 -189.988179 
L 237.949178 -189.428216 
L 237.233507 -189.07124 
L 236.517836 -188.623511 
L 235.802164 -188.369343 
L 235.086493 -188.177552 
L 234.370822 -187.478585 
L 233.65515 -187.037429 
L 232.939479 -186.626929 
L 232.223808 -186.207895 
L 231.508136 -185.85156 
L 230.792465 -185.512303 
L 230.076794 -185.12517 
L 229.361122 -184.631781 
L 228.645451 -184.279974 
L 227.92978 -183.798414 
L 227.214108 -183.492535 
L 226.498437 -183.17108 
L 225.782766 -182.822714 
L 225.067094 -182.259005 
L 224.351423 -181.749257 
L 223.635752 -181.331731 
L 222.92008 -180.720878 
L 222.204409 -180.107067 
L 221.488737 -179.476745 
L 220.773066 -178.998598 
L 220.057395 -178.376036 
L 219.341723 -177.792913 
L 218.626052 -177.33756 
L 217.910381 -176.773618 
L 217.194709 -176.110952 
L 216.479038 -175.654463 
L 215.763367 -174.909117 
L 215.047695 -174.411591 
L 214.332024 -173.813388 
L 213.616353 -173.312574 
L 212.900681 -172.770257 
L 212.18501 -172.091887 
L 211.469339 -171.611927 
L 210.753667 -171.132401 
L 210.037996 -170.90495 
L 209.322325 -170.139684 
L 208.606653 -169.76299 
L 207.890982 -169.400687 
L 207.175311 -168.672852 
L 206.459639 -168.154295 
L 205.743968 -167.769911 
L 205.028297 -167.44489 
L 204.312625 -166.612735 
L 203.596954 -166.069223 
L 202.881283 -165.344714 
L 202.165611 -164.707665 
L 201.44994 -164.047414 
L 200.734269 -163.525415 
L 200.018597 -162.93988 
L 199.302926 -162.100566 
L 198.587255 -161.501362 
L 197.871583 -160.892649 
L 197.155912 -160.112334 
L 196.44024 -159.541418 
L 195.724569 -158.957993 
L 195.008898 -158.337374 
L 194.293226 -157.719966 
L 193.577555 -157.429859 
L 192.861884 -157.360759 
L 192.146212 -156.726362 
L 191.430541 -156.186291 
L 190.71487 -155.590739 
L 189.999198 -155.289105 
L 189.283527 -154.638242 
L 188.567856 -154.240381 
L 187.852184 -153.713019 
L 187.136513 -153.227473 
L 186.420842 -152.740687 
L 185.70517 -152.044019 
L 184.989499 -151.621518 
L 184.273828 -150.937194 
L 183.558156 -150.430352 
L 182.842485 -149.4108 
L 182.126814 -149.009447 
L 181.411142 -148.571093 
L 180.695471 -147.630293 
L 179.9798 -146.924216 
L 179.264128 -146.010622 
L 178.548457 -145.471046 
L 177.832786 -144.603772 
L 177.117114 -144.09347 
L 176.401443 -143.437704 
L 175.685772 -142.808075 
L 174.9701 -142.207558 
L 174.254429 -141.536164 
L 173.538758 -140.966771 
L 172.823086 -140.231998 
L 172.107415 -139.671037 
L 171.391743 -138.887127 
L 170.676072 -138.499167 
L 169.960401 -137.836237 
L 169.244729 -137.19235 
L 168.529058 -136.488856 
L 167.813387 -136.043562 
L 167.097715 -135.574326 
L 166.382044 -135.1687 
L 165.666373 -134.578348 
L 164.950701 -134.03384 
L 164.23503 -133.531686 
L 163.519359 -133.0696 
L 162.803687 -132.676802 
L 162.088016 -132.197031 
L 161.372345 -131.906319 
L 160.656673 -131.362211 
L 159.941002 -130.756928 
L 159.225331 -130.239434 
L 158.509659 -129.745046 
L 157.793988 -129.207327 
L 157.078317 -128.791081 
L 156.362645 -128.304887 
L 155.646974 -127.885479 
L 154.931303 -127.48189 
L 154.215631 -126.905683 
L 153.49996 -126.479662 
L 152.784289 -125.912389 
L 152.068617 -125.471194 
L 151.352946 -125.053333 
L 150.637275 -124.603542 
L 149.921603 -124.264095 
L 149.205932 -123.712828 
L 148.490261 -123.07418 
L 147.774589 -122.623092 
L 147.058918 -122.194641 
L 146.343246 -121.84926 
L 145.627575 -120.984887 
L 144.911904 -120.498563 
L 144.196232 -119.847387 
L 143.480561 -119.504384 
L 142.76489 -119.14272 
L 142.049218 -118.729119 
L 141.333547 -118.31662 
L 140.617876 -117.740174 
L 139.902204 -117.309165 
L 139.186533 -116.730776 
L 138.470862 -116.010358 
L 137.75519 -115.565448 
L 137.039519 -115.176453 
L 136.323848 -114.694529 
L 135.608176 -114.170097 
L 134.892505 -113.68416 
L 134.176834 -112.93829 
L 133.461162 -112.35693 
L 132.745491 -111.729586 
L 132.02982 -110.881438 
L 131.314148 -110.257649 
L 130.598477 -109.543888 
L 129.882806 -108.97599 
L 129.167134 -108.347021 
L 128.451463 -107.672995 
L 127.735792 -107.13261 
L 127.02012 -106.535569 
L 126.304449 -106.090822 
L 125.588778 -105.588068 
L 124.873106 -104.92083 
L 124.157435 -104.143701 
L 123.441764 -103.561908 
L 122.726092 -102.788645 
L 122.010421 -102.182913 
L 121.294749 -101.487695 
L 120.579078 -100.608299 
L 119.863407 -99.853074 
L 119.147735 -99.137289 
L 118.432064 -98.294915 
L 117.716393 -97.779318 
L 117.000721 -97.033079 
L 116.28505 -96.317543 
L 115.569379 -95.479469 
L 114.853707 -94.7246 
L 114.138036 -93.731251 
L 113.422365 -93.024822 
L 112.706693 -92.330112 
L 111.991022 -91.645174 
L 111.275351 -90.881039 
L 110.559679 -90.211362 
L 109.844008 -89.810346 
L 109.128337 -89.185111 
L 108.412665 -88.766821 
L 107.696994 -88.137741 
L 106.981323 -87.581958 
L 106.265651 -86.997857 
L 105.54998 -86.447744 
L 104.834309 -85.717233 
L 104.118637 -85.212999 
L 103.402966 -84.656873 
L 102.687295 -84.176243 
L 101.971623 -83.580361 
L 101.255952 -83.119831 
L 100.540281 -82.47789 
L 99.824609 -81.994034 
L 99.108938 -81.458811 
L 98.393267 -80.930733 
L 97.677595 -80.391298 
L 96.961924 -79.772885 
L 96.246253 -79.262521 
L 95.530581 -78.814108 
L 94.81491 -78.337157 
L 94.099238 -77.837732 
L 93.383567 -77.04289 
L 92.667896 -76.470785 
L 91.952224 -75.899382 
L 91.236553 -75.40054 
L 90.520882 -74.529953 
L 89.80521 -74.032646 
L 89.089539 -73.218728 
L 88.373868 -72.270645 
L 87.658196 -71.51566 
L 86.942525 -70.748549 
L 86.226854 -70.003835 
L 85.511182 -69.157668 
L 84.795511 -68.45707 
L 84.07984 -67.636399 
L 83.364168 -66.917082 
L 82.648497 -66.323429 
L 81.932826 -65.466066 
L 81.217154 -64.866076 
L 80.501483 -64.267753 
L 79.785812 -63.71302 
L 79.07014 -63.135797 
L 78.354469 -62.611532 
L 77.638798 -62.068799 
L 76.923126 -61.333139 
L 76.207455 -60.80057 
L 75.491784 -59.847942 
L 74.776112 -59.384566 
L 74.060441 -58.749253 
L 73.34477 -58.157331 
L 72.629098 -57.657332 
L 71.913427 -57.152841 
L 71.197756 -56.587175 
L 70.482084 -55.951967 
L 69.766413 -55.28324 
L 69.050741 -54.661029 
L 68.33507 -53.778403 
L 67.619399 -52.750047 
L 66.903727 -51.951419 
L 66.188056 -51.168121 
L 65.472385 -50.412443 
L 64.756713 -49.428206 
L 64.041042 -48.410714 
L 63.325371 -47.409575 
L 62.609699 -46.443392 
L 61.894028 -45.509449 
L 61.178357 -44.221983 
L 60.462685 -43.310004 
L 59.747014 -42.182854 
L 59.031343 -41.297033 
L 58.315671 -40.088219 
L 57.6 -38.016 
z
" style="stroke: #0000ff; stroke-opacity: 0.1"/>
    </defs>
    <g clip-path="url(#p813d667c7c)">
     <use xlink:href="#m970e107f2c" x="0" y="345.6" style="fill: #0000ff; fill-opacity: 0.1; stroke: #0000ff; stroke-opacity: 0.1"/>
    </g>
   </g>
   <g id="matplotlib.axis_1">
    <g id="xtick_1">
     <g id="line2d_1">
      <defs>
       <path id="mdf2a1bff35" d="M 0 0 
L 0 3.5 
" style="stroke: #000000; stroke-width: 0.8"/>
      </defs>
      <g>
       <use xlink:href="#mdf2a1bff35" x="57.6" y="307.584" style="stroke: #000000; stroke-width: 0.8"/>
      </g>
     </g>
     <g id="text_1">
      <!-- 0.0 -->
      <g transform="translate(49.648438 322.182437) scale(0.1 -0.1)">
       <defs>
        <path id="DejaVuSans-30" d="M 2034 4250 
Q 1547 4250 1301 3770 
Q 1056 3291 1056 2328 
Q 1056 1369 1301 889 
Q 1547 409 2034 409 
Q 2525 409 2770 889 
Q 3016 1369 3016 2328 
Q 3016 3291 2770 3770 
Q 2525 4250 2034 4250 
z
M 2034 4750 
Q 2819 4750 3233 4129 
Q 3647 3509 3647 2328 
Q 3647 1150 3233 529 
Q 2819 -91 2034 -91 
Q 1250 -91 836 529 
Q 422 1150 422 2328 
Q 422 3509 836 4129 
Q 1250 4750 2034 4750 
z
" transform="scale(0.015625)"/>
        <path id="DejaVuSans-2e" d="M 684 794 
L 1344 794 
L 1344 0 
L 684 0 
L 684 794 
z
" transform="scale(0.015625)"/>
       </defs>
       <use xlink:href="#DejaVuSans-30"/>
       <use xlink:href="#DejaVuSans-2e" x="63.623047"/>
       <use xlink:href="#DejaVuSans-30" x="95.410156"/>
      </g>
     </g>
    </g>
    <g id="xtick_2">
     <g id="line2d_2">
      <g>
       <use xlink:href="#mdf2a1bff35" x="129.024" y="307.584" style="stroke: #000000; stroke-width: 0.8"/>
      </g>
     </g>
     <g id="text_2">
      <!-- 0.2 -->
      <g transform="translate(121.072438 322.182437) scale(0.1 -0.1)">
       <defs>
        <path id="DejaVuSans-32" d="M 1228 531 
L 3431 531 
L 3431 0 
L 469 0 
L 469 531 
Q 828 903 1448 1529 
Q 2069 2156 2228 2338 
Q 2531 2678 2651 2914 
Q 2772 3150 2772 3378 
Q 2772 3750 2511 3984 
Q 2250 4219 1831 4219 
Q 1534 4219 1204 4116 
Q 875 4013 500 3803 
L 500 4441 
Q 881 4594 1212 4672 
Q 1544 4750 1819 4750 
Q 2544 4750 2975 4387 
Q 3406 4025 3406 3419 
Q 3406 3131 3298 2873 
Q 3191 2616 2906 2266 
Q 2828 2175 2409 1742 
Q 1991 1309 1228 531 
z
" transform="scale(0.015625)"/>
       </defs>
       <use xlink:href="#DejaVuSans-30"/>
       <use xlink:href="#DejaVuSans-2e" x="63.623047"/>
       <use xlink:href="#DejaVuSans-32" x="95.410156"/>
      </g>
     </g>
    </g>
    <g id="xtick_3">
     <g id="line2d_3">
      <g>
       <use xlink:href="#mdf2a1bff35" x="200.448" y="307.584" style="stroke: #000000; stroke-width: 0.8"/>
      </g>
     </g>
     <g id="text_3">
      <!-- 0.4 -->
      <g transform="translate(192.496438 322.182437) scale(0.1 -0.1)">
       <defs>
        <path id="DejaVuSans-34" d="M 2419 4116 
L 825 1625 
L 2419 1625 
L 2419 4116 
z
M 2253 4666 
L 3047 4666 
L 3047 1625 
L 3713 1625 
L 3713 1100 
L 3047 1100 
L 3047 0 
L 2419 0 
L 2419 1100 
L 313 1100 
L 313 1709 
L 2253 4666 
z
" transform="scale(0.015625)"/>
       </defs>
       <use xlink:href="#DejaVuSans-30"/>
       <use xlink:href="#DejaVuSans-2e" x="63.623047"/>
       <use xlink:href="#DejaVuSans-34" x="95.410156"/>
      </g>
     </g>
    </g>
    <g id="xtick_4">
     <g id="line2d_4">
      <g>
       <use xlink:href="#mdf2a1bff35" x="271.872" y="307.584" style="stroke: #000000; stroke-width: 0.8"/>
      </g>
     </g>
     <g id="text_4">
      <!-- 0.6 -->
      <g transform="translate(263.920438 322.182437) scale(0.1 -0.1)">
       <defs>
        <path id="DejaVuSans-36" d="M 2113 2584 
Q 1688 2584 1439 2293 
Q 1191 2003 1191 1497 
Q 1191 994 1439 701 
Q 1688 409 2113 409 
Q 2538 409 2786 701 
Q 3034 994 3034 1497 
Q 3034 2003 2786 2293 
Q 2538 2584 2113 2584 
z
M 3366 4563 
L 3366 3988 
Q 3128 4100 2886 4159 
Q 2644 4219 2406 4219 
Q 1781 4219 1451 3797 
Q 1122 3375 1075 2522 
Q 1259 2794 1537 2939 
Q 1816 3084 2150 3084 
Q 2853 3084 3261 2657 
Q 3669 2231 3669 1497 
Q 3669 778 3244 343 
Q 2819 -91 2113 -91 
Q 1303 -91 875 529 
Q 447 1150 447 2328 
Q 447 3434 972 4092 
Q 1497 4750 2381 4750 
Q 2619 4750 2861 4703 
Q 3103 4656 3366 4563 
z
" transform="scale(0.015625)"/>
       </defs>
       <use xlink:href="#DejaVuSans-30"/>
       <use xlink:href="#DejaVuSans-2e" x="63.623047"/>
       <use xlink:href="#DejaVuSans-36" x="95.410156"/>
      </g>
     </g>
    </g>
    <g id="xtick_5">
     <g id="line2d_5">
      <g>
       <use xlink:href="#mdf2a1bff35" x="343.296" y="307.584" style="stroke: #000000; stroke-width: 0.8"/>
      </g>
     </g>
     <g id="text_5">
      <!-- 0.8 -->
      <g transform="translate(335.344438 322.182437) scale(0.1 -0.1)">
       <defs>
        <path id="DejaVuSans-38" d="M 2034 2216 
Q 1584 2216 1326 1975 
Q 1069 1734 1069 1313 
Q 1069 891 1326 650 
Q 1584 409 2034 409 
Q 2484 409 2743 651 
Q 3003 894 3003 1313 
Q 3003 1734 2745 1975 
Q 2488 2216 2034 2216 
z
M 1403 2484 
Q 997 2584 770 2862 
Q 544 3141 544 3541 
Q 544 4100 942 4425 
Q 1341 4750 2034 4750 
Q 2731 4750 3128 4425 
Q 3525 4100 3525 3541 
Q 3525 3141 3298 2862 
Q 3072 2584 2669 2484 
Q 3125 2378 3379 2068 
Q 3634 1759 3634 1313 
Q 3634 634 3220 271 
Q 2806 -91 2034 -91 
Q 1263 -91 848 271 
Q 434 634 434 1313 
Q 434 1759 690 2068 
Q 947 2378 1403 2484 
z
M 1172 3481 
Q 1172 3119 1398 2916 
Q 1625 2713 2034 2713 
Q 2441 2713 2670 2916 
Q 2900 3119 2900 3481 
Q 2900 3844 2670 4047 
Q 2441 4250 2034 4250 
Q 1625 4250 1398 4047 
Q 1172 3844 1172 3481 
z
" transform="scale(0.015625)"/>
       </defs>
       <use xlink:href="#DejaVuSans-30"/>
       <use xlink:href="#DejaVuSans-2e" x="63.623047"/>
       <use xlink:href="#DejaVuSans-38" x="95.410156"/>
      </g>
     </g>
    </g>
    <g id="xtick_6">
     <g id="line2d_6">
      <g>
       <use xlink:href="#mdf2a1bff35" x="414.72" y="307.584" style="stroke: #000000; stroke-width: 0.8"/>
      </g>
     </g>
     <g id="text_6">
      <!-- 1.0 -->
      <g transform="translate(406.768438 322.182437) scale(0.1 -0.1)">
       <defs>
        <path id="DejaVuSans-31" d="M 794 531 
L 1825 531 
L 1825 4091 
L 703 3866 
L 703 4441 
L 1819 4666 
L 2450 4666 
L 2450 531 
L 3481 531 
L 3481 0 
L 794 0 
L 794 531 
z
" transform="scale(0.015625)"/>
       </defs>
       <use xlink:href="#DejaVuSans-31"/>
       <use xlink:href="#DejaVuSans-2e" x="63.623047"/>
       <use xlink:href="#DejaVuSans-30" x="95.410156"/>
      </g>
     </g>
    </g>
    <g id="text_7">
     <!-- False Positive Rate -->
     <g transform="translate(189.693594 335.860562) scale(0.1 -0.1)">
      <defs>
       <path id="DejaVuSans-46" d="M 628 4666 
L 3309 4666 
L 3309 4134 
L 1259 4134 
L 1259 2759 
L 3109 2759 
L 3109 2228 
L 1259 2228 
L 1259 0 
L 628 0 
L 628 4666 
z
" transform="scale(0.015625)"/>
       <path id="DejaVuSans-61" d="M 2194 1759 
Q 1497 1759 1228 1600 
Q 959 1441 959 1056 
Q 959 750 1161 570 
Q 1363 391 1709 391 
Q 2188 391 2477 730 
Q 2766 1069 2766 1631 
L 2766 1759 
L 2194 1759 
z
M 3341 1997 
L 3341 0 
L 2766 0 
L 2766 531 
Q 2569 213 2275 61 
Q 1981 -91 1556 -91 
Q 1019 -91 701 211 
Q 384 513 384 1019 
Q 384 1609 779 1909 
Q 1175 2209 1959 2209 
L 2766 2209 
L 2766 2266 
Q 2766 2663 2505 2880 
Q 2244 3097 1772 3097 
Q 1472 3097 1187 3025 
Q 903 2953 641 2809 
L 641 3341 
Q 956 3463 1253 3523 
Q 1550 3584 1831 3584 
Q 2591 3584 2966 3190 
Q 3341 2797 3341 1997 
z
" transform="scale(0.015625)"/>
       <path id="DejaVuSans-6c" d="M 603 4863 
L 1178 4863 
L 1178 0 
L 603 0 
L 603 4863 
z
" transform="scale(0.015625)"/>
       <path id="DejaVuSans-73" d="M 2834 3397 
L 2834 2853 
Q 2591 2978 2328 3040 
Q 2066 3103 1784 3103 
Q 1356 3103 1142 2972 
Q 928 2841 928 2578 
Q 928 2378 1081 2264 
Q 1234 2150 1697 2047 
L 1894 2003 
Q 2506 1872 2764 1633 
Q 3022 1394 3022 966 
Q 3022 478 2636 193 
Q 2250 -91 1575 -91 
Q 1294 -91 989 -36 
Q 684 19 347 128 
L 347 722 
Q 666 556 975 473 
Q 1284 391 1588 391 
Q 1994 391 2212 530 
Q 2431 669 2431 922 
Q 2431 1156 2273 1281 
Q 2116 1406 1581 1522 
L 1381 1569 
Q 847 1681 609 1914 
Q 372 2147 372 2553 
Q 372 3047 722 3315 
Q 1072 3584 1716 3584 
Q 2034 3584 2315 3537 
Q 2597 3491 2834 3397 
z
" transform="scale(0.015625)"/>
       <path id="DejaVuSans-65" d="M 3597 1894 
L 3597 1613 
L 953 1613 
Q 991 1019 1311 708 
Q 1631 397 2203 397 
Q 2534 397 2845 478 
Q 3156 559 3463 722 
L 3463 178 
Q 3153 47 2828 -22 
Q 2503 -91 2169 -91 
Q 1331 -91 842 396 
Q 353 884 353 1716 
Q 353 2575 817 3079 
Q 1281 3584 2069 3584 
Q 2775 3584 3186 3129 
Q 3597 2675 3597 1894 
z
M 3022 2063 
Q 3016 2534 2758 2815 
Q 2500 3097 2075 3097 
Q 1594 3097 1305 2825 
Q 1016 2553 972 2059 
L 3022 2063 
z
" transform="scale(0.015625)"/>
       <path id="DejaVuSans-20" transform="scale(0.015625)"/>
       <path id="DejaVuSans-50" d="M 1259 4147 
L 1259 2394 
L 2053 2394 
Q 2494 2394 2734 2622 
Q 2975 2850 2975 3272 
Q 2975 3691 2734 3919 
Q 2494 4147 2053 4147 
L 1259 4147 
z
M 628 4666 
L 2053 4666 
Q 2838 4666 3239 4311 
Q 3641 3956 3641 3272 
Q 3641 2581 3239 2228 
Q 2838 1875 2053 1875 
L 1259 1875 
L 1259 0 
L 628 0 
L 628 4666 
z
" transform="scale(0.015625)"/>
       <path id="DejaVuSans-6f" d="M 1959 3097 
Q 1497 3097 1228 2736 
Q 959 2375 959 1747 
Q 959 1119 1226 758 
Q 1494 397 1959 397 
Q 2419 397 2687 759 
Q 2956 1122 2956 1747 
Q 2956 2369 2687 2733 
Q 2419 3097 1959 3097 
z
M 1959 3584 
Q 2709 3584 3137 3096 
Q 3566 2609 3566 1747 
Q 3566 888 3137 398 
Q 2709 -91 1959 -91 
Q 1206 -91 779 398 
Q 353 888 353 1747 
Q 353 2609 779 3096 
Q 1206 3584 1959 3584 
z
" transform="scale(0.015625)"/>
       <path id="DejaVuSans-69" d="M 603 3500 
L 1178 3500 
L 1178 0 
L 603 0 
L 603 3500 
z
M 603 4863 
L 1178 4863 
L 1178 4134 
L 603 4134 
L 603 4863 
z
" transform="scale(0.015625)"/>
       <path id="DejaVuSans-74" d="M 1172 4494 
L 1172 3500 
L 2356 3500 
L 2356 3053 
L 1172 3053 
L 1172 1153 
Q 1172 725 1289 603 
Q 1406 481 1766 481 
L 2356 481 
L 2356 0 
L 1766 0 
Q 1100 0 847 248 
Q 594 497 594 1153 
L 594 3053 
L 172 3053 
L 172 3500 
L 594 3500 
L 594 4494 
L 1172 4494 
z
" transform="scale(0.015625)"/>
       <path id="DejaVuSans-76" d="M 191 3500 
L 800 3500 
L 1894 563 
L 2988 3500 
L 3597 3500 
L 2284 0 
L 1503 0 
L 191 3500 
z
" transform="scale(0.015625)"/>
       <path id="DejaVuSans-52" d="M 2841 2188 
Q 3044 2119 3236 1894 
Q 3428 1669 3622 1275 
L 4263 0 
L 3584 0 
L 2988 1197 
Q 2756 1666 2539 1819 
Q 2322 1972 1947 1972 
L 1259 1972 
L 1259 0 
L 628 0 
L 628 4666 
L 2053 4666 
Q 2853 4666 3247 4331 
Q 3641 3997 3641 3322 
Q 3641 2881 3436 2590 
Q 3231 2300 2841 2188 
z
M 1259 4147 
L 1259 2491 
L 2053 2491 
Q 2509 2491 2742 2702 
Q 2975 2913 2975 3322 
Q 2975 3731 2742 3939 
Q 2509 4147 2053 4147 
L 1259 4147 
z
" transform="scale(0.015625)"/>
      </defs>
      <use xlink:href="#DejaVuSans-46"/>
      <use xlink:href="#DejaVuSans-61" x="48.394531"/>
      <use xlink:href="#DejaVuSans-6c" x="109.673828"/>
      <use xlink:href="#DejaVuSans-73" x="137.457031"/>
      <use xlink:href="#DejaVuSans-65" x="189.556641"/>
      <use xlink:href="#DejaVuSans-20" x="251.080078"/>
      <use xlink:href="#DejaVuSans-50" x="282.867188"/>
      <use xlink:href="#DejaVuSans-6f" x="339.544922"/>
      <use xlink:href="#DejaVuSans-73" x="400.726562"/>
      <use xlink:href="#DejaVuSans-69" x="452.826172"/>
      <use xlink:href="#DejaVuSans-74" x="480.609375"/>
      <use xlink:href="#DejaVuSans-69" x="519.818359"/>
      <use xlink:href="#DejaVuSans-76" x="547.601562"/>
      <use xlink:href="#DejaVuSans-65" x="606.78125"/>
      <use xlink:href="#DejaVuSans-20" x="668.304688"/>
      <use xlink:href="#DejaVuSans-52" x="700.091797"/>
      <use xlink:href="#DejaVuSans-61" x="767.324219"/>
      <use xlink:href="#DejaVuSans-74" x="828.603516"/>
      <use xlink:href="#DejaVuSans-65" x="867.8125"/>
     </g>
    </g>
   </g>
   <g id="matplotlib.axis_2">
    <g id="ytick_1">
     <g id="line2d_7">
      <defs>
       <path id="m8c55c110c8" d="M 0 0 
L -3.5 0 
" style="stroke: #000000; stroke-width: 0.8"/>
      </defs>
      <g>
       <use xlink:href="#m8c55c110c8" x="57.6" y="307.584" style="stroke: #000000; stroke-width: 0.8"/>
      </g>
     </g>
     <g id="text_8">
      <!-- 0.0 -->
      <g transform="translate(34.696875 311.383219) scale(0.1 -0.1)">
       <use xlink:href="#DejaVuSans-30"/>
       <use xlink:href="#DejaVuSans-2e" x="63.623047"/>
       <use xlink:href="#DejaVuSans-30" x="95.410156"/>
      </g>
     </g>
    </g>
    <g id="ytick_2">
     <g id="line2d_8">
      <g>
       <use xlink:href="#m8c55c110c8" x="57.6" y="256.896" style="stroke: #000000; stroke-width: 0.8"/>
      </g>
     </g>
     <g id="text_9">
      <!-- 0.2 -->
      <g transform="translate(34.696875 260.695219) scale(0.1 -0.1)">
       <use xlink:href="#DejaVuSans-30"/>
       <use xlink:href="#DejaVuSans-2e" x="63.623047"/>
       <use xlink:href="#DejaVuSans-32" x="95.410156"/>
      </g>
     </g>
    </g>
    <g id="ytick_3">
     <g id="line2d_9">
      <g>
       <use xlink:href="#m8c55c110c8" x="57.6" y="206.208" style="stroke: #000000; stroke-width: 0.8"/>
      </g>
     </g>
     <g id="text_10">
      <!-- 0.4 -->
      <g transform="translate(34.696875 210.007219) scale(0.1 -0.1)">
       <use xlink:href="#DejaVuSans-30"/>
       <use xlink:href="#DejaVuSans-2e" x="63.623047"/>
       <use xlink:href="#DejaVuSans-34" x="95.410156"/>
      </g>
     </g>
    </g>
    <g id="ytick_4">
     <g id="line2d_10">
      <g>
       <use xlink:href="#m8c55c110c8" x="57.6" y="155.52" style="stroke: #000000; stroke-width: 0.8"/>
      </g>
     </g>
     <g id="text_11">
      <!-- 0.6 -->
      <g transform="translate(34.696875 159.319219) scale(0.1 -0.1)">
       <use xlink:href="#DejaVuSans-30"/>
       <use xlink:href="#DejaVuSans-2e" x="63.623047"/>
       <use xlink:href="#DejaVuSans-36" x="95.410156"/>
      </g>
     </g>
    </g>
    <g id="ytick_5">
     <g id="line2d_11">
      <g>
       <use xlink:href="#m8c55c110c8" x="57.6" y="104.832" style="stroke: #000000; stroke-width: 0.8"/>
      </g>
     </g>
     <g id="text_12">
      <!-- 0.8 -->
      <g transform="translate(34.696875 108.631219) scale(0.1 -0.1)">
       <use xlink:href="#DejaVuSans-30"/>
       <use xlink:href="#DejaVuSans-2e" x="63.623047"/>
       <use xlink:href="#DejaVuSans-38" x="95.410156"/>
      </g>
     </g>
    </g>
    <g id="ytick_6">
     <g id="line2d_12">
      <g>
       <use xlink:href="#m8c55c110c8" x="57.6" y="54.144" style="stroke: #000000; stroke-width: 0.8"/>
      </g>
     </g>
     <g id="text_13">
      <!-- 1.0 -->
      <g transform="translate(34.696875 57.943219) scale(0.1 -0.1)">
       <use xlink:href="#DejaVuSans-31"/>
       <use xlink:href="#DejaVuSans-2e" x="63.623047"/>
       <use xlink:href="#DejaVuSans-30" x="95.410156"/>
      </g>
     </g>
    </g>
    <g id="text_14">
     <!-- True Positive Rate -->
     <g transform="translate(28.617187 219.057687) rotate(-90) scale(0.1 -0.1)">
      <defs>
       <path id="DejaVuSans-54" d="M -19 4666 
L 3928 4666 
L 3928 4134 
L 2272 4134 
L 2272 0 
L 1638 0 
L 1638 4134 
L -19 4134 
L -19 4666 
z
" transform="scale(0.015625)"/>
       <path id="DejaVuSans-72" d="M 2631 2963 
Q 2534 3019 2420 3045 
Q 2306 3072 2169 3072 
Q 1681 3072 1420 2755 
Q 1159 2438 1159 1844 
L 1159 0 
L 581 0 
L 581 3500 
L 1159 3500 
L 1159 2956 
Q 1341 3275 1631 3429 
Q 1922 3584 2338 3584 
Q 2397 3584 2469 3576 
Q 2541 3569 2628 3553 
L 2631 2963 
z
" transform="scale(0.015625)"/>
       <path id="DejaVuSans-75" d="M 544 1381 
L 544 3500 
L 1119 3500 
L 1119 1403 
Q 1119 906 1312 657 
Q 1506 409 1894 409 
Q 2359 409 2629 706 
Q 2900 1003 2900 1516 
L 2900 3500 
L 3475 3500 
L 3475 0 
L 2900 0 
L 2900 538 
Q 2691 219 2414 64 
Q 2138 -91 1772 -91 
Q 1169 -91 856 284 
Q 544 659 544 1381 
z
M 1991 3584 
L 1991 3584 
z
" transform="scale(0.015625)"/>
      </defs>
      <use xlink:href="#DejaVuSans-54"/>
      <use xlink:href="#DejaVuSans-72" x="46.333984"/>
      <use xlink:href="#DejaVuSans-75" x="87.447266"/>
      <use xlink:href="#DejaVuSans-65" x="150.826172"/>
      <use xlink:href="#DejaVuSans-20" x="212.349609"/>
      <use xlink:href="#DejaVuSans-50" x="244.136719"/>
      <use xlink:href="#DejaVuSans-6f" x="300.814453"/>
      <use xlink:href="#DejaVuSans-73" x="361.996094"/>
      <use xlink:href="#DejaVuSans-69" x="414.095703"/>
      <use xlink:href="#DejaVuSans-74" x="441.878906"/>
      <use xlink:href="#DejaVuSans-69" x="481.087891"/>
      <use xlink:href="#DejaVuSans-76" x="508.871094"/>
      <use xlink:href="#DejaVuSans-65" x="568.050781"/>
      <use xlink:href="#DejaVuSans-20" x="629.574219"/>
      <use xlink:href="#DejaVuSans-52" x="661.361328"/>
      <use xlink:href="#DejaVuSans-61" x="728.59375"/>
      <use xlink:href="#DejaVuSans-74" x="789.873047"/>
      <use xlink:href="#DejaVuSans-65" x="829.082031"/>
     </g>
    </g>
   </g>
   <g id="line2d_13">
    <path d="M 57.6 307.584 
L 59.031343 306.513679 
L 61.178357 305.04725 
L 61.894028 304.468679 
L 64.041042 303.09748 
L 66.188056 301.629519 
L 74.060441 296.471868 
L 75.491784 295.660772 
L 76.207455 295.116654 
L 77.638798 294.243924 
L 83.364168 290.680536 
L 87.658196 287.22845 
L 89.80521 285.732909 
L 94.81491 282.089414 
L 96.961924 280.804961 
L 97.677595 280.156974 
L 106.265651 275.315531 
L 109.844008 273.008387 
L 111.991022 271.398112 
L 113.422365 270.539538 
L 114.138036 269.808105 
L 117.716393 267.167096 
L 122.010421 263.846065 
L 124.873106 261.612484 
L 127.02012 260.215156 
L 129.167134 258.553546 
L 130.598477 257.526059 
L 133.461162 255.673544 
L 136.323848 253.99561 
L 137.75519 253.211193 
L 144.196232 249.135007 
L 144.911904 248.520595 
L 150.637275 244.94115 
L 151.352946 244.373094 
L 152.784289 243.538938 
L 157.078317 240.847009 
L 159.941002 239.152498 
L 162.088016 237.814488 
L 163.519359 236.792647 
L 164.950701 235.891856 
L 166.382044 234.761649 
L 168.529058 233.307585 
L 170.676072 231.657324 
L 174.254429 228.95449 
L 174.9701 228.242156 
L 180.695471 224.052854 
L 181.411142 223.237407 
L 182.842485 222.323372 
L 183.558156 221.651241 
L 185.70517 220.163687 
L 187.136513 219.084317 
L 188.567856 218.038348 
L 189.999198 217.040933 
L 190.71487 216.429626 
L 192.146212 215.390678 
L 193.577555 214.19888 
L 194.293226 213.514129 
L 196.44024 211.824945 
L 201.44994 207.609175 
L 204.312625 205.362534 
L 205.743968 204.138358 
L 207.175311 203.21014 
L 208.606653 202.191785 
L 210.037996 201.239139 
L 211.469339 200.136558 
L 212.900681 199.11728 
L 213.616353 198.407606 
L 215.047695 197.284891 
L 217.910381 195.05037 
L 225.782766 189.136286 
L 226.498437 188.607899 
L 227.214108 188.222864 
L 230.076794 186.265128 
L 240.811864 179.416672 
L 242.243206 178.427926 
L 243.674549 177.606658 
L 245.105892 176.548106 
L 252.978277 171.661205 
L 256.556633 169.533434 
L 257.987976 168.661218 
L 260.850661 166.852049 
L 262.282004 166.028922 
L 264.429018 164.802615 
L 268.007375 162.725368 
L 270.154389 161.352317 
L 271.585731 160.305899 
L 276.595431 157.157477 
L 278.026774 156.150426 
L 280.173788 154.892578 
L 282.320802 153.076187 
L 284.467816 151.541409 
L 286.61483 149.895296 
L 292.3402 145.791402 
L 295.202886 143.670043 
L 297.3499 142.012759 
L 305.222285 135.674463 
L 305.937956 134.978154 
L 308.08497 133.331185 
L 317.388697 125.846352 
L 318.104369 125.408386 
L 320.967054 123.145681 
L 326.692425 118.878468 
L 335.996152 112.971318 
L 338.858838 111.066141 
L 343.152866 108.475927 
L 343.868537 107.89214 
L 344.584208 107.493304 
L 350.309579 103.157704 
L 353.887936 100.67979 
L 354.603607 100.072144 
L 356.03495 99.149277 
L 357.466293 97.92769 
L 361.044649 95.429855 
L 361.760321 94.954289 
L 363.191663 93.734307 
L 364.623006 92.599439 
L 366.77002 90.861622 
L 371.064048 88.009276 
L 372.495391 87.188395 
L 376.073747 85.134459 
L 378.936433 83.081766 
L 379.652104 82.45061 
L 383.946132 79.648786 
L 386.093146 77.998938 
L 389.671503 75.491373 
L 392.534188 73.257351 
L 395.396874 70.869731 
L 396.828216 69.824963 
L 398.259559 68.567897 
L 398.97523 68.117598 
L 401.122244 66.300413 
L 404.700601 62.841341 
L 406.847615 61.094121 
L 408.278958 59.893662 
L 411.857315 56.901722 
L 412.572986 56.102789 
L 413.288657 55.559509 
L 414.72 54.144 
L 414.72 54.144 
" clip-path="url(#p813d667c7c)" style="fill: none; stroke: #1f77b4; stroke-width: 1.5; stroke-linecap: square"/>
   </g>
   <g id="line2d_14">
    <path d="M 57.6 307.584 
L 414.72 54.144 
" clip-path="url(#p813d667c7c)" style="fill: none; stroke-dasharray: 2,3.3; stroke-dashoffset: 0; stroke: #000000; stroke-width: 2"/>
   </g>
   <g id="patch_3">
    <path d="M 57.6 307.584 
L 57.6 41.472 
" style="fill: none; stroke: #000000; stroke-width: 0.8; stroke-linejoin: miter; stroke-linecap: square"/>
   </g>
   <g id="patch_4">
    <path d="M 414.72 307.584 
L 414.72 41.472 
" style="fill: none; stroke: #000000; stroke-width: 0.8; stroke-linejoin: miter; stroke-linecap: square"/>
   </g>
   <g id="patch_5">
    <path d="M 57.6 307.584 
L 414.72 307.584 
" style="fill: none; stroke: #000000; stroke-width: 0.8; stroke-linejoin: miter; stroke-linecap: square"/>
   </g>
   <g id="patch_6">
    <path d="M 57.6 41.472 
L 414.72 41.472 
" style="fill: none; stroke: #000000; stroke-width: 0.8; stroke-linejoin: miter; stroke-linecap: square"/>
   </g>
   <g id="text_15">
    <!-- ROC -->
    <g transform="translate(223.078125 35.472) scale(0.12 -0.12)">
     <defs>
      <path id="DejaVuSans-4f" d="M 2522 4238 
Q 1834 4238 1429 3725 
Q 1025 3213 1025 2328 
Q 1025 1447 1429 934 
Q 1834 422 2522 422 
Q 3209 422 3611 934 
Q 4013 1447 4013 2328 
Q 4013 3213 3611 3725 
Q 3209 4238 2522 4238 
z
M 2522 4750 
Q 3503 4750 4090 4092 
Q 4678 3434 4678 2328 
Q 4678 1225 4090 567 
Q 3503 -91 2522 -91 
Q 1538 -91 948 565 
Q 359 1222 359 2328 
Q 359 3434 948 4092 
Q 1538 4750 2522 4750 
z
" transform="scale(0.015625)"/>
      <path id="DejaVuSans-43" d="M 4122 4306 
L 4122 3641 
Q 3803 3938 3442 4084 
Q 3081 4231 2675 4231 
Q 1875 4231 1450 3742 
Q 1025 3253 1025 2328 
Q 1025 1406 1450 917 
Q 1875 428 2675 428 
Q 3081 428 3442 575 
Q 3803 722 4122 1019 
L 4122 359 
Q 3791 134 3420 21 
Q 3050 -91 2638 -91 
Q 1578 -91 968 557 
Q 359 1206 359 2328 
Q 359 3453 968 4101 
Q 1578 4750 2638 4750 
Q 3056 4750 3426 4639 
Q 3797 4528 4122 4306 
z
" transform="scale(0.015625)"/>
     </defs>
     <use xlink:href="#DejaVuSans-52"/>
     <use xlink:href="#DejaVuSans-4f" x="69.482422"/>
     <use xlink:href="#DejaVuSans-43" x="148.193359"/>
    </g>
   </g>
   <g id="legend_1">
    <g id="patch_7">
     <path d="M 247.746563 302.584 
L 407.72 302.584 
Q 409.72 302.584 409.72 300.584 
L 409.72 286.905875 
Q 409.72 284.905875 407.72 284.905875 
L 247.746563 284.905875 
Q 245.746563 284.905875 245.746563 286.905875 
L 245.746563 300.584 
Q 245.746563 302.584 247.746563 302.584 
z
" style="fill: #ffffff; opacity: 0.8; stroke: #cccccc; stroke-linejoin: miter"/>
    </g>
    <g id="line2d_15">
     <path d="M 249.746563 293.004312 
L 259.746562 293.004312 
L 269.746562 293.004312 
" style="fill: none; stroke: #1f77b4; stroke-width: 1.5; stroke-linecap: square"/>
    </g>
    <g id="text_16">
     <!-- auROC = 0.489 +/- 0.061 -->
     <g transform="translate(277.746562 296.504312) scale(0.1 -0.1)">
      <defs>
       <path id="DejaVuSans-3d" d="M 678 2906 
L 4684 2906 
L 4684 2381 
L 678 2381 
L 678 2906 
z
M 678 1631 
L 4684 1631 
L 4684 1100 
L 678 1100 
L 678 1631 
z
" transform="scale(0.015625)"/>
       <path id="DejaVuSans-39" d="M 703 97 
L 703 672 
Q 941 559 1184 500 
Q 1428 441 1663 441 
Q 2288 441 2617 861 
Q 2947 1281 2994 2138 
Q 2813 1869 2534 1725 
Q 2256 1581 1919 1581 
Q 1219 1581 811 2004 
Q 403 2428 403 3163 
Q 403 3881 828 4315 
Q 1253 4750 1959 4750 
Q 2769 4750 3195 4129 
Q 3622 3509 3622 2328 
Q 3622 1225 3098 567 
Q 2575 -91 1691 -91 
Q 1453 -91 1209 -44 
Q 966 3 703 97 
z
M 1959 2075 
Q 2384 2075 2632 2365 
Q 2881 2656 2881 3163 
Q 2881 3666 2632 3958 
Q 2384 4250 1959 4250 
Q 1534 4250 1286 3958 
Q 1038 3666 1038 3163 
Q 1038 2656 1286 2365 
Q 1534 2075 1959 2075 
z
" transform="scale(0.015625)"/>
       <path id="DejaVuSans-2b" d="M 2944 4013 
L 2944 2272 
L 4684 2272 
L 4684 1741 
L 2944 1741 
L 2944 0 
L 2419 0 
L 2419 1741 
L 678 1741 
L 678 2272 
L 2419 2272 
L 2419 4013 
L 2944 4013 
z
" transform="scale(0.015625)"/>
       <path id="DejaVuSans-2f" d="M 1625 4666 
L 2156 4666 
L 531 -594 
L 0 -594 
L 1625 4666 
z
" transform="scale(0.015625)"/>
       <path id="DejaVuSans-2d" d="M 313 2009 
L 1997 2009 
L 1997 1497 
L 313 1497 
L 313 2009 
z
" transform="scale(0.015625)"/>
      </defs>
      <use xlink:href="#DejaVuSans-61"/>
      <use xlink:href="#DejaVuSans-75" x="61.279297"/>
      <use xlink:href="#DejaVuSans-52" x="124.658203"/>
      <use xlink:href="#DejaVuSans-4f" x="194.140625"/>
      <use xlink:href="#DejaVuSans-43" x="272.851562"/>
      <use xlink:href="#DejaVuSans-20" x="342.675781"/>
      <use xlink:href="#DejaVuSans-3d" x="374.462891"/>
      <use xlink:href="#DejaVuSans-20" x="458.251953"/>
      <use xlink:href="#DejaVuSans-30" x="490.039062"/>
      <use xlink:href="#DejaVuSans-2e" x="553.662109"/>
      <use xlink:href="#DejaVuSans-34" x="585.449219"/>
      <use xlink:href="#DejaVuSans-38" x="649.072266"/>
      <use xlink:href="#DejaVuSans-39" x="712.695312"/>
      <use xlink:href="#DejaVuSans-20" x="776.318359"/>
      <use xlink:href="#DejaVuSans-2b" x="808.105469"/>
      <use xlink:href="#DejaVuSans-2f" x="891.894531"/>
      <use xlink:href="#DejaVuSans-2d" x="925.585938"/>
      <use xlink:href="#DejaVuSans-20" x="961.669922"/>
      <use xlink:href="#DejaVuSans-30" x="993.457031"/>
      <use xlink:href="#DejaVuSans-2e" x="1057.080078"/>
      <use xlink:href="#DejaVuSans-30" x="1088.867188"/>
      <use xlink:href="#DejaVuSans-36" x="1152.490234"/>
      <use xlink:href="#DejaVuSans-31" x="1216.113281"/>
     </g>
    </g>
   </g>
  </g>
 </g>
 <defs>
  <clipPath id="p813d667c7c">
   <rect x="57.6" y="41.472" width="357.12" height="266.112"/>
  </clipPath>
 </defs>
</svg>
