<?xml version="1.0" encoding="utf-8" standalone="no"?>
<!DOCTYPE svg PUBLIC "-//W3C//DTD SVG 1.1//EN"
  "http://www.w3.org/Graphics/SVG/1.1/DTD/svg11.dtd">
<svg xmlns:xlink="http://www.w3.org/1999/xlink" width="460.8pt" height="345.6pt" viewBox="0 0 460.8 345.6" xmlns="http://www.w3.org/2000/svg" version="1.1">
 <metadata>
  <rdf:RDF xmlns:dc="http://purl.org/dc/elements/1.1/" xmlns:cc="http://creativecommons.org/ns#" xmlns:rdf="http://www.w3.org/1999/02/22-rdf-syntax-ns#">
   <cc:Work>
    <dc:type rdf:resource="http://purl.org/dc/dcmitype/StillImage"/>
    <dc:date>2023-01-19T17:36:01.847011</dc:date>
    <dc:format>image/svg+xml</dc:format>
    <dc:creator>
     <cc:Agent>
      <dc:title>Matplotlib v3.6.2, https://matplotlib.org/</dc:title>
     </cc:Agent>
    </dc:creator>
   </cc:Work>
  </rdf:RDF>
 </metadata>
 <defs>
  <style type="text/css">*{stroke-linejoin: round; stroke-linecap: butt}</style>
 </defs>
 <g id="figure_1">
  <g id="patch_1">
   <path d="M 0 345.6 
L 460.8 345.6 
L 460.8 0 
L 0 0 
z
" style="fill: #ffffff"/>
  </g>
  <g id="axes_1">
   <g id="patch_2">
    <path d="M 57.6 307.584 
L 414.72 307.584 
L 414.72 41.472 
L 57.6 41.472 
z
" style="fill: #ffffff"/>
   </g>
   <g id="PolyCollection_1">
    <defs>
     <path id="m5f102ff384" d="M 57.6 -38.016 
L 57.6 -38.016 
L 58.315671 -65.383433 
L 59.031343 -90.525939 
L 59.747014 -103.468853 
L 60.462685 -103.468853 
L 61.178357 -111.899116 
L 61.894028 -118.733472 
L 62.609699 -118.539097 
L 63.325371 -125.030444 
L 64.041042 -132.362949 
L 64.756713 -136.458857 
L 65.472385 -141.642926 
L 66.188056 -149.293488 
L 66.903727 -154.513598 
L 67.619399 -156.521039 
L 68.33507 -166.817699 
L 69.050741 -173.23634 
L 69.766413 -177.18281 
L 70.482084 -184.095537 
L 71.197756 -188.541971 
L 71.913427 -191.343935 
L 72.629098 -194.796252 
L 73.34477 -200.218278 
L 74.060441 -201.611305 
L 74.776112 -203.632967 
L 75.491784 -204.34813 
L 76.207455 -207.131092 
L 76.923126 -210.222215 
L 77.638798 -212.187492 
L 78.354469 -213.803153 
L 79.07014 -217.905685 
L 79.785812 -220.046707 
L 80.501483 -221.748851 
L 81.217154 -223.653168 
L 81.932826 -226.572337 
L 82.648497 -229.500658 
L 83.364168 -230.068062 
L 84.07984 -232.348741 
L 84.795511 -233.738523 
L 85.511182 -234.040633 
L 86.226854 -235.057247 
L 86.942525 -235.617367 
L 87.658196 -236.354772 
L 88.373868 -238.003612 
L 89.089539 -239.144315 
L 89.80521 -240.492557 
L 90.520882 -240.765027 
L 91.236553 -241.629755 
L 91.952224 -242.741502 
L 92.667896 -242.852052 
L 93.383567 -244.033856 
L 94.099238 -245.048254 
L 94.81491 -245.665453 
L 95.530581 -246.184087 
L 96.246253 -246.962426 
L 96.961924 -247.132556 
L 97.677595 -247.199237 
L 98.393267 -247.484803 
L 99.108938 -247.551774 
L 99.824609 -247.65785 
L 100.540281 -248.485708 
L 101.255952 -248.739545 
L 101.971623 -249.626571 
L 102.687295 -249.65741 
L 103.402966 -249.80507 
L 104.118637 -249.635673 
L 104.834309 -249.961227 
L 105.54998 -250.124839 
L 106.265651 -250.837164 
L 106.981323 -251.205171 
L 107.696994 -251.480977 
L 108.412665 -251.860167 
L 109.128337 -252.132238 
L 109.844008 -252.224769 
L 110.559679 -252.224769 
L 111.275351 -252.830997 
L 111.991022 -252.737941 
L 112.706693 -252.63093 
L 113.422365 -252.90357 
L 114.138036 -253.041697 
L 114.853707 -253.156309 
L 115.569379 -253.18268 
L 116.28505 -253.213229 
L 117.000721 -253.597702 
L 117.716393 -254.007711 
L 118.432064 -254.200123 
L 119.147735 -254.200123 
L 119.863407 -254.416247 
L 120.579078 -255.045377 
L 121.294749 -255.73163 
L 122.010421 -255.941253 
L 122.726092 -255.941253 
L 123.441764 -256.43812 
L 124.157435 -256.455496 
L 124.873106 -256.404284 
L 125.588778 -256.337008 
L 126.304449 -256.337008 
L 127.02012 -256.630148 
L 127.735792 -257.141116 
L 128.451463 -257.623843 
L 129.167134 -257.597259 
L 129.882806 -257.771575 
L 130.598477 -257.872101 
L 131.314148 -258.181275 
L 132.02982 -258.219292 
L 132.745491 -258.647508 
L 133.461162 -258.647508 
L 134.176834 -259.190764 
L 134.892505 -259.4652 
L 135.608176 -259.684705 
L 136.323848 -260.135715 
L 137.039519 -260.349769 
L 137.75519 -260.762623 
L 138.470862 -261.174807 
L 139.186533 -261.525754 
L 139.902204 -262.019752 
L 140.617876 -262.019752 
L 141.333547 -262.394155 
L 142.049218 -262.613918 
L 142.76489 -262.581257 
L 143.480561 -262.726247 
L 144.196232 -262.726247 
L 144.911904 -262.850394 
L 145.627575 -262.850394 
L 146.343246 -263.16845 
L 147.058918 -263.96841 
L 147.774589 -264.412409 
L 148.490261 -264.38751 
L 149.205932 -265.179349 
L 149.921603 -265.109194 
L 150.637275 -265.32151 
L 151.352946 -265.328032 
L 152.068617 -265.728971 
L 152.784289 -266.223967 
L 153.49996 -267.202979 
L 154.215631 -267.426566 
L 154.931303 -267.584355 
L 155.646974 -267.584355 
L 156.362645 -267.576496 
L 157.078317 -268.173116 
L 157.793988 -268.173116 
L 158.509659 -268.196186 
L 159.225331 -268.199654 
L 159.941002 -268.461375 
L 160.656673 -268.461375 
L 161.372345 -268.922488 
L 162.088016 -268.922488 
L 162.803687 -268.922488 
L 163.519359 -269.315805 
L 164.23503 -269.753817 
L 164.950701 -270.209656 
L 165.666373 -270.535185 
L 166.382044 -271.534675 
L 167.097715 -271.723626 
L 167.813387 -271.872222 
L 168.529058 -271.92904 
L 169.244729 -272.143041 
L 169.960401 -272.170432 
L 170.676072 -272.192736 
L 171.391743 -272.457932 
L 172.107415 -272.559673 
L 172.823086 -272.705961 
L 173.538758 -273.865955 
L 174.254429 -273.909481 
L 174.9701 -274.639971 
L 175.685772 -274.708459 
L 176.401443 -274.773842 
L 177.117114 -274.858412 
L 177.832786 -275.265633 
L 178.548457 -275.714743 
L 179.264128 -275.771597 
L 179.9798 -276.01165 
L 180.695471 -276.01165 
L 181.411142 -276.493945 
L 182.126814 -276.564115 
L 182.842485 -276.799288 
L 183.558156 -276.799288 
L 184.273828 -277.342247 
L 184.989499 -277.400437 
L 185.70517 -277.933082 
L 186.420842 -278.351477 
L 187.136513 -278.351477 
L 187.852184 -278.351477 
L 188.567856 -278.63764 
L 189.283527 -278.63764 
L 189.999198 -278.63764 
L 190.71487 -278.766928 
L 191.430541 -278.883447 
L 192.146212 -278.964516 
L 192.861884 -279.027272 
L 193.577555 -279.877614 
L 194.293226 -279.980733 
L 195.008898 -280.091881 
L 195.724569 -280.307489 
L 196.44024 -280.307489 
L 197.155912 -280.307489 
L 197.871583 -280.61148 
L 198.587255 -280.763037 
L 199.302926 -280.886476 
L 200.018597 -280.886476 
L 200.734269 -280.886476 
L 201.44994 -281.264779 
L 202.165611 -281.264779 
L 202.881283 -281.881133 
L 203.596954 -282.200834 
L 204.312625 -282.31174 
L 205.028297 -282.31174 
L 205.743968 -282.31174 
L 206.459639 -282.31174 
L 207.175311 -282.31174 
L 207.890982 -283.14115 
L 208.606653 -283.289746 
L 209.322325 -283.289746 
L 210.037996 -283.289746 
L 210.753667 -283.844679 
L 211.469339 -283.844679 
L 212.18501 -283.844679 
L 212.900681 -283.844679 
L 213.616353 -283.844679 
L 214.332024 -283.844679 
L 215.047695 -283.844679 
L 215.763367 -283.844679 
L 216.479038 -283.998702 
L 217.194709 -284.28583 
L 217.910381 -284.28583 
L 218.626052 -284.28583 
L 219.341723 -284.28583 
L 220.057395 -284.28583 
L 220.773066 -284.28583 
L 221.488737 -284.28583 
L 222.204409 -284.75677 
L 222.92008 -284.97758 
L 223.635752 -284.97758 
L 224.351423 -284.97758 
L 225.067094 -285.333291 
L 225.782766 -285.333291 
L 226.498437 -285.333291 
L 227.214108 -285.333291 
L 227.92978 -285.333291 
L 228.645451 -285.333291 
L 229.361122 -285.333291 
L 230.076794 -286.428891 
L 230.792465 -286.428891 
L 231.508136 -286.428891 
L 232.223808 -286.428891 
L 232.939479 -286.428891 
L 233.65515 -286.428891 
L 234.370822 -286.737294 
L 235.086493 -286.737294 
L 235.802164 -286.737294 
L 236.517836 -286.737294 
L 237.233507 -287.029934 
L 237.949178 -287.029934 
L 238.66485 -287.259106 
L 239.380521 -288.242415 
L 240.096192 -288.242415 
L 240.811864 -288.242415 
L 241.527535 -288.242415 
L 242.243206 -288.242415 
L 242.958878 -288.242415 
L 243.674549 -288.242415 
L 244.39022 -288.242415 
L 245.105892 -288.242415 
L 245.821563 -288.242415 
L 246.537234 -288.242415 
L 247.252906 -288.242415 
L 247.968577 -288.242415 
L 248.684248 -288.242415 
L 249.39992 -288.242415 
L 250.115591 -288.242415 
L 250.831263 -288.242415 
L 251.546934 -288.56997 
L 252.262605 -288.56997 
L 252.978277 -288.56997 
L 253.693948 -288.56997 
L 254.409619 -288.56997 
L 255.125291 -288.56997 
L 255.840962 -289.109183 
L 256.556633 -289.109183 
L 257.272305 -289.109183 
L 257.987976 -289.109183 
L 258.703647 -289.109183 
L 259.419319 -289.109183 
L 260.13499 -289.109183 
L 260.850661 -289.109183 
L 261.566333 -289.109183 
L 262.282004 -289.747344 
L 262.997675 -289.747344 
L 263.713347 -289.747344 
L 264.429018 -289.747344 
L 265.144689 -289.747344 
L 265.860361 -289.747344 
L 266.576032 -289.747344 
L 267.291703 -289.747344 
L 268.007375 -289.747344 
L 268.723046 -291.456 
L 269.438717 -291.456 
L 270.154389 -291.456 
L 270.87006 -291.456 
L 271.585731 -291.456 
L 272.301403 -291.456 
L 273.017074 -291.456 
L 273.732745 -291.456 
L 274.448417 -291.456 
L 275.164088 -291.456 
L 275.87976 -291.456 
L 276.595431 -291.456 
L 277.311102 -291.456 
L 278.026774 -291.456 
L 278.742445 -291.456 
L 279.458116 -291.456 
L 280.173788 -291.456 
L 280.889459 -291.456 
L 281.60513 -291.456 
L 282.320802 -291.456 
L 283.036473 -291.456 
L 283.752144 -291.456 
L 284.467816 -291.456 
L 285.183487 -291.456 
L 285.899158 -291.456 
L 286.61483 -291.456 
L 287.330501 -291.456 
L 288.046172 -291.456 
L 288.761844 -291.456 
L 289.477515 -291.456 
L 290.193186 -291.456 
L 290.908858 -291.456 
L 291.624529 -291.456 
L 292.3402 -291.456 
L 293.055872 -291.456 
L 293.771543 -291.456 
L 294.487214 -291.456 
L 295.202886 -291.456 
L 295.918557 -291.456 
L 296.634228 -291.456 
L 297.3499 -291.456 
L 298.065571 -291.456 
L 298.781242 -291.456 
L 299.496914 -291.456 
L 300.212585 -291.456 
L 300.928257 -291.456 
L 301.643928 -291.456 
L 302.359599 -291.456 
L 303.075271 -291.456 
L 303.790942 -291.456 
L 304.506613 -291.456 
L 305.222285 -291.456 
L 305.937956 -291.456 
L 306.653627 -291.456 
L 307.369299 -291.456 
L 308.08497 -291.456 
L 308.800641 -291.456 
L 309.516313 -291.456 
L 310.231984 -291.456 
L 310.947655 -291.456 
L 311.663327 -291.456 
L 312.378998 -291.456 
L 313.094669 -291.456 
L 313.810341 -291.456 
L 314.526012 -291.456 
L 315.241683 -291.456 
L 315.957355 -291.456 
L 316.673026 -291.456 
L 317.388697 -291.456 
L 318.104369 -291.456 
L 318.82004 -291.456 
L 319.535711 -291.456 
L 320.251383 -291.456 
L 320.967054 -291.456 
L 321.682725 -291.456 
L 322.398397 -291.456 
L 323.114068 -291.456 
L 323.829739 -291.456 
L 324.545411 -291.456 
L 325.261082 -291.456 
L 325.976754 -291.456 
L 326.692425 -291.456 
L 327.408096 -291.456 
L 328.123768 -291.456 
L 328.839439 -291.456 
L 329.55511 -291.456 
L 330.270782 -291.456 
L 330.986453 -291.456 
L 331.702124 -291.456 
L 332.417796 -291.456 
L 333.133467 -291.456 
L 333.849138 -291.456 
L 334.56481 -291.456 
L 335.280481 -291.456 
L 335.996152 -291.456 
L 336.711824 -291.456 
L 337.427495 -291.456 
L 338.143166 -291.456 
L 338.858838 -291.456 
L 339.574509 -291.456 
L 340.29018 -291.456 
L 341.005852 -291.456 
L 341.721523 -291.456 
L 342.437194 -291.456 
L 343.152866 -291.456 
L 343.868537 -291.456 
L 344.584208 -291.456 
L 345.29988 -291.456 
L 346.015551 -291.456 
L 346.731222 -291.456 
L 347.446894 -291.456 
L 348.162565 -291.456 
L 348.878236 -291.456 
L 349.593908 -291.456 
L 350.309579 -291.456 
L 351.025251 -291.456 
L 351.740922 -291.456 
L 352.456593 -291.456 
L 353.172265 -291.456 
L 353.887936 -291.456 
L 354.603607 -291.456 
L 355.319279 -291.456 
L 356.03495 -291.456 
L 356.750621 -291.456 
L 357.466293 -291.456 
L 358.181964 -291.456 
L 358.897635 -291.456 
L 359.613307 -291.456 
L 360.328978 -291.456 
L 361.044649 -291.456 
L 361.760321 -291.456 
L 362.475992 -291.456 
L 363.191663 -291.456 
L 363.907335 -291.456 
L 364.623006 -291.456 
L 365.338677 -291.456 
L 366.054349 -291.456 
L 366.77002 -291.456 
L 367.485691 -291.456 
L 368.201363 -291.456 
L 368.917034 -291.456 
L 369.632705 -291.456 
L 370.348377 -291.456 
L 371.064048 -291.456 
L 371.779719 -291.456 
L 372.495391 -291.456 
L 373.211062 -291.456 
L 373.926733 -291.456 
L 374.642405 -291.456 
L 375.358076 -291.456 
L 376.073747 -291.456 
L 376.789419 -291.456 
L 377.50509 -291.456 
L 378.220762 -291.456 
L 378.936433 -291.456 
L 379.652104 -291.456 
L 380.367776 -291.456 
L 381.083447 -291.456 
L 381.799118 -291.456 
L 382.51479 -291.456 
L 383.230461 -291.456 
L 383.946132 -291.456 
L 384.661804 -291.456 
L 385.377475 -291.456 
L 386.093146 -291.456 
L 386.808818 -291.456 
L 387.524489 -291.456 
L 388.24016 -291.456 
L 388.955832 -291.456 
L 389.671503 -291.456 
L 390.387174 -291.456 
L 391.102846 -291.456 
L 391.818517 -291.456 
L 392.534188 -291.456 
L 393.24986 -291.456 
L 393.965531 -291.456 
L 394.681202 -291.456 
L 395.396874 -291.456 
L 396.112545 -291.456 
L 396.828216 -291.456 
L 397.543888 -291.456 
L 398.259559 -291.456 
L 398.97523 -291.456 
L 399.690902 -291.456 
L 400.406573 -291.456 
L 401.122244 -291.456 
L 401.837916 -291.456 
L 402.553587 -291.456 
L 403.269259 -291.456 
L 403.98493 -291.456 
L 404.700601 -291.456 
L 405.416273 -291.456 
L 406.131944 -291.456 
L 406.847615 -291.456 
L 407.563287 -291.456 
L 408.278958 -291.456 
L 408.994629 -291.456 
L 409.710301 -291.456 
L 410.425972 -291.456 
L 411.141643 -291.456 
L 411.857315 -291.456 
L 412.572986 -291.456 
L 413.288657 -291.456 
L 414.004329 -291.456 
L 414.72 -291.456 
L 414.72 -291.456 
L 414.72 -291.456 
L 414.004329 -291.456 
L 413.288657 -291.456 
L 412.572986 -291.456 
L 411.857315 -291.456 
L 411.141643 -291.456 
L 410.425972 -291.456 
L 409.710301 -291.456 
L 408.994629 -291.456 
L 408.278958 -291.456 
L 407.563287 -291.456 
L 406.847615 -291.456 
L 406.131944 -291.456 
L 405.416273 -291.456 
L 404.700601 -291.456 
L 403.98493 -291.456 
L 403.269259 -291.456 
L 402.553587 -291.456 
L 401.837916 -291.456 
L 401.122244 -291.456 
L 400.406573 -291.456 
L 399.690902 -291.456 
L 398.97523 -291.456 
L 398.259559 -291.456 
L 397.543888 -291.456 
L 396.828216 -291.456 
L 396.112545 -291.456 
L 395.396874 -291.456 
L 394.681202 -291.456 
L 393.965531 -291.456 
L 393.24986 -291.456 
L 392.534188 -291.456 
L 391.818517 -291.456 
L 391.102846 -291.456 
L 390.387174 -291.456 
L 389.671503 -291.456 
L 388.955832 -291.456 
L 388.24016 -291.456 
L 387.524489 -291.456 
L 386.808818 -291.456 
L 386.093146 -291.456 
L 385.377475 -291.456 
L 384.661804 -291.456 
L 383.946132 -291.456 
L 383.230461 -291.456 
L 382.51479 -291.456 
L 381.799118 -291.456 
L 381.083447 -291.456 
L 380.367776 -291.456 
L 379.652104 -291.456 
L 378.936433 -291.456 
L 378.220762 -291.456 
L 377.50509 -291.456 
L 376.789419 -291.456 
L 376.073747 -291.456 
L 375.358076 -291.456 
L 374.642405 -291.456 
L 373.926733 -291.456 
L 373.211062 -291.456 
L 372.495391 -291.456 
L 371.779719 -291.456 
L 371.064048 -291.456 
L 370.348377 -291.456 
L 369.632705 -291.456 
L 368.917034 -291.456 
L 368.201363 -291.456 
L 367.485691 -291.456 
L 366.77002 -291.456 
L 366.054349 -291.456 
L 365.338677 -291.456 
L 364.623006 -291.456 
L 363.907335 -291.456 
L 363.191663 -291.456 
L 362.475992 -291.456 
L 361.760321 -291.456 
L 361.044649 -291.456 
L 360.328978 -291.456 
L 359.613307 -291.456 
L 358.897635 -291.456 
L 358.181964 -291.456 
L 357.466293 -291.456 
L 356.750621 -291.456 
L 356.03495 -291.456 
L 355.319279 -291.456 
L 354.603607 -291.456 
L 353.887936 -291.456 
L 353.172265 -291.456 
L 352.456593 -291.456 
L 351.740922 -291.456 
L 351.025251 -291.456 
L 350.309579 -291.456 
L 349.593908 -291.456 
L 348.878236 -291.456 
L 348.162565 -291.456 
L 347.446894 -291.456 
L 346.731222 -291.456 
L 346.015551 -291.456 
L 345.29988 -291.456 
L 344.584208 -291.456 
L 343.868537 -291.456 
L 343.152866 -291.456 
L 342.437194 -291.456 
L 341.721523 -291.456 
L 341.005852 -291.456 
L 340.29018 -291.456 
L 339.574509 -291.456 
L 338.858838 -291.456 
L 338.143166 -291.456 
L 337.427495 -291.456 
L 336.711824 -291.456 
L 335.996152 -291.456 
L 335.280481 -291.456 
L 334.56481 -291.456 
L 333.849138 -291.456 
L 333.133467 -291.456 
L 332.417796 -291.456 
L 331.702124 -291.456 
L 330.986453 -291.456 
L 330.270782 -291.456 
L 329.55511 -291.456 
L 328.839439 -291.456 
L 328.123768 -291.456 
L 327.408096 -291.456 
L 326.692425 -291.456 
L 325.976754 -291.456 
L 325.261082 -291.456 
L 324.545411 -291.456 
L 323.829739 -291.456 
L 323.114068 -291.456 
L 322.398397 -291.456 
L 321.682725 -291.456 
L 320.967054 -291.456 
L 320.251383 -291.456 
L 319.535711 -291.456 
L 318.82004 -291.456 
L 318.104369 -291.456 
L 317.388697 -291.456 
L 316.673026 -291.456 
L 315.957355 -291.456 
L 315.241683 -291.456 
L 314.526012 -291.456 
L 313.810341 -291.456 
L 313.094669 -291.456 
L 312.378998 -291.456 
L 311.663327 -291.456 
L 310.947655 -291.456 
L 310.231984 -291.456 
L 309.516313 -291.456 
L 308.800641 -291.456 
L 308.08497 -291.456 
L 307.369299 -291.456 
L 306.653627 -291.456 
L 305.937956 -291.456 
L 305.222285 -291.456 
L 304.506613 -291.456 
L 303.790942 -291.456 
L 303.075271 -291.456 
L 302.359599 -291.456 
L 301.643928 -291.456 
L 300.928257 -291.456 
L 300.212585 -291.456 
L 299.496914 -291.456 
L 298.781242 -291.456 
L 298.065571 -291.456 
L 297.3499 -291.456 
L 296.634228 -291.456 
L 295.918557 -291.456 
L 295.202886 -291.456 
L 294.487214 -291.456 
L 293.771543 -291.456 
L 293.055872 -291.456 
L 292.3402 -291.456 
L 291.624529 -291.456 
L 290.908858 -291.456 
L 290.193186 -291.456 
L 289.477515 -291.456 
L 288.761844 -291.456 
L 288.046172 -291.456 
L 287.330501 -291.456 
L 286.61483 -291.456 
L 285.899158 -291.456 
L 285.183487 -291.456 
L 284.467816 -291.456 
L 283.752144 -291.456 
L 283.036473 -291.456 
L 282.320802 -291.456 
L 281.60513 -291.456 
L 280.889459 -291.456 
L 280.173788 -291.456 
L 279.458116 -291.456 
L 278.742445 -291.456 
L 278.026774 -291.456 
L 277.311102 -291.456 
L 276.595431 -291.456 
L 275.87976 -291.456 
L 275.164088 -291.456 
L 274.448417 -291.456 
L 273.732745 -291.456 
L 273.017074 -291.456 
L 272.301403 -291.456 
L 271.585731 -291.456 
L 270.87006 -291.456 
L 270.154389 -291.456 
L 269.438717 -291.456 
L 268.723046 -291.456 
L 268.007375 -293.001146 
L 267.291703 -293.001146 
L 266.576032 -293.001146 
L 265.860361 -293.001146 
L 265.144689 -293.001146 
L 264.429018 -293.001146 
L 263.713347 -293.001146 
L 262.997675 -293.001146 
L 262.282004 -293.001146 
L 261.566333 -293.490225 
L 260.850661 -293.490225 
L 260.13499 -293.490225 
L 259.419319 -293.490225 
L 258.703647 -293.490225 
L 257.987976 -293.490225 
L 257.272305 -293.490225 
L 256.556633 -293.490225 
L 255.840962 -293.490225 
L 255.125291 -293.875838 
L 254.409619 -293.875838 
L 253.693948 -293.875838 
L 252.978277 -293.875838 
L 252.262605 -293.875838 
L 251.546934 -293.875838 
L 250.831263 -294.076673 
L 250.115591 -294.076673 
L 249.39992 -294.076673 
L 248.684248 -294.076673 
L 247.968577 -294.076673 
L 247.252906 -294.076673 
L 246.537234 -294.076673 
L 245.821563 -294.076673 
L 245.105892 -294.076673 
L 244.39022 -294.076673 
L 243.674549 -294.076673 
L 242.958878 -294.076673 
L 242.243206 -294.076673 
L 241.527535 -294.076673 
L 240.811864 -294.076673 
L 240.096192 -294.076673 
L 239.380521 -294.076673 
L 238.66485 -294.647109 
L 237.949178 -294.752651 
L 237.233507 -294.752651 
L 236.517836 -294.900468 
L 235.802164 -294.900468 
L 235.086493 -294.900468 
L 234.370822 -294.900468 
L 233.65515 -295.055272 
L 232.939479 -295.055272 
L 232.223808 -295.055272 
L 231.508136 -295.055272 
L 230.792465 -295.055272 
L 230.076794 -295.055272 
L 229.361122 -295.82076 
L 228.645451 -295.82076 
L 227.92978 -295.82076 
L 227.214108 -295.82076 
L 226.498437 -295.82076 
L 225.782766 -295.82076 
L 225.067094 -295.82076 
L 224.351423 -296.06628 
L 223.635752 -296.06628 
L 222.92008 -296.06628 
L 222.204409 -296.138007 
L 221.488737 -296.291838 
L 220.773066 -296.291838 
L 220.057395 -296.291838 
L 219.341723 -296.291838 
L 218.626052 -296.291838 
L 217.910381 -296.291838 
L 217.194709 -296.291838 
L 216.479038 -296.397937 
L 215.763367 -296.418571 
L 215.047695 -296.418571 
L 214.332024 -296.418571 
L 213.616353 -296.418571 
L 212.900681 -296.418571 
L 212.18501 -296.418571 
L 211.469339 -296.418571 
L 210.753667 -296.418571 
L 210.037996 -296.819904 
L 209.322325 -296.819904 
L 208.606653 -296.819904 
L 207.890982 -296.831506 
L 207.175311 -297.507316 
L 206.459639 -297.507316 
L 205.743968 -297.507316 
L 205.028297 -297.507316 
L 204.312625 -297.507316 
L 203.596954 -297.494592 
L 202.881283 -297.687573 
L 202.165611 -298.122899 
L 201.44994 -298.122899 
L 200.734269 -298.356378 
L 200.018597 -298.356378 
L 199.302926 -298.356378 
L 198.587255 -298.339018 
L 197.871583 -298.332175 
L 197.155912 -298.502776 
L 196.44024 -298.502776 
L 195.724569 -298.502776 
L 195.008898 -298.523431 
L 194.293226 -298.493778 
L 193.577555 -298.459903 
L 192.861884 -299.129216 
L 192.146212 -299.08178 
L 191.430541 -299.03613 
L 190.71487 -298.999049 
L 189.999198 -298.964827 
L 189.283527 -298.964827 
L 188.567856 -298.964827 
L 187.852184 -299.11019 
L 187.136513 -299.11019 
L 186.420842 -299.11019 
L 185.70517 -299.395196 
L 184.989499 -299.606012 
L 184.273828 -299.546323 
L 183.558156 -299.609759 
L 182.842485 -299.609759 
L 182.126814 -299.707938 
L 181.411142 -299.641113 
L 180.695471 -299.670252 
L 179.9798 -299.670252 
L 179.264128 -299.656866 
L 178.548457 -299.58033 
L 177.832786 -299.782254 
L 177.117114 -299.696666 
L 176.401443 -299.612275 
L 175.685772 -299.524059 
L 174.9701 -299.434147 
L 174.254429 -299.585187 
L 173.538758 -299.487913 
L 172.823086 -300.326078 
L 172.107415 -300.345646 
L 171.391743 -300.043885 
L 170.676072 -300.140122 
L 169.960401 -300.038797 
L 169.244729 -299.932798 
L 168.529058 -299.877031 
L 167.813387 -299.651377 
L 167.097715 -299.666583 
L 166.382044 -299.706452 
L 165.666373 -300.256461 
L 164.950701 -300.296368 
L 164.23503 -300.265421 
L 163.519359 -300.127049 
L 162.803687 -300.199244 
L 162.088016 -300.199244 
L 161.372345 -300.199244 
L 160.656673 -300.342314 
L 159.941002 -300.342314 
L 159.225331 -300.322435 
L 158.509659 -300.188908 
L 157.793988 -300.037192 
L 157.078317 -300.037192 
L 156.362645 -299.901564 
L 155.646974 -299.611233 
L 154.931303 -299.611233 
L 154.215631 -299.610621 
L 153.49996 -299.697214 
L 152.784289 -300.031752 
L 152.068617 -299.952053 
L 151.352946 -300.199393 
L 150.637275 -300.018181 
L 149.921603 -300.089697 
L 149.205932 -299.449873 
L 148.490261 -299.9116 
L 147.774589 -299.759982 
L 147.058918 -299.774912 
L 146.343246 -299.707492 
L 145.627575 -299.711095 
L 144.911904 -299.711095 
L 144.196232 -299.714556 
L 143.480561 -299.714556 
L 142.76489 -299.582317 
L 142.049218 -299.396055 
L 141.333547 -299.354333 
L 140.617876 -299.477745 
L 139.902204 -299.477745 
L 139.186533 -299.347433 
L 138.470862 -299.121597 
L 137.75519 -299.28279 
L 137.039519 -299.562254 
L 136.323848 -299.483719 
L 135.608176 -299.667209 
L 134.892505 -299.536726 
L 134.176834 -299.40932 
L 133.461162 -299.635466 
L 132.745491 -299.635466 
L 132.02982 -299.610684 
L 131.314148 -299.511706 
L 130.598477 -299.538851 
L 129.882806 -299.512656 
L 129.167134 -299.400896 
L 128.451463 -299.083717 
L 127.735792 -299.114421 
L 127.02012 -299.187977 
L 126.304449 -298.628688 
L 125.588778 -298.628688 
L 124.873106 -298.274272 
L 124.157435 -297.909278 
L 123.441764 -297.639664 
L 122.726092 -297.704212 
L 122.010421 -297.704212 
L 121.294749 -297.636041 
L 120.579078 -298.141266 
L 119.863407 -297.733809 
L 119.147735 -297.494355 
L 118.432064 -297.494355 
L 117.716393 -297.345434 
L 117.000721 -297.265017 
L 116.28505 -297.239201 
L 115.569379 -296.95295 
L 114.853707 -296.810361 
L 114.138036 -296.771373 
L 113.422365 -296.77953 
L 112.706693 -296.92545 
L 111.991022 -296.649479 
L 111.275351 -296.128136 
L 110.559679 -296.142036 
L 109.844008 -296.142036 
L 109.128337 -296.085485 
L 108.412665 -295.875917 
L 107.696994 -295.801715 
L 106.981323 -295.807137 
L 106.265651 -295.593961 
L 105.54998 -295.241299 
L 104.834309 -294.975841 
L 104.118637 -294.503793 
L 103.402966 -293.903732 
L 102.687295 -293.645274 
L 101.971623 -293.364113 
L 101.255952 -293.403459 
L 100.540281 -292.905434 
L 99.824609 -293.24613 
L 99.108938 -292.856054 
L 98.393267 -292.188379 
L 97.677595 -292.155921 
L 96.961924 -291.780931 
L 96.246253 -291.524184 
L 95.530581 -291.39193 
L 94.81491 -291.623574 
L 94.099238 -291.59782 
L 93.383567 -292.031821 
L 92.667896 -292.106036 
L 91.952224 -291.463344 
L 91.236553 -291.8422 
L 90.520882 -291.838843 
L 89.80521 -291.422307 
L 89.089539 -290.788745 
L 88.373868 -289.69312 
L 87.658196 -289.70109 
L 86.942525 -288.910317 
L 86.226854 -287.936899 
L 85.511182 -286.914687 
L 84.795511 -285.529733 
L 84.07984 -285.291395 
L 83.364168 -285.779037 
L 82.648497 -285.322454 
L 81.932826 -285.230533 
L 81.217154 -285.346288 
L 80.501483 -284.25885 
L 79.785812 -283.27405 
L 79.07014 -283.804697 
L 78.354469 -284.544743 
L 77.638798 -284.124269 
L 76.923126 -283.896177 
L 76.207455 -283.818604 
L 75.491784 -283.226896 
L 74.776112 -279.881209 
L 74.060441 -279.60438 
L 73.34477 -276.667594 
L 72.629098 -276.663997 
L 71.913427 -276.636739 
L 71.197756 -274.665275 
L 70.482084 -272.110542 
L 69.766413 -269.499011 
L 69.050741 -269.110371 
L 68.33507 -267.46476 
L 67.619399 -266.655802 
L 66.903727 -264.359424 
L 66.188056 -260.189888 
L 65.472385 -252.696642 
L 64.756713 -249.591458 
L 64.041042 -244.777016 
L 63.325371 -236.766851 
L 62.609699 -226.988971 
L 61.894028 -226.363012 
L 61.178357 -210.827774 
L 60.462685 -196.923708 
L 59.747014 -196.923708 
L 59.031343 -183.115772 
L 58.315671 -170.054049 
L 57.6 -38.016 
z
" style="stroke: #0000ff; stroke-opacity: 0.1"/>
    </defs>
    <g clip-path="url(#pfdc77bda0d)">
     <use xlink:href="#m5f102ff384" x="0" y="345.6" style="fill: #0000ff; fill-opacity: 0.1; stroke: #0000ff; stroke-opacity: 0.1"/>
    </g>
   </g>
   <g id="matplotlib.axis_1">
    <g id="xtick_1">
     <g id="line2d_1">
      <defs>
       <path id="mb37c12e444" d="M 0 0 
L 0 3.5 
" style="stroke: #000000; stroke-width: 0.8"/>
      </defs>
      <g>
       <use xlink:href="#mb37c12e444" x="57.6" y="307.584" style="stroke: #000000; stroke-width: 0.8"/>
      </g>
     </g>
     <g id="text_1">
      <!-- 0.0 -->
      <g transform="translate(49.648438 322.182437) scale(0.1 -0.1)">
       <defs>
        <path id="DejaVuSans-30" d="M 2034 4250 
Q 1547 4250 1301 3770 
Q 1056 3291 1056 2328 
Q 1056 1369 1301 889 
Q 1547 409 2034 409 
Q 2525 409 2770 889 
Q 3016 1369 3016 2328 
Q 3016 3291 2770 3770 
Q 2525 4250 2034 4250 
z
M 2034 4750 
Q 2819 4750 3233 4129 
Q 3647 3509 3647 2328 
Q 3647 1150 3233 529 
Q 2819 -91 2034 -91 
Q 1250 -91 836 529 
Q 422 1150 422 2328 
Q 422 3509 836 4129 
Q 1250 4750 2034 4750 
z
" transform="scale(0.015625)"/>
        <path id="DejaVuSans-2e" d="M 684 794 
L 1344 794 
L 1344 0 
L 684 0 
L 684 794 
z
" transform="scale(0.015625)"/>
       </defs>
       <use xlink:href="#DejaVuSans-30"/>
       <use xlink:href="#DejaVuSans-2e" x="63.623047"/>
       <use xlink:href="#DejaVuSans-30" x="95.410156"/>
      </g>
     </g>
    </g>
    <g id="xtick_2">
     <g id="line2d_2">
      <g>
       <use xlink:href="#mb37c12e444" x="129.024" y="307.584" style="stroke: #000000; stroke-width: 0.8"/>
      </g>
     </g>
     <g id="text_2">
      <!-- 0.2 -->
      <g transform="translate(121.072438 322.182437) scale(0.1 -0.1)">
       <defs>
        <path id="DejaVuSans-32" d="M 1228 531 
L 3431 531 
L 3431 0 
L 469 0 
L 469 531 
Q 828 903 1448 1529 
Q 2069 2156 2228 2338 
Q 2531 2678 2651 2914 
Q 2772 3150 2772 3378 
Q 2772 3750 2511 3984 
Q 2250 4219 1831 4219 
Q 1534 4219 1204 4116 
Q 875 4013 500 3803 
L 500 4441 
Q 881 4594 1212 4672 
Q 1544 4750 1819 4750 
Q 2544 4750 2975 4387 
Q 3406 4025 3406 3419 
Q 3406 3131 3298 2873 
Q 3191 2616 2906 2266 
Q 2828 2175 2409 1742 
Q 1991 1309 1228 531 
z
" transform="scale(0.015625)"/>
       </defs>
       <use xlink:href="#DejaVuSans-30"/>
       <use xlink:href="#DejaVuSans-2e" x="63.623047"/>
       <use xlink:href="#DejaVuSans-32" x="95.410156"/>
      </g>
     </g>
    </g>
    <g id="xtick_3">
     <g id="line2d_3">
      <g>
       <use xlink:href="#mb37c12e444" x="200.448" y="307.584" style="stroke: #000000; stroke-width: 0.8"/>
      </g>
     </g>
     <g id="text_3">
      <!-- 0.4 -->
      <g transform="translate(192.496438 322.182437) scale(0.1 -0.1)">
       <defs>
        <path id="DejaVuSans-34" d="M 2419 4116 
L 825 1625 
L 2419 1625 
L 2419 4116 
z
M 2253 4666 
L 3047 4666 
L 3047 1625 
L 3713 1625 
L 3713 1100 
L 3047 1100 
L 3047 0 
L 2419 0 
L 2419 1100 
L 313 1100 
L 313 1709 
L 2253 4666 
z
" transform="scale(0.015625)"/>
       </defs>
       <use xlink:href="#DejaVuSans-30"/>
       <use xlink:href="#DejaVuSans-2e" x="63.623047"/>
       <use xlink:href="#DejaVuSans-34" x="95.410156"/>
      </g>
     </g>
    </g>
    <g id="xtick_4">
     <g id="line2d_4">
      <g>
       <use xlink:href="#mb37c12e444" x="271.872" y="307.584" style="stroke: #000000; stroke-width: 0.8"/>
      </g>
     </g>
     <g id="text_4">
      <!-- 0.6 -->
      <g transform="translate(263.920438 322.182437) scale(0.1 -0.1)">
       <defs>
        <path id="DejaVuSans-36" d="M 2113 2584 
Q 1688 2584 1439 2293 
Q 1191 2003 1191 1497 
Q 1191 994 1439 701 
Q 1688 409 2113 409 
Q 2538 409 2786 701 
Q 3034 994 3034 1497 
Q 3034 2003 2786 2293 
Q 2538 2584 2113 2584 
z
M 3366 4563 
L 3366 3988 
Q 3128 4100 2886 4159 
Q 2644 4219 2406 4219 
Q 1781 4219 1451 3797 
Q 1122 3375 1075 2522 
Q 1259 2794 1537 2939 
Q 1816 3084 2150 3084 
Q 2853 3084 3261 2657 
Q 3669 2231 3669 1497 
Q 3669 778 3244 343 
Q 2819 -91 2113 -91 
Q 1303 -91 875 529 
Q 447 1150 447 2328 
Q 447 3434 972 4092 
Q 1497 4750 2381 4750 
Q 2619 4750 2861 4703 
Q 3103 4656 3366 4563 
z
" transform="scale(0.015625)"/>
       </defs>
       <use xlink:href="#DejaVuSans-30"/>
       <use xlink:href="#DejaVuSans-2e" x="63.623047"/>
       <use xlink:href="#DejaVuSans-36" x="95.410156"/>
      </g>
     </g>
    </g>
    <g id="xtick_5">
     <g id="line2d_5">
      <g>
       <use xlink:href="#mb37c12e444" x="343.296" y="307.584" style="stroke: #000000; stroke-width: 0.8"/>
      </g>
     </g>
     <g id="text_5">
      <!-- 0.8 -->
      <g transform="translate(335.344438 322.182437) scale(0.1 -0.1)">
       <defs>
        <path id="DejaVuSans-38" d="M 2034 2216 
Q 1584 2216 1326 1975 
Q 1069 1734 1069 1313 
Q 1069 891 1326 650 
Q 1584 409 2034 409 
Q 2484 409 2743 651 
Q 3003 894 3003 1313 
Q 3003 1734 2745 1975 
Q 2488 2216 2034 2216 
z
M 1403 2484 
Q 997 2584 770 2862 
Q 544 3141 544 3541 
Q 544 4100 942 4425 
Q 1341 4750 2034 4750 
Q 2731 4750 3128 4425 
Q 3525 4100 3525 3541 
Q 3525 3141 3298 2862 
Q 3072 2584 2669 2484 
Q 3125 2378 3379 2068 
Q 3634 1759 3634 1313 
Q 3634 634 3220 271 
Q 2806 -91 2034 -91 
Q 1263 -91 848 271 
Q 434 634 434 1313 
Q 434 1759 690 2068 
Q 947 2378 1403 2484 
z
M 1172 3481 
Q 1172 3119 1398 2916 
Q 1625 2713 2034 2713 
Q 2441 2713 2670 2916 
Q 2900 3119 2900 3481 
Q 2900 3844 2670 4047 
Q 2441 4250 2034 4250 
Q 1625 4250 1398 4047 
Q 1172 3844 1172 3481 
z
" transform="scale(0.015625)"/>
       </defs>
       <use xlink:href="#DejaVuSans-30"/>
       <use xlink:href="#DejaVuSans-2e" x="63.623047"/>
       <use xlink:href="#DejaVuSans-38" x="95.410156"/>
      </g>
     </g>
    </g>
    <g id="xtick_6">
     <g id="line2d_6">
      <g>
       <use xlink:href="#mb37c12e444" x="414.72" y="307.584" style="stroke: #000000; stroke-width: 0.8"/>
      </g>
     </g>
     <g id="text_6">
      <!-- 1.0 -->
      <g transform="translate(406.768438 322.182437) scale(0.1 -0.1)">
       <defs>
        <path id="DejaVuSans-31" d="M 794 531 
L 1825 531 
L 1825 4091 
L 703 3866 
L 703 4441 
L 1819 4666 
L 2450 4666 
L 2450 531 
L 3481 531 
L 3481 0 
L 794 0 
L 794 531 
z
" transform="scale(0.015625)"/>
       </defs>
       <use xlink:href="#DejaVuSans-31"/>
       <use xlink:href="#DejaVuSans-2e" x="63.623047"/>
       <use xlink:href="#DejaVuSans-30" x="95.410156"/>
      </g>
     </g>
    </g>
    <g id="text_7">
     <!-- False Positive Rate -->
     <g transform="translate(189.693594 335.860562) scale(0.1 -0.1)">
      <defs>
       <path id="DejaVuSans-46" d="M 628 4666 
L 3309 4666 
L 3309 4134 
L 1259 4134 
L 1259 2759 
L 3109 2759 
L 3109 2228 
L 1259 2228 
L 1259 0 
L 628 0 
L 628 4666 
z
" transform="scale(0.015625)"/>
       <path id="DejaVuSans-61" d="M 2194 1759 
Q 1497 1759 1228 1600 
Q 959 1441 959 1056 
Q 959 750 1161 570 
Q 1363 391 1709 391 
Q 2188 391 2477 730 
Q 2766 1069 2766 1631 
L 2766 1759 
L 2194 1759 
z
M 3341 1997 
L 3341 0 
L 2766 0 
L 2766 531 
Q 2569 213 2275 61 
Q 1981 -91 1556 -91 
Q 1019 -91 701 211 
Q 384 513 384 1019 
Q 384 1609 779 1909 
Q 1175 2209 1959 2209 
L 2766 2209 
L 2766 2266 
Q 2766 2663 2505 2880 
Q 2244 3097 1772 3097 
Q 1472 3097 1187 3025 
Q 903 2953 641 2809 
L 641 3341 
Q 956 3463 1253 3523 
Q 1550 3584 1831 3584 
Q 2591 3584 2966 3190 
Q 3341 2797 3341 1997 
z
" transform="scale(0.015625)"/>
       <path id="DejaVuSans-6c" d="M 603 4863 
L 1178 4863 
L 1178 0 
L 603 0 
L 603 4863 
z
" transform="scale(0.015625)"/>
       <path id="DejaVuSans-73" d="M 2834 3397 
L 2834 2853 
Q 2591 2978 2328 3040 
Q 2066 3103 1784 3103 
Q 1356 3103 1142 2972 
Q 928 2841 928 2578 
Q 928 2378 1081 2264 
Q 1234 2150 1697 2047 
L 1894 2003 
Q 2506 1872 2764 1633 
Q 3022 1394 3022 966 
Q 3022 478 2636 193 
Q 2250 -91 1575 -91 
Q 1294 -91 989 -36 
Q 684 19 347 128 
L 347 722 
Q 666 556 975 473 
Q 1284 391 1588 391 
Q 1994 391 2212 530 
Q 2431 669 2431 922 
Q 2431 1156 2273 1281 
Q 2116 1406 1581 1522 
L 1381 1569 
Q 847 1681 609 1914 
Q 372 2147 372 2553 
Q 372 3047 722 3315 
Q 1072 3584 1716 3584 
Q 2034 3584 2315 3537 
Q 2597 3491 2834 3397 
z
" transform="scale(0.015625)"/>
       <path id="DejaVuSans-65" d="M 3597 1894 
L 3597 1613 
L 953 1613 
Q 991 1019 1311 708 
Q 1631 397 2203 397 
Q 2534 397 2845 478 
Q 3156 559 3463 722 
L 3463 178 
Q 3153 47 2828 -22 
Q 2503 -91 2169 -91 
Q 1331 -91 842 396 
Q 353 884 353 1716 
Q 353 2575 817 3079 
Q 1281 3584 2069 3584 
Q 2775 3584 3186 3129 
Q 3597 2675 3597 1894 
z
M 3022 2063 
Q 3016 2534 2758 2815 
Q 2500 3097 2075 3097 
Q 1594 3097 1305 2825 
Q 1016 2553 972 2059 
L 3022 2063 
z
" transform="scale(0.015625)"/>
       <path id="DejaVuSans-20" transform="scale(0.015625)"/>
       <path id="DejaVuSans-50" d="M 1259 4147 
L 1259 2394 
L 2053 2394 
Q 2494 2394 2734 2622 
Q 2975 2850 2975 3272 
Q 2975 3691 2734 3919 
Q 2494 4147 2053 4147 
L 1259 4147 
z
M 628 4666 
L 2053 4666 
Q 2838 4666 3239 4311 
Q 3641 3956 3641 3272 
Q 3641 2581 3239 2228 
Q 2838 1875 2053 1875 
L 1259 1875 
L 1259 0 
L 628 0 
L 628 4666 
z
" transform="scale(0.015625)"/>
       <path id="DejaVuSans-6f" d="M 1959 3097 
Q 1497 3097 1228 2736 
Q 959 2375 959 1747 
Q 959 1119 1226 758 
Q 1494 397 1959 397 
Q 2419 397 2687 759 
Q 2956 1122 2956 1747 
Q 2956 2369 2687 2733 
Q 2419 3097 1959 3097 
z
M 1959 3584 
Q 2709 3584 3137 3096 
Q 3566 2609 3566 1747 
Q 3566 888 3137 398 
Q 2709 -91 1959 -91 
Q 1206 -91 779 398 
Q 353 888 353 1747 
Q 353 2609 779 3096 
Q 1206 3584 1959 3584 
z
" transform="scale(0.015625)"/>
       <path id="DejaVuSans-69" d="M 603 3500 
L 1178 3500 
L 1178 0 
L 603 0 
L 603 3500 
z
M 603 4863 
L 1178 4863 
L 1178 4134 
L 603 4134 
L 603 4863 
z
" transform="scale(0.015625)"/>
       <path id="DejaVuSans-74" d="M 1172 4494 
L 1172 3500 
L 2356 3500 
L 2356 3053 
L 1172 3053 
L 1172 1153 
Q 1172 725 1289 603 
Q 1406 481 1766 481 
L 2356 481 
L 2356 0 
L 1766 0 
Q 1100 0 847 248 
Q 594 497 594 1153 
L 594 3053 
L 172 3053 
L 172 3500 
L 594 3500 
L 594 4494 
L 1172 4494 
z
" transform="scale(0.015625)"/>
       <path id="DejaVuSans-76" d="M 191 3500 
L 800 3500 
L 1894 563 
L 2988 3500 
L 3597 3500 
L 2284 0 
L 1503 0 
L 191 3500 
z
" transform="scale(0.015625)"/>
       <path id="DejaVuSans-52" d="M 2841 2188 
Q 3044 2119 3236 1894 
Q 3428 1669 3622 1275 
L 4263 0 
L 3584 0 
L 2988 1197 
Q 2756 1666 2539 1819 
Q 2322 1972 1947 1972 
L 1259 1972 
L 1259 0 
L 628 0 
L 628 4666 
L 2053 4666 
Q 2853 4666 3247 4331 
Q 3641 3997 3641 3322 
Q 3641 2881 3436 2590 
Q 3231 2300 2841 2188 
z
M 1259 4147 
L 1259 2491 
L 2053 2491 
Q 2509 2491 2742 2702 
Q 2975 2913 2975 3322 
Q 2975 3731 2742 3939 
Q 2509 4147 2053 4147 
L 1259 4147 
z
" transform="scale(0.015625)"/>
      </defs>
      <use xlink:href="#DejaVuSans-46"/>
      <use xlink:href="#DejaVuSans-61" x="48.394531"/>
      <use xlink:href="#DejaVuSans-6c" x="109.673828"/>
      <use xlink:href="#DejaVuSans-73" x="137.457031"/>
      <use xlink:href="#DejaVuSans-65" x="189.556641"/>
      <use xlink:href="#DejaVuSans-20" x="251.080078"/>
      <use xlink:href="#DejaVuSans-50" x="282.867188"/>
      <use xlink:href="#DejaVuSans-6f" x="339.544922"/>
      <use xlink:href="#DejaVuSans-73" x="400.726562"/>
      <use xlink:href="#DejaVuSans-69" x="452.826172"/>
      <use xlink:href="#DejaVuSans-74" x="480.609375"/>
      <use xlink:href="#DejaVuSans-69" x="519.818359"/>
      <use xlink:href="#DejaVuSans-76" x="547.601562"/>
      <use xlink:href="#DejaVuSans-65" x="606.78125"/>
      <use xlink:href="#DejaVuSans-20" x="668.304688"/>
      <use xlink:href="#DejaVuSans-52" x="700.091797"/>
      <use xlink:href="#DejaVuSans-61" x="767.324219"/>
      <use xlink:href="#DejaVuSans-74" x="828.603516"/>
      <use xlink:href="#DejaVuSans-65" x="867.8125"/>
     </g>
    </g>
   </g>
   <g id="matplotlib.axis_2">
    <g id="ytick_1">
     <g id="line2d_7">
      <defs>
       <path id="mff2a1a4d40" d="M 0 0 
L -3.5 0 
" style="stroke: #000000; stroke-width: 0.8"/>
      </defs>
      <g>
       <use xlink:href="#mff2a1a4d40" x="57.6" y="307.584" style="stroke: #000000; stroke-width: 0.8"/>
      </g>
     </g>
     <g id="text_8">
      <!-- 0.0 -->
      <g transform="translate(34.696875 311.383219) scale(0.1 -0.1)">
       <use xlink:href="#DejaVuSans-30"/>
       <use xlink:href="#DejaVuSans-2e" x="63.623047"/>
       <use xlink:href="#DejaVuSans-30" x="95.410156"/>
      </g>
     </g>
    </g>
    <g id="ytick_2">
     <g id="line2d_8">
      <g>
       <use xlink:href="#mff2a1a4d40" x="57.6" y="256.896" style="stroke: #000000; stroke-width: 0.8"/>
      </g>
     </g>
     <g id="text_9">
      <!-- 0.2 -->
      <g transform="translate(34.696875 260.695219) scale(0.1 -0.1)">
       <use xlink:href="#DejaVuSans-30"/>
       <use xlink:href="#DejaVuSans-2e" x="63.623047"/>
       <use xlink:href="#DejaVuSans-32" x="95.410156"/>
      </g>
     </g>
    </g>
    <g id="ytick_3">
     <g id="line2d_9">
      <g>
       <use xlink:href="#mff2a1a4d40" x="57.6" y="206.208" style="stroke: #000000; stroke-width: 0.8"/>
      </g>
     </g>
     <g id="text_10">
      <!-- 0.4 -->
      <g transform="translate(34.696875 210.007219) scale(0.1 -0.1)">
       <use xlink:href="#DejaVuSans-30"/>
       <use xlink:href="#DejaVuSans-2e" x="63.623047"/>
       <use xlink:href="#DejaVuSans-34" x="95.410156"/>
      </g>
     </g>
    </g>
    <g id="ytick_4">
     <g id="line2d_10">
      <g>
       <use xlink:href="#mff2a1a4d40" x="57.6" y="155.52" style="stroke: #000000; stroke-width: 0.8"/>
      </g>
     </g>
     <g id="text_11">
      <!-- 0.6 -->
      <g transform="translate(34.696875 159.319219) scale(0.1 -0.1)">
       <use xlink:href="#DejaVuSans-30"/>
       <use xlink:href="#DejaVuSans-2e" x="63.623047"/>
       <use xlink:href="#DejaVuSans-36" x="95.410156"/>
      </g>
     </g>
    </g>
    <g id="ytick_5">
     <g id="line2d_11">
      <g>
       <use xlink:href="#mff2a1a4d40" x="57.6" y="104.832" style="stroke: #000000; stroke-width: 0.8"/>
      </g>
     </g>
     <g id="text_12">
      <!-- 0.8 -->
      <g transform="translate(34.696875 108.631219) scale(0.1 -0.1)">
       <use xlink:href="#DejaVuSans-30"/>
       <use xlink:href="#DejaVuSans-2e" x="63.623047"/>
       <use xlink:href="#DejaVuSans-38" x="95.410156"/>
      </g>
     </g>
    </g>
    <g id="ytick_6">
     <g id="line2d_12">
      <g>
       <use xlink:href="#mff2a1a4d40" x="57.6" y="54.144" style="stroke: #000000; stroke-width: 0.8"/>
      </g>
     </g>
     <g id="text_13">
      <!-- 1.0 -->
      <g transform="translate(34.696875 57.943219) scale(0.1 -0.1)">
       <use xlink:href="#DejaVuSans-31"/>
       <use xlink:href="#DejaVuSans-2e" x="63.623047"/>
       <use xlink:href="#DejaVuSans-30" x="95.410156"/>
      </g>
     </g>
    </g>
    <g id="text_14">
     <!-- True Positive Rate -->
     <g transform="translate(28.617187 219.057687) rotate(-90) scale(0.1 -0.1)">
      <defs>
       <path id="DejaVuSans-54" d="M -19 4666 
L 3928 4666 
L 3928 4134 
L 2272 4134 
L 2272 0 
L 1638 0 
L 1638 4134 
L -19 4134 
L -19 4666 
z
" transform="scale(0.015625)"/>
       <path id="DejaVuSans-72" d="M 2631 2963 
Q 2534 3019 2420 3045 
Q 2306 3072 2169 3072 
Q 1681 3072 1420 2755 
Q 1159 2438 1159 1844 
L 1159 0 
L 581 0 
L 581 3500 
L 1159 3500 
L 1159 2956 
Q 1341 3275 1631 3429 
Q 1922 3584 2338 3584 
Q 2397 3584 2469 3576 
Q 2541 3569 2628 3553 
L 2631 2963 
z
" transform="scale(0.015625)"/>
       <path id="DejaVuSans-75" d="M 544 1381 
L 544 3500 
L 1119 3500 
L 1119 1403 
Q 1119 906 1312 657 
Q 1506 409 1894 409 
Q 2359 409 2629 706 
Q 2900 1003 2900 1516 
L 2900 3500 
L 3475 3500 
L 3475 0 
L 2900 0 
L 2900 538 
Q 2691 219 2414 64 
Q 2138 -91 1772 -91 
Q 1169 -91 856 284 
Q 544 659 544 1381 
z
M 1991 3584 
L 1991 3584 
z
" transform="scale(0.015625)"/>
      </defs>
      <use xlink:href="#DejaVuSans-54"/>
      <use xlink:href="#DejaVuSans-72" x="46.333984"/>
      <use xlink:href="#DejaVuSans-75" x="87.447266"/>
      <use xlink:href="#DejaVuSans-65" x="150.826172"/>
      <use xlink:href="#DejaVuSans-20" x="212.349609"/>
      <use xlink:href="#DejaVuSans-50" x="244.136719"/>
      <use xlink:href="#DejaVuSans-6f" x="300.814453"/>
      <use xlink:href="#DejaVuSans-73" x="361.996094"/>
      <use xlink:href="#DejaVuSans-69" x="414.095703"/>
      <use xlink:href="#DejaVuSans-74" x="441.878906"/>
      <use xlink:href="#DejaVuSans-69" x="481.087891"/>
      <use xlink:href="#DejaVuSans-76" x="508.871094"/>
      <use xlink:href="#DejaVuSans-65" x="568.050781"/>
      <use xlink:href="#DejaVuSans-20" x="629.574219"/>
      <use xlink:href="#DejaVuSans-52" x="661.361328"/>
      <use xlink:href="#DejaVuSans-61" x="728.59375"/>
      <use xlink:href="#DejaVuSans-74" x="789.873047"/>
      <use xlink:href="#DejaVuSans-65" x="829.082031"/>
     </g>
    </g>
   </g>
   <g id="line2d_13">
    <path d="M 57.6 307.584 
L 58.315671 227.881259 
L 59.031343 208.779144 
L 59.747014 195.40372 
L 60.462685 195.40372 
L 61.894028 173.051758 
L 62.609699 172.835966 
L 64.041042 157.030017 
L 65.472385 148.430216 
L 66.188056 140.858312 
L 66.903727 136.163489 
L 67.619399 134.01158 
L 68.33507 128.458771 
L 69.050741 124.426644 
L 69.766413 122.25909 
L 70.482084 117.496961 
L 71.197756 113.996377 
L 71.913427 111.609663 
L 72.629098 109.869876 
L 73.34477 107.157064 
L 74.060441 104.992158 
L 74.776112 103.842912 
L 75.491784 101.812487 
L 76.923126 98.540804 
L 78.354469 96.426052 
L 79.07014 94.744809 
L 79.785812 93.939621 
L 81.932826 89.698565 
L 82.648497 88.188444 
L 83.364168 87.676451 
L 86.942525 83.336158 
L 88.373868 81.751634 
L 89.80521 79.642568 
L 91.952224 78.497577 
L 92.667896 78.120956 
L 93.383567 77.567161 
L 97.677595 75.922421 
L 98.393267 75.763409 
L 99.824609 75.14801 
L 100.540281 74.904429 
L 101.971623 74.104658 
L 104.118637 73.530267 
L 104.834309 73.131466 
L 105.54998 72.916931 
L 106.265651 72.384437 
L 106.981323 72.093846 
L 108.412665 71.731958 
L 109.128337 71.491138 
L 110.559679 71.416597 
L 111.991022 70.90629 
L 116.28505 70.373785 
L 118.432064 69.752761 
L 119.147735 69.752761 
L 119.863407 69.524972 
L 120.579078 69.006679 
L 123.441764 68.561108 
L 125.588778 68.117152 
L 126.304449 68.117152 
L 127.02012 67.690938 
L 129.167134 67.100923 
L 131.314148 66.75351 
L 132.02982 66.685012 
L 132.745491 66.458513 
L 133.461162 66.458513 
L 139.186533 65.163406 
L 139.902204 64.851252 
L 140.617876 64.851252 
L 143.480561 64.379598 
L 145.627575 64.319256 
L 146.343246 64.162029 
L 147.058918 63.728339 
L 147.774589 63.513805 
L 149.205932 63.285389 
L 149.921603 63.000555 
L 152.068617 62.759488 
L 153.49996 62.149904 
L 156.362645 61.86097 
L 157.078317 61.494846 
L 158.509659 61.407453 
L 163.519359 60.878573 
L 164.950701 60.346988 
L 169.244729 59.562081 
L 171.391743 59.349091 
L 172.107415 59.14734 
L 174.254429 58.852666 
L 174.9701 58.562941 
L 177.117114 58.322461 
L 177.832786 58.076056 
L 179.9798 57.759049 
L 180.695471 57.759049 
L 181.411142 57.532471 
L 184.989499 57.096775 
L 186.420842 56.869166 
L 189.999198 56.798766 
L 195.724569 56.194867 
L 197.871583 56.128173 
L 200.018597 55.978573 
L 202.165611 55.906161 
L 204.312625 55.690472 
L 207.890982 55.613672 
L 209.322325 55.545175 
L 215.763367 55.468375 
L 218.626052 55.311166 
L 221.488737 55.311166 
L 222.92008 55.07807 
L 229.361122 55.022974 
L 230.076794 54.857919 
L 236.517836 54.781119 
L 240.811864 54.440456 
L 255.125291 54.377096 
L 256.556633 54.300296 
L 268.007375 54.225755 
L 269.438717 54.144 
L 414.72 54.144 
L 414.72 54.144 
" clip-path="url(#pfdc77bda0d)" style="fill: none; stroke: #1f77b4; stroke-width: 1.5; stroke-linecap: square"/>
   </g>
   <g id="line2d_14">
    <path d="M 57.6 307.584 
L 414.72 54.144 
" clip-path="url(#pfdc77bda0d)" style="fill: none; stroke-dasharray: 2,3.3; stroke-dashoffset: 0; stroke: #000000; stroke-width: 2"/>
   </g>
   <g id="patch_3">
    <path d="M 57.6 307.584 
L 57.6 41.472 
" style="fill: none; stroke: #000000; stroke-width: 0.8; stroke-linejoin: miter; stroke-linecap: square"/>
   </g>
   <g id="patch_4">
    <path d="M 414.72 307.584 
L 414.72 41.472 
" style="fill: none; stroke: #000000; stroke-width: 0.8; stroke-linejoin: miter; stroke-linecap: square"/>
   </g>
   <g id="patch_5">
    <path d="M 57.6 307.584 
L 414.72 307.584 
" style="fill: none; stroke: #000000; stroke-width: 0.8; stroke-linejoin: miter; stroke-linecap: square"/>
   </g>
   <g id="patch_6">
    <path d="M 57.6 41.472 
L 414.72 41.472 
" style="fill: none; stroke: #000000; stroke-width: 0.8; stroke-linejoin: miter; stroke-linecap: square"/>
   </g>
   <g id="text_15">
    <!-- ROC -->
    <g transform="translate(223.078125 35.472) scale(0.12 -0.12)">
     <defs>
      <path id="DejaVuSans-4f" d="M 2522 4238 
Q 1834 4238 1429 3725 
Q 1025 3213 1025 2328 
Q 1025 1447 1429 934 
Q 1834 422 2522 422 
Q 3209 422 3611 934 
Q 4013 1447 4013 2328 
Q 4013 3213 3611 3725 
Q 3209 4238 2522 4238 
z
M 2522 4750 
Q 3503 4750 4090 4092 
Q 4678 3434 4678 2328 
Q 4678 1225 4090 567 
Q 3503 -91 2522 -91 
Q 1538 -91 948 565 
Q 359 1222 359 2328 
Q 359 3434 948 4092 
Q 1538 4750 2522 4750 
z
" transform="scale(0.015625)"/>
      <path id="DejaVuSans-43" d="M 4122 4306 
L 4122 3641 
Q 3803 3938 3442 4084 
Q 3081 4231 2675 4231 
Q 1875 4231 1450 3742 
Q 1025 3253 1025 2328 
Q 1025 1406 1450 917 
Q 1875 428 2675 428 
Q 3081 428 3442 575 
Q 3803 722 4122 1019 
L 4122 359 
Q 3791 134 3420 21 
Q 3050 -91 2638 -91 
Q 1578 -91 968 557 
Q 359 1206 359 2328 
Q 359 3453 968 4101 
Q 1578 4750 2638 4750 
Q 3056 4750 3426 4639 
Q 3797 4528 4122 4306 
z
" transform="scale(0.015625)"/>
     </defs>
     <use xlink:href="#DejaVuSans-52"/>
     <use xlink:href="#DejaVuSans-4f" x="69.482422"/>
     <use xlink:href="#DejaVuSans-43" x="148.193359"/>
    </g>
   </g>
   <g id="legend_1">
    <g id="patch_7">
     <path d="M 247.746563 302.584 
L 407.72 302.584 
Q 409.72 302.584 409.72 300.584 
L 409.72 286.905875 
Q 409.72 284.905875 407.72 284.905875 
L 247.746563 284.905875 
Q 245.746563 284.905875 245.746563 286.905875 
L 245.746563 300.584 
Q 245.746563 302.584 247.746563 302.584 
z
" style="fill: #ffffff; opacity: 0.8; stroke: #cccccc; stroke-linejoin: miter"/>
    </g>
    <g id="line2d_15">
     <path d="M 249.746563 293.004312 
L 259.746562 293.004312 
L 269.746562 293.004312 
" style="fill: none; stroke: #1f77b4; stroke-width: 1.5; stroke-linecap: square"/>
    </g>
    <g id="text_16">
     <!-- auROC = 0.962 +/- 0.026 -->
     <g transform="translate(277.746562 296.504312) scale(0.1 -0.1)">
      <defs>
       <path id="DejaVuSans-3d" d="M 678 2906 
L 4684 2906 
L 4684 2381 
L 678 2381 
L 678 2906 
z
M 678 1631 
L 4684 1631 
L 4684 1100 
L 678 1100 
L 678 1631 
z
" transform="scale(0.015625)"/>
       <path id="DejaVuSans-39" d="M 703 97 
L 703 672 
Q 941 559 1184 500 
Q 1428 441 1663 441 
Q 2288 441 2617 861 
Q 2947 1281 2994 2138 
Q 2813 1869 2534 1725 
Q 2256 1581 1919 1581 
Q 1219 1581 811 2004 
Q 403 2428 403 3163 
Q 403 3881 828 4315 
Q 1253 4750 1959 4750 
Q 2769 4750 3195 4129 
Q 3622 3509 3622 2328 
Q 3622 1225 3098 567 
Q 2575 -91 1691 -91 
Q 1453 -91 1209 -44 
Q 966 3 703 97 
z
M 1959 2075 
Q 2384 2075 2632 2365 
Q 2881 2656 2881 3163 
Q 2881 3666 2632 3958 
Q 2384 4250 1959 4250 
Q 1534 4250 1286 3958 
Q 1038 3666 1038 3163 
Q 1038 2656 1286 2365 
Q 1534 2075 1959 2075 
z
" transform="scale(0.015625)"/>
       <path id="DejaVuSans-2b" d="M 2944 4013 
L 2944 2272 
L 4684 2272 
L 4684 1741 
L 2944 1741 
L 2944 0 
L 2419 0 
L 2419 1741 
L 678 1741 
L 678 2272 
L 2419 2272 
L 2419 4013 
L 2944 4013 
z
" transform="scale(0.015625)"/>
       <path id="DejaVuSans-2f" d="M 1625 4666 
L 2156 4666 
L 531 -594 
L 0 -594 
L 1625 4666 
z
" transform="scale(0.015625)"/>
       <path id="DejaVuSans-2d" d="M 313 2009 
L 1997 2009 
L 1997 1497 
L 313 1497 
L 313 2009 
z
" transform="scale(0.015625)"/>
      </defs>
      <use xlink:href="#DejaVuSans-61"/>
      <use xlink:href="#DejaVuSans-75" x="61.279297"/>
      <use xlink:href="#DejaVuSans-52" x="124.658203"/>
      <use xlink:href="#DejaVuSans-4f" x="194.140625"/>
      <use xlink:href="#DejaVuSans-43" x="272.851562"/>
      <use xlink:href="#DejaVuSans-20" x="342.675781"/>
      <use xlink:href="#DejaVuSans-3d" x="374.462891"/>
      <use xlink:href="#DejaVuSans-20" x="458.251953"/>
      <use xlink:href="#DejaVuSans-30" x="490.039062"/>
      <use xlink:href="#DejaVuSans-2e" x="553.662109"/>
      <use xlink:href="#DejaVuSans-39" x="585.449219"/>
      <use xlink:href="#DejaVuSans-36" x="649.072266"/>
      <use xlink:href="#DejaVuSans-32" x="712.695312"/>
      <use xlink:href="#DejaVuSans-20" x="776.318359"/>
      <use xlink:href="#DejaVuSans-2b" x="808.105469"/>
      <use xlink:href="#DejaVuSans-2f" x="891.894531"/>
      <use xlink:href="#DejaVuSans-2d" x="925.585938"/>
      <use xlink:href="#DejaVuSans-20" x="961.669922"/>
      <use xlink:href="#DejaVuSans-30" x="993.457031"/>
      <use xlink:href="#DejaVuSans-2e" x="1057.080078"/>
      <use xlink:href="#DejaVuSans-30" x="1088.867188"/>
      <use xlink:href="#DejaVuSans-32" x="1152.490234"/>
      <use xlink:href="#DejaVuSans-36" x="1216.113281"/>
     </g>
    </g>
   </g>
  </g>
 </g>
 <defs>
  <clipPath id="pfdc77bda0d">
   <rect x="57.6" y="41.472" width="357.12" height="266.112"/>
  </clipPath>
 </defs>
</svg>
