<?xml version="1.0" encoding="utf-8" standalone="no"?>
<!DOCTYPE svg PUBLIC "-//W3C//DTD SVG 1.1//EN"
  "http://www.w3.org/Graphics/SVG/1.1/DTD/svg11.dtd">
<svg xmlns:xlink="http://www.w3.org/1999/xlink" width="460.8pt" height="345.6pt" viewBox="0 0 460.8 345.6" xmlns="http://www.w3.org/2000/svg" version="1.1">
 <metadata>
  <rdf:RDF xmlns:dc="http://purl.org/dc/elements/1.1/" xmlns:cc="http://creativecommons.org/ns#" xmlns:rdf="http://www.w3.org/1999/02/22-rdf-syntax-ns#">
   <cc:Work>
    <dc:type rdf:resource="http://purl.org/dc/dcmitype/StillImage"/>
    <dc:date>2023-01-19T17:26:18.344494</dc:date>
    <dc:format>image/svg+xml</dc:format>
    <dc:creator>
     <cc:Agent>
      <dc:title>Matplotlib v3.6.2, https://matplotlib.org/</dc:title>
     </cc:Agent>
    </dc:creator>
   </cc:Work>
  </rdf:RDF>
 </metadata>
 <defs>
  <style type="text/css">*{stroke-linejoin: round; stroke-linecap: butt}</style>
 </defs>
 <g id="figure_1">
  <g id="patch_1">
   <path d="M 0 345.6 
L 460.8 345.6 
L 460.8 0 
L 0 0 
z
" style="fill: #ffffff"/>
  </g>
  <g id="axes_1">
   <g id="patch_2">
    <path d="M 57.6 307.584 
L 414.72 307.584 
L 414.72 41.472 
L 57.6 41.472 
z
" style="fill: #ffffff"/>
   </g>
   <g id="PolyCollection_1">
    <defs>
     <path id="md13c4b6c1c" d="M 57.6 -38.016 
L 57.6 -38.016 
L 58.315671 -51.215799 
L 59.031343 -57.145884 
L 59.747014 -57.145884 
L 60.462685 -61.018902 
L 61.178357 -61.018902 
L 61.894028 -62.63307 
L 62.609699 -62.663821 
L 63.325371 -63.098459 
L 64.041042 -64.482513 
L 64.756713 -64.99302 
L 65.472385 -66.599803 
L 66.188056 -67.095135 
L 66.903727 -70.062276 
L 67.619399 -71.16334 
L 68.33507 -74.744032 
L 69.050741 -77.764352 
L 69.766413 -85.194598 
L 70.482084 -89.604457 
L 71.197756 -102.062164 
L 71.913427 -106.756414 
L 72.629098 -113.171114 
L 73.34477 -122.529679 
L 74.060441 -129.678615 
L 74.776112 -135.693781 
L 75.491784 -147.744057 
L 76.207455 -151.663123 
L 76.923126 -157.936465 
L 77.638798 -160.720419 
L 78.354469 -164.48711 
L 79.07014 -168.136539 
L 79.785812 -170.745076 
L 80.501483 -182.116399 
L 81.217154 -185.02386 
L 81.932826 -188.625611 
L 82.648497 -189.745591 
L 83.364168 -191.882892 
L 84.07984 -193.380654 
L 84.795511 -196.399026 
L 85.511182 -197.467116 
L 86.226854 -200.202728 
L 86.942525 -202.803322 
L 87.658196 -204.259583 
L 88.373868 -205.875639 
L 89.089539 -206.294409 
L 89.80521 -208.44088 
L 90.520882 -210.26758 
L 91.236553 -211.549058 
L 91.952224 -212.045645 
L 92.667896 -212.853585 
L 93.383567 -214.564225 
L 94.099238 -215.351934 
L 94.81491 -216.447179 
L 95.530581 -217.747625 
L 96.246253 -218.936771 
L 96.961924 -219.617427 
L 97.677595 -220.459545 
L 98.393267 -221.619173 
L 99.108938 -221.83436 
L 99.824609 -222.385147 
L 100.540281 -223.027331 
L 101.255952 -223.101483 
L 101.971623 -223.459306 
L 102.687295 -223.414756 
L 103.402966 -224.766048 
L 104.118637 -224.949032 
L 104.834309 -225.433634 
L 105.54998 -225.516629 
L 106.265651 -226.245206 
L 106.981323 -227.120197 
L 107.696994 -227.674299 
L 108.412665 -227.858263 
L 109.128337 -228.053334 
L 109.844008 -228.793163 
L 110.559679 -229.445091 
L 111.275351 -230.100054 
L 111.991022 -230.454235 
L 112.706693 -231.113367 
L 113.422365 -231.950995 
L 114.138036 -232.01145 
L 114.853707 -232.46722 
L 115.569379 -232.661802 
L 116.28505 -233.027716 
L 117.000721 -233.118066 
L 117.716393 -233.68191 
L 118.432064 -233.920891 
L 119.147735 -234.487948 
L 119.863407 -234.594011 
L 120.579078 -235.039917 
L 121.294749 -235.202349 
L 122.010421 -236.028277 
L 122.726092 -236.733888 
L 123.441764 -237.041284 
L 124.157435 -237.511851 
L 124.873106 -237.542396 
L 125.588778 -238.309842 
L 126.304449 -238.488769 
L 127.02012 -238.883073 
L 127.735792 -238.982356 
L 128.451463 -239.431994 
L 129.167134 -240.012601 
L 129.882806 -240.277824 
L 130.598477 -240.653464 
L 131.314148 -240.904717 
L 132.02982 -240.903983 
L 132.745491 -241.118455 
L 133.461162 -241.717594 
L 134.176834 -241.944114 
L 134.892505 -242.293949 
L 135.608176 -242.587944 
L 136.323848 -242.884337 
L 137.039519 -242.979131 
L 137.75519 -243.497773 
L 138.470862 -244.294862 
L 139.186533 -244.315004 
L 139.902204 -244.635433 
L 140.617876 -244.680083 
L 141.333547 -245.691907 
L 142.049218 -245.830165 
L 142.76489 -245.949347 
L 143.480561 -246.070969 
L 144.196232 -246.451849 
L 144.911904 -247.033543 
L 145.627575 -247.365451 
L 146.343246 -247.395215 
L 147.058918 -247.749253 
L 147.774589 -248.446147 
L 148.490261 -248.615743 
L 149.205932 -249.097821 
L 149.921603 -249.028079 
L 150.637275 -248.999751 
L 151.352946 -249.152919 
L 152.068617 -249.216237 
L 152.784289 -249.305503 
L 153.49996 -249.601198 
L 154.215631 -249.93387 
L 154.931303 -250.26086 
L 155.646974 -250.630405 
L 156.362645 -250.727074 
L 157.078317 -251.399619 
L 157.793988 -251.655221 
L 158.509659 -251.794905 
L 159.225331 -251.673136 
L 159.941002 -251.852732 
L 160.656673 -252.201171 
L 161.372345 -252.417292 
L 162.088016 -252.906545 
L 162.803687 -253.268831 
L 163.519359 -253.596726 
L 164.23503 -253.665118 
L 164.950701 -253.82726 
L 165.666373 -254.027691 
L 166.382044 -254.310817 
L 167.097715 -254.53683 
L 167.813387 -254.855383 
L 168.529058 -255.295828 
L 169.244729 -255.553442 
L 169.960401 -255.867662 
L 170.676072 -256.565316 
L 171.391743 -256.889041 
L 172.107415 -257.158004 
L 172.823086 -257.355119 
L 173.538758 -257.595802 
L 174.254429 -257.588062 
L 174.9701 -258.013422 
L 175.685772 -258.061192 
L 176.401443 -258.6737 
L 177.117114 -258.834643 
L 177.832786 -258.960145 
L 178.548457 -259.394318 
L 179.264128 -259.838399 
L 179.9798 -259.969003 
L 180.695471 -260.117715 
L 181.411142 -260.201022 
L 182.126814 -260.462864 
L 182.842485 -260.525254 
L 183.558156 -261.023692 
L 184.273828 -261.089435 
L 184.989499 -261.232871 
L 185.70517 -261.308497 
L 186.420842 -261.531568 
L 187.136513 -261.657649 
L 187.852184 -262.199586 
L 188.567856 -262.364595 
L 189.283527 -262.850512 
L 189.999198 -262.985615 
L 190.71487 -263.172294 
L 191.430541 -263.216602 
L 192.146212 -263.238885 
L 192.861884 -263.490904 
L 193.577555 -263.573965 
L 194.293226 -263.80207 
L 195.008898 -263.90454 
L 195.724569 -263.925623 
L 196.44024 -264.363305 
L 197.155912 -264.33792 
L 197.871583 -264.609422 
L 198.587255 -264.7224 
L 199.302926 -265.062497 
L 200.018597 -265.325704 
L 200.734269 -265.748872 
L 201.44994 -266.017715 
L 202.165611 -266.100688 
L 202.881283 -266.173994 
L 203.596954 -266.633269 
L 204.312625 -266.632343 
L 205.028297 -266.850721 
L 205.743968 -266.910813 
L 206.459639 -267.034134 
L 207.175311 -267.114253 
L 207.890982 -267.357637 
L 208.606653 -267.61132 
L 209.322325 -267.996632 
L 210.037996 -268.092486 
L 210.753667 -268.340284 
L 211.469339 -268.646734 
L 212.18501 -269.111737 
L 212.900681 -269.341398 
L 213.616353 -269.646566 
L 214.332024 -269.942409 
L 215.047695 -270.198661 
L 215.763367 -270.563172 
L 216.479038 -270.567921 
L 217.194709 -270.782079 
L 217.910381 -270.962406 
L 218.626052 -270.982199 
L 219.341723 -271.267858 
L 220.057395 -271.60665 
L 220.773066 -271.932722 
L 221.488737 -271.891673 
L 222.204409 -271.876392 
L 222.92008 -271.940727 
L 223.635752 -272.041834 
L 224.351423 -272.343301 
L 225.067094 -272.456314 
L 225.782766 -272.47509 
L 226.498437 -272.627413 
L 227.214108 -272.795933 
L 227.92978 -273.035481 
L 228.645451 -273.267589 
L 229.361122 -273.544442 
L 230.076794 -273.583537 
L 230.792465 -273.69239 
L 231.508136 -273.675036 
L 232.223808 -273.748664 
L 232.939479 -273.798736 
L 233.65515 -273.939901 
L 234.370822 -273.939901 
L 235.086493 -273.978079 
L 235.802164 -274.124097 
L 236.517836 -274.183862 
L 237.233507 -274.23205 
L 237.949178 -274.274156 
L 238.66485 -274.376436 
L 239.380521 -274.463757 
L 240.096192 -274.580614 
L 240.811864 -274.580614 
L 241.527535 -274.775792 
L 242.243206 -274.869028 
L 242.958878 -274.922601 
L 243.674549 -274.986115 
L 244.39022 -275.044415 
L 245.105892 -275.104569 
L 245.821563 -275.220591 
L 246.537234 -275.339972 
L 247.252906 -275.410958 
L 247.968577 -275.520605 
L 248.684248 -275.520605 
L 249.39992 -275.709174 
L 250.115591 -275.951199 
L 250.831263 -275.951199 
L 251.546934 -275.969767 
L 252.262605 -275.969767 
L 252.978277 -275.991246 
L 253.693948 -275.982005 
L 254.409619 -276.112799 
L 255.125291 -276.23181 
L 255.840962 -276.378758 
L 256.556633 -276.429575 
L 257.272305 -276.939409 
L 257.987976 -277.145526 
L 258.703647 -277.108042 
L 259.419319 -277.102691 
L 260.13499 -277.102691 
L 260.850661 -277.258457 
L 261.566333 -277.407731 
L 262.282004 -277.541391 
L 262.997675 -277.528834 
L 263.713347 -277.580447 
L 264.429018 -277.790575 
L 265.144689 -277.917077 
L 265.860361 -278.073114 
L 266.576032 -278.073114 
L 267.291703 -278.121754 
L 268.007375 -278.19227 
L 268.723046 -278.226423 
L 269.438717 -278.26698 
L 270.154389 -278.414104 
L 270.87006 -278.387765 
L 271.585731 -278.49421 
L 272.301403 -278.804392 
L 273.017074 -279.002856 
L 273.732745 -279.120056 
L 274.448417 -279.146975 
L 275.164088 -279.275306 
L 275.87976 -279.280608 
L 276.595431 -279.481798 
L 277.311102 -279.593834 
L 278.026774 -279.734932 
L 278.742445 -279.734932 
L 279.458116 -279.819209 
L 280.173788 -279.819209 
L 280.889459 -279.819209 
L 281.60513 -279.871554 
L 282.320802 -279.871554 
L 283.036473 -279.937926 
L 283.752144 -279.937926 
L 284.467816 -279.948666 
L 285.183487 -279.948666 
L 285.899158 -279.948666 
L 286.61483 -279.948666 
L 287.330501 -280.096573 
L 288.046172 -280.076537 
L 288.761844 -280.139854 
L 289.477515 -280.313177 
L 290.193186 -280.308925 
L 290.908858 -280.308925 
L 291.624529 -280.308925 
L 292.3402 -280.482463 
L 293.055872 -280.482463 
L 293.771543 -280.482463 
L 294.487214 -280.482463 
L 295.202886 -280.56085 
L 295.918557 -280.628886 
L 296.634228 -280.613112 
L 297.3499 -280.613112 
L 298.065571 -280.613112 
L 298.781242 -280.613112 
L 299.496914 -280.597878 
L 300.212585 -280.614519 
L 300.928257 -280.898081 
L 301.643928 -280.898081 
L 302.359599 -280.898081 
L 303.075271 -280.898081 
L 303.790942 -280.898081 
L 304.506613 -280.920583 
L 305.222285 -280.94424 
L 305.937956 -281.075737 
L 306.653627 -281.15076 
L 307.369299 -281.213192 
L 308.08497 -281.213192 
L 308.800641 -281.33929 
L 309.516313 -281.421985 
L 310.231984 -281.421985 
L 310.947655 -281.5625 
L 311.663327 -281.705291 
L 312.378998 -281.727998 
L 313.094669 -281.716114 
L 313.810341 -281.716114 
L 314.526012 -281.760267 
L 315.241683 -281.760267 
L 315.957355 -281.844593 
L 316.673026 -281.844593 
L 317.388697 -281.851605 
L 318.104369 -282.014165 
L 318.82004 -282.014165 
L 319.535711 -282.07438 
L 320.251383 -282.132253 
L 320.967054 -282.180438 
L 321.682725 -282.197324 
L 322.398397 -282.197324 
L 323.114068 -282.197324 
L 323.829739 -282.336835 
L 324.545411 -282.336835 
L 325.261082 -282.471266 
L 325.976754 -282.562845 
L 326.692425 -282.556562 
L 327.408096 -282.556562 
L 328.123768 -282.64468 
L 328.839439 -282.639752 
L 329.55511 -282.989216 
L 330.270782 -282.989216 
L 330.986453 -283.299789 
L 331.702124 -283.299789 
L 332.417796 -283.397162 
L 333.133467 -283.464047 
L 333.849138 -283.464047 
L 334.56481 -283.455371 
L 335.280481 -283.579846 
L 335.996152 -283.72581 
L 336.711824 -283.838834 
L 337.427495 -283.916555 
L 338.143166 -283.962749 
L 338.858838 -284.070799 
L 339.574509 -284.311851 
L 340.29018 -284.500574 
L 341.005852 -284.625341 
L 341.721523 -284.633675 
L 342.437194 -284.702531 
L 343.152866 -284.844365 
L 343.868537 -284.907248 
L 344.584208 -285.189545 
L 345.29988 -285.401951 
L 346.015551 -285.638422 
L 346.731222 -285.645863 
L 347.446894 -285.645863 
L 348.162565 -285.654175 
L 348.878236 -285.654175 
L 349.593908 -285.888146 
L 350.309579 -286.09419 
L 351.025251 -286.181255 
L 351.740922 -286.249918 
L 352.456593 -286.249918 
L 353.172265 -286.267274 
L 353.887936 -286.389116 
L 354.603607 -286.50757 
L 355.319279 -286.569867 
L 356.03495 -286.6723 
L 356.750621 -286.704802 
L 357.466293 -286.890012 
L 358.181964 -286.890012 
L 358.897635 -286.96519 
L 359.613307 -287.056781 
L 360.328978 -287.151214 
L 361.044649 -287.171445 
L 361.760321 -287.171445 
L 362.475992 -287.171445 
L 363.191663 -287.280812 
L 363.907335 -287.303079 
L 364.623006 -287.303079 
L 365.338677 -287.327117 
L 366.054349 -287.485215 
L 366.77002 -287.528738 
L 367.485691 -287.559743 
L 368.201363 -287.69798 
L 368.917034 -287.785481 
L 369.632705 -287.785481 
L 370.348377 -287.785481 
L 371.064048 -287.785481 
L 371.779719 -287.785481 
L 372.495391 -287.785481 
L 373.211062 -287.785481 
L 373.926733 -287.819417 
L 374.642405 -287.951315 
L 375.358076 -288.058512 
L 376.073747 -288.058512 
L 376.789419 -288.058512 
L 377.50509 -288.165443 
L 378.220762 -288.195425 
L 378.936433 -288.195425 
L 379.652104 -288.230474 
L 380.367776 -288.230474 
L 381.083447 -288.230474 
L 381.799118 -288.265074 
L 382.51479 -288.299253 
L 383.230461 -288.299253 
L 383.946132 -288.441658 
L 384.661804 -288.483388 
L 385.377475 -288.483388 
L 386.093146 -288.66042 
L 386.808818 -288.871122 
L 387.524489 -288.871122 
L 388.24016 -288.928598 
L 388.955832 -289.000225 
L 389.671503 -289.051058 
L 390.387174 -289.093651 
L 391.102846 -289.093651 
L 391.818517 -289.093651 
L 392.534188 -289.145457 
L 393.24986 -289.19362 
L 393.965531 -289.19362 
L 394.681202 -289.257035 
L 395.396874 -289.257035 
L 396.112545 -289.257035 
L 396.828216 -289.257035 
L 397.543888 -289.257035 
L 398.259559 -289.257035 
L 398.97523 -289.257035 
L 399.690902 -289.330683 
L 400.406573 -289.330683 
L 401.122244 -289.407228 
L 401.837916 -289.684727 
L 402.553587 -289.771046 
L 403.269259 -290.126257 
L 403.98493 -290.126257 
L 404.700601 -290.344083 
L 405.416273 -290.344083 
L 406.131944 -290.344083 
L 406.847615 -290.449394 
L 407.563287 -290.783073 
L 408.278958 -290.783073 
L 408.994629 -290.783073 
L 409.710301 -290.991366 
L 410.425972 -290.991366 
L 411.141643 -291.456 
L 411.857315 -291.456 
L 412.572986 -291.456 
L 413.288657 -291.456 
L 414.004329 -291.456 
L 414.72 -291.456 
L 414.72 -291.456 
L 414.72 -291.456 
L 414.004329 -291.456 
L 413.288657 -291.456 
L 412.572986 -291.456 
L 411.857315 -291.456 
L 411.141643 -291.456 
L 410.425972 -291.876171 
L 409.710301 -291.876171 
L 408.994629 -292.039207 
L 408.278958 -292.039207 
L 407.563287 -292.039207 
L 406.847615 -292.276302 
L 406.131944 -292.339374 
L 405.416273 -292.339374 
L 404.700601 -292.339374 
L 403.98493 -292.465304 
L 403.269259 -292.465304 
L 402.553587 -292.637629 
L 401.837916 -292.675674 
L 401.122244 -292.771474 
L 400.406573 -292.797833 
L 399.690902 -292.797833 
L 398.97523 -292.821295 
L 398.259559 -292.821295 
L 397.543888 -292.821295 
L 396.828216 -292.821295 
L 396.112545 -292.821295 
L 395.396874 -292.821295 
L 394.681202 -292.821295 
L 393.965531 -292.837338 
L 393.24986 -292.837338 
L 392.534188 -292.84361 
L 391.818517 -292.85134 
L 391.102846 -292.85134 
L 390.387174 -292.85134 
L 389.671503 -292.853383 
L 388.955832 -292.859359 
L 388.24016 -292.877063 
L 387.524489 -292.885327 
L 386.808818 -292.885327 
L 386.093146 -293.000838 
L 385.377475 -293.084582 
L 384.661804 -293.084582 
L 383.946132 -293.080232 
L 383.230461 -293.174362 
L 382.51479 -293.174362 
L 381.799118 -293.165218 
L 381.083447 -293.155742 
L 380.367776 -293.155742 
L 379.652104 -293.155742 
L 378.936433 -293.145934 
L 378.220762 -293.145934 
L 377.50509 -293.133676 
L 376.789419 -293.196911 
L 376.073747 -293.196911 
L 375.358076 -293.196911 
L 374.642405 -293.259644 
L 373.926733 -293.301286 
L 373.211062 -293.287403 
L 372.495391 -293.287403 
L 371.779719 -293.287403 
L 371.064048 -293.287403 
L 370.348377 -293.287403 
L 369.632705 -293.287403 
L 368.917034 -293.287403 
L 368.201363 -293.333013 
L 367.485691 -293.376945 
L 366.77002 -293.359676 
L 366.054349 -293.319133 
L 365.338677 -293.333803 
L 364.623006 -293.311338 
L 363.907335 -293.311338 
L 363.191663 -293.287941 
L 362.475992 -293.305517 
L 361.760321 -293.305517 
L 361.044649 -293.305517 
L 360.328978 -293.280084 
L 359.613307 -293.287497 
L 358.897635 -293.331717 
L 358.181964 -293.363198 
L 357.466293 -293.363198 
L 356.750621 -293.40904 
L 356.03495 -293.348106 
L 355.319279 -293.35399 
L 354.603607 -293.374046 
L 353.887936 -293.449178 
L 353.172265 -293.526557 
L 352.456593 -293.492712 
L 351.740922 -293.492712 
L 351.025251 -293.51571 
L 350.309579 -293.551576 
L 349.593908 -293.620358 
L 348.878236 -293.717671 
L 348.162565 -293.717671 
L 347.446894 -293.680317 
L 346.731222 -293.680317 
L 346.015551 -293.642501 
L 345.29988 -293.784195 
L 344.584208 -293.86105 
L 343.868537 -294.04586 
L 343.152866 -294.012116 
L 342.437194 -294.062434 
L 341.721523 -294.032719 
L 341.005852 -293.946791 
L 340.29018 -293.923377 
L 339.574509 -294.018161 
L 338.858838 -294.124531 
L 338.143166 -294.039335 
L 337.427495 -294.037255 
L 336.711824 -293.982118 
L 335.996152 -294.050679 
L 335.280481 -294.063902 
L 334.56481 -294.095235 
L 333.849138 -293.996733 
L 333.133467 -293.996733 
L 332.417796 -294.019921 
L 331.702124 -294.032341 
L 330.986453 -294.032341 
L 330.270782 -294.154553 
L 329.55511 -294.154553 
L 328.839439 -294.321624 
L 328.123768 -294.267002 
L 327.408096 -294.269348 
L 326.692425 -294.269348 
L 325.976754 -294.214326 
L 325.261082 -294.164762 
L 324.545411 -294.215937 
L 323.829739 -294.215937 
L 323.114068 -294.21827 
L 322.398397 -294.21827 
L 321.682725 -294.21827 
L 320.967054 -294.194927 
L 320.251383 -294.201222 
L 319.535711 -294.213838 
L 318.82004 -294.189039 
L 318.104369 -294.189039 
L 317.388697 -294.26538 
L 316.673026 -294.183649 
L 315.957355 -294.183649 
L 315.241683 -294.174899 
L 314.526012 -294.174899 
L 313.810341 -294.130733 
L 313.094669 -294.130733 
L 312.378998 -294.067648 
L 311.663327 -294.043422 
L 310.947655 -294.137002 
L 310.231984 -294.176622 
L 309.516313 -294.176622 
L 308.800641 -294.21406 
L 308.08497 -294.241064 
L 307.369299 -294.241064 
L 306.653627 -294.253802 
L 305.937956 -294.23495 
L 305.222285 -294.274279 
L 304.506613 -294.247751 
L 303.790942 -294.220558 
L 303.075271 -294.220558 
L 302.359599 -294.220558 
L 301.643928 -294.220558 
L 300.928257 -294.220558 
L 300.212585 -294.368261 
L 299.496914 -294.338399 
L 298.781242 -294.279088 
L 298.065571 -294.279088 
L 297.3499 -294.279088 
L 296.634228 -294.279088 
L 295.918557 -294.216812 
L 295.202886 -294.241151 
L 294.487214 -294.273035 
L 293.771543 -294.273035 
L 293.055872 -294.273035 
L 292.3402 -294.273035 
L 291.624529 -294.214747 
L 290.908858 -294.214747 
L 290.193186 -294.214747 
L 289.477515 -294.108897 
L 288.761844 -294.141975 
L 288.046172 -294.065716 
L 287.330501 -293.997405 
L 286.61483 -293.967399 
L 285.899158 -293.967399 
L 285.183487 -293.967399 
L 284.467816 -293.967399 
L 283.752144 -293.930767 
L 283.036473 -293.930767 
L 282.320802 -293.769897 
L 281.60513 -293.769897 
L 280.889459 -293.683149 
L 280.173788 -293.683149 
L 279.458116 -293.683149 
L 278.742445 -293.724102 
L 278.026774 -293.724102 
L 277.311102 -293.727721 
L 276.595431 -293.701033 
L 275.87976 -293.807272 
L 275.164088 -293.76564 
L 274.448417 -293.707902 
L 273.732745 -293.691125 
L 273.017074 -293.614356 
L 272.301403 -293.674483 
L 271.585731 -293.796698 
L 270.87006 -293.857885 
L 270.154389 -293.78785 
L 269.438717 -293.786862 
L 268.723046 -293.740322 
L 268.007375 -293.724781 
L 267.291703 -293.660551 
L 266.576032 -293.664334 
L 265.860361 -293.664334 
L 265.144689 -293.724226 
L 264.429018 -293.751936 
L 263.713347 -293.912852 
L 262.997675 -293.785884 
L 262.282004 -293.680038 
L 261.566333 -293.627785 
L 260.850661 -293.644239 
L 260.13499 -293.704797 
L 259.419319 -293.704797 
L 258.703647 -293.652514 
L 257.987976 -293.520253 
L 257.272305 -293.498192 
L 256.556633 -293.727647 
L 255.840962 -293.639786 
L 255.125291 -293.703077 
L 254.409619 -293.595965 
L 253.693948 -293.503067 
L 252.978277 -293.444132 
L 252.262605 -293.414411 
L 251.546934 -293.414411 
L 250.831263 -293.345921 
L 250.115591 -293.345921 
L 249.39992 -293.393708 
L 248.684248 -293.442676 
L 247.968577 -293.442676 
L 247.252906 -293.412909 
L 246.537234 -293.292552 
L 245.821563 -293.281584 
L 245.105892 -293.174691 
L 244.39022 -293.187025 
L 243.674549 -293.152038 
L 242.958878 -293.121685 
L 242.243206 -293.083809 
L 241.527535 -293.041764 
L 240.811864 -293.005727 
L 240.096192 -293.005727 
L 239.380521 -293.037388 
L 238.66485 -292.986756 
L 237.949178 -293.045338 
L 237.233507 -292.999291 
L 236.517836 -292.956143 
L 235.802164 -292.878668 
L 235.086493 -292.882081 
L 234.370822 -292.830517 
L 233.65515 -292.830517 
L 232.939479 -292.83277 
L 232.223808 -292.835023 
L 231.508136 -292.860832 
L 230.792465 -292.751401 
L 230.076794 -292.724496 
L 229.361122 -292.718734 
L 228.645451 -292.769481 
L 227.92978 -292.681643 
L 227.214108 -292.523204 
L 226.498437 -292.457477 
L 225.782766 -292.369821 
L 225.067094 -292.288215 
L 224.351423 -292.224749 
L 223.635752 -292.254496 
L 222.92008 -292.183931 
L 222.204409 -292.112113 
L 221.488737 -292.056604 
L 220.773066 -291.845315 
L 220.057395 -291.763467 
L 219.341723 -291.868263 
L 218.626052 -291.964938 
L 217.910381 -291.898819 
L 217.194709 -291.845092 
L 216.479038 -291.823426 
L 215.763367 -291.687233 
L 215.047695 -291.593447 
L 214.332024 -291.569725 
L 213.616353 -291.599493 
L 212.900681 -291.70624 
L 212.18501 -291.650363 
L 211.469339 -291.707352 
L 210.753667 -291.706776 
L 210.037996 -291.728516 
L 209.322325 -291.494092 
L 208.606653 -291.456614 
L 207.890982 -291.327271 
L 207.175311 -291.393874 
L 206.459639 -291.37306 
L 205.743968 -291.406053 
L 205.028297 -291.370499 
L 204.312625 -291.409316 
L 203.596954 -291.146577 
L 202.881283 -291.099429 
L 202.165611 -291.024469 
L 201.44994 -290.9349 
L 200.734269 -291.066726 
L 200.018597 -291.126966 
L 199.302926 -291.093266 
L 198.587255 -291.149324 
L 197.871583 -291.063214 
L 197.155912 -290.888087 
L 196.44024 -290.713592 
L 195.724569 -290.706167 
L 195.008898 -290.590644 
L 194.293226 -290.362956 
L 193.577555 -290.307104 
L 192.861884 -290.155194 
L 192.146212 -289.995509 
L 191.430541 -289.883385 
L 190.71487 -289.688551 
L 189.999198 -289.646884 
L 189.283527 -289.339729 
L 188.567856 -289.231301 
L 187.852184 -289.034767 
L 187.136513 -289.300276 
L 186.420842 -288.989097 
L 185.70517 -288.991708 
L 184.989499 -288.886929 
L 184.273828 -288.712709 
L 183.558156 -288.505092 
L 182.842485 -288.081394 
L 182.126814 -287.901216 
L 181.411142 -287.888424 
L 180.695471 -287.643949 
L 179.9798 -287.516575 
L 179.264128 -287.510782 
L 178.548457 -287.586724 
L 177.832786 -287.599031 
L 177.117114 -287.535889 
L 176.401443 -287.375845 
L 175.685772 -287.580908 
L 174.9701 -287.500734 
L 174.254429 -287.513417 
L 173.538758 -287.213977 
L 172.823086 -287.228492 
L 172.107415 -287.018749 
L 171.391743 -286.803383 
L 170.676072 -286.676249 
L 169.960401 -286.771373 
L 169.244729 -286.653268 
L 168.529058 -286.316757 
L 167.813387 -286.178952 
L 167.097715 -286.221782 
L 166.382044 -285.929776 
L 165.666373 -285.889468 
L 164.950701 -285.717349 
L 164.23503 -285.335698 
L 163.519359 -285.270503 
L 162.803687 -285.360943 
L 162.088016 -285.089577 
L 161.372345 -285.117846 
L 160.656673 -284.772404 
L 159.941002 -284.791533 
L 159.225331 -284.702781 
L 158.509659 -284.342436 
L 157.793988 -284.246965 
L 157.078317 -283.943197 
L 156.362645 -284.012318 
L 155.646974 -283.690573 
L 154.931303 -283.485777 
L 154.215631 -283.505028 
L 153.49996 -283.42789 
L 152.784289 -283.443604 
L 152.068617 -283.149342 
L 151.352946 -282.978238 
L 150.637275 -282.850212 
L 149.921603 -282.467087 
L 149.205932 -282.131803 
L 148.490261 -282.023704 
L 147.774589 -281.911205 
L 147.058918 -282.017141 
L 146.343246 -281.859586 
L 145.627575 -281.477749 
L 144.911904 -281.37973 
L 144.196232 -281.293181 
L 143.480561 -281.223987 
L 142.76489 -281.111458 
L 142.049218 -280.917683 
L 141.333547 -280.634084 
L 140.617876 -280.822452 
L 139.902204 -280.526071 
L 139.186533 -280.317341 
L 138.470862 -280.20709 
L 137.75519 -280.313802 
L 137.039519 -280.189136 
L 136.323848 -279.958923 
L 135.608176 -279.938732 
L 134.892505 -279.522902 
L 134.176834 -279.044343 
L 133.461162 -278.63687 
L 132.745491 -278.578308 
L 132.02982 -278.370413 
L 131.314148 -277.862934 
L 130.598477 -277.7181 
L 129.882806 -277.535727 
L 129.167134 -276.925799 
L 128.451463 -276.76856 
L 127.735792 -276.624057 
L 127.02012 -276.143514 
L 126.304449 -275.864855 
L 125.588778 -275.679986 
L 124.873106 -275.323431 
L 124.157435 -274.802984 
L 123.441764 -274.569687 
L 122.726092 -274.273641 
L 122.010421 -274.259689 
L 121.294749 -274.103477 
L 120.579078 -273.899897 
L 119.863407 -273.729162 
L 119.147735 -273.174607 
L 118.432064 -272.956811 
L 117.716393 -272.368616 
L 117.000721 -272.331822 
L 116.28505 -271.679289 
L 115.569379 -271.208355 
L 114.853707 -270.912742 
L 114.138036 -270.435115 
L 113.422365 -270.266713 
L 112.706693 -270.046494 
L 111.991022 -269.825557 
L 111.275351 -269.324227 
L 110.559679 -268.732011 
L 109.844008 -268.078181 
L 109.128337 -267.595266 
L 108.412665 -267.138058 
L 107.696994 -266.628958 
L 106.981323 -265.982925 
L 106.265651 -265.617365 
L 105.54998 -265.337924 
L 104.834309 -264.723963 
L 104.118637 -264.050461 
L 103.402966 -263.627025 
L 102.687295 -263.883805 
L 101.971623 -263.1428 
L 101.255952 -262.495211 
L 100.540281 -261.630124 
L 99.824609 -261.174424 
L 99.108938 -260.628354 
L 98.393267 -259.437627 
L 97.677595 -259.402065 
L 96.961924 -258.946695 
L 96.246253 -258.925191 
L 95.530581 -258.2668 
L 94.81491 -257.164058 
L 94.099238 -256.953791 
L 93.383567 -255.91232 
L 92.667896 -255.60945 
L 91.952224 -254.875132 
L 91.236553 -253.709179 
L 90.520882 -253.265895 
L 89.80521 -253.037019 
L 89.089539 -252.113146 
L 88.373868 -251.274138 
L 87.658196 -250.56668 
L 86.942525 -250.128424 
L 86.226854 -250.002207 
L 85.511182 -249.953431 
L 84.795511 -248.298256 
L 84.07984 -248.309234 
L 83.364168 -246.840463 
L 82.648497 -246.41359 
L 81.932826 -244.82351 
L 81.217154 -244.801598 
L 80.501483 -244.774423 
L 79.785812 -249.682321 
L 79.07014 -248.399641 
L 78.354469 -247.001644 
L 77.638798 -245.770802 
L 76.923126 -242.817175 
L 76.207455 -243.517951 
L 75.491784 -239.206174 
L 74.776112 -242.942262 
L 74.060441 -240.160808 
L 73.34477 -239.100069 
L 72.629098 -236.602936 
L 71.913427 -234.375304 
L 71.197756 -228.897327 
L 70.482084 -222.866473 
L 69.766413 -220.063646 
L 69.050741 -210.148517 
L 68.33507 -204.963895 
L 67.619399 -195.286866 
L 66.903727 -192.673334 
L 66.188056 -180.550949 
L 65.472385 -175.155671 
L 64.756713 -166.95996 
L 64.041042 -157.591848 
L 63.325371 -155.816097 
L 62.609699 -145.774308 
L 61.894028 -145.535442 
L 61.178357 -138.880874 
L 60.462685 -138.880874 
L 59.747014 -127.461109 
L 59.031343 -127.461109 
L 58.315671 -113.077123 
L 57.6 -38.016 
z
" style="stroke: #0000ff; stroke-opacity: 0.1"/>
    </defs>
    <g clip-path="url(#p49bb7b3704)">
     <use xlink:href="#md13c4b6c1c" x="0" y="345.6" style="fill: #0000ff; fill-opacity: 0.1; stroke: #0000ff; stroke-opacity: 0.1"/>
    </g>
   </g>
   <g id="matplotlib.axis_1">
    <g id="xtick_1">
     <g id="line2d_1">
      <defs>
       <path id="mfdbf8ef6c4" d="M 0 0 
L 0 3.5 
" style="stroke: #000000; stroke-width: 0.8"/>
      </defs>
      <g>
       <use xlink:href="#mfdbf8ef6c4" x="57.6" y="307.584" style="stroke: #000000; stroke-width: 0.8"/>
      </g>
     </g>
     <g id="text_1">
      <!-- 0.0 -->
      <g transform="translate(49.648438 322.182437) scale(0.1 -0.1)">
       <defs>
        <path id="DejaVuSans-30" d="M 2034 4250 
Q 1547 4250 1301 3770 
Q 1056 3291 1056 2328 
Q 1056 1369 1301 889 
Q 1547 409 2034 409 
Q 2525 409 2770 889 
Q 3016 1369 3016 2328 
Q 3016 3291 2770 3770 
Q 2525 4250 2034 4250 
z
M 2034 4750 
Q 2819 4750 3233 4129 
Q 3647 3509 3647 2328 
Q 3647 1150 3233 529 
Q 2819 -91 2034 -91 
Q 1250 -91 836 529 
Q 422 1150 422 2328 
Q 422 3509 836 4129 
Q 1250 4750 2034 4750 
z
" transform="scale(0.015625)"/>
        <path id="DejaVuSans-2e" d="M 684 794 
L 1344 794 
L 1344 0 
L 684 0 
L 684 794 
z
" transform="scale(0.015625)"/>
       </defs>
       <use xlink:href="#DejaVuSans-30"/>
       <use xlink:href="#DejaVuSans-2e" x="63.623047"/>
       <use xlink:href="#DejaVuSans-30" x="95.410156"/>
      </g>
     </g>
    </g>
    <g id="xtick_2">
     <g id="line2d_2">
      <g>
       <use xlink:href="#mfdbf8ef6c4" x="129.024" y="307.584" style="stroke: #000000; stroke-width: 0.8"/>
      </g>
     </g>
     <g id="text_2">
      <!-- 0.2 -->
      <g transform="translate(121.072438 322.182437) scale(0.1 -0.1)">
       <defs>
        <path id="DejaVuSans-32" d="M 1228 531 
L 3431 531 
L 3431 0 
L 469 0 
L 469 531 
Q 828 903 1448 1529 
Q 2069 2156 2228 2338 
Q 2531 2678 2651 2914 
Q 2772 3150 2772 3378 
Q 2772 3750 2511 3984 
Q 2250 4219 1831 4219 
Q 1534 4219 1204 4116 
Q 875 4013 500 3803 
L 500 4441 
Q 881 4594 1212 4672 
Q 1544 4750 1819 4750 
Q 2544 4750 2975 4387 
Q 3406 4025 3406 3419 
Q 3406 3131 3298 2873 
Q 3191 2616 2906 2266 
Q 2828 2175 2409 1742 
Q 1991 1309 1228 531 
z
" transform="scale(0.015625)"/>
       </defs>
       <use xlink:href="#DejaVuSans-30"/>
       <use xlink:href="#DejaVuSans-2e" x="63.623047"/>
       <use xlink:href="#DejaVuSans-32" x="95.410156"/>
      </g>
     </g>
    </g>
    <g id="xtick_3">
     <g id="line2d_3">
      <g>
       <use xlink:href="#mfdbf8ef6c4" x="200.448" y="307.584" style="stroke: #000000; stroke-width: 0.8"/>
      </g>
     </g>
     <g id="text_3">
      <!-- 0.4 -->
      <g transform="translate(192.496438 322.182437) scale(0.1 -0.1)">
       <defs>
        <path id="DejaVuSans-34" d="M 2419 4116 
L 825 1625 
L 2419 1625 
L 2419 4116 
z
M 2253 4666 
L 3047 4666 
L 3047 1625 
L 3713 1625 
L 3713 1100 
L 3047 1100 
L 3047 0 
L 2419 0 
L 2419 1100 
L 313 1100 
L 313 1709 
L 2253 4666 
z
" transform="scale(0.015625)"/>
       </defs>
       <use xlink:href="#DejaVuSans-30"/>
       <use xlink:href="#DejaVuSans-2e" x="63.623047"/>
       <use xlink:href="#DejaVuSans-34" x="95.410156"/>
      </g>
     </g>
    </g>
    <g id="xtick_4">
     <g id="line2d_4">
      <g>
       <use xlink:href="#mfdbf8ef6c4" x="271.872" y="307.584" style="stroke: #000000; stroke-width: 0.8"/>
      </g>
     </g>
     <g id="text_4">
      <!-- 0.6 -->
      <g transform="translate(263.920438 322.182437) scale(0.1 -0.1)">
       <defs>
        <path id="DejaVuSans-36" d="M 2113 2584 
Q 1688 2584 1439 2293 
Q 1191 2003 1191 1497 
Q 1191 994 1439 701 
Q 1688 409 2113 409 
Q 2538 409 2786 701 
Q 3034 994 3034 1497 
Q 3034 2003 2786 2293 
Q 2538 2584 2113 2584 
z
M 3366 4563 
L 3366 3988 
Q 3128 4100 2886 4159 
Q 2644 4219 2406 4219 
Q 1781 4219 1451 3797 
Q 1122 3375 1075 2522 
Q 1259 2794 1537 2939 
Q 1816 3084 2150 3084 
Q 2853 3084 3261 2657 
Q 3669 2231 3669 1497 
Q 3669 778 3244 343 
Q 2819 -91 2113 -91 
Q 1303 -91 875 529 
Q 447 1150 447 2328 
Q 447 3434 972 4092 
Q 1497 4750 2381 4750 
Q 2619 4750 2861 4703 
Q 3103 4656 3366 4563 
z
" transform="scale(0.015625)"/>
       </defs>
       <use xlink:href="#DejaVuSans-30"/>
       <use xlink:href="#DejaVuSans-2e" x="63.623047"/>
       <use xlink:href="#DejaVuSans-36" x="95.410156"/>
      </g>
     </g>
    </g>
    <g id="xtick_5">
     <g id="line2d_5">
      <g>
       <use xlink:href="#mfdbf8ef6c4" x="343.296" y="307.584" style="stroke: #000000; stroke-width: 0.8"/>
      </g>
     </g>
     <g id="text_5">
      <!-- 0.8 -->
      <g transform="translate(335.344438 322.182437) scale(0.1 -0.1)">
       <defs>
        <path id="DejaVuSans-38" d="M 2034 2216 
Q 1584 2216 1326 1975 
Q 1069 1734 1069 1313 
Q 1069 891 1326 650 
Q 1584 409 2034 409 
Q 2484 409 2743 651 
Q 3003 894 3003 1313 
Q 3003 1734 2745 1975 
Q 2488 2216 2034 2216 
z
M 1403 2484 
Q 997 2584 770 2862 
Q 544 3141 544 3541 
Q 544 4100 942 4425 
Q 1341 4750 2034 4750 
Q 2731 4750 3128 4425 
Q 3525 4100 3525 3541 
Q 3525 3141 3298 2862 
Q 3072 2584 2669 2484 
Q 3125 2378 3379 2068 
Q 3634 1759 3634 1313 
Q 3634 634 3220 271 
Q 2806 -91 2034 -91 
Q 1263 -91 848 271 
Q 434 634 434 1313 
Q 434 1759 690 2068 
Q 947 2378 1403 2484 
z
M 1172 3481 
Q 1172 3119 1398 2916 
Q 1625 2713 2034 2713 
Q 2441 2713 2670 2916 
Q 2900 3119 2900 3481 
Q 2900 3844 2670 4047 
Q 2441 4250 2034 4250 
Q 1625 4250 1398 4047 
Q 1172 3844 1172 3481 
z
" transform="scale(0.015625)"/>
       </defs>
       <use xlink:href="#DejaVuSans-30"/>
       <use xlink:href="#DejaVuSans-2e" x="63.623047"/>
       <use xlink:href="#DejaVuSans-38" x="95.410156"/>
      </g>
     </g>
    </g>
    <g id="xtick_6">
     <g id="line2d_6">
      <g>
       <use xlink:href="#mfdbf8ef6c4" x="414.72" y="307.584" style="stroke: #000000; stroke-width: 0.8"/>
      </g>
     </g>
     <g id="text_6">
      <!-- 1.0 -->
      <g transform="translate(406.768438 322.182437) scale(0.1 -0.1)">
       <defs>
        <path id="DejaVuSans-31" d="M 794 531 
L 1825 531 
L 1825 4091 
L 703 3866 
L 703 4441 
L 1819 4666 
L 2450 4666 
L 2450 531 
L 3481 531 
L 3481 0 
L 794 0 
L 794 531 
z
" transform="scale(0.015625)"/>
       </defs>
       <use xlink:href="#DejaVuSans-31"/>
       <use xlink:href="#DejaVuSans-2e" x="63.623047"/>
       <use xlink:href="#DejaVuSans-30" x="95.410156"/>
      </g>
     </g>
    </g>
    <g id="text_7">
     <!-- False Positive Rate -->
     <g transform="translate(189.693594 335.860562) scale(0.1 -0.1)">
      <defs>
       <path id="DejaVuSans-46" d="M 628 4666 
L 3309 4666 
L 3309 4134 
L 1259 4134 
L 1259 2759 
L 3109 2759 
L 3109 2228 
L 1259 2228 
L 1259 0 
L 628 0 
L 628 4666 
z
" transform="scale(0.015625)"/>
       <path id="DejaVuSans-61" d="M 2194 1759 
Q 1497 1759 1228 1600 
Q 959 1441 959 1056 
Q 959 750 1161 570 
Q 1363 391 1709 391 
Q 2188 391 2477 730 
Q 2766 1069 2766 1631 
L 2766 1759 
L 2194 1759 
z
M 3341 1997 
L 3341 0 
L 2766 0 
L 2766 531 
Q 2569 213 2275 61 
Q 1981 -91 1556 -91 
Q 1019 -91 701 211 
Q 384 513 384 1019 
Q 384 1609 779 1909 
Q 1175 2209 1959 2209 
L 2766 2209 
L 2766 2266 
Q 2766 2663 2505 2880 
Q 2244 3097 1772 3097 
Q 1472 3097 1187 3025 
Q 903 2953 641 2809 
L 641 3341 
Q 956 3463 1253 3523 
Q 1550 3584 1831 3584 
Q 2591 3584 2966 3190 
Q 3341 2797 3341 1997 
z
" transform="scale(0.015625)"/>
       <path id="DejaVuSans-6c" d="M 603 4863 
L 1178 4863 
L 1178 0 
L 603 0 
L 603 4863 
z
" transform="scale(0.015625)"/>
       <path id="DejaVuSans-73" d="M 2834 3397 
L 2834 2853 
Q 2591 2978 2328 3040 
Q 2066 3103 1784 3103 
Q 1356 3103 1142 2972 
Q 928 2841 928 2578 
Q 928 2378 1081 2264 
Q 1234 2150 1697 2047 
L 1894 2003 
Q 2506 1872 2764 1633 
Q 3022 1394 3022 966 
Q 3022 478 2636 193 
Q 2250 -91 1575 -91 
Q 1294 -91 989 -36 
Q 684 19 347 128 
L 347 722 
Q 666 556 975 473 
Q 1284 391 1588 391 
Q 1994 391 2212 530 
Q 2431 669 2431 922 
Q 2431 1156 2273 1281 
Q 2116 1406 1581 1522 
L 1381 1569 
Q 847 1681 609 1914 
Q 372 2147 372 2553 
Q 372 3047 722 3315 
Q 1072 3584 1716 3584 
Q 2034 3584 2315 3537 
Q 2597 3491 2834 3397 
z
" transform="scale(0.015625)"/>
       <path id="DejaVuSans-65" d="M 3597 1894 
L 3597 1613 
L 953 1613 
Q 991 1019 1311 708 
Q 1631 397 2203 397 
Q 2534 397 2845 478 
Q 3156 559 3463 722 
L 3463 178 
Q 3153 47 2828 -22 
Q 2503 -91 2169 -91 
Q 1331 -91 842 396 
Q 353 884 353 1716 
Q 353 2575 817 3079 
Q 1281 3584 2069 3584 
Q 2775 3584 3186 3129 
Q 3597 2675 3597 1894 
z
M 3022 2063 
Q 3016 2534 2758 2815 
Q 2500 3097 2075 3097 
Q 1594 3097 1305 2825 
Q 1016 2553 972 2059 
L 3022 2063 
z
" transform="scale(0.015625)"/>
       <path id="DejaVuSans-20" transform="scale(0.015625)"/>
       <path id="DejaVuSans-50" d="M 1259 4147 
L 1259 2394 
L 2053 2394 
Q 2494 2394 2734 2622 
Q 2975 2850 2975 3272 
Q 2975 3691 2734 3919 
Q 2494 4147 2053 4147 
L 1259 4147 
z
M 628 4666 
L 2053 4666 
Q 2838 4666 3239 4311 
Q 3641 3956 3641 3272 
Q 3641 2581 3239 2228 
Q 2838 1875 2053 1875 
L 1259 1875 
L 1259 0 
L 628 0 
L 628 4666 
z
" transform="scale(0.015625)"/>
       <path id="DejaVuSans-6f" d="M 1959 3097 
Q 1497 3097 1228 2736 
Q 959 2375 959 1747 
Q 959 1119 1226 758 
Q 1494 397 1959 397 
Q 2419 397 2687 759 
Q 2956 1122 2956 1747 
Q 2956 2369 2687 2733 
Q 2419 3097 1959 3097 
z
M 1959 3584 
Q 2709 3584 3137 3096 
Q 3566 2609 3566 1747 
Q 3566 888 3137 398 
Q 2709 -91 1959 -91 
Q 1206 -91 779 398 
Q 353 888 353 1747 
Q 353 2609 779 3096 
Q 1206 3584 1959 3584 
z
" transform="scale(0.015625)"/>
       <path id="DejaVuSans-69" d="M 603 3500 
L 1178 3500 
L 1178 0 
L 603 0 
L 603 3500 
z
M 603 4863 
L 1178 4863 
L 1178 4134 
L 603 4134 
L 603 4863 
z
" transform="scale(0.015625)"/>
       <path id="DejaVuSans-74" d="M 1172 4494 
L 1172 3500 
L 2356 3500 
L 2356 3053 
L 1172 3053 
L 1172 1153 
Q 1172 725 1289 603 
Q 1406 481 1766 481 
L 2356 481 
L 2356 0 
L 1766 0 
Q 1100 0 847 248 
Q 594 497 594 1153 
L 594 3053 
L 172 3053 
L 172 3500 
L 594 3500 
L 594 4494 
L 1172 4494 
z
" transform="scale(0.015625)"/>
       <path id="DejaVuSans-76" d="M 191 3500 
L 800 3500 
L 1894 563 
L 2988 3500 
L 3597 3500 
L 2284 0 
L 1503 0 
L 191 3500 
z
" transform="scale(0.015625)"/>
       <path id="DejaVuSans-52" d="M 2841 2188 
Q 3044 2119 3236 1894 
Q 3428 1669 3622 1275 
L 4263 0 
L 3584 0 
L 2988 1197 
Q 2756 1666 2539 1819 
Q 2322 1972 1947 1972 
L 1259 1972 
L 1259 0 
L 628 0 
L 628 4666 
L 2053 4666 
Q 2853 4666 3247 4331 
Q 3641 3997 3641 3322 
Q 3641 2881 3436 2590 
Q 3231 2300 2841 2188 
z
M 1259 4147 
L 1259 2491 
L 2053 2491 
Q 2509 2491 2742 2702 
Q 2975 2913 2975 3322 
Q 2975 3731 2742 3939 
Q 2509 4147 2053 4147 
L 1259 4147 
z
" transform="scale(0.015625)"/>
      </defs>
      <use xlink:href="#DejaVuSans-46"/>
      <use xlink:href="#DejaVuSans-61" x="48.394531"/>
      <use xlink:href="#DejaVuSans-6c" x="109.673828"/>
      <use xlink:href="#DejaVuSans-73" x="137.457031"/>
      <use xlink:href="#DejaVuSans-65" x="189.556641"/>
      <use xlink:href="#DejaVuSans-20" x="251.080078"/>
      <use xlink:href="#DejaVuSans-50" x="282.867188"/>
      <use xlink:href="#DejaVuSans-6f" x="339.544922"/>
      <use xlink:href="#DejaVuSans-73" x="400.726562"/>
      <use xlink:href="#DejaVuSans-69" x="452.826172"/>
      <use xlink:href="#DejaVuSans-74" x="480.609375"/>
      <use xlink:href="#DejaVuSans-69" x="519.818359"/>
      <use xlink:href="#DejaVuSans-76" x="547.601562"/>
      <use xlink:href="#DejaVuSans-65" x="606.78125"/>
      <use xlink:href="#DejaVuSans-20" x="668.304688"/>
      <use xlink:href="#DejaVuSans-52" x="700.091797"/>
      <use xlink:href="#DejaVuSans-61" x="767.324219"/>
      <use xlink:href="#DejaVuSans-74" x="828.603516"/>
      <use xlink:href="#DejaVuSans-65" x="867.8125"/>
     </g>
    </g>
   </g>
   <g id="matplotlib.axis_2">
    <g id="ytick_1">
     <g id="line2d_7">
      <defs>
       <path id="mca49811aba" d="M 0 0 
L -3.5 0 
" style="stroke: #000000; stroke-width: 0.8"/>
      </defs>
      <g>
       <use xlink:href="#mca49811aba" x="57.6" y="307.584" style="stroke: #000000; stroke-width: 0.8"/>
      </g>
     </g>
     <g id="text_8">
      <!-- 0.0 -->
      <g transform="translate(34.696875 311.383219) scale(0.1 -0.1)">
       <use xlink:href="#DejaVuSans-30"/>
       <use xlink:href="#DejaVuSans-2e" x="63.623047"/>
       <use xlink:href="#DejaVuSans-30" x="95.410156"/>
      </g>
     </g>
    </g>
    <g id="ytick_2">
     <g id="line2d_8">
      <g>
       <use xlink:href="#mca49811aba" x="57.6" y="256.896" style="stroke: #000000; stroke-width: 0.8"/>
      </g>
     </g>
     <g id="text_9">
      <!-- 0.2 -->
      <g transform="translate(34.696875 260.695219) scale(0.1 -0.1)">
       <use xlink:href="#DejaVuSans-30"/>
       <use xlink:href="#DejaVuSans-2e" x="63.623047"/>
       <use xlink:href="#DejaVuSans-32" x="95.410156"/>
      </g>
     </g>
    </g>
    <g id="ytick_3">
     <g id="line2d_9">
      <g>
       <use xlink:href="#mca49811aba" x="57.6" y="206.208" style="stroke: #000000; stroke-width: 0.8"/>
      </g>
     </g>
     <g id="text_10">
      <!-- 0.4 -->
      <g transform="translate(34.696875 210.007219) scale(0.1 -0.1)">
       <use xlink:href="#DejaVuSans-30"/>
       <use xlink:href="#DejaVuSans-2e" x="63.623047"/>
       <use xlink:href="#DejaVuSans-34" x="95.410156"/>
      </g>
     </g>
    </g>
    <g id="ytick_4">
     <g id="line2d_10">
      <g>
       <use xlink:href="#mca49811aba" x="57.6" y="155.52" style="stroke: #000000; stroke-width: 0.8"/>
      </g>
     </g>
     <g id="text_11">
      <!-- 0.6 -->
      <g transform="translate(34.696875 159.319219) scale(0.1 -0.1)">
       <use xlink:href="#DejaVuSans-30"/>
       <use xlink:href="#DejaVuSans-2e" x="63.623047"/>
       <use xlink:href="#DejaVuSans-36" x="95.410156"/>
      </g>
     </g>
    </g>
    <g id="ytick_5">
     <g id="line2d_11">
      <g>
       <use xlink:href="#mca49811aba" x="57.6" y="104.832" style="stroke: #000000; stroke-width: 0.8"/>
      </g>
     </g>
     <g id="text_12">
      <!-- 0.8 -->
      <g transform="translate(34.696875 108.631219) scale(0.1 -0.1)">
       <use xlink:href="#DejaVuSans-30"/>
       <use xlink:href="#DejaVuSans-2e" x="63.623047"/>
       <use xlink:href="#DejaVuSans-38" x="95.410156"/>
      </g>
     </g>
    </g>
    <g id="ytick_6">
     <g id="line2d_12">
      <g>
       <use xlink:href="#mca49811aba" x="57.6" y="54.144" style="stroke: #000000; stroke-width: 0.8"/>
      </g>
     </g>
     <g id="text_13">
      <!-- 1.0 -->
      <g transform="translate(34.696875 57.943219) scale(0.1 -0.1)">
       <use xlink:href="#DejaVuSans-31"/>
       <use xlink:href="#DejaVuSans-2e" x="63.623047"/>
       <use xlink:href="#DejaVuSans-30" x="95.410156"/>
      </g>
     </g>
    </g>
    <g id="text_14">
     <!-- True Positive Rate -->
     <g transform="translate(28.617187 219.057687) rotate(-90) scale(0.1 -0.1)">
      <defs>
       <path id="DejaVuSans-54" d="M -19 4666 
L 3928 4666 
L 3928 4134 
L 2272 4134 
L 2272 0 
L 1638 0 
L 1638 4134 
L -19 4134 
L -19 4666 
z
" transform="scale(0.015625)"/>
       <path id="DejaVuSans-72" d="M 2631 2963 
Q 2534 3019 2420 3045 
Q 2306 3072 2169 3072 
Q 1681 3072 1420 2755 
Q 1159 2438 1159 1844 
L 1159 0 
L 581 0 
L 581 3500 
L 1159 3500 
L 1159 2956 
Q 1341 3275 1631 3429 
Q 1922 3584 2338 3584 
Q 2397 3584 2469 3576 
Q 2541 3569 2628 3553 
L 2631 2963 
z
" transform="scale(0.015625)"/>
       <path id="DejaVuSans-75" d="M 544 1381 
L 544 3500 
L 1119 3500 
L 1119 1403 
Q 1119 906 1312 657 
Q 1506 409 1894 409 
Q 2359 409 2629 706 
Q 2900 1003 2900 1516 
L 2900 3500 
L 3475 3500 
L 3475 0 
L 2900 0 
L 2900 538 
Q 2691 219 2414 64 
Q 2138 -91 1772 -91 
Q 1169 -91 856 284 
Q 544 659 544 1381 
z
M 1991 3584 
L 1991 3584 
z
" transform="scale(0.015625)"/>
      </defs>
      <use xlink:href="#DejaVuSans-54"/>
      <use xlink:href="#DejaVuSans-72" x="46.333984"/>
      <use xlink:href="#DejaVuSans-75" x="87.447266"/>
      <use xlink:href="#DejaVuSans-65" x="150.826172"/>
      <use xlink:href="#DejaVuSans-20" x="212.349609"/>
      <use xlink:href="#DejaVuSans-50" x="244.136719"/>
      <use xlink:href="#DejaVuSans-6f" x="300.814453"/>
      <use xlink:href="#DejaVuSans-73" x="361.996094"/>
      <use xlink:href="#DejaVuSans-69" x="414.095703"/>
      <use xlink:href="#DejaVuSans-74" x="441.878906"/>
      <use xlink:href="#DejaVuSans-69" x="481.087891"/>
      <use xlink:href="#DejaVuSans-76" x="508.871094"/>
      <use xlink:href="#DejaVuSans-65" x="568.050781"/>
      <use xlink:href="#DejaVuSans-20" x="629.574219"/>
      <use xlink:href="#DejaVuSans-52" x="661.361328"/>
      <use xlink:href="#DejaVuSans-61" x="728.59375"/>
      <use xlink:href="#DejaVuSans-74" x="789.873047"/>
      <use xlink:href="#DejaVuSans-65" x="829.082031"/>
     </g>
    </g>
   </g>
   <g id="line2d_13">
    <path d="M 57.6 307.584 
L 58.315671 263.453539 
L 59.031343 253.296504 
L 59.747014 253.296504 
L 60.462685 245.650112 
L 61.178357 245.650112 
L 61.894028 241.515744 
L 62.609699 241.380935 
L 63.325371 236.142722 
L 64.041042 234.56282 
L 65.472385 224.722263 
L 66.188056 221.776958 
L 66.903727 214.232195 
L 67.619399 212.374897 
L 68.33507 205.746037 
L 69.050741 201.643565 
L 69.766413 192.970878 
L 70.482084 189.364535 
L 71.197756 180.120254 
L 73.34477 164.785126 
L 76.207455 148.009463 
L 78.354469 139.855623 
L 79.07014 137.33191 
L 79.785812 135.386301 
L 80.501483 132.154589 
L 81.217154 130.687271 
L 81.932826 128.875439 
L 85.511182 121.889726 
L 86.942525 119.134127 
L 87.658196 118.186868 
L 88.373868 117.025112 
L 89.089539 116.396222 
L 89.80521 114.861051 
L 91.236553 112.970881 
L 93.383567 110.361727 
L 94.099238 109.447138 
L 94.81491 108.794382 
L 95.530581 107.592787 
L 96.246253 106.669019 
L 96.961924 106.317939 
L 99.824609 103.820215 
L 101.971623 102.298947 
L 102.687295 101.950719 
L 103.402966 101.403463 
L 104.118637 101.100254 
L 104.834309 100.521201 
L 105.54998 100.172724 
L 106.981323 99.048439 
L 107.696994 98.448371 
L 109.128337 97.7757 
L 111.991022 95.460104 
L 113.422365 94.491146 
L 114.138036 94.376718 
L 114.853707 93.910019 
L 115.569379 93.664922 
L 117.000721 92.875056 
L 118.432064 92.161149 
L 119.863407 91.438413 
L 120.579078 91.130093 
L 121.294749 90.947087 
L 122.726092 90.096235 
L 124.873106 89.167086 
L 125.588778 88.605086 
L 126.304449 88.423188 
L 130.598477 86.414218 
L 132.745491 85.751619 
L 136.323848 84.17837 
L 137.039519 84.015866 
L 138.470862 83.349024 
L 139.186533 83.283828 
L 142.76489 82.069598 
L 144.196232 81.727485 
L 145.627575 81.1784 
L 147.058918 80.716803 
L 147.774589 80.421324 
L 148.490261 80.280277 
L 149.205932 79.985188 
L 153.49996 79.085456 
L 156.362645 78.230304 
L 157.793988 77.648907 
L 160.656673 77.113212 
L 162.803687 76.285113 
L 164.950701 75.827696 
L 168.529058 74.793707 
L 170.676072 73.979217 
L 172.823086 73.308195 
L 174.254429 73.04926 
L 174.9701 72.842922 
L 175.685772 72.77895 
L 177.117114 72.414734 
L 177.832786 72.320412 
L 179.264128 71.92541 
L 180.695471 71.719168 
L 182.842485 71.296676 
L 183.558156 70.835608 
L 188.567856 69.802052 
L 189.999198 69.283751 
L 194.293226 68.517487 
L 196.44024 68.061552 
L 197.155912 67.986996 
L 197.871583 67.763682 
L 200.018597 67.373665 
L 201.44994 67.123693 
L 202.881283 66.963289 
L 203.596954 66.710077 
L 205.028297 66.48939 
L 207.890982 66.257546 
L 210.753667 65.57647 
L 217.194709 64.286415 
L 221.488737 63.625862 
L 222.92008 63.537671 
L 227.214108 62.940432 
L 228.645451 62.581465 
L 230.076794 62.445984 
L 233.65515 62.214791 
L 235.086493 62.16992 
L 239.380521 61.849428 
L 245.105892 61.46037 
L 247.968577 61.11836 
L 249.39992 61.048559 
L 250.831263 60.95144 
L 256.556633 60.521389 
L 257.987976 60.267111 
L 281.60513 58.779274 
L 282.320802 58.779274 
L 283.036473 58.665654 
L 286.61483 58.641968 
L 289.477515 58.388963 
L 293.055872 58.222251 
L 299.496914 58.131862 
L 328.839439 57.119312 
L 330.986453 56.933935 
L 334.56481 56.824697 
L 344.584208 56.074703 
L 346.731222 55.93691 
L 349.593908 55.845748 
L 351.740922 55.728685 
L 355.319279 55.638072 
L 361.044649 55.361519 
L 365.338677 55.26954 
L 368.201363 55.084503 
L 372.495391 55.063558 
L 376.789419 54.972289 
L 391.102846 54.627505 
L 400.406573 54.535742 
L 402.553587 54.395662 
L 403.98493 54.30422 
L 406.131944 54.258272 
L 413.288657 54.144 
L 414.72 54.144 
L 414.72 54.144 
" clip-path="url(#p49bb7b3704)" style="fill: none; stroke: #1f77b4; stroke-width: 1.5; stroke-linecap: square"/>
   </g>
   <g id="line2d_14">
    <path d="M 57.6 307.584 
L 414.72 54.144 
" clip-path="url(#p49bb7b3704)" style="fill: none; stroke-dasharray: 2,3.3; stroke-dashoffset: 0; stroke: #000000; stroke-width: 2"/>
   </g>
   <g id="patch_3">
    <path d="M 57.6 307.584 
L 57.6 41.472 
" style="fill: none; stroke: #000000; stroke-width: 0.8; stroke-linejoin: miter; stroke-linecap: square"/>
   </g>
   <g id="patch_4">
    <path d="M 414.72 307.584 
L 414.72 41.472 
" style="fill: none; stroke: #000000; stroke-width: 0.8; stroke-linejoin: miter; stroke-linecap: square"/>
   </g>
   <g id="patch_5">
    <path d="M 57.6 307.584 
L 414.72 307.584 
" style="fill: none; stroke: #000000; stroke-width: 0.8; stroke-linejoin: miter; stroke-linecap: square"/>
   </g>
   <g id="patch_6">
    <path d="M 57.6 41.472 
L 414.72 41.472 
" style="fill: none; stroke: #000000; stroke-width: 0.8; stroke-linejoin: miter; stroke-linecap: square"/>
   </g>
   <g id="text_15">
    <!-- ROC -->
    <g transform="translate(223.078125 35.472) scale(0.12 -0.12)">
     <defs>
      <path id="DejaVuSans-4f" d="M 2522 4238 
Q 1834 4238 1429 3725 
Q 1025 3213 1025 2328 
Q 1025 1447 1429 934 
Q 1834 422 2522 422 
Q 3209 422 3611 934 
Q 4013 1447 4013 2328 
Q 4013 3213 3611 3725 
Q 3209 4238 2522 4238 
z
M 2522 4750 
Q 3503 4750 4090 4092 
Q 4678 3434 4678 2328 
Q 4678 1225 4090 567 
Q 3503 -91 2522 -91 
Q 1538 -91 948 565 
Q 359 1222 359 2328 
Q 359 3434 948 4092 
Q 1538 4750 2522 4750 
z
" transform="scale(0.015625)"/>
      <path id="DejaVuSans-43" d="M 4122 4306 
L 4122 3641 
Q 3803 3938 3442 4084 
Q 3081 4231 2675 4231 
Q 1875 4231 1450 3742 
Q 1025 3253 1025 2328 
Q 1025 1406 1450 917 
Q 1875 428 2675 428 
Q 3081 428 3442 575 
Q 3803 722 4122 1019 
L 4122 359 
Q 3791 134 3420 21 
Q 3050 -91 2638 -91 
Q 1578 -91 968 557 
Q 359 1206 359 2328 
Q 359 3453 968 4101 
Q 1578 4750 2638 4750 
Q 3056 4750 3426 4639 
Q 3797 4528 4122 4306 
z
" transform="scale(0.015625)"/>
     </defs>
     <use xlink:href="#DejaVuSans-52"/>
     <use xlink:href="#DejaVuSans-4f" x="69.482422"/>
     <use xlink:href="#DejaVuSans-43" x="148.193359"/>
    </g>
   </g>
   <g id="legend_1">
    <g id="patch_7">
     <path d="M 254.109062 302.584 
L 407.72 302.584 
Q 409.72 302.584 409.72 300.584 
L 409.72 286.905875 
Q 409.72 284.905875 407.72 284.905875 
L 254.109062 284.905875 
Q 252.109062 284.905875 252.109062 286.905875 
L 252.109062 300.584 
Q 252.109062 302.584 254.109062 302.584 
z
" style="fill: #ffffff; opacity: 0.8; stroke: #cccccc; stroke-linejoin: miter"/>
    </g>
    <g id="line2d_15">
     <path d="M 256.109062 293.004312 
L 266.109062 293.004312 
L 276.109062 293.004312 
" style="fill: none; stroke: #1f77b4; stroke-width: 1.5; stroke-linecap: square"/>
    </g>
    <g id="text_16">
     <!-- auROC = 0.91 +/- 0.033 -->
     <g transform="translate(284.109062 296.504312) scale(0.1 -0.1)">
      <defs>
       <path id="DejaVuSans-3d" d="M 678 2906 
L 4684 2906 
L 4684 2381 
L 678 2381 
L 678 2906 
z
M 678 1631 
L 4684 1631 
L 4684 1100 
L 678 1100 
L 678 1631 
z
" transform="scale(0.015625)"/>
       <path id="DejaVuSans-39" d="M 703 97 
L 703 672 
Q 941 559 1184 500 
Q 1428 441 1663 441 
Q 2288 441 2617 861 
Q 2947 1281 2994 2138 
Q 2813 1869 2534 1725 
Q 2256 1581 1919 1581 
Q 1219 1581 811 2004 
Q 403 2428 403 3163 
Q 403 3881 828 4315 
Q 1253 4750 1959 4750 
Q 2769 4750 3195 4129 
Q 3622 3509 3622 2328 
Q 3622 1225 3098 567 
Q 2575 -91 1691 -91 
Q 1453 -91 1209 -44 
Q 966 3 703 97 
z
M 1959 2075 
Q 2384 2075 2632 2365 
Q 2881 2656 2881 3163 
Q 2881 3666 2632 3958 
Q 2384 4250 1959 4250 
Q 1534 4250 1286 3958 
Q 1038 3666 1038 3163 
Q 1038 2656 1286 2365 
Q 1534 2075 1959 2075 
z
" transform="scale(0.015625)"/>
       <path id="DejaVuSans-2b" d="M 2944 4013 
L 2944 2272 
L 4684 2272 
L 4684 1741 
L 2944 1741 
L 2944 0 
L 2419 0 
L 2419 1741 
L 678 1741 
L 678 2272 
L 2419 2272 
L 2419 4013 
L 2944 4013 
z
" transform="scale(0.015625)"/>
       <path id="DejaVuSans-2f" d="M 1625 4666 
L 2156 4666 
L 531 -594 
L 0 -594 
L 1625 4666 
z
" transform="scale(0.015625)"/>
       <path id="DejaVuSans-2d" d="M 313 2009 
L 1997 2009 
L 1997 1497 
L 313 1497 
L 313 2009 
z
" transform="scale(0.015625)"/>
       <path id="DejaVuSans-33" d="M 2597 2516 
Q 3050 2419 3304 2112 
Q 3559 1806 3559 1356 
Q 3559 666 3084 287 
Q 2609 -91 1734 -91 
Q 1441 -91 1130 -33 
Q 819 25 488 141 
L 488 750 
Q 750 597 1062 519 
Q 1375 441 1716 441 
Q 2309 441 2620 675 
Q 2931 909 2931 1356 
Q 2931 1769 2642 2001 
Q 2353 2234 1838 2234 
L 1294 2234 
L 1294 2753 
L 1863 2753 
Q 2328 2753 2575 2939 
Q 2822 3125 2822 3475 
Q 2822 3834 2567 4026 
Q 2313 4219 1838 4219 
Q 1578 4219 1281 4162 
Q 984 4106 628 3988 
L 628 4550 
Q 988 4650 1302 4700 
Q 1616 4750 1894 4750 
Q 2613 4750 3031 4423 
Q 3450 4097 3450 3541 
Q 3450 3153 3228 2886 
Q 3006 2619 2597 2516 
z
" transform="scale(0.015625)"/>
      </defs>
      <use xlink:href="#DejaVuSans-61"/>
      <use xlink:href="#DejaVuSans-75" x="61.279297"/>
      <use xlink:href="#DejaVuSans-52" x="124.658203"/>
      <use xlink:href="#DejaVuSans-4f" x="194.140625"/>
      <use xlink:href="#DejaVuSans-43" x="272.851562"/>
      <use xlink:href="#DejaVuSans-20" x="342.675781"/>
      <use xlink:href="#DejaVuSans-3d" x="374.462891"/>
      <use xlink:href="#DejaVuSans-20" x="458.251953"/>
      <use xlink:href="#DejaVuSans-30" x="490.039062"/>
      <use xlink:href="#DejaVuSans-2e" x="553.662109"/>
      <use xlink:href="#DejaVuSans-39" x="585.449219"/>
      <use xlink:href="#DejaVuSans-31" x="649.072266"/>
      <use xlink:href="#DejaVuSans-20" x="712.695312"/>
      <use xlink:href="#DejaVuSans-2b" x="744.482422"/>
      <use xlink:href="#DejaVuSans-2f" x="828.271484"/>
      <use xlink:href="#DejaVuSans-2d" x="861.962891"/>
      <use xlink:href="#DejaVuSans-20" x="898.046875"/>
      <use xlink:href="#DejaVuSans-30" x="929.833984"/>
      <use xlink:href="#DejaVuSans-2e" x="993.457031"/>
      <use xlink:href="#DejaVuSans-30" x="1025.244141"/>
      <use xlink:href="#DejaVuSans-33" x="1088.867188"/>
      <use xlink:href="#DejaVuSans-33" x="1152.490234"/>
     </g>
    </g>
   </g>
  </g>
 </g>
 <defs>
  <clipPath id="p49bb7b3704">
   <rect x="57.6" y="41.472" width="357.12" height="266.112"/>
  </clipPath>
 </defs>
</svg>
