<?xml version="1.0" encoding="utf-8" standalone="no"?>
<!DOCTYPE svg PUBLIC "-//W3C//DTD SVG 1.1//EN"
  "http://www.w3.org/Graphics/SVG/1.1/DTD/svg11.dtd">
<svg xmlns:xlink="http://www.w3.org/1999/xlink" width="460.8pt" height="345.6pt" viewBox="0 0 460.8 345.6" xmlns="http://www.w3.org/2000/svg" version="1.1">
 <metadata>
  <rdf:RDF xmlns:dc="http://purl.org/dc/elements/1.1/" xmlns:cc="http://creativecommons.org/ns#" xmlns:rdf="http://www.w3.org/1999/02/22-rdf-syntax-ns#">
   <cc:Work>
    <dc:type rdf:resource="http://purl.org/dc/dcmitype/StillImage"/>
    <dc:date>2023-01-19T16:39:42.735187</dc:date>
    <dc:format>image/svg+xml</dc:format>
    <dc:creator>
     <cc:Agent>
      <dc:title>Matplotlib v3.6.2, https://matplotlib.org/</dc:title>
     </cc:Agent>
    </dc:creator>
   </cc:Work>
  </rdf:RDF>
 </metadata>
 <defs>
  <style type="text/css">*{stroke-linejoin: round; stroke-linecap: butt}</style>
 </defs>
 <g id="figure_1">
  <g id="patch_1">
   <path d="M 0 345.6 
L 460.8 345.6 
L 460.8 0 
L 0 0 
z
" style="fill: #ffffff"/>
  </g>
  <g id="axes_1">
   <g id="patch_2">
    <path d="M 57.6 307.584 
L 414.72 307.584 
L 414.72 41.472 
L 57.6 41.472 
z
" style="fill: #ffffff"/>
   </g>
   <g id="PolyCollection_1">
    <defs>
     <path id="mf3ccd98f9c" d="M 57.6 -38.016 
L 57.6 -38.016 
L 58.315671 -62.121707 
L 59.031343 -67.737181 
L 59.747014 -67.737181 
L 60.462685 -70.8988 
L 61.178357 -72.524465 
L 61.894028 -72.366136 
L 62.609699 -73.092365 
L 63.325371 -74.216634 
L 64.041042 -75.072251 
L 64.756713 -75.601969 
L 65.472385 -75.638883 
L 66.188056 -75.91651 
L 66.903727 -77.491188 
L 67.619399 -78.883457 
L 68.33507 -80.629427 
L 69.050741 -80.510857 
L 69.766413 -81.537706 
L 70.482084 -85.465966 
L 71.197756 -87.179001 
L 71.913427 -92.191247 
L 72.629098 -96.018469 
L 73.34477 -97.359187 
L 74.060441 -103.124791 
L 74.776112 -106.689408 
L 75.491784 -113.604797 
L 76.207455 -118.148185 
L 76.923126 -122.939466 
L 77.638798 -129.604263 
L 78.354469 -136.054401 
L 79.07014 -142.545427 
L 79.785812 -148.68768 
L 80.501483 -155.016807 
L 81.217154 -159.989264 
L 81.932826 -166.280994 
L 82.648497 -172.528215 
L 83.364168 -177.701628 
L 84.07984 -183.77808 
L 84.795511 -187.927638 
L 85.511182 -191.770581 
L 86.226854 -196.692438 
L 86.942525 -199.637674 
L 87.658196 -205.237591 
L 88.373868 -208.202425 
L 89.089539 -212.087647 
L 89.80521 -213.841619 
L 90.520882 -217.941638 
L 91.236553 -219.703666 
L 91.952224 -221.367588 
L 92.667896 -223.770406 
L 93.383567 -223.901925 
L 94.099238 -226.104096 
L 94.81491 -227.390165 
L 95.530581 -228.477775 
L 96.246253 -230.445755 
L 96.961924 -231.21776 
L 97.677595 -232.437029 
L 98.393267 -233.463166 
L 99.108938 -233.958217 
L 99.824609 -234.755605 
L 100.540281 -235.112153 
L 101.255952 -236.321339 
L 101.971623 -238.054804 
L 102.687295 -238.145155 
L 103.402966 -241.102456 
L 104.118637 -241.557999 
L 104.834309 -242.90291 
L 105.54998 -243.242065 
L 106.265651 -243.848729 
L 106.981323 -244.582596 
L 107.696994 -245.274443 
L 108.412665 -245.495469 
L 109.128337 -247.122252 
L 109.844008 -248.092576 
L 110.559679 -248.93725 
L 111.275351 -249.742542 
L 111.991022 -250.530944 
L 112.706693 -251.146979 
L 113.422365 -251.951401 
L 114.138036 -252.654083 
L 114.853707 -252.830675 
L 115.569379 -253.36252 
L 116.28505 -254.075602 
L 117.000721 -254.937069 
L 117.716393 -255.316577 
L 118.432064 -255.328078 
L 119.147735 -255.848265 
L 119.863407 -256.597978 
L 120.579078 -256.996127 
L 121.294749 -256.946284 
L 122.010421 -257.574564 
L 122.726092 -257.691641 
L 123.441764 -258.599626 
L 124.157435 -259.128326 
L 124.873106 -259.288331 
L 125.588778 -259.748948 
L 126.304449 -259.771202 
L 127.02012 -260.295821 
L 127.735792 -260.619239 
L 128.451463 -260.695809 
L 129.167134 -260.74195 
L 129.882806 -260.803995 
L 130.598477 -261.141214 
L 131.314148 -261.597559 
L 132.02982 -261.762111 
L 132.745491 -261.952987 
L 133.461162 -262.356272 
L 134.176834 -262.884312 
L 134.892505 -263.127973 
L 135.608176 -263.13045 
L 136.323848 -263.436322 
L 137.039519 -263.552675 
L 137.75519 -263.799273 
L 138.470862 -264.045784 
L 139.186533 -264.371465 
L 139.902204 -264.567797 
L 140.617876 -264.524084 
L 141.333547 -264.953274 
L 142.049218 -265.445893 
L 142.76489 -265.55357 
L 143.480561 -266.200633 
L 144.196232 -266.190025 
L 144.911904 -266.41373 
L 145.627575 -266.48562 
L 146.343246 -266.812185 
L 147.058918 -267.287719 
L 147.774589 -267.705268 
L 148.490261 -267.874095 
L 149.205932 -268.152361 
L 149.921603 -268.659887 
L 150.637275 -268.629587 
L 151.352946 -268.865235 
L 152.068617 -268.865235 
L 152.784289 -269.079796 
L 153.49996 -269.317237 
L 154.215631 -269.521185 
L 154.931303 -269.525874 
L 155.646974 -270.023449 
L 156.362645 -270.188891 
L 157.078317 -270.16872 
L 157.793988 -270.2865 
L 158.509659 -270.269724 
L 159.225331 -270.382142 
L 159.941002 -270.87672 
L 160.656673 -270.897342 
L 161.372345 -270.982146 
L 162.088016 -271.17279 
L 162.803687 -271.136222 
L 163.519359 -271.228242 
L 164.23503 -271.618533 
L 164.950701 -271.730835 
L 165.666373 -271.730835 
L 166.382044 -271.897558 
L 167.097715 -271.833807 
L 167.813387 -271.877977 
L 168.529058 -272.289705 
L 169.244729 -272.516493 
L 169.960401 -272.611087 
L 170.676072 -272.723381 
L 171.391743 -272.723381 
L 172.107415 -272.909332 
L 172.823086 -272.859993 
L 173.538758 -272.859993 
L 174.254429 -273.01212 
L 174.9701 -273.208466 
L 175.685772 -273.57569 
L 176.401443 -273.661133 
L 177.117114 -273.661133 
L 177.832786 -273.672119 
L 178.548457 -273.730939 
L 179.264128 -273.787693 
L 179.9798 -273.874548 
L 180.695471 -273.933047 
L 181.411142 -273.962946 
L 182.126814 -274.363962 
L 182.842485 -274.406839 
L 183.558156 -274.406839 
L 184.273828 -274.406839 
L 184.989499 -274.422968 
L 185.70517 -274.717635 
L 186.420842 -274.757532 
L 187.136513 -274.982944 
L 187.852184 -275.279504 
L 188.567856 -275.431044 
L 189.283527 -275.618078 
L 189.999198 -275.970899 
L 190.71487 -276.409397 
L 191.430541 -276.635473 
L 192.146212 -276.795586 
L 192.861884 -277.300859 
L 193.577555 -277.294405 
L 194.293226 -277.540738 
L 195.008898 -277.891447 
L 195.724569 -277.985396 
L 196.44024 -278.15356 
L 197.155912 -278.34861 
L 197.871583 -278.542233 
L 198.587255 -278.572597 
L 199.302926 -278.767192 
L 200.018597 -278.977538 
L 200.734269 -278.924867 
L 201.44994 -279.038572 
L 202.165611 -279.104668 
L 202.881283 -279.104668 
L 203.596954 -279.06259 
L 204.312625 -279.306658 
L 205.028297 -279.31445 
L 205.743968 -279.31445 
L 206.459639 -279.31445 
L 207.175311 -279.355021 
L 207.890982 -279.355021 
L 208.606653 -279.340445 
L 209.322325 -279.595119 
L 210.037996 -279.630401 
L 210.753667 -279.630401 
L 211.469339 -279.989961 
L 212.18501 -279.981044 
L 212.900681 -279.981044 
L 213.616353 -280.062961 
L 214.332024 -280.054343 
L 215.047695 -280.424338 
L 215.763367 -280.655307 
L 216.479038 -280.868778 
L 217.194709 -280.926167 
L 217.910381 -281.078942 
L 218.626052 -281.207011 
L 219.341723 -281.207011 
L 220.057395 -281.207011 
L 220.773066 -281.257573 
L 221.488737 -281.257573 
L 222.204409 -281.780085 
L 222.92008 -281.953537 
L 223.635752 -281.953537 
L 224.351423 -281.949237 
L 225.067094 -282.062293 
L 225.782766 -282.058098 
L 226.498437 -282.058098 
L 227.214108 -282.058098 
L 227.92978 -282.34077 
L 228.645451 -282.397313 
L 229.361122 -282.398816 
L 230.076794 -282.398816 
L 230.792465 -282.398816 
L 231.508136 -282.401627 
L 232.223808 -282.401627 
L 232.939479 -282.401627 
L 233.65515 -282.479766 
L 234.370822 -282.486787 
L 235.086493 -282.829266 
L 235.802164 -282.838974 
L 236.517836 -282.850559 
L 237.233507 -282.850559 
L 237.949178 -282.966951 
L 238.66485 -282.984673 
L 239.380521 -282.99743 
L 240.096192 -282.99743 
L 240.811864 -283.011065 
L 241.527535 -283.092588 
L 242.243206 -283.092588 
L 242.958878 -283.107678 
L 243.674549 -283.22085 
L 244.39022 -283.22085 
L 245.105892 -283.235945 
L 245.821563 -283.2526 
L 246.537234 -283.2526 
L 247.252906 -283.2526 
L 247.968577 -283.267951 
L 248.684248 -283.341282 
L 249.39992 -283.341282 
L 250.115591 -283.341282 
L 250.831263 -283.37595 
L 251.546934 -283.37595 
L 252.262605 -283.37595 
L 252.978277 -283.37595 
L 253.693948 -283.561381 
L 254.409619 -283.561381 
L 255.125291 -283.561381 
L 255.840962 -283.683656 
L 256.556633 -283.717796 
L 257.272305 -283.82996 
L 257.987976 -283.852412 
L 258.703647 -283.852412 
L 259.419319 -283.852412 
L 260.13499 -283.852412 
L 260.850661 -283.852412 
L 261.566333 -283.88003 
L 262.282004 -283.88003 
L 262.997675 -283.88003 
L 263.713347 -283.907555 
L 264.429018 -284.034832 
L 265.144689 -284.073412 
L 265.860361 -284.073412 
L 266.576032 -284.073412 
L 267.291703 -284.073412 
L 268.007375 -284.073412 
L 268.723046 -284.073412 
L 269.438717 -284.073412 
L 270.154389 -284.073412 
L 270.87006 -284.261528 
L 271.585731 -284.302019 
L 272.301403 -284.302019 
L 273.017074 -284.302019 
L 273.732745 -284.302019 
L 274.448417 -284.302019 
L 275.164088 -284.302019 
L 275.87976 -284.302019 
L 276.595431 -284.302019 
L 277.311102 -284.302019 
L 278.026774 -284.302019 
L 278.742445 -284.302019 
L 279.458116 -284.561044 
L 280.173788 -284.561044 
L 280.889459 -284.561044 
L 281.60513 -284.757485 
L 282.320802 -284.757485 
L 283.036473 -284.788245 
L 283.752144 -284.788245 
L 284.467816 -284.830274 
L 285.183487 -284.830274 
L 285.899158 -284.992607 
L 286.61483 -285.030155 
L 287.330501 -285.030155 
L 288.046172 -285.030155 
L 288.761844 -285.030155 
L 289.477515 -285.030155 
L 290.193186 -285.030155 
L 290.908858 -285.030155 
L 291.624529 -285.030155 
L 292.3402 -285.030155 
L 293.055872 -285.163069 
L 293.771543 -285.163069 
L 294.487214 -285.163069 
L 295.202886 -285.209122 
L 295.918557 -285.249697 
L 296.634228 -285.249697 
L 297.3499 -285.292464 
L 298.065571 -285.292464 
L 298.781242 -285.292464 
L 299.496914 -285.331565 
L 300.212585 -285.331565 
L 300.928257 -285.331565 
L 301.643928 -285.331565 
L 302.359599 -285.386721 
L 303.075271 -285.511244 
L 303.790942 -285.558266 
L 304.506613 -285.558266 
L 305.222285 -285.761267 
L 305.937956 -285.761267 
L 306.653627 -285.909312 
L 307.369299 -285.909312 
L 308.08497 -285.909312 
L 308.800641 -285.960572 
L 309.516313 -285.960572 
L 310.231984 -285.960572 
L 310.947655 -285.960572 
L 311.663327 -285.960572 
L 312.378998 -286.00525 
L 313.094669 -286.00525 
L 313.810341 -286.160385 
L 314.526012 -286.234383 
L 315.241683 -286.234383 
L 315.957355 -286.442322 
L 316.673026 -286.442322 
L 317.388697 -286.519557 
L 318.104369 -286.519557 
L 318.82004 -286.519557 
L 319.535711 -286.587885 
L 320.251383 -286.635669 
L 320.967054 -286.635669 
L 321.682725 -286.635669 
L 322.398397 -286.635669 
L 323.114068 -286.635669 
L 323.829739 -286.635669 
L 324.545411 -286.635669 
L 325.261082 -286.696301 
L 325.976754 -287.064619 
L 326.692425 -287.064619 
L 327.408096 -287.135769 
L 328.123768 -287.135769 
L 328.839439 -287.135769 
L 329.55511 -287.195646 
L 330.270782 -287.276122 
L 330.986453 -287.421113 
L 331.702124 -287.561126 
L 332.417796 -287.561126 
L 333.133467 -287.646858 
L 333.849138 -287.646858 
L 334.56481 -287.646858 
L 335.280481 -287.646858 
L 335.996152 -288.04149 
L 336.711824 -288.152613 
L 337.427495 -288.152613 
L 338.143166 -288.152613 
L 338.858838 -288.152613 
L 339.574509 -288.152613 
L 340.29018 -288.152613 
L 341.005852 -288.419774 
L 341.721523 -288.520389 
L 342.437194 -288.520389 
L 343.152866 -288.629798 
L 343.868537 -288.629798 
L 344.584208 -288.629798 
L 345.29988 -288.629798 
L 346.015551 -288.723795 
L 346.731222 -288.723795 
L 347.446894 -289.118586 
L 348.162565 -289.118586 
L 348.878236 -289.118586 
L 349.593908 -289.118586 
L 350.309579 -289.118586 
L 351.025251 -289.118586 
L 351.740922 -289.118586 
L 352.456593 -289.118586 
L 353.172265 -289.118586 
L 353.887936 -289.118586 
L 354.603607 -289.118586 
L 355.319279 -289.118586 
L 356.03495 -289.281037 
L 356.750621 -289.281037 
L 357.466293 -289.281037 
L 358.181964 -289.281037 
L 358.897635 -289.408209 
L 359.613307 -289.408209 
L 360.328978 -289.408209 
L 361.044649 -289.408209 
L 361.760321 -289.408209 
L 362.475992 -289.408209 
L 363.191663 -289.408209 
L 363.907335 -289.886194 
L 364.623006 -290.776919 
L 365.338677 -290.776919 
L 366.054349 -290.776919 
L 366.77002 -291.456 
L 367.485691 -291.456 
L 368.201363 -291.456 
L 368.917034 -291.456 
L 369.632705 -291.456 
L 370.348377 -291.456 
L 371.064048 -291.456 
L 371.779719 -291.456 
L 372.495391 -291.456 
L 373.211062 -291.456 
L 373.926733 -291.456 
L 374.642405 -291.456 
L 375.358076 -291.456 
L 376.073747 -291.456 
L 376.789419 -291.456 
L 377.50509 -291.456 
L 378.220762 -291.456 
L 378.936433 -291.456 
L 379.652104 -291.456 
L 380.367776 -291.456 
L 381.083447 -291.456 
L 381.799118 -291.456 
L 382.51479 -291.456 
L 383.230461 -291.456 
L 383.946132 -291.456 
L 384.661804 -291.456 
L 385.377475 -291.456 
L 386.093146 -291.456 
L 386.808818 -291.456 
L 387.524489 -291.456 
L 388.24016 -291.456 
L 388.955832 -291.456 
L 389.671503 -291.456 
L 390.387174 -291.456 
L 391.102846 -291.456 
L 391.818517 -291.456 
L 392.534188 -291.456 
L 393.24986 -291.456 
L 393.965531 -291.456 
L 394.681202 -291.456 
L 395.396874 -291.456 
L 396.112545 -291.456 
L 396.828216 -291.456 
L 397.543888 -291.456 
L 398.259559 -291.456 
L 398.97523 -291.456 
L 399.690902 -291.456 
L 400.406573 -291.456 
L 401.122244 -291.456 
L 401.837916 -291.456 
L 402.553587 -291.456 
L 403.269259 -291.456 
L 403.98493 -291.456 
L 404.700601 -291.456 
L 405.416273 -291.456 
L 406.131944 -291.456 
L 406.847615 -291.456 
L 407.563287 -291.456 
L 408.278958 -291.456 
L 408.994629 -291.456 
L 409.710301 -291.456 
L 410.425972 -291.456 
L 411.141643 -291.456 
L 411.857315 -291.456 
L 412.572986 -291.456 
L 413.288657 -291.456 
L 414.004329 -291.456 
L 414.72 -291.456 
L 414.72 -291.456 
L 414.72 -291.456 
L 414.004329 -291.456 
L 413.288657 -291.456 
L 412.572986 -291.456 
L 411.857315 -291.456 
L 411.141643 -291.456 
L 410.425972 -291.456 
L 409.710301 -291.456 
L 408.994629 -291.456 
L 408.278958 -291.456 
L 407.563287 -291.456 
L 406.847615 -291.456 
L 406.131944 -291.456 
L 405.416273 -291.456 
L 404.700601 -291.456 
L 403.98493 -291.456 
L 403.269259 -291.456 
L 402.553587 -291.456 
L 401.837916 -291.456 
L 401.122244 -291.456 
L 400.406573 -291.456 
L 399.690902 -291.456 
L 398.97523 -291.456 
L 398.259559 -291.456 
L 397.543888 -291.456 
L 396.828216 -291.456 
L 396.112545 -291.456 
L 395.396874 -291.456 
L 394.681202 -291.456 
L 393.965531 -291.456 
L 393.24986 -291.456 
L 392.534188 -291.456 
L 391.818517 -291.456 
L 391.102846 -291.456 
L 390.387174 -291.456 
L 389.671503 -291.456 
L 388.955832 -291.456 
L 388.24016 -291.456 
L 387.524489 -291.456 
L 386.808818 -291.456 
L 386.093146 -291.456 
L 385.377475 -291.456 
L 384.661804 -291.456 
L 383.946132 -291.456 
L 383.230461 -291.456 
L 382.51479 -291.456 
L 381.799118 -291.456 
L 381.083447 -291.456 
L 380.367776 -291.456 
L 379.652104 -291.456 
L 378.936433 -291.456 
L 378.220762 -291.456 
L 377.50509 -291.456 
L 376.789419 -291.456 
L 376.073747 -291.456 
L 375.358076 -291.456 
L 374.642405 -291.456 
L 373.926733 -291.456 
L 373.211062 -291.456 
L 372.495391 -291.456 
L 371.779719 -291.456 
L 371.064048 -291.456 
L 370.348377 -291.456 
L 369.632705 -291.456 
L 368.917034 -291.456 
L 368.201363 -291.456 
L 367.485691 -291.456 
L 366.77002 -291.456 
L 366.054349 -292.070096 
L 365.338677 -292.070096 
L 364.623006 -292.070096 
L 363.907335 -292.824445 
L 363.191663 -293.231039 
L 362.475992 -293.231039 
L 361.760321 -293.231039 
L 361.044649 -293.231039 
L 360.328978 -293.231039 
L 359.613307 -293.231039 
L 358.897635 -293.231039 
L 358.181964 -293.294049 
L 357.466293 -293.294049 
L 356.750621 -293.294049 
L 356.03495 -293.294049 
L 355.319279 -293.380846 
L 354.603607 -293.380846 
L 353.887936 -293.380846 
L 353.172265 -293.380846 
L 352.456593 -293.380846 
L 351.740922 -293.380846 
L 351.025251 -293.380846 
L 350.309579 -293.380846 
L 349.593908 -293.380846 
L 348.878236 -293.380846 
L 348.162565 -293.380846 
L 347.446894 -293.380846 
L 346.731222 -293.699983 
L 346.015551 -293.699983 
L 345.29988 -293.732165 
L 344.584208 -293.732165 
L 343.868537 -293.732165 
L 343.152866 -293.732165 
L 342.437194 -293.773077 
L 341.721523 -293.773077 
L 341.005852 -293.806998 
L 340.29018 -294.005662 
L 339.574509 -294.005662 
L 338.858838 -294.005662 
L 338.143166 -294.005662 
L 337.427495 -294.005662 
L 336.711824 -294.005662 
L 335.996152 -294.042243 
L 335.280481 -294.285568 
L 334.56481 -294.285568 
L 333.849138 -294.285568 
L 333.133467 -294.285568 
L 332.417796 -294.301864 
L 331.702124 -294.301864 
L 330.986453 -294.315078 
L 330.270782 -294.327545 
L 329.55511 -294.33663 
L 328.839439 -294.334692 
L 328.123768 -294.334692 
L 327.408096 -294.334692 
L 326.692425 -294.337345 
L 325.976754 -294.337345 
L 325.261082 -294.520219 
L 324.545411 -294.514156 
L 323.829739 -294.514156 
L 323.114068 -294.514156 
L 322.398397 -294.514156 
L 321.682725 -294.514156 
L 320.967054 -294.514156 
L 320.251383 -294.514156 
L 319.535711 -294.502308 
L 318.82004 -294.498224 
L 318.104369 -294.498224 
L 317.388697 -294.498224 
L 316.673026 -294.497478 
L 315.957355 -294.497478 
L 315.241683 -294.576228 
L 314.526012 -294.576228 
L 313.810341 -294.571026 
L 313.094669 -294.659466 
L 312.378998 -294.659466 
L 311.663327 -294.640784 
L 310.947655 -294.640784 
L 310.231984 -294.640784 
L 309.516313 -294.640784 
L 308.800641 -294.640784 
L 308.08497 -294.623547 
L 307.369299 -294.623547 
L 306.653627 -294.623547 
L 305.937956 -294.704897 
L 305.222285 -294.704897 
L 304.506613 -294.828698 
L 303.790942 -294.828698 
L 303.075271 -294.807223 
L 302.359599 -294.868385 
L 301.643928 -294.847888 
L 300.928257 -294.847888 
L 300.212585 -294.847888 
L 299.496914 -294.847888 
L 298.781242 -294.822004 
L 298.065571 -294.822004 
L 297.3499 -294.822004 
L 296.634228 -294.796274 
L 295.918557 -294.796274 
L 295.202886 -294.769265 
L 294.487214 -294.742907 
L 293.771543 -294.742907 
L 293.055872 -294.742907 
L 292.3402 -294.808236 
L 291.624529 -294.808236 
L 290.908858 -294.808236 
L 290.193186 -294.808236 
L 289.477515 -294.808236 
L 288.761844 -294.808236 
L 288.046172 -294.808236 
L 287.330501 -294.808236 
L 286.61483 -294.808236 
L 285.899158 -294.7782 
L 285.183487 -294.805342 
L 284.467816 -294.805342 
L 283.752144 -294.77391 
L 283.036473 -294.77391 
L 282.320802 -294.739685 
L 281.60513 -294.739685 
L 280.889459 -294.871142 
L 280.173788 -294.871142 
L 279.458116 -294.871142 
L 278.742445 -295.054513 
L 278.026774 -295.054513 
L 277.311102 -295.054513 
L 276.595431 -295.054513 
L 275.87976 -295.054513 
L 275.164088 -295.054513 
L 274.448417 -295.054513 
L 273.732745 -295.054513 
L 273.017074 -295.054513 
L 272.301403 -295.054513 
L 271.585731 -295.054513 
L 270.87006 -295.01935 
L 270.154389 -295.04983 
L 269.438717 -295.04983 
L 268.723046 -295.04983 
L 268.007375 -295.04983 
L 267.291703 -295.04983 
L 266.576032 -295.04983 
L 265.860361 -295.04983 
L 265.144689 -295.04983 
L 264.429018 -295.01161 
L 263.713347 -295.066475 
L 262.997675 -295.025503 
L 262.282004 -295.025503 
L 261.566333 -295.025503 
L 260.850661 -294.983686 
L 260.13499 -294.983686 
L 259.419319 -294.983686 
L 258.703647 -294.983686 
L 257.987976 -294.983686 
L 257.272305 -294.941153 
L 256.556633 -294.983881 
L 255.840962 -294.94004 
L 255.125291 -294.923869 
L 254.409619 -294.923869 
L 253.693948 -294.923869 
L 252.978277 -294.977621 
L 252.262605 -294.977621 
L 251.546934 -294.977621 
L 250.831263 -294.977621 
L 250.115591 -294.882256 
L 249.39992 -294.882256 
L 248.684248 -294.882256 
L 247.968577 -294.895954 
L 247.252906 -294.84632 
L 246.537234 -294.84632 
L 245.821563 -294.84632 
L 245.105892 -294.795391 
L 244.39022 -294.743791 
L 243.674549 -294.743791 
L 242.958878 -294.783503 
L 242.243206 -294.730095 
L 241.527535 -294.730095 
L 240.811864 -294.747457 
L 240.096192 -294.692595 
L 239.380521 -294.692595 
L 238.66485 -294.636854 
L 237.949178 -294.578922 
L 237.233507 -294.555158 
L 236.517836 -294.555158 
L 235.802164 -294.495352 
L 235.086493 -294.378022 
L 234.370822 -294.581526 
L 233.65515 -294.519112 
L 232.939479 -294.530555 
L 232.223808 -294.530555 
L 231.508136 -294.530555 
L 230.792465 -294.468382 
L 230.076794 -294.468382 
L 229.361122 -294.468382 
L 228.645451 -294.405723 
L 227.92978 -294.211802 
L 227.214108 -294.297724 
L 226.498437 -294.297724 
L 225.782766 -294.297724 
L 225.067094 -294.15854 
L 224.351423 -294.211253 
L 223.635752 -294.140259 
L 222.92008 -294.140259 
L 222.204409 -294.164596 
L 221.488737 -294.455933 
L 220.773066 -294.455933 
L 220.057395 -294.374816 
L 219.341723 -294.374816 
L 218.626052 -294.374816 
L 217.910381 -294.36589 
L 217.194709 -294.458322 
L 216.479038 -294.449017 
L 215.763367 -294.516009 
L 215.047695 -294.681993 
L 214.332024 -294.824891 
L 213.616353 -294.746838 
L 212.900681 -294.630975 
L 212.18501 -294.630975 
L 211.469339 -294.545258 
L 210.753667 -294.569166 
L 210.037996 -294.569166 
L 209.322325 -294.542634 
L 208.606653 -294.517263 
L 207.890982 -294.424705 
L 207.175311 -294.424705 
L 206.459639 -294.323794 
L 205.743968 -294.323794 
L 205.028297 -294.323794 
L 204.312625 -294.203659 
L 203.596954 -294.316048 
L 202.881283 -294.137048 
L 202.165611 -294.137048 
L 201.44994 -293.988857 
L 200.734269 -293.973373 
L 200.018597 -293.780143 
L 199.302926 -293.791134 
L 198.587255 -293.848261 
L 197.871583 -293.811041 
L 197.155912 -293.929011 
L 196.44024 -293.90552 
L 195.724569 -293.937553 
L 195.008898 -293.689533 
L 194.293226 -293.837416 
L 193.577555 -293.938452 
L 192.861884 -293.777832 
L 192.146212 -294.087808 
L 191.430541 -294.108946 
L 190.71487 -294.127689 
L 189.999198 -294.423404 
L 189.283527 -294.625964 
L 188.567856 -294.524978 
L 187.852184 -294.609823 
L 187.136513 -294.765744 
L 186.420842 -294.639896 
L 185.70517 -294.495543 
L 184.989499 -294.589237 
L 184.273828 -294.470614 
L 183.558156 -294.470614 
L 182.842485 -294.470614 
L 182.126814 -294.450131 
L 181.411142 -294.636622 
L 180.695471 -294.446526 
L 179.9798 -294.433633 
L 179.264128 -294.438734 
L 178.548457 -294.357555 
L 177.832786 -294.278979 
L 177.117114 -294.214312 
L 176.401443 -294.214312 
L 175.685772 -294.168075 
L 174.9701 -294.326757 
L 174.254429 -294.458119 
L 173.538758 -294.490979 
L 172.823086 -294.490979 
L 172.107415 -294.31039 
L 171.391743 -294.14553 
L 170.676072 -294.14553 
L 169.960401 -293.926498 
L 169.244729 -293.805177 
L 168.529058 -293.96698 
L 167.813387 -294.159483 
L 167.097715 -294.080733 
L 166.382044 -293.891348 
L 165.666373 -293.988634 
L 164.950701 -293.988634 
L 164.23503 -293.901842 
L 163.519359 -293.941135 
L 162.803687 -293.89788 
L 162.088016 -293.654881 
L 161.372345 -293.706549 
L 160.656673 -293.717893 
L 159.941002 -293.67353 
L 159.225331 -293.778488 
L 158.509659 -293.621745 
L 157.793988 -293.535534 
L 157.078317 -293.325724 
L 156.362645 -293.237056 
L 155.646974 -293.283232 
L 154.931303 -293.351195 
L 154.215631 -293.143313 
L 153.49996 -292.932455 
L 152.784289 -293.031995 
L 152.068617 -292.89564 
L 151.352946 -292.89564 
L 150.637275 -292.780936 
L 149.921603 -292.347935 
L 149.205932 -292.361905 
L 148.490261 -292.371414 
L 147.774589 -292.401227 
L 147.058918 -292.406032 
L 146.343246 -292.546274 
L 145.627575 -292.600054 
L 144.911904 -292.515981 
L 144.196232 -292.537306 
L 143.480561 -292.393902 
L 142.76489 -292.420185 
L 142.049218 -292.399934 
L 141.333547 -292.362536 
L 140.617876 -292.372973 
L 139.902204 -292.262565 
L 139.186533 -292.05872 
L 138.470862 -292.04019 
L 137.75519 -291.999676 
L 137.039519 -291.9186 
L 136.323848 -291.619621 
L 135.608176 -291.720712 
L 134.892505 -291.508045 
L 134.176834 -291.565745 
L 133.461162 -291.629723 
L 132.745491 -291.736884 
L 132.02982 -291.516367 
L 131.314148 -291.279739 
L 130.598477 -291.305991 
L 129.882806 -290.862315 
L 129.167134 -290.864017 
L 128.451463 -290.697939 
L 127.735792 -290.289452 
L 127.02012 -290.357364 
L 126.304449 -290.058756 
L 125.588778 -289.679242 
L 124.873106 -289.393892 
L 124.157435 -289.207419 
L 123.441764 -289.021904 
L 122.726092 -289.343989 
L 122.010421 -288.849355 
L 121.294749 -288.719021 
L 120.579078 -288.391429 
L 119.863407 -288.244972 
L 119.147735 -288.326653 
L 118.432064 -287.913496 
L 117.716393 -287.788958 
L 117.000721 -287.647277 
L 116.28505 -287.404728 
L 115.569379 -287.465982 
L 114.853707 -287.284888 
L 114.138036 -286.912658 
L 113.422365 -287.104418 
L 112.706693 -287.03786 
L 111.991022 -286.833864 
L 111.275351 -286.650294 
L 110.559679 -286.601782 
L 109.844008 -286.645586 
L 109.128337 -286.266814 
L 108.412665 -286.129481 
L 107.696994 -285.884506 
L 106.981323 -285.326978 
L 106.265651 -285.179203 
L 105.54998 -284.758935 
L 104.834309 -284.331687 
L 104.118637 -284.498393 
L 103.402966 -283.250604 
L 102.687295 -284.344522 
L 101.971623 -283.386767 
L 101.255952 -283.498166 
L 100.540281 -283.758538 
L 99.824609 -283.352237 
L 99.108938 -282.227034 
L 98.393267 -281.634764 
L 97.677595 -281.052086 
L 96.961924 -280.223909 
L 96.246253 -279.261555 
L 95.530581 -278.378231 
L 94.81491 -278.013098 
L 94.099238 -277.266884 
L 93.383567 -276.767249 
L 92.667896 -275.286893 
L 91.952224 -275.044543 
L 91.236553 -274.328147 
L 90.520882 -273.318956 
L 89.80521 -274.191954 
L 89.089539 -273.886248 
L 88.373868 -274.234214 
L 87.658196 -274.627678 
L 86.942525 -275.92929 
L 86.226854 -274.185467 
L 85.511182 -273.907004 
L 84.795511 -273.783853 
L 84.07984 -272.979312 
L 83.364168 -272.678028 
L 82.648497 -271.469476 
L 81.932826 -271.213975 
L 81.217154 -271.061201 
L 80.501483 -268.813898 
L 79.785812 -266.843035 
L 79.07014 -264.401279 
L 78.354469 -262.373507 
L 77.638798 -261.30032 
L 76.923126 -257.838317 
L 76.207455 -254.205817 
L 75.491784 -250.510202 
L 74.776112 -246.504257 
L 74.060441 -242.371048 
L 73.34477 -233.99832 
L 72.629098 -228.402914 
L 71.913427 -223.651505 
L 71.197756 -216.218036 
L 70.482084 -211.620501 
L 69.766413 -203.438264 
L 69.050741 -197.059414 
L 68.33507 -190.461581 
L 67.619399 -183.096192 
L 66.903727 -181.220752 
L 66.188056 -174.558537 
L 65.472385 -166.16775 
L 64.756713 -164.801982 
L 64.041042 -157.837105 
L 63.325371 -152.751265 
L 62.609699 -151.599145 
L 61.894028 -144.95637 
L 61.178357 -144.4395 
L 60.462685 -139.056863 
L 59.747014 -133.679461 
L 59.031343 -133.679461 
L 58.315671 -125.785161 
L 57.6 -38.016 
z
" style="stroke: #0000ff; stroke-opacity: 0.1"/>
    </defs>
    <g clip-path="url(#p59fcd99b02)">
     <use xlink:href="#mf3ccd98f9c" x="0" y="345.6" style="fill: #0000ff; fill-opacity: 0.1; stroke: #0000ff; stroke-opacity: 0.1"/>
    </g>
   </g>
   <g id="matplotlib.axis_1">
    <g id="xtick_1">
     <g id="line2d_1">
      <defs>
       <path id="md70dceeb24" d="M 0 0 
L 0 3.5 
" style="stroke: #000000; stroke-width: 0.8"/>
      </defs>
      <g>
       <use xlink:href="#md70dceeb24" x="57.6" y="307.584" style="stroke: #000000; stroke-width: 0.8"/>
      </g>
     </g>
     <g id="text_1">
      <!-- 0.0 -->
      <g transform="translate(49.648438 322.182437) scale(0.1 -0.1)">
       <defs>
        <path id="DejaVuSans-30" d="M 2034 4250 
Q 1547 4250 1301 3770 
Q 1056 3291 1056 2328 
Q 1056 1369 1301 889 
Q 1547 409 2034 409 
Q 2525 409 2770 889 
Q 3016 1369 3016 2328 
Q 3016 3291 2770 3770 
Q 2525 4250 2034 4250 
z
M 2034 4750 
Q 2819 4750 3233 4129 
Q 3647 3509 3647 2328 
Q 3647 1150 3233 529 
Q 2819 -91 2034 -91 
Q 1250 -91 836 529 
Q 422 1150 422 2328 
Q 422 3509 836 4129 
Q 1250 4750 2034 4750 
z
" transform="scale(0.015625)"/>
        <path id="DejaVuSans-2e" d="M 684 794 
L 1344 794 
L 1344 0 
L 684 0 
L 684 794 
z
" transform="scale(0.015625)"/>
       </defs>
       <use xlink:href="#DejaVuSans-30"/>
       <use xlink:href="#DejaVuSans-2e" x="63.623047"/>
       <use xlink:href="#DejaVuSans-30" x="95.410156"/>
      </g>
     </g>
    </g>
    <g id="xtick_2">
     <g id="line2d_2">
      <g>
       <use xlink:href="#md70dceeb24" x="129.024" y="307.584" style="stroke: #000000; stroke-width: 0.8"/>
      </g>
     </g>
     <g id="text_2">
      <!-- 0.2 -->
      <g transform="translate(121.072438 322.182437) scale(0.1 -0.1)">
       <defs>
        <path id="DejaVuSans-32" d="M 1228 531 
L 3431 531 
L 3431 0 
L 469 0 
L 469 531 
Q 828 903 1448 1529 
Q 2069 2156 2228 2338 
Q 2531 2678 2651 2914 
Q 2772 3150 2772 3378 
Q 2772 3750 2511 3984 
Q 2250 4219 1831 4219 
Q 1534 4219 1204 4116 
Q 875 4013 500 3803 
L 500 4441 
Q 881 4594 1212 4672 
Q 1544 4750 1819 4750 
Q 2544 4750 2975 4387 
Q 3406 4025 3406 3419 
Q 3406 3131 3298 2873 
Q 3191 2616 2906 2266 
Q 2828 2175 2409 1742 
Q 1991 1309 1228 531 
z
" transform="scale(0.015625)"/>
       </defs>
       <use xlink:href="#DejaVuSans-30"/>
       <use xlink:href="#DejaVuSans-2e" x="63.623047"/>
       <use xlink:href="#DejaVuSans-32" x="95.410156"/>
      </g>
     </g>
    </g>
    <g id="xtick_3">
     <g id="line2d_3">
      <g>
       <use xlink:href="#md70dceeb24" x="200.448" y="307.584" style="stroke: #000000; stroke-width: 0.8"/>
      </g>
     </g>
     <g id="text_3">
      <!-- 0.4 -->
      <g transform="translate(192.496438 322.182437) scale(0.1 -0.1)">
       <defs>
        <path id="DejaVuSans-34" d="M 2419 4116 
L 825 1625 
L 2419 1625 
L 2419 4116 
z
M 2253 4666 
L 3047 4666 
L 3047 1625 
L 3713 1625 
L 3713 1100 
L 3047 1100 
L 3047 0 
L 2419 0 
L 2419 1100 
L 313 1100 
L 313 1709 
L 2253 4666 
z
" transform="scale(0.015625)"/>
       </defs>
       <use xlink:href="#DejaVuSans-30"/>
       <use xlink:href="#DejaVuSans-2e" x="63.623047"/>
       <use xlink:href="#DejaVuSans-34" x="95.410156"/>
      </g>
     </g>
    </g>
    <g id="xtick_4">
     <g id="line2d_4">
      <g>
       <use xlink:href="#md70dceeb24" x="271.872" y="307.584" style="stroke: #000000; stroke-width: 0.8"/>
      </g>
     </g>
     <g id="text_4">
      <!-- 0.6 -->
      <g transform="translate(263.920438 322.182437) scale(0.1 -0.1)">
       <defs>
        <path id="DejaVuSans-36" d="M 2113 2584 
Q 1688 2584 1439 2293 
Q 1191 2003 1191 1497 
Q 1191 994 1439 701 
Q 1688 409 2113 409 
Q 2538 409 2786 701 
Q 3034 994 3034 1497 
Q 3034 2003 2786 2293 
Q 2538 2584 2113 2584 
z
M 3366 4563 
L 3366 3988 
Q 3128 4100 2886 4159 
Q 2644 4219 2406 4219 
Q 1781 4219 1451 3797 
Q 1122 3375 1075 2522 
Q 1259 2794 1537 2939 
Q 1816 3084 2150 3084 
Q 2853 3084 3261 2657 
Q 3669 2231 3669 1497 
Q 3669 778 3244 343 
Q 2819 -91 2113 -91 
Q 1303 -91 875 529 
Q 447 1150 447 2328 
Q 447 3434 972 4092 
Q 1497 4750 2381 4750 
Q 2619 4750 2861 4703 
Q 3103 4656 3366 4563 
z
" transform="scale(0.015625)"/>
       </defs>
       <use xlink:href="#DejaVuSans-30"/>
       <use xlink:href="#DejaVuSans-2e" x="63.623047"/>
       <use xlink:href="#DejaVuSans-36" x="95.410156"/>
      </g>
     </g>
    </g>
    <g id="xtick_5">
     <g id="line2d_5">
      <g>
       <use xlink:href="#md70dceeb24" x="343.296" y="307.584" style="stroke: #000000; stroke-width: 0.8"/>
      </g>
     </g>
     <g id="text_5">
      <!-- 0.8 -->
      <g transform="translate(335.344438 322.182437) scale(0.1 -0.1)">
       <defs>
        <path id="DejaVuSans-38" d="M 2034 2216 
Q 1584 2216 1326 1975 
Q 1069 1734 1069 1313 
Q 1069 891 1326 650 
Q 1584 409 2034 409 
Q 2484 409 2743 651 
Q 3003 894 3003 1313 
Q 3003 1734 2745 1975 
Q 2488 2216 2034 2216 
z
M 1403 2484 
Q 997 2584 770 2862 
Q 544 3141 544 3541 
Q 544 4100 942 4425 
Q 1341 4750 2034 4750 
Q 2731 4750 3128 4425 
Q 3525 4100 3525 3541 
Q 3525 3141 3298 2862 
Q 3072 2584 2669 2484 
Q 3125 2378 3379 2068 
Q 3634 1759 3634 1313 
Q 3634 634 3220 271 
Q 2806 -91 2034 -91 
Q 1263 -91 848 271 
Q 434 634 434 1313 
Q 434 1759 690 2068 
Q 947 2378 1403 2484 
z
M 1172 3481 
Q 1172 3119 1398 2916 
Q 1625 2713 2034 2713 
Q 2441 2713 2670 2916 
Q 2900 3119 2900 3481 
Q 2900 3844 2670 4047 
Q 2441 4250 2034 4250 
Q 1625 4250 1398 4047 
Q 1172 3844 1172 3481 
z
" transform="scale(0.015625)"/>
       </defs>
       <use xlink:href="#DejaVuSans-30"/>
       <use xlink:href="#DejaVuSans-2e" x="63.623047"/>
       <use xlink:href="#DejaVuSans-38" x="95.410156"/>
      </g>
     </g>
    </g>
    <g id="xtick_6">
     <g id="line2d_6">
      <g>
       <use xlink:href="#md70dceeb24" x="414.72" y="307.584" style="stroke: #000000; stroke-width: 0.8"/>
      </g>
     </g>
     <g id="text_6">
      <!-- 1.0 -->
      <g transform="translate(406.768438 322.182437) scale(0.1 -0.1)">
       <defs>
        <path id="DejaVuSans-31" d="M 794 531 
L 1825 531 
L 1825 4091 
L 703 3866 
L 703 4441 
L 1819 4666 
L 2450 4666 
L 2450 531 
L 3481 531 
L 3481 0 
L 794 0 
L 794 531 
z
" transform="scale(0.015625)"/>
       </defs>
       <use xlink:href="#DejaVuSans-31"/>
       <use xlink:href="#DejaVuSans-2e" x="63.623047"/>
       <use xlink:href="#DejaVuSans-30" x="95.410156"/>
      </g>
     </g>
    </g>
    <g id="text_7">
     <!-- False Positive Rate -->
     <g transform="translate(189.693594 335.860562) scale(0.1 -0.1)">
      <defs>
       <path id="DejaVuSans-46" d="M 628 4666 
L 3309 4666 
L 3309 4134 
L 1259 4134 
L 1259 2759 
L 3109 2759 
L 3109 2228 
L 1259 2228 
L 1259 0 
L 628 0 
L 628 4666 
z
" transform="scale(0.015625)"/>
       <path id="DejaVuSans-61" d="M 2194 1759 
Q 1497 1759 1228 1600 
Q 959 1441 959 1056 
Q 959 750 1161 570 
Q 1363 391 1709 391 
Q 2188 391 2477 730 
Q 2766 1069 2766 1631 
L 2766 1759 
L 2194 1759 
z
M 3341 1997 
L 3341 0 
L 2766 0 
L 2766 531 
Q 2569 213 2275 61 
Q 1981 -91 1556 -91 
Q 1019 -91 701 211 
Q 384 513 384 1019 
Q 384 1609 779 1909 
Q 1175 2209 1959 2209 
L 2766 2209 
L 2766 2266 
Q 2766 2663 2505 2880 
Q 2244 3097 1772 3097 
Q 1472 3097 1187 3025 
Q 903 2953 641 2809 
L 641 3341 
Q 956 3463 1253 3523 
Q 1550 3584 1831 3584 
Q 2591 3584 2966 3190 
Q 3341 2797 3341 1997 
z
" transform="scale(0.015625)"/>
       <path id="DejaVuSans-6c" d="M 603 4863 
L 1178 4863 
L 1178 0 
L 603 0 
L 603 4863 
z
" transform="scale(0.015625)"/>
       <path id="DejaVuSans-73" d="M 2834 3397 
L 2834 2853 
Q 2591 2978 2328 3040 
Q 2066 3103 1784 3103 
Q 1356 3103 1142 2972 
Q 928 2841 928 2578 
Q 928 2378 1081 2264 
Q 1234 2150 1697 2047 
L 1894 2003 
Q 2506 1872 2764 1633 
Q 3022 1394 3022 966 
Q 3022 478 2636 193 
Q 2250 -91 1575 -91 
Q 1294 -91 989 -36 
Q 684 19 347 128 
L 347 722 
Q 666 556 975 473 
Q 1284 391 1588 391 
Q 1994 391 2212 530 
Q 2431 669 2431 922 
Q 2431 1156 2273 1281 
Q 2116 1406 1581 1522 
L 1381 1569 
Q 847 1681 609 1914 
Q 372 2147 372 2553 
Q 372 3047 722 3315 
Q 1072 3584 1716 3584 
Q 2034 3584 2315 3537 
Q 2597 3491 2834 3397 
z
" transform="scale(0.015625)"/>
       <path id="DejaVuSans-65" d="M 3597 1894 
L 3597 1613 
L 953 1613 
Q 991 1019 1311 708 
Q 1631 397 2203 397 
Q 2534 397 2845 478 
Q 3156 559 3463 722 
L 3463 178 
Q 3153 47 2828 -22 
Q 2503 -91 2169 -91 
Q 1331 -91 842 396 
Q 353 884 353 1716 
Q 353 2575 817 3079 
Q 1281 3584 2069 3584 
Q 2775 3584 3186 3129 
Q 3597 2675 3597 1894 
z
M 3022 2063 
Q 3016 2534 2758 2815 
Q 2500 3097 2075 3097 
Q 1594 3097 1305 2825 
Q 1016 2553 972 2059 
L 3022 2063 
z
" transform="scale(0.015625)"/>
       <path id="DejaVuSans-20" transform="scale(0.015625)"/>
       <path id="DejaVuSans-50" d="M 1259 4147 
L 1259 2394 
L 2053 2394 
Q 2494 2394 2734 2622 
Q 2975 2850 2975 3272 
Q 2975 3691 2734 3919 
Q 2494 4147 2053 4147 
L 1259 4147 
z
M 628 4666 
L 2053 4666 
Q 2838 4666 3239 4311 
Q 3641 3956 3641 3272 
Q 3641 2581 3239 2228 
Q 2838 1875 2053 1875 
L 1259 1875 
L 1259 0 
L 628 0 
L 628 4666 
z
" transform="scale(0.015625)"/>
       <path id="DejaVuSans-6f" d="M 1959 3097 
Q 1497 3097 1228 2736 
Q 959 2375 959 1747 
Q 959 1119 1226 758 
Q 1494 397 1959 397 
Q 2419 397 2687 759 
Q 2956 1122 2956 1747 
Q 2956 2369 2687 2733 
Q 2419 3097 1959 3097 
z
M 1959 3584 
Q 2709 3584 3137 3096 
Q 3566 2609 3566 1747 
Q 3566 888 3137 398 
Q 2709 -91 1959 -91 
Q 1206 -91 779 398 
Q 353 888 353 1747 
Q 353 2609 779 3096 
Q 1206 3584 1959 3584 
z
" transform="scale(0.015625)"/>
       <path id="DejaVuSans-69" d="M 603 3500 
L 1178 3500 
L 1178 0 
L 603 0 
L 603 3500 
z
M 603 4863 
L 1178 4863 
L 1178 4134 
L 603 4134 
L 603 4863 
z
" transform="scale(0.015625)"/>
       <path id="DejaVuSans-74" d="M 1172 4494 
L 1172 3500 
L 2356 3500 
L 2356 3053 
L 1172 3053 
L 1172 1153 
Q 1172 725 1289 603 
Q 1406 481 1766 481 
L 2356 481 
L 2356 0 
L 1766 0 
Q 1100 0 847 248 
Q 594 497 594 1153 
L 594 3053 
L 172 3053 
L 172 3500 
L 594 3500 
L 594 4494 
L 1172 4494 
z
" transform="scale(0.015625)"/>
       <path id="DejaVuSans-76" d="M 191 3500 
L 800 3500 
L 1894 563 
L 2988 3500 
L 3597 3500 
L 2284 0 
L 1503 0 
L 191 3500 
z
" transform="scale(0.015625)"/>
       <path id="DejaVuSans-52" d="M 2841 2188 
Q 3044 2119 3236 1894 
Q 3428 1669 3622 1275 
L 4263 0 
L 3584 0 
L 2988 1197 
Q 2756 1666 2539 1819 
Q 2322 1972 1947 1972 
L 1259 1972 
L 1259 0 
L 628 0 
L 628 4666 
L 2053 4666 
Q 2853 4666 3247 4331 
Q 3641 3997 3641 3322 
Q 3641 2881 3436 2590 
Q 3231 2300 2841 2188 
z
M 1259 4147 
L 1259 2491 
L 2053 2491 
Q 2509 2491 2742 2702 
Q 2975 2913 2975 3322 
Q 2975 3731 2742 3939 
Q 2509 4147 2053 4147 
L 1259 4147 
z
" transform="scale(0.015625)"/>
      </defs>
      <use xlink:href="#DejaVuSans-46"/>
      <use xlink:href="#DejaVuSans-61" x="48.394531"/>
      <use xlink:href="#DejaVuSans-6c" x="109.673828"/>
      <use xlink:href="#DejaVuSans-73" x="137.457031"/>
      <use xlink:href="#DejaVuSans-65" x="189.556641"/>
      <use xlink:href="#DejaVuSans-20" x="251.080078"/>
      <use xlink:href="#DejaVuSans-50" x="282.867188"/>
      <use xlink:href="#DejaVuSans-6f" x="339.544922"/>
      <use xlink:href="#DejaVuSans-73" x="400.726562"/>
      <use xlink:href="#DejaVuSans-69" x="452.826172"/>
      <use xlink:href="#DejaVuSans-74" x="480.609375"/>
      <use xlink:href="#DejaVuSans-69" x="519.818359"/>
      <use xlink:href="#DejaVuSans-76" x="547.601562"/>
      <use xlink:href="#DejaVuSans-65" x="606.78125"/>
      <use xlink:href="#DejaVuSans-20" x="668.304688"/>
      <use xlink:href="#DejaVuSans-52" x="700.091797"/>
      <use xlink:href="#DejaVuSans-61" x="767.324219"/>
      <use xlink:href="#DejaVuSans-74" x="828.603516"/>
      <use xlink:href="#DejaVuSans-65" x="867.8125"/>
     </g>
    </g>
   </g>
   <g id="matplotlib.axis_2">
    <g id="ytick_1">
     <g id="line2d_7">
      <defs>
       <path id="m6e0df0504c" d="M 0 0 
L -3.5 0 
" style="stroke: #000000; stroke-width: 0.8"/>
      </defs>
      <g>
       <use xlink:href="#m6e0df0504c" x="57.6" y="307.584" style="stroke: #000000; stroke-width: 0.8"/>
      </g>
     </g>
     <g id="text_8">
      <!-- 0.0 -->
      <g transform="translate(34.696875 311.383219) scale(0.1 -0.1)">
       <use xlink:href="#DejaVuSans-30"/>
       <use xlink:href="#DejaVuSans-2e" x="63.623047"/>
       <use xlink:href="#DejaVuSans-30" x="95.410156"/>
      </g>
     </g>
    </g>
    <g id="ytick_2">
     <g id="line2d_8">
      <g>
       <use xlink:href="#m6e0df0504c" x="57.6" y="256.896" style="stroke: #000000; stroke-width: 0.8"/>
      </g>
     </g>
     <g id="text_9">
      <!-- 0.2 -->
      <g transform="translate(34.696875 260.695219) scale(0.1 -0.1)">
       <use xlink:href="#DejaVuSans-30"/>
       <use xlink:href="#DejaVuSans-2e" x="63.623047"/>
       <use xlink:href="#DejaVuSans-32" x="95.410156"/>
      </g>
     </g>
    </g>
    <g id="ytick_3">
     <g id="line2d_9">
      <g>
       <use xlink:href="#m6e0df0504c" x="57.6" y="206.208" style="stroke: #000000; stroke-width: 0.8"/>
      </g>
     </g>
     <g id="text_10">
      <!-- 0.4 -->
      <g transform="translate(34.696875 210.007219) scale(0.1 -0.1)">
       <use xlink:href="#DejaVuSans-30"/>
       <use xlink:href="#DejaVuSans-2e" x="63.623047"/>
       <use xlink:href="#DejaVuSans-34" x="95.410156"/>
      </g>
     </g>
    </g>
    <g id="ytick_4">
     <g id="line2d_10">
      <g>
       <use xlink:href="#m6e0df0504c" x="57.6" y="155.52" style="stroke: #000000; stroke-width: 0.8"/>
      </g>
     </g>
     <g id="text_11">
      <!-- 0.6 -->
      <g transform="translate(34.696875 159.319219) scale(0.1 -0.1)">
       <use xlink:href="#DejaVuSans-30"/>
       <use xlink:href="#DejaVuSans-2e" x="63.623047"/>
       <use xlink:href="#DejaVuSans-36" x="95.410156"/>
      </g>
     </g>
    </g>
    <g id="ytick_5">
     <g id="line2d_11">
      <g>
       <use xlink:href="#m6e0df0504c" x="57.6" y="104.832" style="stroke: #000000; stroke-width: 0.8"/>
      </g>
     </g>
     <g id="text_12">
      <!-- 0.8 -->
      <g transform="translate(34.696875 108.631219) scale(0.1 -0.1)">
       <use xlink:href="#DejaVuSans-30"/>
       <use xlink:href="#DejaVuSans-2e" x="63.623047"/>
       <use xlink:href="#DejaVuSans-38" x="95.410156"/>
      </g>
     </g>
    </g>
    <g id="ytick_6">
     <g id="line2d_12">
      <g>
       <use xlink:href="#m6e0df0504c" x="57.6" y="54.144" style="stroke: #000000; stroke-width: 0.8"/>
      </g>
     </g>
     <g id="text_13">
      <!-- 1.0 -->
      <g transform="translate(34.696875 57.943219) scale(0.1 -0.1)">
       <use xlink:href="#DejaVuSans-31"/>
       <use xlink:href="#DejaVuSans-2e" x="63.623047"/>
       <use xlink:href="#DejaVuSans-30" x="95.410156"/>
      </g>
     </g>
    </g>
    <g id="text_14">
     <!-- True Positive Rate -->
     <g transform="translate(28.617187 219.057687) rotate(-90) scale(0.1 -0.1)">
      <defs>
       <path id="DejaVuSans-54" d="M -19 4666 
L 3928 4666 
L 3928 4134 
L 2272 4134 
L 2272 0 
L 1638 0 
L 1638 4134 
L -19 4134 
L -19 4666 
z
" transform="scale(0.015625)"/>
       <path id="DejaVuSans-72" d="M 2631 2963 
Q 2534 3019 2420 3045 
Q 2306 3072 2169 3072 
Q 1681 3072 1420 2755 
Q 1159 2438 1159 1844 
L 1159 0 
L 581 0 
L 581 3500 
L 1159 3500 
L 1159 2956 
Q 1341 3275 1631 3429 
Q 1922 3584 2338 3584 
Q 2397 3584 2469 3576 
Q 2541 3569 2628 3553 
L 2631 2963 
z
" transform="scale(0.015625)"/>
       <path id="DejaVuSans-75" d="M 544 1381 
L 544 3500 
L 1119 3500 
L 1119 1403 
Q 1119 906 1312 657 
Q 1506 409 1894 409 
Q 2359 409 2629 706 
Q 2900 1003 2900 1516 
L 2900 3500 
L 3475 3500 
L 3475 0 
L 2900 0 
L 2900 538 
Q 2691 219 2414 64 
Q 2138 -91 1772 -91 
Q 1169 -91 856 284 
Q 544 659 544 1381 
z
M 1991 3584 
L 1991 3584 
z
" transform="scale(0.015625)"/>
      </defs>
      <use xlink:href="#DejaVuSans-54"/>
      <use xlink:href="#DejaVuSans-72" x="46.333984"/>
      <use xlink:href="#DejaVuSans-75" x="87.447266"/>
      <use xlink:href="#DejaVuSans-65" x="150.826172"/>
      <use xlink:href="#DejaVuSans-20" x="212.349609"/>
      <use xlink:href="#DejaVuSans-50" x="244.136719"/>
      <use xlink:href="#DejaVuSans-6f" x="300.814453"/>
      <use xlink:href="#DejaVuSans-73" x="361.996094"/>
      <use xlink:href="#DejaVuSans-69" x="414.095703"/>
      <use xlink:href="#DejaVuSans-74" x="441.878906"/>
      <use xlink:href="#DejaVuSans-69" x="481.087891"/>
      <use xlink:href="#DejaVuSans-76" x="508.871094"/>
      <use xlink:href="#DejaVuSans-65" x="568.050781"/>
      <use xlink:href="#DejaVuSans-20" x="629.574219"/>
      <use xlink:href="#DejaVuSans-52" x="661.361328"/>
      <use xlink:href="#DejaVuSans-61" x="728.59375"/>
      <use xlink:href="#DejaVuSans-74" x="789.873047"/>
      <use xlink:href="#DejaVuSans-65" x="829.082031"/>
     </g>
    </g>
   </g>
   <g id="line2d_13">
    <path d="M 57.6 307.584 
L 58.315671 251.646566 
L 59.031343 244.891679 
L 59.747014 244.891679 
L 60.462685 240.622168 
L 61.178357 237.118017 
L 61.894028 236.938747 
L 62.609699 233.254245 
L 63.325371 232.116051 
L 64.041042 229.145322 
L 64.756713 225.398024 
L 65.472385 224.696683 
L 66.903727 216.24403 
L 67.619399 214.610176 
L 68.33507 210.054496 
L 69.766413 203.112015 
L 70.482084 197.056766 
L 71.197756 193.901481 
L 71.913427 187.678624 
L 72.629098 183.389309 
L 73.34477 179.921247 
L 74.060441 172.852081 
L 74.776112 169.003168 
L 75.491784 163.5425 
L 76.923126 155.211109 
L 77.638798 150.147708 
L 79.07014 142.126647 
L 80.501483 133.684647 
L 81.932826 126.852516 
L 84.07984 117.221304 
L 84.795511 114.744255 
L 85.511182 112.761208 
L 86.942525 107.816518 
L 87.658196 105.667365 
L 88.373868 104.38168 
L 89.089539 102.613053 
L 89.80521 101.583214 
L 91.236553 98.584094 
L 92.667896 96.071351 
L 93.383567 95.265413 
L 94.099238 93.91451 
L 94.81491 92.898369 
L 95.530581 92.171997 
L 96.246253 90.746345 
L 98.393267 88.051035 
L 99.108938 87.507374 
L 99.824609 86.546079 
L 101.255952 85.690247 
L 101.971623 84.879215 
L 102.687295 84.355161 
L 104.118637 82.571804 
L 104.834309 81.982702 
L 105.54998 81.5995 
L 107.696994 80.020526 
L 108.412665 79.787525 
L 109.128337 78.905467 
L 109.844008 78.230919 
L 112.706693 76.507581 
L 113.422365 76.07209 
L 114.853707 75.542219 
L 116.28505 74.859835 
L 117.000721 74.307827 
L 117.716393 74.047233 
L 118.432064 73.979213 
L 119.147735 73.512541 
L 120.579078 72.906222 
L 121.294749 72.767348 
L 122.726092 72.082185 
L 127.735792 70.145654 
L 128.451463 69.903126 
L 129.882806 69.766845 
L 130.598477 69.376397 
L 134.176834 68.374971 
L 136.323848 68.072028 
L 138.470862 67.557013 
L 144.196232 66.236335 
L 147.058918 65.753124 
L 147.774589 65.546753 
L 149.205932 65.342867 
L 151.352946 64.719562 
L 152.068617 64.719562 
L 154.215631 64.267751 
L 162.803687 63.082949 
L 164.23503 62.839813 
L 165.666373 62.740265 
L 167.813387 62.58127 
L 170.676072 62.165544 
L 171.391743 62.165544 
L 172.823086 61.924514 
L 174.9701 61.832388 
L 176.401443 61.662278 
L 178.548457 61.555753 
L 183.558156 61.161273 
L 184.989499 61.093898 
L 193.577555 59.983572 
L 195.008898 59.80951 
L 196.44024 59.57046 
L 197.871583 59.423363 
L 200.018597 59.22116 
L 205.028297 58.780878 
L 208.606653 58.671146 
L 210.037996 58.500217 
L 210.753667 58.500217 
L 211.469339 58.332391 
L 215.763367 58.014342 
L 218.626052 57.809087 
L 221.488737 57.743247 
L 222.92008 57.553102 
L 225.067094 57.489584 
L 226.498437 57.422089 
L 227.92978 57.323714 
L 229.361122 57.166401 
L 234.370822 57.065844 
L 237.949178 56.827063 
L 243.674549 56.617679 
L 247.968577 56.518048 
L 252.262605 56.423215 
L 255.125291 56.357375 
L 257.987976 56.181951 
L 264.429018 56.076779 
L 266.576032 56.038379 
L 270.87006 55.959561 
L 273.017074 55.921734 
L 283.752144 55.818923 
L 288.046172 55.680804 
L 296.634228 55.577014 
L 300.212585 55.510273 
L 304.506613 55.406518 
L 307.369299 55.333571 
L 313.810341 55.234295 
L 318.104369 55.09111 
L 325.261082 54.99174 
L 326.692425 54.899018 
L 333.849138 54.633787 
L 335.996152 54.558133 
L 338.143166 54.520863 
L 345.29988 54.419018 
L 348.878236 54.350284 
L 363.907335 54.24468 
L 365.338677 54.176492 
L 414.72 54.144 
L 414.72 54.144 
" clip-path="url(#p59fcd99b02)" style="fill: none; stroke: #1f77b4; stroke-width: 1.5; stroke-linecap: square"/>
   </g>
   <g id="line2d_14">
    <path d="M 57.6 307.584 
L 414.72 54.144 
" clip-path="url(#p59fcd99b02)" style="fill: none; stroke-dasharray: 2,3.3; stroke-dashoffset: 0; stroke: #000000; stroke-width: 2"/>
   </g>
   <g id="patch_3">
    <path d="M 57.6 307.584 
L 57.6 41.472 
" style="fill: none; stroke: #000000; stroke-width: 0.8; stroke-linejoin: miter; stroke-linecap: square"/>
   </g>
   <g id="patch_4">
    <path d="M 414.72 307.584 
L 414.72 41.472 
" style="fill: none; stroke: #000000; stroke-width: 0.8; stroke-linejoin: miter; stroke-linecap: square"/>
   </g>
   <g id="patch_5">
    <path d="M 57.6 307.584 
L 414.72 307.584 
" style="fill: none; stroke: #000000; stroke-width: 0.8; stroke-linejoin: miter; stroke-linecap: square"/>
   </g>
   <g id="patch_6">
    <path d="M 57.6 41.472 
L 414.72 41.472 
" style="fill: none; stroke: #000000; stroke-width: 0.8; stroke-linejoin: miter; stroke-linecap: square"/>
   </g>
   <g id="text_15">
    <!-- ROC -->
    <g transform="translate(223.078125 35.472) scale(0.12 -0.12)">
     <defs>
      <path id="DejaVuSans-4f" d="M 2522 4238 
Q 1834 4238 1429 3725 
Q 1025 3213 1025 2328 
Q 1025 1447 1429 934 
Q 1834 422 2522 422 
Q 3209 422 3611 934 
Q 4013 1447 4013 2328 
Q 4013 3213 3611 3725 
Q 3209 4238 2522 4238 
z
M 2522 4750 
Q 3503 4750 4090 4092 
Q 4678 3434 4678 2328 
Q 4678 1225 4090 567 
Q 3503 -91 2522 -91 
Q 1538 -91 948 565 
Q 359 1222 359 2328 
Q 359 3434 948 4092 
Q 1538 4750 2522 4750 
z
" transform="scale(0.015625)"/>
      <path id="DejaVuSans-43" d="M 4122 4306 
L 4122 3641 
Q 3803 3938 3442 4084 
Q 3081 4231 2675 4231 
Q 1875 4231 1450 3742 
Q 1025 3253 1025 2328 
Q 1025 1406 1450 917 
Q 1875 428 2675 428 
Q 3081 428 3442 575 
Q 3803 722 4122 1019 
L 4122 359 
Q 3791 134 3420 21 
Q 3050 -91 2638 -91 
Q 1578 -91 968 557 
Q 359 1206 359 2328 
Q 359 3453 968 4101 
Q 1578 4750 2638 4750 
Q 3056 4750 3426 4639 
Q 3797 4528 4122 4306 
z
" transform="scale(0.015625)"/>
     </defs>
     <use xlink:href="#DejaVuSans-52"/>
     <use xlink:href="#DejaVuSans-4f" x="69.482422"/>
     <use xlink:href="#DejaVuSans-43" x="148.193359"/>
    </g>
   </g>
   <g id="legend_1">
    <g id="patch_7">
     <path d="M 254.109062 302.584 
L 407.72 302.584 
Q 409.72 302.584 409.72 300.584 
L 409.72 286.905875 
Q 409.72 284.905875 407.72 284.905875 
L 254.109062 284.905875 
Q 252.109062 284.905875 252.109062 286.905875 
L 252.109062 300.584 
Q 252.109062 302.584 254.109062 302.584 
z
" style="fill: #ffffff; opacity: 0.8; stroke: #cccccc; stroke-linejoin: miter"/>
    </g>
    <g id="line2d_15">
     <path d="M 256.109062 293.004312 
L 266.109062 293.004312 
L 276.109062 293.004312 
" style="fill: none; stroke: #1f77b4; stroke-width: 1.5; stroke-linecap: square"/>
    </g>
    <g id="text_16">
     <!-- auROC = 0.935 +/- 0.03 -->
     <g transform="translate(284.109062 296.504312) scale(0.1 -0.1)">
      <defs>
       <path id="DejaVuSans-3d" d="M 678 2906 
L 4684 2906 
L 4684 2381 
L 678 2381 
L 678 2906 
z
M 678 1631 
L 4684 1631 
L 4684 1100 
L 678 1100 
L 678 1631 
z
" transform="scale(0.015625)"/>
       <path id="DejaVuSans-39" d="M 703 97 
L 703 672 
Q 941 559 1184 500 
Q 1428 441 1663 441 
Q 2288 441 2617 861 
Q 2947 1281 2994 2138 
Q 2813 1869 2534 1725 
Q 2256 1581 1919 1581 
Q 1219 1581 811 2004 
Q 403 2428 403 3163 
Q 403 3881 828 4315 
Q 1253 4750 1959 4750 
Q 2769 4750 3195 4129 
Q 3622 3509 3622 2328 
Q 3622 1225 3098 567 
Q 2575 -91 1691 -91 
Q 1453 -91 1209 -44 
Q 966 3 703 97 
z
M 1959 2075 
Q 2384 2075 2632 2365 
Q 2881 2656 2881 3163 
Q 2881 3666 2632 3958 
Q 2384 4250 1959 4250 
Q 1534 4250 1286 3958 
Q 1038 3666 1038 3163 
Q 1038 2656 1286 2365 
Q 1534 2075 1959 2075 
z
" transform="scale(0.015625)"/>
       <path id="DejaVuSans-33" d="M 2597 2516 
Q 3050 2419 3304 2112 
Q 3559 1806 3559 1356 
Q 3559 666 3084 287 
Q 2609 -91 1734 -91 
Q 1441 -91 1130 -33 
Q 819 25 488 141 
L 488 750 
Q 750 597 1062 519 
Q 1375 441 1716 441 
Q 2309 441 2620 675 
Q 2931 909 2931 1356 
Q 2931 1769 2642 2001 
Q 2353 2234 1838 2234 
L 1294 2234 
L 1294 2753 
L 1863 2753 
Q 2328 2753 2575 2939 
Q 2822 3125 2822 3475 
Q 2822 3834 2567 4026 
Q 2313 4219 1838 4219 
Q 1578 4219 1281 4162 
Q 984 4106 628 3988 
L 628 4550 
Q 988 4650 1302 4700 
Q 1616 4750 1894 4750 
Q 2613 4750 3031 4423 
Q 3450 4097 3450 3541 
Q 3450 3153 3228 2886 
Q 3006 2619 2597 2516 
z
" transform="scale(0.015625)"/>
       <path id="DejaVuSans-35" d="M 691 4666 
L 3169 4666 
L 3169 4134 
L 1269 4134 
L 1269 2991 
Q 1406 3038 1543 3061 
Q 1681 3084 1819 3084 
Q 2600 3084 3056 2656 
Q 3513 2228 3513 1497 
Q 3513 744 3044 326 
Q 2575 -91 1722 -91 
Q 1428 -91 1123 -41 
Q 819 9 494 109 
L 494 744 
Q 775 591 1075 516 
Q 1375 441 1709 441 
Q 2250 441 2565 725 
Q 2881 1009 2881 1497 
Q 2881 1984 2565 2268 
Q 2250 2553 1709 2553 
Q 1456 2553 1204 2497 
Q 953 2441 691 2322 
L 691 4666 
z
" transform="scale(0.015625)"/>
       <path id="DejaVuSans-2b" d="M 2944 4013 
L 2944 2272 
L 4684 2272 
L 4684 1741 
L 2944 1741 
L 2944 0 
L 2419 0 
L 2419 1741 
L 678 1741 
L 678 2272 
L 2419 2272 
L 2419 4013 
L 2944 4013 
z
" transform="scale(0.015625)"/>
       <path id="DejaVuSans-2f" d="M 1625 4666 
L 2156 4666 
L 531 -594 
L 0 -594 
L 1625 4666 
z
" transform="scale(0.015625)"/>
       <path id="DejaVuSans-2d" d="M 313 2009 
L 1997 2009 
L 1997 1497 
L 313 1497 
L 313 2009 
z
" transform="scale(0.015625)"/>
      </defs>
      <use xlink:href="#DejaVuSans-61"/>
      <use xlink:href="#DejaVuSans-75" x="61.279297"/>
      <use xlink:href="#DejaVuSans-52" x="124.658203"/>
      <use xlink:href="#DejaVuSans-4f" x="194.140625"/>
      <use xlink:href="#DejaVuSans-43" x="272.851562"/>
      <use xlink:href="#DejaVuSans-20" x="342.675781"/>
      <use xlink:href="#DejaVuSans-3d" x="374.462891"/>
      <use xlink:href="#DejaVuSans-20" x="458.251953"/>
      <use xlink:href="#DejaVuSans-30" x="490.039062"/>
      <use xlink:href="#DejaVuSans-2e" x="553.662109"/>
      <use xlink:href="#DejaVuSans-39" x="585.449219"/>
      <use xlink:href="#DejaVuSans-33" x="649.072266"/>
      <use xlink:href="#DejaVuSans-35" x="712.695312"/>
      <use xlink:href="#DejaVuSans-20" x="776.318359"/>
      <use xlink:href="#DejaVuSans-2b" x="808.105469"/>
      <use xlink:href="#DejaVuSans-2f" x="891.894531"/>
      <use xlink:href="#DejaVuSans-2d" x="925.585938"/>
      <use xlink:href="#DejaVuSans-20" x="961.669922"/>
      <use xlink:href="#DejaVuSans-30" x="993.457031"/>
      <use xlink:href="#DejaVuSans-2e" x="1057.080078"/>
      <use xlink:href="#DejaVuSans-30" x="1088.867188"/>
      <use xlink:href="#DejaVuSans-33" x="1152.490234"/>
     </g>
    </g>
   </g>
  </g>
 </g>
 <defs>
  <clipPath id="p59fcd99b02">
   <rect x="57.6" y="41.472" width="357.12" height="266.112"/>
  </clipPath>
 </defs>
</svg>
