<?xml version="1.0" encoding="utf-8" standalone="no"?>
<!DOCTYPE svg PUBLIC "-//W3C//DTD SVG 1.1//EN"
  "http://www.w3.org/Graphics/SVG/1.1/DTD/svg11.dtd">
<svg xmlns:xlink="http://www.w3.org/1999/xlink" width="460.8pt" height="345.6pt" viewBox="0 0 460.8 345.6" xmlns="http://www.w3.org/2000/svg" version="1.1">
 <metadata>
  <rdf:RDF xmlns:dc="http://purl.org/dc/elements/1.1/" xmlns:cc="http://creativecommons.org/ns#" xmlns:rdf="http://www.w3.org/1999/02/22-rdf-syntax-ns#">
   <cc:Work>
    <dc:type rdf:resource="http://purl.org/dc/dcmitype/StillImage"/>
    <dc:date>2023-01-19T17:36:08.002815</dc:date>
    <dc:format>image/svg+xml</dc:format>
    <dc:creator>
     <cc:Agent>
      <dc:title>Matplotlib v3.6.2, https://matplotlib.org/</dc:title>
     </cc:Agent>
    </dc:creator>
   </cc:Work>
  </rdf:RDF>
 </metadata>
 <defs>
  <style type="text/css">*{stroke-linejoin: round; stroke-linecap: butt}</style>
 </defs>
 <g id="figure_1">
  <g id="patch_1">
   <path d="M 0 345.6 
L 460.8 345.6 
L 460.8 0 
L 0 0 
z
" style="fill: #ffffff"/>
  </g>
  <g id="axes_1">
   <g id="patch_2">
    <path d="M 57.6 307.584 
L 414.72 307.584 
L 414.72 41.472 
L 57.6 41.472 
z
" style="fill: #ffffff"/>
   </g>
   <g id="PolyCollection_1">
    <defs>
     <path id="md7f423c244" d="M 57.6 -38.016 
L 57.6 -38.016 
L 58.315671 -36.804708 
L 59.031343 -35.593417 
L 59.747014 -34.385257 
L 60.462685 -33.190501 
L 61.178357 -32.667599 
L 61.894028 -32.302086 
L 62.609699 -31.929591 
L 63.325371 -31.890034 
L 64.041042 -31.886945 
L 64.756713 -31.889708 
L 65.472385 -31.96394 
L 66.188056 -32.106583 
L 66.903727 -32.27348 
L 67.619399 -32.473028 
L 68.33507 -32.713064 
L 69.050741 -32.926618 
L 69.766413 -33.078739 
L 70.482084 -33.236153 
L 71.197756 -33.493974 
L 71.913427 -33.995041 
L 72.629098 -34.300217 
L 73.34477 -34.628005 
L 74.060441 -34.914482 
L 74.776112 -35.156496 
L 75.491784 -35.481582 
L 76.207455 -36.102148 
L 76.923126 -36.465489 
L 77.638798 -36.807025 
L 78.354469 -37.113115 
L 79.07014 -37.359455 
L 79.785812 -37.5886 
L 80.501483 -37.888786 
L 81.217154 -38.362555 
L 81.932826 -38.599679 
L 82.648497 -38.782037 
L 83.364168 -38.969275 
L 84.07984 -39.110398 
L 84.795511 -39.252254 
L 85.511182 -39.398708 
L 86.226854 -39.513436 
L 86.942525 -39.601184 
L 87.658196 -39.657351 
L 88.373868 -39.706651 
L 89.089539 -39.739951 
L 89.80521 -39.789966 
L 90.520882 -39.836907 
L 91.236553 -39.848736 
L 91.952224 -39.859571 
L 92.667896 -39.82716 
L 93.383567 -39.992283 
L 94.099238 -39.903843 
L 94.81491 -39.83534 
L 95.530581 -39.975132 
L 96.246253 -40.150349 
L 96.961924 -40.338812 
L 97.677595 -40.5125 
L 98.393267 -40.705767 
L 99.108938 -40.986219 
L 99.824609 -41.106577 
L 100.540281 -41.224753 
L 101.255952 -41.421673 
L 101.971623 -41.649724 
L 102.687295 -42.04109 
L 103.402966 -42.456089 
L 104.118637 -42.936186 
L 104.834309 -43.404562 
L 105.54998 -43.795889 
L 106.265651 -44.085044 
L 106.981323 -44.312142 
L 107.696994 -44.561223 
L 108.412665 -45.084174 
L 109.128337 -45.685681 
L 109.844008 -46.3468 
L 110.559679 -47.030947 
L 111.275351 -47.724555 
L 111.991022 -48.373854 
L 112.706693 -48.964066 
L 113.422365 -49.550777 
L 114.138036 -50.052824 
L 114.853707 -50.695111 
L 115.569379 -51.127419 
L 116.28505 -51.47948 
L 117.000721 -51.795094 
L 117.716393 -52.011497 
L 118.432064 -52.142421 
L 119.147735 -52.307246 
L 119.863407 -52.51765 
L 120.579078 -52.722357 
L 121.294749 -52.843734 
L 122.010421 -52.89049 
L 122.726092 -53.015246 
L 123.441764 -53.272385 
L 124.157435 -53.469147 
L 124.873106 -53.614302 
L 125.588778 -53.709215 
L 126.304449 -53.777635 
L 127.02012 -54.169225 
L 127.735792 -54.107526 
L 128.451463 -53.947395 
L 129.167134 -54.15625 
L 129.882806 -54.096093 
L 130.598477 -54.030246 
L 131.314148 -54.029312 
L 132.02982 -53.968786 
L 132.745491 -53.807787 
L 133.461162 -53.663394 
L 134.176834 -53.530195 
L 134.892505 -53.400724 
L 135.608176 -53.705827 
L 136.323848 -53.726419 
L 137.039519 -53.738395 
L 137.75519 -53.757359 
L 138.470862 -54.115832 
L 139.186533 -54.220281 
L 139.902204 -54.311998 
L 140.617876 -54.521245 
L 141.333547 -54.799462 
L 142.049218 -55.075478 
L 142.76489 -55.316841 
L 143.480561 -55.535116 
L 144.196232 -55.7255 
L 144.911904 -55.946936 
L 145.627575 -56.383493 
L 146.343246 -56.643298 
L 147.058918 -56.860647 
L 147.774589 -57.22777 
L 148.490261 -57.550452 
L 149.205932 -57.959241 
L 149.921603 -58.378726 
L 150.637275 -58.77599 
L 151.352946 -59.169511 
L 152.068617 -59.664048 
L 152.784289 -60.235619 
L 153.49996 -60.837927 
L 154.215631 -61.598122 
L 154.931303 -62.107142 
L 155.646974 -62.617715 
L 156.362645 -63.11988 
L 157.078317 -63.567319 
L 157.793988 -64.00542 
L 158.509659 -64.485932 
L 159.225331 -65.073058 
L 159.941002 -65.715382 
L 160.656673 -66.35253 
L 161.372345 -66.985253 
L 162.088016 -67.646515 
L 162.803687 -68.252922 
L 163.519359 -68.757706 
L 164.23503 -69.251735 
L 164.950701 -69.700689 
L 165.666373 -70.04351 
L 166.382044 -70.30918 
L 167.097715 -70.556756 
L 167.813387 -70.800682 
L 168.529058 -71.015547 
L 169.244729 -71.183172 
L 169.960401 -71.467017 
L 170.676072 -71.930522 
L 171.391743 -72.376616 
L 172.107415 -72.785038 
L 172.823086 -73.151108 
L 173.538758 -73.4943 
L 174.254429 -73.852781 
L 174.9701 -74.230966 
L 175.685772 -74.502823 
L 176.401443 -74.648484 
L 177.117114 -74.844339 
L 177.832786 -75.179834 
L 178.548457 -75.432659 
L 179.264128 -75.744962 
L 179.9798 -76.146311 
L 180.695471 -76.596164 
L 181.411142 -77.114032 
L 182.126814 -77.666271 
L 182.842485 -78.178908 
L 183.558156 -78.660459 
L 184.273828 -79.129583 
L 184.989499 -79.504699 
L 185.70517 -79.888615 
L 186.420842 -80.424112 
L 187.136513 -81.011381 
L 187.852184 -81.517239 
L 188.567856 -82.023073 
L 189.283527 -82.474562 
L 189.999198 -82.853217 
L 190.71487 -83.202781 
L 191.430541 -83.826602 
L 192.146212 -84.128586 
L 192.861884 -84.463069 
L 193.577555 -84.732677 
L 194.293226 -84.987216 
L 195.008898 -85.23939 
L 195.724569 -85.744465 
L 196.44024 -86.128359 
L 197.155912 -86.448322 
L 197.871583 -87.040881 
L 198.587255 -87.594584 
L 199.302926 -87.886767 
L 200.018597 -88.260035 
L 200.734269 -88.941608 
L 201.44994 -89.353167 
L 202.165611 -89.753228 
L 202.881283 -90.173388 
L 203.596954 -90.473876 
L 204.312625 -90.691328 
L 205.028297 -90.931896 
L 205.743968 -91.193852 
L 206.459639 -91.505243 
L 207.175311 -91.694816 
L 207.890982 -92.094731 
L 208.606653 -92.499651 
L 209.322325 -92.944133 
L 210.037996 -93.401087 
L 210.753667 -93.86278 
L 211.469339 -94.45743 
L 212.18501 -95.133993 
L 212.900681 -95.820234 
L 213.616353 -96.676609 
L 214.332024 -97.540299 
L 215.047695 -98.538224 
L 215.763367 -99.385657 
L 216.479038 -100.181696 
L 217.194709 -100.958518 
L 217.910381 -101.426271 
L 218.626052 -101.821833 
L 219.341723 -102.13614 
L 220.057395 -102.484733 
L 220.773066 -102.930759 
L 221.488737 -103.400838 
L 222.204409 -103.832789 
L 222.92008 -104.187283 
L 223.635752 -104.489381 
L 224.351423 -104.795058 
L 225.067094 -105.288166 
L 225.782766 -105.603413 
L 226.498437 -105.868066 
L 227.214108 -106.178697 
L 227.92978 -106.715603 
L 228.645451 -107.042826 
L 229.361122 -107.427638 
L 230.076794 -107.786683 
L 230.792465 -108.175869 
L 231.508136 -108.697673 
L 232.223808 -109.470574 
L 232.939479 -110.10888 
L 233.65515 -110.83019 
L 234.370822 -111.343577 
L 235.086493 -111.829304 
L 235.802164 -112.473721 
L 236.517836 -113.155128 
L 237.233507 -113.886062 
L 237.949178 -114.55034 
L 238.66485 -115.182961 
L 239.380521 -115.791839 
L 240.096192 -116.294641 
L 240.811864 -116.709326 
L 241.527535 -117.081973 
L 242.243206 -117.522618 
L 242.958878 -118.014806 
L 243.674549 -118.596321 
L 244.39022 -119.262725 
L 245.105892 -119.984706 
L 245.821563 -120.845654 
L 246.537234 -121.756691 
L 247.252906 -122.556663 
L 247.968577 -123.487934 
L 248.684248 -124.216642 
L 249.39992 -125.061392 
L 250.115591 -125.959328 
L 250.831263 -126.7079 
L 251.546934 -127.364165 
L 252.262605 -127.958218 
L 252.978277 -128.579233 
L 253.693948 -129.217409 
L 254.409619 -129.77278 
L 255.125291 -130.269857 
L 255.840962 -130.789781 
L 256.556633 -131.592484 
L 257.272305 -132.761228 
L 257.987976 -133.37201 
L 258.703647 -133.925786 
L 259.419319 -134.569574 
L 260.13499 -135.389167 
L 260.850661 -136.436202 
L 261.566333 -137.047806 
L 262.282004 -137.484167 
L 262.997675 -137.849317 
L 263.713347 -138.365617 
L 264.429018 -138.865058 
L 265.144689 -139.36274 
L 265.860361 -139.81177 
L 266.576032 -140.310195 
L 267.291703 -140.778963 
L 268.007375 -141.17239 
L 268.723046 -141.514638 
L 269.438717 -141.801812 
L 270.154389 -142.153802 
L 270.87006 -142.515174 
L 271.585731 -143.057087 
L 272.301403 -143.689281 
L 273.017074 -144.545339 
L 273.732745 -145.060318 
L 274.448417 -146.056382 
L 275.164088 -146.590499 
L 275.87976 -147.079077 
L 276.595431 -147.59442 
L 277.311102 -148.555227 
L 278.026774 -149.720096 
L 278.742445 -150.449736 
L 279.458116 -151.170908 
L 280.173788 -151.845721 
L 280.889459 -152.414724 
L 281.60513 -152.953401 
L 282.320802 -153.479545 
L 283.036473 -153.93734 
L 283.752144 -154.393719 
L 284.467816 -154.818578 
L 285.183487 -155.267137 
L 285.899158 -155.700708 
L 286.61483 -156.138566 
L 287.330501 -156.714966 
L 288.046172 -157.176562 
L 288.761844 -157.591495 
L 289.477515 -158.051544 
L 290.193186 -159.16584 
L 290.908858 -159.956694 
L 291.624529 -160.777173 
L 292.3402 -161.768457 
L 293.055872 -162.964581 
L 293.771543 -163.695679 
L 294.487214 -164.381149 
L 295.202886 -165.020421 
L 295.918557 -165.789029 
L 296.634228 -166.67371 
L 297.3499 -167.258888 
L 298.065571 -168.452201 
L 298.781242 -169.160427 
L 299.496914 -169.772457 
L 300.212585 -170.430624 
L 300.928257 -171.129347 
L 301.643928 -171.725608 
L 302.359599 -172.290713 
L 303.075271 -172.837485 
L 303.790942 -173.343681 
L 304.506613 -173.971119 
L 305.222285 -174.81001 
L 305.937956 -175.554867 
L 306.653627 -176.882411 
L 307.369299 -177.809127 
L 308.08497 -178.680052 
L 308.800641 -179.684052 
L 309.516313 -180.537294 
L 310.231984 -181.372423 
L 310.947655 -182.12032 
L 311.663327 -182.884743 
L 312.378998 -183.548287 
L 313.094669 -184.221916 
L 313.810341 -184.802181 
L 314.526012 -185.314932 
L 315.241683 -186.214285 
L 315.957355 -186.652996 
L 316.673026 -187.32141 
L 317.388697 -187.897311 
L 318.104369 -188.415377 
L 318.82004 -189.140476 
L 319.535711 -189.582455 
L 320.251383 -190.218092 
L 320.967054 -190.823579 
L 321.682725 -191.504061 
L 322.398397 -192.107163 
L 323.114068 -192.712717 
L 323.829739 -193.373091 
L 324.545411 -194.315835 
L 325.261082 -195.050937 
L 325.976754 -195.754669 
L 326.692425 -196.468709 
L 327.408096 -197.131284 
L 328.123768 -197.80126 
L 328.839439 -198.443575 
L 329.55511 -199.092112 
L 330.270782 -199.68666 
L 330.986453 -200.289956 
L 331.702124 -200.969984 
L 332.417796 -201.522888 
L 333.133467 -201.95778 
L 333.849138 -202.348723 
L 334.56481 -202.790492 
L 335.280481 -203.198892 
L 335.996152 -203.576513 
L 336.711824 -204.37232 
L 337.427495 -204.760644 
L 338.143166 -205.198536 
L 338.858838 -205.898911 
L 339.574509 -206.379503 
L 340.29018 -206.858294 
L 341.005852 -207.50154 
L 341.721523 -208.1779 
L 342.437194 -208.830903 
L 343.152866 -209.395004 
L 343.868537 -210.035747 
L 344.584208 -210.564021 
L 345.29988 -211.061329 
L 346.015551 -211.514154 
L 346.731222 -211.952984 
L 347.446894 -212.355773 
L 348.162565 -212.854342 
L 348.878236 -213.530851 
L 349.593908 -214.326918 
L 350.309579 -214.985184 
L 351.025251 -215.549395 
L 351.740922 -216.071808 
L 352.456593 -216.596196 
L 353.172265 -217.324381 
L 353.887936 -217.943744 
L 354.603607 -218.674234 
L 355.319279 -219.497098 
L 356.03495 -220.378312 
L 356.750621 -221.257513 
L 357.466293 -222.081997 
L 358.181964 -222.820345 
L 358.897635 -223.640601 
L 359.613307 -224.376764 
L 360.328978 -225.039779 
L 361.044649 -225.593182 
L 361.760321 -226.240334 
L 362.475992 -226.82804 
L 363.191663 -227.448137 
L 363.907335 -228.005259 
L 364.623006 -228.468726 
L 365.338677 -229.004362 
L 366.054349 -229.6561 
L 366.77002 -230.817904 
L 367.485691 -231.72247 
L 368.201363 -232.587609 
L 368.917034 -233.454369 
L 369.632705 -234.381348 
L 370.348377 -235.430029 
L 371.064048 -236.427338 
L 371.779719 -237.383608 
L 372.495391 -238.305327 
L 373.211062 -239.191043 
L 373.926733 -240.400464 
L 374.642405 -241.151763 
L 375.358076 -241.722919 
L 376.073747 -242.262457 
L 376.789419 -242.72872 
L 377.50509 -243.146667 
L 378.220762 -243.549979 
L 378.936433 -244.132618 
L 379.652104 -244.680042 
L 380.367776 -245.195428 
L 381.083447 -245.702646 
L 381.799118 -246.213749 
L 382.51479 -246.79798 
L 383.230461 -247.826936 
L 383.946132 -248.745501 
L 384.661804 -249.939916 
L 385.377475 -250.753085 
L 386.093146 -251.480533 
L 386.808818 -252.264486 
L 387.524489 -253.119615 
L 388.24016 -253.664359 
L 388.955832 -254.159224 
L 389.671503 -254.631015 
L 390.387174 -255.056678 
L 391.102846 -255.520768 
L 391.818517 -256.227685 
L 392.534188 -256.730033 
L 393.24986 -257.251479 
L 393.965531 -257.845579 
L 394.681202 -258.411382 
L 395.396874 -259.003636 
L 396.112545 -259.495656 
L 396.828216 -260.046707 
L 397.543888 -260.593352 
L 398.259559 -261.238451 
L 398.97523 -262.131302 
L 399.690902 -262.987933 
L 400.406573 -263.768679 
L 401.122244 -264.569058 
L 401.837916 -265.567403 
L 402.553587 -266.496021 
L 403.269259 -267.362513 
L 403.98493 -268.21184 
L 404.700601 -269.016434 
L 405.416273 -270.066431 
L 406.131944 -271.169855 
L 406.847615 -272.317732 
L 407.563287 -273.496471 
L 408.278958 -274.755277 
L 408.994629 -276.056754 
L 409.710301 -277.356142 
L 410.425972 -278.793848 
L 411.141643 -280.473337 
L 411.857315 -282.271818 
L 412.572986 -284.000328 
L 413.288657 -285.625441 
L 414.004329 -288.540721 
L 414.72 -291.456 
L 414.72 -291.456 
L 414.72 -291.456 
L 414.004329 -293.169597 
L 413.288657 -294.883193 
L 412.572986 -295.4881 
L 411.857315 -296.19933 
L 411.141643 -296.992204 
L 410.425972 -297.718504 
L 409.710301 -298.285325 
L 408.994629 -298.725207 
L 408.278958 -299.119337 
L 407.563287 -299.429814 
L 406.847615 -299.656408 
L 406.131944 -299.833803 
L 405.416273 -299.979806 
L 404.700601 -300.123329 
L 403.98493 -300.077087 
L 403.269259 -300.086753 
L 402.553587 -300.124436 
L 401.837916 -300.23274 
L 401.122244 -300.373178 
L 400.406573 -300.377864 
L 399.690902 -300.237674 
L 398.97523 -299.992765 
L 398.259559 -299.967547 
L 397.543888 -299.811476 
L 396.828216 -299.621887 
L 396.112545 -299.311138 
L 395.396874 -299.12831 
L 394.681202 -298.979557 
L 393.965531 -298.781665 
L 393.24986 -298.641371 
L 392.534188 -298.448652 
L 391.818517 -298.221625 
L 391.102846 -297.995747 
L 390.387174 -297.692283 
L 389.671503 -297.338664 
L 388.955832 -296.971778 
L 388.24016 -296.582776 
L 387.524489 -296.240351 
L 386.808818 -295.994823 
L 386.093146 -295.897076 
L 385.377475 -295.860839 
L 384.661804 -295.870868 
L 383.946132 -296.056102 
L 383.230461 -296.164451 
L 382.51479 -296.249823 
L 381.799118 -296.093239 
L 381.083447 -295.953025 
L 380.367776 -295.81178 
L 379.652104 -295.642898 
L 378.936433 -295.421589 
L 378.220762 -295.218583 
L 377.50509 -294.997249 
L 376.789419 -294.753971 
L 376.073747 -294.49368 
L 375.358076 -294.243312 
L 374.642405 -293.990857 
L 373.926733 -293.809531 
L 373.211062 -293.807488 
L 372.495391 -293.564928 
L 371.779719 -293.291893 
L 371.064048 -293.046485 
L 370.348377 -292.851316 
L 369.632705 -292.598183 
L 368.917034 -292.224114 
L 368.201363 -291.842182 
L 367.485691 -291.420378 
L 366.77002 -291.022675 
L 366.054349 -290.823251 
L 365.338677 -290.371706 
L 364.623006 -289.910586 
L 363.907335 -289.291073 
L 363.191663 -288.637196 
L 362.475992 -287.802294 
L 361.760321 -287.121672 
L 361.044649 -286.577573 
L 360.328978 -285.924374 
L 359.613307 -285.365002 
L 358.897635 -284.849855 
L 358.181964 -284.410732 
L 357.466293 -283.91909 
L 356.750621 -283.445008 
L 356.03495 -282.952125 
L 355.319279 -282.639216 
L 354.603607 -282.171702 
L 353.887936 -281.599065 
L 353.172265 -280.997528 
L 352.456593 -280.476984 
L 351.740922 -279.898952 
L 351.025251 -279.332872 
L 350.309579 -278.807624 
L 349.593908 -278.407493 
L 348.878236 -278.010081 
L 348.162565 -277.816535 
L 347.446894 -277.52871 
L 346.731222 -277.206707 
L 346.015551 -276.893761 
L 345.29988 -276.478701 
L 344.584208 -276.088252 
L 343.868537 -275.704109 
L 343.152866 -275.263447 
L 342.437194 -274.854024 
L 341.721523 -274.503299 
L 341.005852 -274.196573 
L 340.29018 -273.937084 
L 339.574509 -273.598204 
L 338.858838 -273.334604 
L 338.143166 -273.140463 
L 337.427495 -272.878081 
L 336.711824 -272.518992 
L 335.996152 -272.187705 
L 335.280481 -271.716628 
L 334.56481 -271.276742 
L 333.849138 -270.884614 
L 333.133467 -270.248232 
L 332.417796 -269.622504 
L 331.702124 -269.123754 
L 330.986453 -268.748798 
L 330.270782 -268.355662 
L 329.55511 -267.965647 
L 328.839439 -267.598596 
L 328.123768 -267.219709 
L 327.408096 -266.815466 
L 326.692425 -266.303443 
L 325.976754 -265.769758 
L 325.261082 -265.241875 
L 324.545411 -264.706082 
L 323.829739 -264.164673 
L 323.114068 -263.500045 
L 322.398397 -262.771536 
L 321.682725 -262.008732 
L 320.967054 -261.321085 
L 320.251383 -260.699004 
L 319.535711 -259.996115 
L 318.82004 -259.315498 
L 318.104369 -258.726846 
L 317.388697 -258.036624 
L 316.673026 -257.339201 
L 315.957355 -256.742181 
L 315.241683 -255.952509 
L 314.526012 -255.370963 
L 313.810341 -254.713927 
L 313.094669 -254.081452 
L 312.378998 -253.605466 
L 311.663327 -253.114546 
L 310.947655 -252.662118 
L 310.231984 -252.198511 
L 309.516313 -251.727242 
L 308.800641 -251.240067 
L 308.08497 -250.819232 
L 307.369299 -250.288671 
L 306.653627 -249.637303 
L 305.937956 -249.438036 
L 305.222285 -249.055109 
L 304.506613 -248.655564 
L 303.790942 -248.21975 
L 303.075271 -247.610822 
L 302.359599 -247.014957 
L 301.643928 -246.408339 
L 300.928257 -245.816622 
L 300.212585 -245.285839 
L 299.496914 -244.755903 
L 298.781242 -244.211658 
L 298.065571 -243.648254 
L 297.3499 -243.326275 
L 296.634228 -242.0395 
L 295.918557 -241.54748 
L 295.202886 -240.979488 
L 294.487214 -240.284725 
L 293.771543 -239.685922 
L 293.055872 -239.300536 
L 292.3402 -239.187302 
L 291.624529 -238.913261 
L 290.908858 -238.613093 
L 290.193186 -238.344351 
L 289.477515 -238.322469 
L 288.761844 -237.952666 
L 288.046172 -237.58865 
L 287.330501 -237.191052 
L 286.61483 -236.380596 
L 285.899158 -235.908858 
L 285.183487 -235.430533 
L 284.467816 -234.94076 
L 283.752144 -234.465158 
L 283.036473 -233.96969 
L 282.320802 -233.42013 
L 281.60513 -232.856423 
L 280.889459 -232.173582 
L 280.173788 -231.520213 
L 279.458116 -230.980179 
L 278.742445 -230.556903 
L 278.026774 -230.198345 
L 277.311102 -230.055868 
L 276.595431 -229.623556 
L 275.87976 -229.105168 
L 275.164088 -228.556895 
L 274.448417 -228.061181 
L 273.732745 -227.897257 
L 273.017074 -227.48889 
L 272.301403 -227.198243 
L 271.585731 -226.851005 
L 270.87006 -226.420356 
L 270.154389 -225.90919 
L 269.438717 -225.460972 
L 268.723046 -224.893106 
L 268.007375 -224.327997 
L 267.291703 -223.811872 
L 266.576032 -223.463149 
L 265.860361 -223.144804 
L 265.144689 -222.656047 
L 264.429018 -222.156863 
L 263.713347 -221.662399 
L 262.997675 -221.316921 
L 262.282004 -220.918061 
L 261.566333 -220.50993 
L 260.850661 -220.16359 
L 260.13499 -219.959259 
L 259.419319 -219.679091 
L 258.703647 -219.342578 
L 257.987976 -218.894862 
L 257.272305 -218.381462 
L 256.556633 -218.140862 
L 255.840962 -217.652759 
L 255.125291 -216.911406 
L 254.409619 -216.19567 
L 253.693948 -215.536176 
L 252.978277 -214.89418 
L 252.262605 -214.159461 
L 251.546934 -213.381806 
L 250.831263 -212.666377 
L 250.115591 -212.057339 
L 249.39992 -211.602618 
L 248.684248 -211.151524 
L 247.968577 -210.571406 
L 247.252906 -210.090459 
L 246.537234 -209.644884 
L 245.821563 -209.298532 
L 245.105892 -208.955264 
L 244.39022 -208.610925 
L 243.674549 -208.241396 
L 242.958878 -207.848778 
L 242.243206 -207.353103 
L 241.527535 -206.791877 
L 240.811864 -206.183545 
L 240.096192 -205.669653 
L 239.380521 -205.231921 
L 238.66485 -204.909392 
L 237.949178 -204.521597 
L 237.233507 -204.207533 
L 236.517836 -203.891868 
L 235.802164 -203.532878 
L 235.086493 -203.159972 
L 234.370822 -202.637196 
L 233.65515 -202.015217 
L 232.939479 -201.473783 
L 232.223808 -200.899279 
L 231.508136 -200.323816 
L 230.792465 -199.728483 
L 230.076794 -199.138658 
L 229.361122 -198.611948 
L 228.645451 -198.118327 
L 227.92978 -197.67824 
L 227.214108 -197.411537 
L 226.498437 -197.032664 
L 225.782766 -196.625961 
L 225.067094 -196.214966 
L 224.351423 -195.809645 
L 223.635752 -195.340552 
L 222.92008 -194.860981 
L 222.204409 -194.351999 
L 221.488737 -193.865541 
L 220.773066 -193.364007 
L 220.057395 -192.831035 
L 219.341723 -192.274497 
L 218.626052 -191.728868 
L 217.910381 -191.206962 
L 217.194709 -190.762835 
L 216.479038 -190.455056 
L 215.763367 -190.215602 
L 215.047695 -189.973452 
L 214.332024 -189.748394 
L 213.616353 -189.490925 
L 212.900681 -189.196597 
L 212.18501 -188.791308 
L 211.469339 -188.362332 
L 210.753667 -187.929224 
L 210.037996 -187.423289 
L 209.322325 -186.930302 
L 208.606653 -186.502989 
L 207.890982 -186.075352 
L 207.175311 -185.436259 
L 206.459639 -184.692088 
L 205.743968 -184.004319 
L 205.028297 -183.164072 
L 204.312625 -182.288066 
L 203.596954 -181.411827 
L 202.881283 -180.649108 
L 202.165611 -179.942274 
L 201.44994 -179.258191 
L 200.734269 -178.653086 
L 200.018597 -178.174009 
L 199.302926 -177.403604 
L 198.587255 -176.427389 
L 197.871583 -175.616742 
L 197.155912 -174.930477 
L 196.44024 -174.261275 
L 195.724569 -173.710326 
L 195.008898 -173.223697 
L 194.293226 -172.708771 
L 193.577555 -172.235898 
L 192.861884 -171.781917 
L 192.146212 -171.370371 
L 191.430541 -170.951636 
L 190.71487 -170.608591 
L 189.999198 -170.171936 
L 189.283527 -169.79636 
L 188.567856 -169.463058 
L 187.852184 -169.100781 
L 187.136513 -168.644851 
L 186.420842 -168.10727 
L 185.70517 -167.507545 
L 184.989499 -166.808127 
L 184.273828 -166.079581 
L 183.558156 -165.495525 
L 182.842485 -164.909387 
L 182.126814 -164.309981 
L 181.411142 -163.743823 
L 180.695471 -163.288319 
L 179.9798 -162.785153 
L 179.264128 -162.267911 
L 178.548457 -161.749363 
L 177.832786 -161.247729 
L 177.117114 -160.702217 
L 176.401443 -159.914803 
L 175.685772 -159.124349 
L 174.9701 -158.439006 
L 174.254429 -157.92047 
L 173.538758 -157.459912 
L 172.823086 -156.996347 
L 172.107415 -156.580369 
L 171.391743 -156.231281 
L 170.676072 -155.894432 
L 169.960401 -155.52052 
L 169.244729 -154.910024 
L 168.529058 -154.056805 
L 167.813387 -153.295083 
L 167.097715 -152.57989 
L 166.382044 -151.819106 
L 165.666373 -151.034632 
L 164.950701 -150.288838 
L 164.23503 -149.604491 
L 163.519359 -148.949488 
L 162.803687 -148.394353 
L 162.088016 -148.030799 
L 161.372345 -147.715922 
L 160.656673 -147.340089 
L 159.941002 -146.985364 
L 159.225331 -146.627288 
L 158.509659 -146.29806 
L 157.793988 -145.943616 
L 157.078317 -145.608404 
L 156.362645 -145.268567 
L 155.646974 -144.921832 
L 154.931303 -144.503644 
L 154.215631 -144.088395 
L 153.49996 -143.723075 
L 152.784289 -143.375051 
L 152.068617 -142.937012 
L 151.352946 -142.35032 
L 150.637275 -141.651885 
L 149.921603 -140.962467 
L 149.205932 -140.290775 
L 148.490261 -139.591174 
L 147.774589 -138.829344 
L 147.058918 -137.968848 
L 146.343246 -137.204534 
L 145.627575 -136.500098 
L 144.911904 -135.859926 
L 144.196232 -135.079447 
L 143.480561 -134.284556 
L 142.76489 -133.508811 
L 142.049218 -132.708056 
L 141.333547 -131.972967 
L 140.617876 -131.250238 
L 139.902204 -130.545811 
L 139.186533 -129.688769 
L 138.470862 -128.849613 
L 137.75519 -128.160694 
L 137.039519 -127.270424 
L 136.323848 -126.300901 
L 135.608176 -125.336406 
L 134.892505 -124.230545 
L 134.176834 -123.019167 
L 133.461162 -121.847452 
L 132.745491 -120.672521 
L 132.02982 -119.583901 
L 131.314148 -118.619655 
L 130.598477 -117.716169 
L 129.882806 -116.81686 
L 129.167134 -116.013971 
L 128.451463 -115.323509 
L 127.735792 -114.491261 
L 127.02012 -113.846111 
L 126.304449 -113.547529 
L 125.588778 -113.092652 
L 124.873106 -112.651559 
L 124.157435 -112.224197 
L 123.441764 -111.822957 
L 122.726092 -111.504479 
L 122.010421 -111.083375 
L 121.294749 -110.524313 
L 120.579078 -109.955959 
L 119.863407 -109.450916 
L 119.147735 -108.955082 
L 118.432064 -108.298836 
L 117.716393 -107.565099 
L 117.000721 -106.904971 
L 116.28505 -106.312371 
L 115.569379 -105.744658 
L 114.853707 -105.24976 
L 114.138036 -104.837499 
L 113.422365 -104.406791 
L 112.706693 -104.098922 
L 111.991022 -103.835177 
L 111.275351 -103.535025 
L 110.559679 -103.247003 
L 109.844008 -102.967333 
L 109.128337 -102.608128 
L 108.412665 -102.192651 
L 107.696994 -101.76986 
L 106.981323 -101.004147 
L 106.265651 -100.244267 
L 105.54998 -99.540574 
L 104.834309 -98.918996 
L 104.118637 -98.255518 
L 103.402966 -97.599886 
L 102.687295 -96.916458 
L 101.971623 -96.245717 
L 101.255952 -95.280561 
L 100.540281 -94.304071 
L 99.824609 -93.325766 
L 99.108938 -92.359038 
L 98.393267 -91.317954 
L 97.677595 -90.358888 
L 96.961924 -89.433333 
L 96.246253 -88.542449 
L 95.530581 -87.704278 
L 94.81491 -86.879245 
L 94.099238 -85.733302 
L 93.383567 -84.636517 
L 92.667896 -83.693694 
L 91.952224 -82.657734 
L 91.236553 -81.693057 
L 90.520882 -80.785656 
L 89.80521 -80.10716 
L 89.089539 -79.546271 
L 88.373868 -78.924154 
L 87.658196 -78.373966 
L 86.942525 -77.856689 
L 86.226854 -77.386147 
L 85.511182 -76.94693 
L 84.795511 -76.542857 
L 84.07984 -76.148221 
L 83.364168 -75.798034 
L 82.648497 -75.455559 
L 81.932826 -75.030672 
L 81.217154 -74.547995 
L 80.501483 -74.101384 
L 79.785812 -73.608075 
L 79.07014 -72.964217 
L 78.354469 -72.268968 
L 77.638798 -71.570696 
L 76.923126 -70.892376 
L 76.207455 -70.152601 
L 75.491784 -69.489565 
L 74.776112 -68.6645 
L 74.060441 -67.70994 
L 73.34477 -66.83996 
L 72.629098 -66.043443 
L 71.913427 -65.206393 
L 71.197756 -64.439599 
L 70.482084 -63.596623 
L 69.766413 -62.650391 
L 69.050741 -61.675506 
L 68.33507 -60.729175 
L 67.619399 -59.818298 
L 66.903727 -58.938081 
L 66.188056 -58.081805 
L 65.472385 -57.203327 
L 64.756713 -56.276368 
L 64.041042 -55.26647 
L 63.325371 -54.273813 
L 62.609699 -53.236599 
L 61.894028 -51.748401 
L 61.178357 -50.243185 
L 60.462685 -48.491954 
L 59.747014 -45.874025 
L 59.031343 -43.25505 
L 58.315671 -40.635525 
L 57.6 -38.016 
z
" style="stroke: #0000ff; stroke-opacity: 0.1"/>
    </defs>
    <g clip-path="url(#p11b82aa40f)">
     <use xlink:href="#md7f423c244" x="0" y="345.6" style="fill: #0000ff; fill-opacity: 0.1; stroke: #0000ff; stroke-opacity: 0.1"/>
    </g>
   </g>
   <g id="matplotlib.axis_1">
    <g id="xtick_1">
     <g id="line2d_1">
      <defs>
       <path id="m4de7a8f6f3" d="M 0 0 
L 0 3.5 
" style="stroke: #000000; stroke-width: 0.8"/>
      </defs>
      <g>
       <use xlink:href="#m4de7a8f6f3" x="57.6" y="307.584" style="stroke: #000000; stroke-width: 0.8"/>
      </g>
     </g>
     <g id="text_1">
      <!-- 0.0 -->
      <g transform="translate(49.648438 322.182437) scale(0.1 -0.1)">
       <defs>
        <path id="DejaVuSans-30" d="M 2034 4250 
Q 1547 4250 1301 3770 
Q 1056 3291 1056 2328 
Q 1056 1369 1301 889 
Q 1547 409 2034 409 
Q 2525 409 2770 889 
Q 3016 1369 3016 2328 
Q 3016 3291 2770 3770 
Q 2525 4250 2034 4250 
z
M 2034 4750 
Q 2819 4750 3233 4129 
Q 3647 3509 3647 2328 
Q 3647 1150 3233 529 
Q 2819 -91 2034 -91 
Q 1250 -91 836 529 
Q 422 1150 422 2328 
Q 422 3509 836 4129 
Q 1250 4750 2034 4750 
z
" transform="scale(0.015625)"/>
        <path id="DejaVuSans-2e" d="M 684 794 
L 1344 794 
L 1344 0 
L 684 0 
L 684 794 
z
" transform="scale(0.015625)"/>
       </defs>
       <use xlink:href="#DejaVuSans-30"/>
       <use xlink:href="#DejaVuSans-2e" x="63.623047"/>
       <use xlink:href="#DejaVuSans-30" x="95.410156"/>
      </g>
     </g>
    </g>
    <g id="xtick_2">
     <g id="line2d_2">
      <g>
       <use xlink:href="#m4de7a8f6f3" x="129.024" y="307.584" style="stroke: #000000; stroke-width: 0.8"/>
      </g>
     </g>
     <g id="text_2">
      <!-- 0.2 -->
      <g transform="translate(121.072438 322.182437) scale(0.1 -0.1)">
       <defs>
        <path id="DejaVuSans-32" d="M 1228 531 
L 3431 531 
L 3431 0 
L 469 0 
L 469 531 
Q 828 903 1448 1529 
Q 2069 2156 2228 2338 
Q 2531 2678 2651 2914 
Q 2772 3150 2772 3378 
Q 2772 3750 2511 3984 
Q 2250 4219 1831 4219 
Q 1534 4219 1204 4116 
Q 875 4013 500 3803 
L 500 4441 
Q 881 4594 1212 4672 
Q 1544 4750 1819 4750 
Q 2544 4750 2975 4387 
Q 3406 4025 3406 3419 
Q 3406 3131 3298 2873 
Q 3191 2616 2906 2266 
Q 2828 2175 2409 1742 
Q 1991 1309 1228 531 
z
" transform="scale(0.015625)"/>
       </defs>
       <use xlink:href="#DejaVuSans-30"/>
       <use xlink:href="#DejaVuSans-2e" x="63.623047"/>
       <use xlink:href="#DejaVuSans-32" x="95.410156"/>
      </g>
     </g>
    </g>
    <g id="xtick_3">
     <g id="line2d_3">
      <g>
       <use xlink:href="#m4de7a8f6f3" x="200.448" y="307.584" style="stroke: #000000; stroke-width: 0.8"/>
      </g>
     </g>
     <g id="text_3">
      <!-- 0.4 -->
      <g transform="translate(192.496438 322.182437) scale(0.1 -0.1)">
       <defs>
        <path id="DejaVuSans-34" d="M 2419 4116 
L 825 1625 
L 2419 1625 
L 2419 4116 
z
M 2253 4666 
L 3047 4666 
L 3047 1625 
L 3713 1625 
L 3713 1100 
L 3047 1100 
L 3047 0 
L 2419 0 
L 2419 1100 
L 313 1100 
L 313 1709 
L 2253 4666 
z
" transform="scale(0.015625)"/>
       </defs>
       <use xlink:href="#DejaVuSans-30"/>
       <use xlink:href="#DejaVuSans-2e" x="63.623047"/>
       <use xlink:href="#DejaVuSans-34" x="95.410156"/>
      </g>
     </g>
    </g>
    <g id="xtick_4">
     <g id="line2d_4">
      <g>
       <use xlink:href="#m4de7a8f6f3" x="271.872" y="307.584" style="stroke: #000000; stroke-width: 0.8"/>
      </g>
     </g>
     <g id="text_4">
      <!-- 0.6 -->
      <g transform="translate(263.920438 322.182437) scale(0.1 -0.1)">
       <defs>
        <path id="DejaVuSans-36" d="M 2113 2584 
Q 1688 2584 1439 2293 
Q 1191 2003 1191 1497 
Q 1191 994 1439 701 
Q 1688 409 2113 409 
Q 2538 409 2786 701 
Q 3034 994 3034 1497 
Q 3034 2003 2786 2293 
Q 2538 2584 2113 2584 
z
M 3366 4563 
L 3366 3988 
Q 3128 4100 2886 4159 
Q 2644 4219 2406 4219 
Q 1781 4219 1451 3797 
Q 1122 3375 1075 2522 
Q 1259 2794 1537 2939 
Q 1816 3084 2150 3084 
Q 2853 3084 3261 2657 
Q 3669 2231 3669 1497 
Q 3669 778 3244 343 
Q 2819 -91 2113 -91 
Q 1303 -91 875 529 
Q 447 1150 447 2328 
Q 447 3434 972 4092 
Q 1497 4750 2381 4750 
Q 2619 4750 2861 4703 
Q 3103 4656 3366 4563 
z
" transform="scale(0.015625)"/>
       </defs>
       <use xlink:href="#DejaVuSans-30"/>
       <use xlink:href="#DejaVuSans-2e" x="63.623047"/>
       <use xlink:href="#DejaVuSans-36" x="95.410156"/>
      </g>
     </g>
    </g>
    <g id="xtick_5">
     <g id="line2d_5">
      <g>
       <use xlink:href="#m4de7a8f6f3" x="343.296" y="307.584" style="stroke: #000000; stroke-width: 0.8"/>
      </g>
     </g>
     <g id="text_5">
      <!-- 0.8 -->
      <g transform="translate(335.344438 322.182437) scale(0.1 -0.1)">
       <defs>
        <path id="DejaVuSans-38" d="M 2034 2216 
Q 1584 2216 1326 1975 
Q 1069 1734 1069 1313 
Q 1069 891 1326 650 
Q 1584 409 2034 409 
Q 2484 409 2743 651 
Q 3003 894 3003 1313 
Q 3003 1734 2745 1975 
Q 2488 2216 2034 2216 
z
M 1403 2484 
Q 997 2584 770 2862 
Q 544 3141 544 3541 
Q 544 4100 942 4425 
Q 1341 4750 2034 4750 
Q 2731 4750 3128 4425 
Q 3525 4100 3525 3541 
Q 3525 3141 3298 2862 
Q 3072 2584 2669 2484 
Q 3125 2378 3379 2068 
Q 3634 1759 3634 1313 
Q 3634 634 3220 271 
Q 2806 -91 2034 -91 
Q 1263 -91 848 271 
Q 434 634 434 1313 
Q 434 1759 690 2068 
Q 947 2378 1403 2484 
z
M 1172 3481 
Q 1172 3119 1398 2916 
Q 1625 2713 2034 2713 
Q 2441 2713 2670 2916 
Q 2900 3119 2900 3481 
Q 2900 3844 2670 4047 
Q 2441 4250 2034 4250 
Q 1625 4250 1398 4047 
Q 1172 3844 1172 3481 
z
" transform="scale(0.015625)"/>
       </defs>
       <use xlink:href="#DejaVuSans-30"/>
       <use xlink:href="#DejaVuSans-2e" x="63.623047"/>
       <use xlink:href="#DejaVuSans-38" x="95.410156"/>
      </g>
     </g>
    </g>
    <g id="xtick_6">
     <g id="line2d_6">
      <g>
       <use xlink:href="#m4de7a8f6f3" x="414.72" y="307.584" style="stroke: #000000; stroke-width: 0.8"/>
      </g>
     </g>
     <g id="text_6">
      <!-- 1.0 -->
      <g transform="translate(406.768438 322.182437) scale(0.1 -0.1)">
       <defs>
        <path id="DejaVuSans-31" d="M 794 531 
L 1825 531 
L 1825 4091 
L 703 3866 
L 703 4441 
L 1819 4666 
L 2450 4666 
L 2450 531 
L 3481 531 
L 3481 0 
L 794 0 
L 794 531 
z
" transform="scale(0.015625)"/>
       </defs>
       <use xlink:href="#DejaVuSans-31"/>
       <use xlink:href="#DejaVuSans-2e" x="63.623047"/>
       <use xlink:href="#DejaVuSans-30" x="95.410156"/>
      </g>
     </g>
    </g>
    <g id="text_7">
     <!-- False Positive Rate -->
     <g transform="translate(189.693594 335.860562) scale(0.1 -0.1)">
      <defs>
       <path id="DejaVuSans-46" d="M 628 4666 
L 3309 4666 
L 3309 4134 
L 1259 4134 
L 1259 2759 
L 3109 2759 
L 3109 2228 
L 1259 2228 
L 1259 0 
L 628 0 
L 628 4666 
z
" transform="scale(0.015625)"/>
       <path id="DejaVuSans-61" d="M 2194 1759 
Q 1497 1759 1228 1600 
Q 959 1441 959 1056 
Q 959 750 1161 570 
Q 1363 391 1709 391 
Q 2188 391 2477 730 
Q 2766 1069 2766 1631 
L 2766 1759 
L 2194 1759 
z
M 3341 1997 
L 3341 0 
L 2766 0 
L 2766 531 
Q 2569 213 2275 61 
Q 1981 -91 1556 -91 
Q 1019 -91 701 211 
Q 384 513 384 1019 
Q 384 1609 779 1909 
Q 1175 2209 1959 2209 
L 2766 2209 
L 2766 2266 
Q 2766 2663 2505 2880 
Q 2244 3097 1772 3097 
Q 1472 3097 1187 3025 
Q 903 2953 641 2809 
L 641 3341 
Q 956 3463 1253 3523 
Q 1550 3584 1831 3584 
Q 2591 3584 2966 3190 
Q 3341 2797 3341 1997 
z
" transform="scale(0.015625)"/>
       <path id="DejaVuSans-6c" d="M 603 4863 
L 1178 4863 
L 1178 0 
L 603 0 
L 603 4863 
z
" transform="scale(0.015625)"/>
       <path id="DejaVuSans-73" d="M 2834 3397 
L 2834 2853 
Q 2591 2978 2328 3040 
Q 2066 3103 1784 3103 
Q 1356 3103 1142 2972 
Q 928 2841 928 2578 
Q 928 2378 1081 2264 
Q 1234 2150 1697 2047 
L 1894 2003 
Q 2506 1872 2764 1633 
Q 3022 1394 3022 966 
Q 3022 478 2636 193 
Q 2250 -91 1575 -91 
Q 1294 -91 989 -36 
Q 684 19 347 128 
L 347 722 
Q 666 556 975 473 
Q 1284 391 1588 391 
Q 1994 391 2212 530 
Q 2431 669 2431 922 
Q 2431 1156 2273 1281 
Q 2116 1406 1581 1522 
L 1381 1569 
Q 847 1681 609 1914 
Q 372 2147 372 2553 
Q 372 3047 722 3315 
Q 1072 3584 1716 3584 
Q 2034 3584 2315 3537 
Q 2597 3491 2834 3397 
z
" transform="scale(0.015625)"/>
       <path id="DejaVuSans-65" d="M 3597 1894 
L 3597 1613 
L 953 1613 
Q 991 1019 1311 708 
Q 1631 397 2203 397 
Q 2534 397 2845 478 
Q 3156 559 3463 722 
L 3463 178 
Q 3153 47 2828 -22 
Q 2503 -91 2169 -91 
Q 1331 -91 842 396 
Q 353 884 353 1716 
Q 353 2575 817 3079 
Q 1281 3584 2069 3584 
Q 2775 3584 3186 3129 
Q 3597 2675 3597 1894 
z
M 3022 2063 
Q 3016 2534 2758 2815 
Q 2500 3097 2075 3097 
Q 1594 3097 1305 2825 
Q 1016 2553 972 2059 
L 3022 2063 
z
" transform="scale(0.015625)"/>
       <path id="DejaVuSans-20" transform="scale(0.015625)"/>
       <path id="DejaVuSans-50" d="M 1259 4147 
L 1259 2394 
L 2053 2394 
Q 2494 2394 2734 2622 
Q 2975 2850 2975 3272 
Q 2975 3691 2734 3919 
Q 2494 4147 2053 4147 
L 1259 4147 
z
M 628 4666 
L 2053 4666 
Q 2838 4666 3239 4311 
Q 3641 3956 3641 3272 
Q 3641 2581 3239 2228 
Q 2838 1875 2053 1875 
L 1259 1875 
L 1259 0 
L 628 0 
L 628 4666 
z
" transform="scale(0.015625)"/>
       <path id="DejaVuSans-6f" d="M 1959 3097 
Q 1497 3097 1228 2736 
Q 959 2375 959 1747 
Q 959 1119 1226 758 
Q 1494 397 1959 397 
Q 2419 397 2687 759 
Q 2956 1122 2956 1747 
Q 2956 2369 2687 2733 
Q 2419 3097 1959 3097 
z
M 1959 3584 
Q 2709 3584 3137 3096 
Q 3566 2609 3566 1747 
Q 3566 888 3137 398 
Q 2709 -91 1959 -91 
Q 1206 -91 779 398 
Q 353 888 353 1747 
Q 353 2609 779 3096 
Q 1206 3584 1959 3584 
z
" transform="scale(0.015625)"/>
       <path id="DejaVuSans-69" d="M 603 3500 
L 1178 3500 
L 1178 0 
L 603 0 
L 603 3500 
z
M 603 4863 
L 1178 4863 
L 1178 4134 
L 603 4134 
L 603 4863 
z
" transform="scale(0.015625)"/>
       <path id="DejaVuSans-74" d="M 1172 4494 
L 1172 3500 
L 2356 3500 
L 2356 3053 
L 1172 3053 
L 1172 1153 
Q 1172 725 1289 603 
Q 1406 481 1766 481 
L 2356 481 
L 2356 0 
L 1766 0 
Q 1100 0 847 248 
Q 594 497 594 1153 
L 594 3053 
L 172 3053 
L 172 3500 
L 594 3500 
L 594 4494 
L 1172 4494 
z
" transform="scale(0.015625)"/>
       <path id="DejaVuSans-76" d="M 191 3500 
L 800 3500 
L 1894 563 
L 2988 3500 
L 3597 3500 
L 2284 0 
L 1503 0 
L 191 3500 
z
" transform="scale(0.015625)"/>
       <path id="DejaVuSans-52" d="M 2841 2188 
Q 3044 2119 3236 1894 
Q 3428 1669 3622 1275 
L 4263 0 
L 3584 0 
L 2988 1197 
Q 2756 1666 2539 1819 
Q 2322 1972 1947 1972 
L 1259 1972 
L 1259 0 
L 628 0 
L 628 4666 
L 2053 4666 
Q 2853 4666 3247 4331 
Q 3641 3997 3641 3322 
Q 3641 2881 3436 2590 
Q 3231 2300 2841 2188 
z
M 1259 4147 
L 1259 2491 
L 2053 2491 
Q 2509 2491 2742 2702 
Q 2975 2913 2975 3322 
Q 2975 3731 2742 3939 
Q 2509 4147 2053 4147 
L 1259 4147 
z
" transform="scale(0.015625)"/>
      </defs>
      <use xlink:href="#DejaVuSans-46"/>
      <use xlink:href="#DejaVuSans-61" x="48.394531"/>
      <use xlink:href="#DejaVuSans-6c" x="109.673828"/>
      <use xlink:href="#DejaVuSans-73" x="137.457031"/>
      <use xlink:href="#DejaVuSans-65" x="189.556641"/>
      <use xlink:href="#DejaVuSans-20" x="251.080078"/>
      <use xlink:href="#DejaVuSans-50" x="282.867188"/>
      <use xlink:href="#DejaVuSans-6f" x="339.544922"/>
      <use xlink:href="#DejaVuSans-73" x="400.726562"/>
      <use xlink:href="#DejaVuSans-69" x="452.826172"/>
      <use xlink:href="#DejaVuSans-74" x="480.609375"/>
      <use xlink:href="#DejaVuSans-69" x="519.818359"/>
      <use xlink:href="#DejaVuSans-76" x="547.601562"/>
      <use xlink:href="#DejaVuSans-65" x="606.78125"/>
      <use xlink:href="#DejaVuSans-20" x="668.304688"/>
      <use xlink:href="#DejaVuSans-52" x="700.091797"/>
      <use xlink:href="#DejaVuSans-61" x="767.324219"/>
      <use xlink:href="#DejaVuSans-74" x="828.603516"/>
      <use xlink:href="#DejaVuSans-65" x="867.8125"/>
     </g>
    </g>
   </g>
   <g id="matplotlib.axis_2">
    <g id="ytick_1">
     <g id="line2d_7">
      <defs>
       <path id="m080470b3b1" d="M 0 0 
L -3.5 0 
" style="stroke: #000000; stroke-width: 0.8"/>
      </defs>
      <g>
       <use xlink:href="#m080470b3b1" x="57.6" y="307.584" style="stroke: #000000; stroke-width: 0.8"/>
      </g>
     </g>
     <g id="text_8">
      <!-- 0.0 -->
      <g transform="translate(34.696875 311.383219) scale(0.1 -0.1)">
       <use xlink:href="#DejaVuSans-30"/>
       <use xlink:href="#DejaVuSans-2e" x="63.623047"/>
       <use xlink:href="#DejaVuSans-30" x="95.410156"/>
      </g>
     </g>
    </g>
    <g id="ytick_2">
     <g id="line2d_8">
      <g>
       <use xlink:href="#m080470b3b1" x="57.6" y="256.896" style="stroke: #000000; stroke-width: 0.8"/>
      </g>
     </g>
     <g id="text_9">
      <!-- 0.2 -->
      <g transform="translate(34.696875 260.695219) scale(0.1 -0.1)">
       <use xlink:href="#DejaVuSans-30"/>
       <use xlink:href="#DejaVuSans-2e" x="63.623047"/>
       <use xlink:href="#DejaVuSans-32" x="95.410156"/>
      </g>
     </g>
    </g>
    <g id="ytick_3">
     <g id="line2d_9">
      <g>
       <use xlink:href="#m080470b3b1" x="57.6" y="206.208" style="stroke: #000000; stroke-width: 0.8"/>
      </g>
     </g>
     <g id="text_10">
      <!-- 0.4 -->
      <g transform="translate(34.696875 210.007219) scale(0.1 -0.1)">
       <use xlink:href="#DejaVuSans-30"/>
       <use xlink:href="#DejaVuSans-2e" x="63.623047"/>
       <use xlink:href="#DejaVuSans-34" x="95.410156"/>
      </g>
     </g>
    </g>
    <g id="ytick_4">
     <g id="line2d_10">
      <g>
       <use xlink:href="#m080470b3b1" x="57.6" y="155.52" style="stroke: #000000; stroke-width: 0.8"/>
      </g>
     </g>
     <g id="text_11">
      <!-- 0.6 -->
      <g transform="translate(34.696875 159.319219) scale(0.1 -0.1)">
       <use xlink:href="#DejaVuSans-30"/>
       <use xlink:href="#DejaVuSans-2e" x="63.623047"/>
       <use xlink:href="#DejaVuSans-36" x="95.410156"/>
      </g>
     </g>
    </g>
    <g id="ytick_5">
     <g id="line2d_11">
      <g>
       <use xlink:href="#m080470b3b1" x="57.6" y="104.832" style="stroke: #000000; stroke-width: 0.8"/>
      </g>
     </g>
     <g id="text_12">
      <!-- 0.8 -->
      <g transform="translate(34.696875 108.631219) scale(0.1 -0.1)">
       <use xlink:href="#DejaVuSans-30"/>
       <use xlink:href="#DejaVuSans-2e" x="63.623047"/>
       <use xlink:href="#DejaVuSans-38" x="95.410156"/>
      </g>
     </g>
    </g>
    <g id="ytick_6">
     <g id="line2d_12">
      <g>
       <use xlink:href="#m080470b3b1" x="57.6" y="54.144" style="stroke: #000000; stroke-width: 0.8"/>
      </g>
     </g>
     <g id="text_13">
      <!-- 1.0 -->
      <g transform="translate(34.696875 57.943219) scale(0.1 -0.1)">
       <use xlink:href="#DejaVuSans-31"/>
       <use xlink:href="#DejaVuSans-2e" x="63.623047"/>
       <use xlink:href="#DejaVuSans-30" x="95.410156"/>
      </g>
     </g>
    </g>
    <g id="text_14">
     <!-- True Positive Rate -->
     <g transform="translate(28.617187 219.057687) rotate(-90) scale(0.1 -0.1)">
      <defs>
       <path id="DejaVuSans-54" d="M -19 4666 
L 3928 4666 
L 3928 4134 
L 2272 4134 
L 2272 0 
L 1638 0 
L 1638 4134 
L -19 4134 
L -19 4666 
z
" transform="scale(0.015625)"/>
       <path id="DejaVuSans-72" d="M 2631 2963 
Q 2534 3019 2420 3045 
Q 2306 3072 2169 3072 
Q 1681 3072 1420 2755 
Q 1159 2438 1159 1844 
L 1159 0 
L 581 0 
L 581 3500 
L 1159 3500 
L 1159 2956 
Q 1341 3275 1631 3429 
Q 1922 3584 2338 3584 
Q 2397 3584 2469 3576 
Q 2541 3569 2628 3553 
L 2631 2963 
z
" transform="scale(0.015625)"/>
       <path id="DejaVuSans-75" d="M 544 1381 
L 544 3500 
L 1119 3500 
L 1119 1403 
Q 1119 906 1312 657 
Q 1506 409 1894 409 
Q 2359 409 2629 706 
Q 2900 1003 2900 1516 
L 2900 3500 
L 3475 3500 
L 3475 0 
L 2900 0 
L 2900 538 
Q 2691 219 2414 64 
Q 2138 -91 1772 -91 
Q 1169 -91 856 284 
Q 544 659 544 1381 
z
M 1991 3584 
L 1991 3584 
z
" transform="scale(0.015625)"/>
      </defs>
      <use xlink:href="#DejaVuSans-54"/>
      <use xlink:href="#DejaVuSans-72" x="46.333984"/>
      <use xlink:href="#DejaVuSans-75" x="87.447266"/>
      <use xlink:href="#DejaVuSans-65" x="150.826172"/>
      <use xlink:href="#DejaVuSans-20" x="212.349609"/>
      <use xlink:href="#DejaVuSans-50" x="244.136719"/>
      <use xlink:href="#DejaVuSans-6f" x="300.814453"/>
      <use xlink:href="#DejaVuSans-73" x="361.996094"/>
      <use xlink:href="#DejaVuSans-69" x="414.095703"/>
      <use xlink:href="#DejaVuSans-74" x="441.878906"/>
      <use xlink:href="#DejaVuSans-69" x="481.087891"/>
      <use xlink:href="#DejaVuSans-76" x="508.871094"/>
      <use xlink:href="#DejaVuSans-65" x="568.050781"/>
      <use xlink:href="#DejaVuSans-20" x="629.574219"/>
      <use xlink:href="#DejaVuSans-52" x="661.361328"/>
      <use xlink:href="#DejaVuSans-61" x="728.59375"/>
      <use xlink:href="#DejaVuSans-74" x="789.873047"/>
      <use xlink:href="#DejaVuSans-65" x="829.082031"/>
     </g>
    </g>
   </g>
   <g id="line2d_13">
    <path d="M 57.6 307.584 
L 61.178357 304.144608 
L 63.325371 302.518077 
L 67.619399 299.454337 
L 78.354469 290.908959 
L 81.217154 289.144725 
L 82.648497 288.481202 
L 88.373868 286.284598 
L 90.520882 285.288718 
L 92.667896 283.839573 
L 95.530581 281.760295 
L 97.677595 280.164306 
L 105.54998 273.931769 
L 112.706693 269.068506 
L 116.28505 266.704074 
L 119.147735 264.968836 
L 122.010421 263.613068 
L 127.02012 261.592332 
L 128.451463 260.964548 
L 134.176834 257.325319 
L 134.892505 256.784366 
L 135.608176 256.078883 
L 147.774589 247.571443 
L 154.215631 242.756741 
L 157.078317 241.012139 
L 159.225331 239.749827 
L 164.23503 236.171887 
L 167.097715 234.031677 
L 170.676072 231.687523 
L 174.9701 229.265014 
L 177.832786 227.386218 
L 179.9798 226.134268 
L 182.126814 224.611874 
L 187.852184 220.29099 
L 189.999198 219.087424 
L 195.724569 215.872605 
L 197.155912 214.910601 
L 200.734269 211.802653 
L 203.596954 209.657148 
L 207.890982 206.514958 
L 210.037996 205.187812 
L 212.18501 203.63735 
L 218.626052 198.82465 
L 220.773066 197.452617 
L 222.92008 196.075868 
L 230.076794 192.13733 
L 231.508136 191.089255 
L 233.65515 189.177296 
L 235.802164 187.596701 
L 239.380521 185.08812 
L 243.674549 182.181142 
L 245.821563 180.527907 
L 249.39992 177.267995 
L 255.125291 172.009369 
L 258.703647 168.965818 
L 260.13499 167.925787 
L 261.566333 166.821132 
L 265.144689 164.590606 
L 267.291703 163.304583 
L 273.732745 159.121212 
L 275.87976 157.507878 
L 276.595431 156.991012 
L 278.026774 155.640779 
L 280.173788 153.917033 
L 282.320802 152.150162 
L 285.183487 150.251165 
L 286.61483 149.340419 
L 287.330501 148.646991 
L 290.193186 146.844905 
L 292.3402 145.122121 
L 296.634228 141.243395 
L 298.065571 139.549772 
L 300.928257 137.127015 
L 306.653627 132.340143 
L 308.800641 130.137941 
L 311.663327 127.600356 
L 314.526012 125.257053 
L 315.957355 123.902411 
L 323.829739 116.831118 
L 325.261082 115.453594 
L 328.123768 113.089515 
L 334.56481 108.566383 
L 335.996152 107.717891 
L 336.711824 107.154344 
L 340.29018 105.202311 
L 343.152866 103.270775 
L 344.584208 102.273863 
L 346.731222 101.020154 
L 348.878236 99.829534 
L 351.025251 98.158867 
L 353.172265 96.439045 
L 356.750621 93.24874 
L 360.328978 90.117923 
L 362.475992 88.284833 
L 363.907335 86.951834 
L 366.77002 84.67971 
L 371.779719 80.26225 
L 373.926733 78.495003 
L 376.073747 77.221932 
L 381.083447 74.772165 
L 382.51479 74.076098 
L 385.377475 72.293038 
L 386.808818 71.470346 
L 388.24016 70.476432 
L 390.387174 69.22552 
L 398.97523 64.537967 
L 400.406573 63.526729 
L 404.700601 61.030119 
L 411.141643 56.867229 
L 414.004329 54.744841 
L 414.72 54.144 
L 414.72 54.144 
" clip-path="url(#p11b82aa40f)" style="fill: none; stroke: #1f77b4; stroke-width: 1.5; stroke-linecap: square"/>
   </g>
   <g id="line2d_14">
    <path d="M 57.6 307.584 
L 414.72 54.144 
" clip-path="url(#p11b82aa40f)" style="fill: none; stroke-dasharray: 2,3.3; stroke-dashoffset: 0; stroke: #000000; stroke-width: 2"/>
   </g>
   <g id="patch_3">
    <path d="M 57.6 307.584 
L 57.6 41.472 
" style="fill: none; stroke: #000000; stroke-width: 0.8; stroke-linejoin: miter; stroke-linecap: square"/>
   </g>
   <g id="patch_4">
    <path d="M 414.72 307.584 
L 414.72 41.472 
" style="fill: none; stroke: #000000; stroke-width: 0.8; stroke-linejoin: miter; stroke-linecap: square"/>
   </g>
   <g id="patch_5">
    <path d="M 57.6 307.584 
L 414.72 307.584 
" style="fill: none; stroke: #000000; stroke-width: 0.8; stroke-linejoin: miter; stroke-linecap: square"/>
   </g>
   <g id="patch_6">
    <path d="M 57.6 41.472 
L 414.72 41.472 
" style="fill: none; stroke: #000000; stroke-width: 0.8; stroke-linejoin: miter; stroke-linecap: square"/>
   </g>
   <g id="text_15">
    <!-- ROC -->
    <g transform="translate(223.078125 35.472) scale(0.12 -0.12)">
     <defs>
      <path id="DejaVuSans-4f" d="M 2522 4238 
Q 1834 4238 1429 3725 
Q 1025 3213 1025 2328 
Q 1025 1447 1429 934 
Q 1834 422 2522 422 
Q 3209 422 3611 934 
Q 4013 1447 4013 2328 
Q 4013 3213 3611 3725 
Q 3209 4238 2522 4238 
z
M 2522 4750 
Q 3503 4750 4090 4092 
Q 4678 3434 4678 2328 
Q 4678 1225 4090 567 
Q 3503 -91 2522 -91 
Q 1538 -91 948 565 
Q 359 1222 359 2328 
Q 359 3434 948 4092 
Q 1538 4750 2522 4750 
z
" transform="scale(0.015625)"/>
      <path id="DejaVuSans-43" d="M 4122 4306 
L 4122 3641 
Q 3803 3938 3442 4084 
Q 3081 4231 2675 4231 
Q 1875 4231 1450 3742 
Q 1025 3253 1025 2328 
Q 1025 1406 1450 917 
Q 1875 428 2675 428 
Q 3081 428 3442 575 
Q 3803 722 4122 1019 
L 4122 359 
Q 3791 134 3420 21 
Q 3050 -91 2638 -91 
Q 1578 -91 968 557 
Q 359 1206 359 2328 
Q 359 3453 968 4101 
Q 1578 4750 2638 4750 
Q 3056 4750 3426 4639 
Q 3797 4528 4122 4306 
z
" transform="scale(0.015625)"/>
     </defs>
     <use xlink:href="#DejaVuSans-52"/>
     <use xlink:href="#DejaVuSans-4f" x="69.482422"/>
     <use xlink:href="#DejaVuSans-43" x="148.193359"/>
    </g>
   </g>
   <g id="legend_1">
    <g id="patch_7">
     <path d="M 247.746563 302.584 
L 407.72 302.584 
Q 409.72 302.584 409.72 300.584 
L 409.72 286.905875 
Q 409.72 284.905875 407.72 284.905875 
L 247.746563 284.905875 
Q 245.746563 284.905875 245.746563 286.905875 
L 245.746563 300.584 
Q 245.746563 302.584 247.746563 302.584 
z
" style="fill: #ffffff; opacity: 0.8; stroke: #cccccc; stroke-linejoin: miter"/>
    </g>
    <g id="line2d_15">
     <path d="M 249.746563 293.004312 
L 259.746562 293.004312 
L 269.746562 293.004312 
" style="fill: none; stroke: #1f77b4; stroke-width: 1.5; stroke-linecap: square"/>
    </g>
    <g id="text_16">
     <!-- auROC = 0.492 +/- 0.095 -->
     <g transform="translate(277.746562 296.504312) scale(0.1 -0.1)">
      <defs>
       <path id="DejaVuSans-3d" d="M 678 2906 
L 4684 2906 
L 4684 2381 
L 678 2381 
L 678 2906 
z
M 678 1631 
L 4684 1631 
L 4684 1100 
L 678 1100 
L 678 1631 
z
" transform="scale(0.015625)"/>
       <path id="DejaVuSans-39" d="M 703 97 
L 703 672 
Q 941 559 1184 500 
Q 1428 441 1663 441 
Q 2288 441 2617 861 
Q 2947 1281 2994 2138 
Q 2813 1869 2534 1725 
Q 2256 1581 1919 1581 
Q 1219 1581 811 2004 
Q 403 2428 403 3163 
Q 403 3881 828 4315 
Q 1253 4750 1959 4750 
Q 2769 4750 3195 4129 
Q 3622 3509 3622 2328 
Q 3622 1225 3098 567 
Q 2575 -91 1691 -91 
Q 1453 -91 1209 -44 
Q 966 3 703 97 
z
M 1959 2075 
Q 2384 2075 2632 2365 
Q 2881 2656 2881 3163 
Q 2881 3666 2632 3958 
Q 2384 4250 1959 4250 
Q 1534 4250 1286 3958 
Q 1038 3666 1038 3163 
Q 1038 2656 1286 2365 
Q 1534 2075 1959 2075 
z
" transform="scale(0.015625)"/>
       <path id="DejaVuSans-2b" d="M 2944 4013 
L 2944 2272 
L 4684 2272 
L 4684 1741 
L 2944 1741 
L 2944 0 
L 2419 0 
L 2419 1741 
L 678 1741 
L 678 2272 
L 2419 2272 
L 2419 4013 
L 2944 4013 
z
" transform="scale(0.015625)"/>
       <path id="DejaVuSans-2f" d="M 1625 4666 
L 2156 4666 
L 531 -594 
L 0 -594 
L 1625 4666 
z
" transform="scale(0.015625)"/>
       <path id="DejaVuSans-2d" d="M 313 2009 
L 1997 2009 
L 1997 1497 
L 313 1497 
L 313 2009 
z
" transform="scale(0.015625)"/>
       <path id="DejaVuSans-35" d="M 691 4666 
L 3169 4666 
L 3169 4134 
L 1269 4134 
L 1269 2991 
Q 1406 3038 1543 3061 
Q 1681 3084 1819 3084 
Q 2600 3084 3056 2656 
Q 3513 2228 3513 1497 
Q 3513 744 3044 326 
Q 2575 -91 1722 -91 
Q 1428 -91 1123 -41 
Q 819 9 494 109 
L 494 744 
Q 775 591 1075 516 
Q 1375 441 1709 441 
Q 2250 441 2565 725 
Q 2881 1009 2881 1497 
Q 2881 1984 2565 2268 
Q 2250 2553 1709 2553 
Q 1456 2553 1204 2497 
Q 953 2441 691 2322 
L 691 4666 
z
" transform="scale(0.015625)"/>
      </defs>
      <use xlink:href="#DejaVuSans-61"/>
      <use xlink:href="#DejaVuSans-75" x="61.279297"/>
      <use xlink:href="#DejaVuSans-52" x="124.658203"/>
      <use xlink:href="#DejaVuSans-4f" x="194.140625"/>
      <use xlink:href="#DejaVuSans-43" x="272.851562"/>
      <use xlink:href="#DejaVuSans-20" x="342.675781"/>
      <use xlink:href="#DejaVuSans-3d" x="374.462891"/>
      <use xlink:href="#DejaVuSans-20" x="458.251953"/>
      <use xlink:href="#DejaVuSans-30" x="490.039062"/>
      <use xlink:href="#DejaVuSans-2e" x="553.662109"/>
      <use xlink:href="#DejaVuSans-34" x="585.449219"/>
      <use xlink:href="#DejaVuSans-39" x="649.072266"/>
      <use xlink:href="#DejaVuSans-32" x="712.695312"/>
      <use xlink:href="#DejaVuSans-20" x="776.318359"/>
      <use xlink:href="#DejaVuSans-2b" x="808.105469"/>
      <use xlink:href="#DejaVuSans-2f" x="891.894531"/>
      <use xlink:href="#DejaVuSans-2d" x="925.585938"/>
      <use xlink:href="#DejaVuSans-20" x="961.669922"/>
      <use xlink:href="#DejaVuSans-30" x="993.457031"/>
      <use xlink:href="#DejaVuSans-2e" x="1057.080078"/>
      <use xlink:href="#DejaVuSans-30" x="1088.867188"/>
      <use xlink:href="#DejaVuSans-39" x="1152.490234"/>
      <use xlink:href="#DejaVuSans-35" x="1216.113281"/>
     </g>
    </g>
   </g>
  </g>
 </g>
 <defs>
  <clipPath id="p11b82aa40f">
   <rect x="57.6" y="41.472" width="357.12" height="266.112"/>
  </clipPath>
 </defs>
</svg>
